<svg width="40" height="40" viewBox="0 0 40 40" fill="none" xmlns="http://www.w3.org/2000/svg">
<path d="M15 5.5C15 4.66875 14.3313 4 13.5 4C12.6687 4 12 4.66875 12 5.5V8C9.79375 8 8 9.79375 8 12H5.5C4.66875 12 4 12.6687 4 13.5C4 14.3313 4.66875 15 5.5 15H8V18.5H5.5C4.66875 18.5 4 19.1687 4 20C4 20.8312 4.66875 21.5 5.5 21.5H8V25H5.5C4.66875 25 4 25.6688 4 26.5C4 27.3312 4.66875 28 5.5 28H8C8 30.2062 9.79375 32 12 32V34.5C12 35.3312 12.6687 36 13.5 36C14.3313 36 15 35.3312 15 34.5V32H18.5V34.5C18.5 35.3312 19.1687 36 20 36C20.8312 36 21.5 35.3312 21.5 34.5V32H25V34.5C25 35.3312 25.6688 36 26.5 36C27.3312 36 28 35.3312 28 34.5V32C30.2062 32 32 30.2062 32 28H34.5C35.3312 28 36 27.3312 36 26.5C36 25.6688 35.3312 25 34.5 25H32V21.5H34.5C35.3312 21.5 36 20.8312 36 20C36 19.1687 35.3312 18.5 34.5 18.5H32V15H34.5C35.3312 15 36 14.3313 36 13.5C36 12.6687 35.3312 12 34.5 12H32C32 9.79375 30.2062 8 28 8V5.5C28 4.66875 27.3312 4 26.5 4C25.6688 4 25 4.66875 25 5.5V8H21.5V5.5C21.5 4.66875 20.8312 4 20 4C19.1687 4 18.5 4.66875 18.5 5.5V8H15V5.5ZM25 14.75C25.6875 14.75 26.25 15.3125 26.25 16V24C26.25 24.6875 25.6875 25.25 25 25.25C24.3125 25.25 23.75 24.6875 23.75 24V16C23.75 15.3125 24.3125 14.75 25 14.75ZM18.1437 15.5L21.6437 23.5C21.9187 24.1313 21.6313 24.8687 21 25.1437C20.3687 25.4187 19.6313 25.1313 19.3563 24.5L19.025 23.75H14.975L14.6438 24.5C14.3688 25.1313 13.6313 25.4187 13 25.1437C12.3687 24.8687 12.0813 24.1313 12.3562 23.5L15.8562 15.5C16.0562 15.0437 16.5063 14.75 17 14.75C17.4937 14.75 17.9437 15.0437 18.1437 15.5ZM17 19.1187L16.0688 21.25H17.9312L17 19.1187Z" fill="white"/>
<path d="M15 5.5C15 4.66875 14.3313 4 13.5 4C12.6687 4 12 4.66875 12 5.5V8C9.79375 8 8 9.79375 8 12H5.5C4.66875 12 4 12.6687 4 13.5C4 14.3313 4.66875 15 5.5 15H8V18.5H5.5C4.66875 18.5 4 19.1687 4 20C4 20.8312 4.66875 21.5 5.5 21.5H8V25H5.5C4.66875 25 4 25.6688 4 26.5C4 27.3312 4.66875 28 5.5 28H8C8 30.2062 9.79375 32 12 32V34.5C12 35.3312 12.6687 36 13.5 36C14.3313 36 15 35.3312 15 34.5V32H18.5V34.5C18.5 35.3312 19.1687 36 20 36C20.8312 36 21.5 35.3312 21.5 34.5V32H25V34.5C25 35.3312 25.6688 36 26.5 36C27.3312 36 28 35.3312 28 34.5V32C30.2062 32 32 30.2062 32 28H34.5C35.3312 28 36 27.3312 36 26.5C36 25.6688 35.3312 25 34.5 25H32V21.5H34.5C35.3312 21.5 36 20.8312 36 20C36 19.1687 35.3312 18.5 34.5 18.5H32V15H34.5C35.3312 15 36 14.3313 36 13.5C36 12.6687 35.3312 12 34.5 12H32C32 9.79375 30.2062 8 28 8V5.5C28 4.66875 27.3312 4 26.5 4C25.6688 4 25 4.66875 25 5.5V8H21.5V5.5C21.5 4.66875 20.8312 4 20 4C19.1687 4 18.5 4.66875 18.5 5.5V8H15V5.5ZM25 14.75C25.6875 14.75 26.25 15.3125 26.25 16V24C26.25 24.6875 25.6875 25.25 25 25.25C24.3125 25.25 23.75 24.6875 23.75 24V16C23.75 15.3125 24.3125 14.75 25 14.75ZM18.1437 15.5L21.6437 23.5C21.9187 24.1313 21.6313 24.8687 21 25.1437C20.3687 25.4187 19.6313 25.1313 19.3563 24.5L19.025 23.75H14.975L14.6438 24.5C14.3688 25.1313 13.6313 25.4187 13 25.1437C12.3687 24.8687 12.0813 24.1313 12.3562 23.5L15.8562 15.5C16.0562 15.0437 16.5063 14.75 17 14.75C17.4937 14.75 17.9437 15.0437 18.1437 15.5ZM17 19.1187L16.0688 21.25H17.9312L17 19.1187Z" fill="white"/>
</svg>
