<svg width="40" height="40" viewBox="0 0 40 40" fill="none" xmlns="http://www.w3.org/2000/svg">
<path d="M33.4125 11.4135C34.1937 10.6322 34.1937 9.36345 33.4125 8.5822L29.4125 4.5822C28.8375 4.0072 27.9813 3.83845 27.2313 4.15095C26.4813 4.46345 26 5.1947 26 6.00095V8.00095H16C9.375 8.00095 4 13.376 4 20.001C4 21.1072 4.89375 22.001 6 22.001C7.10625 22.001 8 21.1072 8 20.001C8 15.5822 11.5813 12.001 16 12.001H26V14.001C26 14.8072 26.4875 15.5385 27.2375 15.851C27.9875 16.1635 28.8438 15.9885 29.4188 15.4197L33.4188 11.4197L33.4125 11.4135ZM6.5875 28.5885C5.80625 29.3697 5.80625 30.6385 6.5875 31.4197L10.5875 35.4197C11.1625 35.9947 12.0188 36.1635 12.7688 35.851C13.5188 35.5385 14 34.8072 14 34.001V32.001H24C30.625 32.001 36 26.626 36 20.001C36 18.8947 35.1063 18.001 34 18.001C32.8937 18.001 32 18.8947 32 20.001C32 24.4197 28.4188 28.001 24 28.001H14V26.001C14 25.1947 13.5125 24.4635 12.7625 24.151C12.0125 23.8385 11.1562 24.0135 10.5813 24.5822L6.58125 28.5822L6.5875 28.5885Z" fill="black"/>
<path d="M33.4125 11.4135C34.1937 10.6322 34.1937 9.36345 33.4125 8.5822L29.4125 4.5822C28.8375 4.0072 27.9813 3.83845 27.2313 4.15095C26.4813 4.46345 26 5.1947 26 6.00095V8.00095H16C9.375 8.00095 4 13.376 4 20.001C4 21.1072 4.89375 22.001 6 22.001C7.10625 22.001 8 21.1072 8 20.001C8 15.5822 11.5813 12.001 16 12.001H26V14.001C26 14.8072 26.4875 15.5385 27.2375 15.851C27.9875 16.1635 28.8438 15.9885 29.4188 15.4197L33.4188 11.4197L33.4125 11.4135ZM6.5875 28.5885C5.80625 29.3697 5.80625 30.6385 6.5875 31.4197L10.5875 35.4197C11.1625 35.9947 12.0188 36.1635 12.7688 35.851C13.5188 35.5385 14 34.8072 14 34.001V32.001H24C30.625 32.001 36 26.626 36 20.001C36 18.8947 35.1063 18.001 34 18.001C32.8937 18.001 32 18.8947 32 20.001C32 24.4197 28.4188 28.001 24 28.001H14V26.001C14 25.1947 13.5125 24.4635 12.7625 24.151C12.0125 23.8385 11.1562 24.0135 10.5813 24.5822L6.58125 28.5822L6.5875 28.5885Z" fill="white"/>
</svg>
