<svg width="40" height="40" viewBox="0 0 40 40" fill="none" xmlns="http://www.w3.org/2000/svg">
<path d="M23.0324 28.8826C20.4371 33.3047 17.0704 35.9475 14.2934 35.2021C12.5517 34.7349 11.2786 32.9889 10.5576 30.4888C10.4798 30.2177 10.4135 29.9337 10.3471 29.6438C10.2231 29.0916 10.1164 28.5192 10.0415 27.9136C10.0083 27.6397 9.98812 27.3542 9.96505 27.0702C9.92035 26.5165 9.89151 25.9499 9.88719 25.3645C9.88719 24.9536 9.8944 24.534 9.9117 24.1087C9.94342 23.3214 10.0107 22.5149 10.1136 21.6893C10.1611 21.3029 10.2102 20.915 10.275 20.5228C10.4423 19.4991 10.6643 18.4567 10.9455 17.4085C11.8639 13.9769 13.2899 10.9202 14.9278 8.54841C14.386 8.32635 13.8324 8.13382 13.2697 7.97168C11.6491 10.4228 10.2664 13.491 9.33208 16.9774C9.1879 17.4921 9.07544 18.0025 8.96298 18.51C8.87502 18.908 8.80005 19.3016 8.72796 19.6938C8.57368 20.5286 8.43959 21.3548 8.35741 22.1593C8.31271 22.5774 8.28531 22.9869 8.25792 23.3949C8.18125 24.5089 8.17499 25.6267 8.23918 26.7414C8.25648 27.0356 8.27955 27.3239 8.30838 27.6065C8.36894 28.2236 8.45449 28.8172 8.56503 29.3872C8.61982 29.6756 8.67605 29.9639 8.74382 30.2523C9.58152 33.704 11.3391 36.1451 13.8623 36.8213C16.2918 37.4715 18.9289 36.357 21.3123 33.9751C22.8262 32.454 24.232 30.4109 25.4215 27.9958C24.6515 28.313 23.8585 28.6129 23.0324 28.8826Z" fill="white"/>
<path d="M22.4766 9.17987C23.1384 9.69028 23.7973 10.2252 24.4461 10.8091C29.5747 10.8481 33.5426 12.4413 34.2866 15.2154C34.7523 16.9586 33.8771 18.9339 32.0719 20.8082C32.3358 21.3763 32.5636 21.9386 32.7669 22.4952C32.8592 22.4072 32.9644 22.3222 33.0553 22.2328C35.4357 19.8494 36.5503 17.2065 35.8986 14.7756C34.8345 10.7976 29.3873 8.71704 22.4766 9.17987Z" fill="white"/>
<path d="M24.3112 25.7414C23.9522 25.8856 23.9522 25.8856 23.5787 26.0297C22.6084 26.396 21.5948 26.7262 20.5509 27.0059C17.1193 27.9243 13.7599 28.2184 10.8906 27.9863C10.9685 28.5687 11.0788 29.1463 11.2208 29.7165C14.1549 29.8939 17.5014 29.5593 20.9863 28.625C21.5025 28.4809 22.0043 28.3367 22.5017 28.1737C22.891 28.0512 23.2687 27.92 23.6451 27.7873C24.4453 27.499 25.2195 27.1991 25.9592 26.8718C26.3456 26.7002 26.719 26.5229 27.0867 26.3412C28.0882 25.8499 29.058 25.2966 29.9906 24.6845C29.8287 24.1227 29.6361 23.5701 29.4138 23.0293C28.9568 23.3451 28.4795 23.6536 27.972 23.9506C27.6173 24.1583 27.2511 24.3601 26.8733 24.5576C26.1683 24.921 25.0768 25.4184 24.3112 25.7414Z" fill="white"/>
<path d="M25.2436 12.709C24.8673 12.3312 24.4838 11.9736 24.1002 11.6218C23.7989 11.3464 23.4961 11.0855 23.1919 10.8259C22.546 10.2752 21.8942 9.75034 21.2425 9.27309C20.9023 9.02509 20.562 8.79584 20.2217 8.56803C19.2949 7.94351 18.3299 7.37769 17.3323 6.87388C17.0699 6.74316 16.8079 6.6182 16.5465 6.49901C15.9813 6.2438 15.4248 6.0232 14.8754 5.83144C14.5957 5.73339 14.316 5.63823 14.042 5.55749C10.6335 4.55686 7.64031 4.8582 5.79476 6.71096C2.88226 9.62201 3.80359 15.3807 7.65328 21.1365C7.7643 20.3074 7.89839 19.4697 8.07862 18.6162C5.54821 14.1551 4.94697 9.92336 6.97562 7.89182C8.25164 6.61579 10.4 6.38654 12.9246 7.01807C13.2 7.08583 13.4797 7.16225 13.7623 7.25741C14.3234 7.42816 14.8753 7.6274 15.4161 7.85433C15.6699 7.96246 15.928 8.08646 16.1846 8.20902C16.6864 8.44692 17.1939 8.70645 17.7014 8.99482C18.059 9.19811 18.4223 9.41583 18.777 9.64364C19.4431 10.0647 20.1078 10.526 20.7711 11.0278C21.0825 11.2628 21.3925 11.4993 21.6996 11.7487C22.5225 12.4216 23.3112 13.1352 24.0628 13.8869C26.5744 16.4029 28.5094 19.1655 29.7465 21.7694C29.869 22.0261 29.993 22.2842 30.1011 22.5379C30.3308 23.0811 30.5329 23.6354 30.7067 24.1989C30.7932 24.4758 30.874 24.7511 30.9417 25.0193C31.3671 26.7308 31.3887 28.2606 30.9691 29.4717C30.6385 29.4155 30.2992 29.4385 29.9792 29.5387C29.6591 29.639 29.3674 29.8137 29.1279 30.0484C28.7694 30.4617 28.5808 30.9955 28.6002 31.5422C28.6196 32.089 28.8455 32.6081 29.2323 32.9949C29.6192 33.3818 30.1383 33.6077 30.685 33.627C31.2318 33.6464 31.7656 33.4579 32.1788 33.0993C32.5265 32.746 32.7398 32.2824 32.7819 31.7885C32.824 31.2946 32.6923 30.8016 32.4095 30.3945C33.1477 28.6383 33.1189 26.392 32.3937 23.9192C32.3129 23.6467 32.2178 23.3684 32.1197 23.0902C31.9279 22.5394 31.7059 21.9799 31.4493 21.4133C31.331 21.1523 31.207 20.8914 31.0758 20.6275C29.7609 17.9918 27.7971 15.261 25.2436 12.709Z" fill="white"/>
</svg>
