<svg width="40" height="40" viewBox="0 0 40 40" fill="none" xmlns="http://www.w3.org/2000/svg">
<path d="M21.5 10.6625C22.6812 10.1 23.5 8.89375 23.5 7.5C23.5 5.56875 21.9312 4 20 4C18.0687 4 16.5 5.56875 16.5 7.5C16.5 8.89375 17.3187 10.1 18.5 10.6625V16.8375C18.325 16.9187 18.1562 17.0188 18 17.1313L12.9937 14.2688C13.0937 12.9688 12.4562 11.6687 11.25 10.9688C9.57497 10 7.43746 10.575 6.46872 12.25C5.49997 13.925 6.07497 16.0625 7.74997 17.0312C7.83122 17.0813 7.91246 17.125 7.99996 17.1625V22.8375C7.91872 22.875 7.83122 22.9188 7.74997 22.9688C6.07497 23.9375 5.49997 26.075 6.46872 27.75C7.43746 29.425 9.57497 30 11.25 29.0312C12.4562 28.3375 13.0875 27.0312 12.9875 25.7313L16.1437 23.925C15.425 23.225 14.9 22.325 14.6562 21.3188L11.5 23.1313C11.3375 23.0188 11.175 22.925 11 22.8375V17.1625C11.175 17.0813 11.3437 16.9812 11.5 16.8687L16.5062 19.7313C16.5 19.8188 16.4937 19.9062 16.4937 20C16.4937 21.3937 17.3125 22.6 18.4937 23.1625V29.3375C17.3125 29.9 16.4937 31.1063 16.4937 32.5C16.4937 34.4312 18.0625 36 19.9937 36C21.925 36 23.4937 34.4312 23.4937 32.5C23.4937 31.1063 22.675 29.9 21.4937 29.3375V23.1625C21.6687 23.0813 21.8375 22.9812 21.9937 22.8687L27 25.7313C26.9 27.0312 27.5375 28.3312 28.7375 29.0312C30.4125 30 32.55 29.425 33.5187 27.75C34.4875 26.075 33.9125 23.9375 32.2375 22.9688C32.1562 22.9188 32.0687 22.875 31.9875 22.8375V17.1625C32.075 17.125 32.1562 17.0813 32.2375 17.0312C33.9125 16.0625 34.4875 13.925 33.5187 12.25C32.55 10.575 30.425 10 28.75 10.9688C27.5437 11.6625 26.9125 12.9688 27.0125 14.2688L23.85 16.075C24.5687 16.775 25.0937 17.675 25.3375 18.6812L28.5 16.8687C28.6625 16.9812 28.825 17.075 29 17.1625V22.8375C28.825 22.9187 28.6562 23.0187 28.5 23.125L23.4937 20.2625C23.5 20.175 23.5062 20.0875 23.5062 19.9937C23.5062 18.6 22.6875 17.3937 21.5062 16.8312V10.6562L21.5 10.6625Z" fill="white"/>
<path d="M21.5 10.6625C22.6812 10.1 23.5 8.89375 23.5 7.5C23.5 5.56875 21.9312 4 20 4C18.0687 4 16.5 5.56875 16.5 7.5C16.5 8.89375 17.3187 10.1 18.5 10.6625V16.8375C18.325 16.9187 18.1562 17.0188 18 17.1313L12.9937 14.2688C13.0937 12.9688 12.4562 11.6687 11.25 10.9688C9.57497 10 7.43746 10.575 6.46872 12.25C5.49997 13.925 6.07497 16.0625 7.74997 17.0312C7.83122 17.0813 7.91246 17.125 7.99996 17.1625V22.8375C7.91872 22.875 7.83122 22.9188 7.74997 22.9688C6.07497 23.9375 5.49997 26.075 6.46872 27.75C7.43746 29.425 9.57497 30 11.25 29.0312C12.4562 28.3375 13.0875 27.0312 12.9875 25.7313L16.1437 23.925C15.425 23.225 14.9 22.325 14.6562 21.3188L11.5 23.1313C11.3375 23.0188 11.175 22.925 11 22.8375V17.1625C11.175 17.0813 11.3437 16.9812 11.5 16.8687L16.5062 19.7313C16.5 19.8188 16.4937 19.9062 16.4937 20C16.4937 21.3937 17.3125 22.6 18.4937 23.1625V29.3375C17.3125 29.9 16.4937 31.1063 16.4937 32.5C16.4937 34.4312 18.0625 36 19.9937 36C21.925 36 23.4937 34.4312 23.4937 32.5C23.4937 31.1063 22.675 29.9 21.4937 29.3375V23.1625C21.6687 23.0813 21.8375 22.9812 21.9937 22.8687L27 25.7313C26.9 27.0312 27.5375 28.3312 28.7375 29.0312C30.4125 30 32.55 29.425 33.5187 27.75C34.4875 26.075 33.9125 23.9375 32.2375 22.9688C32.1562 22.9188 32.0687 22.875 31.9875 22.8375V17.1625C32.075 17.125 32.1562 17.0813 32.2375 17.0312C33.9125 16.0625 34.4875 13.925 33.5187 12.25C32.55 10.575 30.425 10 28.75 10.9688C27.5437 11.6625 26.9125 12.9688 27.0125 14.2688L23.85 16.075C24.5687 16.775 25.0937 17.675 25.3375 18.6812L28.5 16.8687C28.6625 16.9812 28.825 17.075 29 17.1625V22.8375C28.825 22.9187 28.6562 23.0187 28.5 23.125L23.4937 20.2625C23.5 20.175 23.5062 20.0875 23.5062 19.9937C23.5062 18.6 22.6875 17.3937 21.5062 16.8312V10.6562L21.5 10.6625Z" fill="white"/>
</svg>
