<svg width="40" height="40" viewBox="0 0 40 40" fill="none" xmlns="http://www.w3.org/2000/svg">
<path d="M15 4C13.0688 4 11.5 5.56875 11.5 7.5V9C8.7375 9 6.5 11.2375 6.5 14C6.5 14.9375 6.75625 15.8125 7.2 16.5562C5.59375 17.3875 4.5 19.0625 4.5 21C4.5 22.6375 5.2875 24.0875 6.5 25C5.875 25.8375 5.5 26.875 5.5 28C5.5 30.7625 7.7375 33 10.5 33C10.5437 33 10.5813 33 10.625 33C11.0687 34.725 12.6375 36 14.5 36H16.5C17.6062 36 18.5 35.1063 18.5 34V23.25H15C14.5875 23.25 14.25 23.5875 14.25 24V24.275C15.2812 24.75 16 25.7938 16 27C16 28.6562 14.6562 30 13 30C11.3438 30 10 28.6562 10 27C10 25.7875 10.7188 24.7437 11.75 24.275V24C11.75 22.2062 13.2063 20.75 15 20.75H18.5V16.25H15.725C15.25 17.2812 14.2063 18 13 18C11.3438 18 10 16.6562 10 15C10 13.3438 11.3438 12 13 12C14.2125 12 15.2563 12.7188 15.725 13.75H18.5V6C18.5 4.89375 17.6062 4 16.5 4H15ZM21.5 16.25V28.75H25C25.4125 28.75 25.75 28.4125 25.75 28V27.725C24.7188 27.25 24 26.2062 24 25C24 23.3438 25.3438 22 27 22C28.6562 22 30 23.3438 30 25C30 26.2125 29.2812 27.2563 28.25 27.725V28C28.25 29.7938 26.7938 31.25 25 31.25H21.5V34C21.5 35.1063 22.3937 36 23.5 36H25.5C27.3625 36 28.9312 34.725 29.375 33C29.4188 33 29.4562 33 29.5 33C32.2625 33 34.5 30.7625 34.5 28C34.5 26.875 34.125 25.8375 33.5 25C34.7125 24.0875 35.5 22.6375 35.5 21C35.5 19.0688 34.4 17.3875 32.8 16.5562C33.2437 15.8062 33.5 14.9312 33.5 14C33.5 11.2375 31.2625 9 28.5 9V7.5C28.5 5.56875 26.9312 4 25 4H23.5C22.3937 4 21.5 4.89375 21.5 6V13.75H24.275C24.75 12.7188 25.7938 12 27 12C28.6562 12 30 13.3438 30 15C30 16.6562 28.6562 18 27 18C25.7875 18 24.7437 17.2812 24.275 16.25H21.5ZM27 14C26.45 14 26 14.45 26 15C26 15.55 26.45 16 27 16C27.55 16 28 15.55 28 15C28 14.45 27.55 14 27 14ZM26 25C26 25.55 26.45 26 27 26C27.55 26 28 25.55 28 25C28 24.45 27.55 24 27 24C26.45 24 26 24.45 26 25ZM12 27C12 27.55 12.45 28 13 28C13.55 28 14 27.55 14 27C14 26.45 13.55 26 13 26C12.45 26 12 26.45 12 27ZM12 15C12 15.55 12.45 16 13 16C13.55 16 14 15.55 14 15C14 14.45 13.55 14 13 14C12.45 14 12 14.45 12 15Z" fill="white"/>
<path d="M15 4C13.0688 4 11.5 5.56875 11.5 7.5V9C8.7375 9 6.5 11.2375 6.5 14C6.5 14.9375 6.75625 15.8125 7.2 16.5562C5.59375 17.3875 4.5 19.0625 4.5 21C4.5 22.6375 5.2875 24.0875 6.5 25C5.875 25.8375 5.5 26.875 5.5 28C5.5 30.7625 7.7375 33 10.5 33C10.5437 33 10.5813 33 10.625 33C11.0687 34.725 12.6375 36 14.5 36H16.5C17.6062 36 18.5 35.1063 18.5 34V23.25H15C14.5875 23.25 14.25 23.5875 14.25 24V24.275C15.2812 24.75 16 25.7938 16 27C16 28.6562 14.6562 30 13 30C11.3438 30 10 28.6562 10 27C10 25.7875 10.7188 24.7437 11.75 24.275V24C11.75 22.2062 13.2063 20.75 15 20.75H18.5V16.25H15.725C15.25 17.2812 14.2063 18 13 18C11.3438 18 10 16.6562 10 15C10 13.3438 11.3438 12 13 12C14.2125 12 15.2563 12.7188 15.725 13.75H18.5V6C18.5 4.89375 17.6062 4 16.5 4H15ZM21.5 16.25V28.75H25C25.4125 28.75 25.75 28.4125 25.75 28V27.725C24.7188 27.25 24 26.2062 24 25C24 23.3438 25.3438 22 27 22C28.6562 22 30 23.3438 30 25C30 26.2125 29.2812 27.2563 28.25 27.725V28C28.25 29.7938 26.7938 31.25 25 31.25H21.5V34C21.5 35.1063 22.3937 36 23.5 36H25.5C27.3625 36 28.9312 34.725 29.375 33C29.4188 33 29.4562 33 29.5 33C32.2625 33 34.5 30.7625 34.5 28C34.5 26.875 34.125 25.8375 33.5 25C34.7125 24.0875 35.5 22.6375 35.5 21C35.5 19.0688 34.4 17.3875 32.8 16.5562C33.2437 15.8062 33.5 14.9312 33.5 14C33.5 11.2375 31.2625 9 28.5 9V7.5C28.5 5.56875 26.9312 4 25 4H23.5C22.3937 4 21.5 4.89375 21.5 6V13.75H24.275C24.75 12.7188 25.7938 12 27 12C28.6562 12 30 13.3438 30 15C30 16.6562 28.6562 18 27 18C25.7875 18 24.7437 17.2812 24.275 16.25H21.5ZM27 14C26.45 14 26 14.45 26 15C26 15.55 26.45 16 27 16C27.55 16 28 15.55 28 15C28 14.45 27.55 14 27 14ZM26 25C26 25.55 26.45 26 27 26C27.55 26 28 25.55 28 25C28 24.45 27.55 24 27 24C26.45 24 26 24.45 26 25ZM12 27C12 27.55 12.45 28 13 28C13.55 28 14 27.55 14 27C14 26.45 13.55 26 13 26C12.45 26 12 26.45 12 27ZM12 15C12 15.55 12.45 16 13 16C13.55 16 14 15.55 14 15C14 14.45 13.55 14 13 14C12.45 14 12 14.45 12 15Z" fill="white"/>
</svg>
