<svg width="28" height="28" viewBox="0 0 28 28" fill="none" xmlns="http://www.w3.org/2000/svg">
<path d="M19.2238 4.1998H19.6001C21.1445 4.1998 22.4001 5.45543 22.4001 6.9998V22.3998C22.4001 23.9442 21.1445 25.1998 19.6001 25.1998H8.4001C6.85572 25.1998 5.6001 23.9442 5.6001 22.3998V6.9998C5.6001 5.45543 6.85572 4.1998 8.4001 4.1998H8.77635C9.2576 3.36418 10.1632 2.7998 11.2001 2.7998H16.8001C17.837 2.7998 18.7426 3.36418 19.2238 4.1998ZM16.4501 7.69981C17.032 7.69981 17.5001 7.23168 17.5001 6.64981C17.5001 6.06793 17.032 5.5998 16.4501 5.5998H11.5501C10.9682 5.5998 10.5001 6.06793 10.5001 6.64981C10.5001 7.23168 10.9682 7.69981 11.5501 7.69981H16.4501ZM12.3901 11.2479C12.0313 10.9548 11.502 11.0117 11.2088 11.3704L9.88322 13.0111L9.44572 12.4642C9.15697 12.1011 8.6276 12.0442 8.26447 12.3329C7.90135 12.6217 7.84447 13.1511 8.13322 13.5142L9.2226 14.8748C9.3801 15.0717 9.62072 15.1898 9.87447 15.1898C10.1282 15.1898 10.3688 15.0761 10.5307 14.8792L12.5126 12.4292C12.8057 12.0704 12.7488 11.5411 12.3901 11.2479ZM13.3001 13.9998C13.3001 14.5817 13.7682 15.0498 14.3501 15.0498H18.5501C19.132 15.0498 19.6001 14.5817 19.6001 13.9998C19.6001 13.4179 19.132 12.9498 18.5501 12.9498H14.3501C13.7682 12.9498 13.3001 13.4179 13.3001 13.9998ZM13.3001 19.5998C13.3001 20.1817 13.7682 20.6498 14.3501 20.6498H18.5501C19.132 20.6498 19.6001 20.1817 19.6001 19.5998C19.6001 19.0179 19.132 18.5498 18.5501 18.5498H14.3501C13.7682 18.5498 13.3001 19.0179 13.3001 19.5998ZM9.8001 20.9998C10.5745 20.9998 11.2001 20.3742 11.2001 19.5998C11.2001 18.8254 10.5745 18.1998 9.8001 18.1998C9.02572 18.1998 8.4001 18.8254 8.4001 19.5998C8.4001 20.3742 9.02572 20.9998 9.8001 20.9998Z" fill="white"/>
</svg>
