<svg width="28" height="28" viewBox="0 0 28 28" fill="none" xmlns="http://www.w3.org/2000/svg">
<path d="M5.6001 5.5998C5.6001 4.05543 6.85572 2.7998 8.4001 2.7998H14.9407C15.6845 2.7998 16.3976 3.09293 16.9226 3.61793L21.582 8.28168C22.107 8.80668 22.4001 9.51981 22.4001 10.2636V22.3998C22.4001 23.9442 21.1445 25.1998 19.6001 25.1998H8.4001C6.85572 25.1998 5.6001 23.9442 5.6001 22.3998V5.5998ZM14.7001 5.35918V9.44981C14.7001 10.0317 15.1682 10.4998 15.7501 10.4998H19.8407L14.7001 5.35918ZM17.5001 16.7998C17.5001 14.4811 15.6188 12.5998 13.3001 12.5998C10.9813 12.5998 9.1001 14.4811 9.1001 16.7998C9.1001 19.1186 10.9813 20.9998 13.3001 20.9998C14.0788 20.9998 14.8051 20.7898 15.4307 20.4223L17.1063 22.0979C17.5176 22.5092 18.1826 22.5092 18.5895 22.0979C18.9963 21.6867 19.0007 21.0217 18.5895 20.6148L16.9138 18.9392C17.2857 18.3136 17.4957 17.5829 17.4957 16.7998H17.5001ZM13.3001 14.6998C14.4595 14.6998 15.4001 15.6404 15.4001 16.7998C15.4001 17.9592 14.4595 18.8998 13.3001 18.8998C12.1407 18.8998 11.2001 17.9592 11.2001 16.7998C11.2001 15.6404 12.1407 14.6998 13.3001 14.6998Z" fill="white"/>
</svg>
