<svg width="28" height="28" viewBox="0 0 28 28" fill="none" xmlns="http://www.w3.org/2000/svg">
<path d="M19.0224 2.36722C19.5431 2.74347 19.7356 3.42597 19.4993 4.02097L16.0693 12.6003H22.3999C22.9906 12.6003 23.5156 12.9678 23.7168 13.5235C23.9181 14.0791 23.7474 14.7003 23.2968 15.0766L10.6968 25.5766C10.2024 25.9878 9.49806 26.0097 8.97744 25.6335C8.45682 25.2572 8.26432 24.5747 8.50057 23.9797L11.9306 15.4003H5.59994C5.00931 15.4003 4.48431 15.0328 4.28306 14.4772C4.08181 13.9216 4.25244 13.3003 4.70306 12.9241L17.3031 2.4241C17.7974 2.01285 18.5018 1.99097 19.0224 2.36722Z" fill="white"/>
<path d="M19.0224 2.36722C19.5431 2.74347 19.7356 3.42597 19.4993 4.02097L16.0693 12.6003H22.3999C22.9906 12.6003 23.5156 12.9678 23.7168 13.5235C23.9181 14.0791 23.7474 14.7003 23.2968 15.0766L10.6968 25.5766C10.2024 25.9878 9.49806 26.0097 8.97744 25.6335C8.45682 25.2572 8.26432 24.5747 8.50057 23.9797L11.9306 15.4003H5.59994C5.00931 15.4003 4.48431 15.0328 4.28306 14.4772C4.08181 13.9216 4.25244 13.3003 4.70306 12.9241L17.3031 2.4241C17.7974 2.01285 18.5018 1.99097 19.0224 2.36722Z" fill="white" fill-opacity="0.960784"/>
</svg>
