<svg width="40" height="40" viewBox="0 0 40 40" fill="none" xmlns="http://www.w3.org/2000/svg">
<path d="M23.2254 5.41925C23.9629 5.988 24.2067 6.99425 23.8129 7.838L19.1254 18.0005H26.0004C26.8442 18.0005 27.6004 18.5318 27.8879 19.3318C28.1754 20.1318 27.9192 21.0193 27.2629 21.5505L11.2629 34.5505C10.5379 35.138 9.50666 35.1505 8.77541 34.5755C8.04416 34.0005 7.79416 33.0005 8.18791 32.1568L12.8754 22.0005H6.00041C5.15666 22.0005 4.40041 21.4693 4.11291 20.6693C3.82541 19.8693 4.08166 18.9818 4.73791 18.4505L20.7379 5.4505C21.4629 4.863 22.4942 4.8505 23.2254 5.4255V5.41925ZM31.0004 22.0005C31.5692 22.0005 32.0879 22.3193 32.3442 22.8318L37.8442 33.8318C38.2129 34.5755 37.9129 35.4755 37.1754 35.8443C36.4379 36.213 35.5317 35.913 35.1629 35.1755L34.3254 33.5068H27.6817L26.8442 35.1755C26.4754 35.9193 25.5754 36.2193 24.8317 35.8443C24.0879 35.4693 23.7879 34.5755 24.1629 33.8318L29.6629 22.8318C29.9192 22.3255 30.4379 22.0005 31.0067 22.0005H31.0004ZM29.1754 30.5005H32.8192L30.9942 26.8568L29.1692 30.5005H29.1754Z" fill="black"/>
<path d="M23.2254 5.41925C23.9629 5.988 24.2067 6.99425 23.8129 7.838L19.1254 18.0005H26.0004C26.8442 18.0005 27.6004 18.5318 27.8879 19.3318C28.1754 20.1318 27.9192 21.0193 27.2629 21.5505L11.2629 34.5505C10.5379 35.138 9.50666 35.1505 8.77541 34.5755C8.04416 34.0005 7.79416 33.0005 8.18791 32.1568L12.8754 22.0005H6.00041C5.15666 22.0005 4.40041 21.4693 4.11291 20.6693C3.82541 19.8693 4.08166 18.9818 4.73791 18.4505L20.7379 5.4505C21.4629 4.863 22.4942 4.8505 23.2254 5.4255V5.41925ZM31.0004 22.0005C31.5692 22.0005 32.0879 22.3193 32.3442 22.8318L37.8442 33.8318C38.2129 34.5755 37.9129 35.4755 37.1754 35.8443C36.4379 36.213 35.5317 35.913 35.1629 35.1755L34.3254 33.5068H27.6817L26.8442 35.1755C26.4754 35.9193 25.5754 36.2193 24.8317 35.8443C24.0879 35.4693 23.7879 34.5755 24.1629 33.8318L29.6629 22.8318C29.9192 22.3255 30.4379 22.0005 31.0067 22.0005H31.0004ZM29.1754 30.5005H32.8192L30.9942 26.8568L29.1692 30.5005H29.1754Z" fill="white"/>
</svg>
