<svg width="40" height="40" viewBox="0 0 40 40" fill="none" xmlns="http://www.w3.org/2000/svg">
<path d="M2.83056 18.3996C3.71181 17.7371 4.96181 17.9121 5.63056 18.7934C5.64306 18.8059 7.03056 20.6184 9.45556 22.3809C11.9868 24.2184 15.5806 25.9996 20.0306 25.9996C24.4806 25.9996 28.0743 24.2246 30.6056 22.3809C33.0431 20.6121 34.4306 18.7934 34.4306 18.7934C35.0931 17.9121 36.3431 17.7371 37.2306 18.3996C38.1181 19.0621 38.2931 20.3121 37.6306 21.1996C36.6243 22.4246 35.5306 23.5309 34.3306 24.5371L36.8368 28.8809C37.2493 29.5996 37.0056 30.5184 36.2868 30.9309C35.5681 31.3434 34.6493 31.0996 34.2368 30.3809L31.9056 26.3371C30.8306 27.0371 29.6118 27.7184 28.2493 28.2996L29.4806 32.8934C29.6931 33.6934 29.2181 34.5184 28.4181 34.7309C27.6181 34.9434 26.7993 34.4684 26.5806 33.6684L25.4056 29.2809C24.1931 29.6059 22.8993 29.8371 21.5306 29.9371V34.4996C21.5306 35.3246 20.8556 35.9996 20.0306 35.9996C19.1993 35.9996 18.5306 35.3309 18.5306 34.4996V29.9371C17.1618 29.8371 15.8681 29.6059 14.6556 29.2809L13.4806 33.6684C13.2681 34.4684 12.4431 34.9434 11.6431 34.7309C10.8431 34.5184 10.3681 33.6934 10.5806 32.8934L11.8118 28.2996C10.4556 27.7184 9.23056 27.0434 8.16181 26.3434L5.83056 30.3809C5.41806 31.0996 4.49931 31.3434 3.78056 30.9309C3.06181 30.5184 2.81806 29.5996 3.23056 28.8809L5.73056 24.5434C4.53056 23.5309 3.44306 22.4246 2.43056 21.1996C1.76806 20.3121 1.94931 19.0621 2.83056 18.3996Z" fill="black"/>
<path d="M2.83056 18.3996C3.71181 17.7371 4.96181 17.9121 5.63056 18.7934C5.64306 18.8059 7.03056 20.6184 9.45556 22.3809C11.9868 24.2184 15.5806 25.9996 20.0306 25.9996C24.4806 25.9996 28.0743 24.2246 30.6056 22.3809C33.0431 20.6121 34.4306 18.7934 34.4306 18.7934C35.0931 17.9121 36.3431 17.7371 37.2306 18.3996C38.1181 19.0621 38.2931 20.3121 37.6306 21.1996C36.6243 22.4246 35.5306 23.5309 34.3306 24.5371L36.8368 28.8809C37.2493 29.5996 37.0056 30.5184 36.2868 30.9309C35.5681 31.3434 34.6493 31.0996 34.2368 30.3809L31.9056 26.3371C30.8306 27.0371 29.6118 27.7184 28.2493 28.2996L29.4806 32.8934C29.6931 33.6934 29.2181 34.5184 28.4181 34.7309C27.6181 34.9434 26.7993 34.4684 26.5806 33.6684L25.4056 29.2809C24.1931 29.6059 22.8993 29.8371 21.5306 29.9371V34.4996C21.5306 35.3246 20.8556 35.9996 20.0306 35.9996C19.1993 35.9996 18.5306 35.3309 18.5306 34.4996V29.9371C17.1618 29.8371 15.8681 29.6059 14.6556 29.2809L13.4806 33.6684C13.2681 34.4684 12.4431 34.9434 11.6431 34.7309C10.8431 34.5184 10.3681 33.6934 10.5806 32.8934L11.8118 28.2996C10.4556 27.7184 9.23056 27.0434 8.16181 26.3434L5.83056 30.3809C5.41806 31.0996 4.49931 31.3434 3.78056 30.9309C3.06181 30.5184 2.81806 29.5996 3.23056 28.8809L5.73056 24.5434C4.53056 23.5309 3.44306 22.4246 2.43056 21.1996C1.76806 20.3121 1.94931 19.0621 2.83056 18.3996Z" fill="white"/>
</svg>
