<svg width="40" height="40" viewBox="0 0 40 40" fill="none" xmlns="http://www.w3.org/2000/svg">
<path d="M20.0008 6C14.9508 6 10.907 8.3 7.96328 11.0375C5.03828 13.7563 3.08203 17 2.15078 19.2313C1.94453 19.725 1.94453 20.275 2.15078 20.7687C3.08203 23 5.03828 26.25 7.96328 28.9625C10.907 31.6938 14.9508 34 20.0008 34C25.0508 34 29.0945 31.7 32.0383 28.9625C34.9633 26.2437 36.9195 23 37.8508 20.7687C38.057 20.275 38.057 19.725 37.8508 19.2313C36.9195 17 34.9633 13.75 32.0383 11.0375C29.0945 8.30625 25.0508 6 20.0008 6ZM11.0008 20C11.0008 15.0312 15.032 11 20.0008 11C24.9695 11 29.0008 15.0312 29.0008 20C29.0008 24.9688 24.9695 29 20.0008 29C15.032 29 11.0008 24.9688 11.0008 20ZM20.0008 16C20.0008 18.2063 18.207 20 16.0008 20C15.282 20 14.607 19.8125 14.0195 19.475C13.957 20.1562 14.0133 20.8562 14.2008 21.55C15.057 24.75 18.3508 26.65 21.5508 25.7938C24.7508 24.9375 26.6508 21.6438 25.7945 18.4438C25.032 15.5875 22.3258 13.7688 19.4758 14.0188C19.807 14.6 20.0008 15.275 20.0008 16Z" fill="black"/>
<path d="M20.0008 6C14.9508 6 10.907 8.3 7.96328 11.0375C5.03828 13.7563 3.08203 17 2.15078 19.2313C1.94453 19.725 1.94453 20.275 2.15078 20.7687C3.08203 23 5.03828 26.25 7.96328 28.9625C10.907 31.6938 14.9508 34 20.0008 34C25.0508 34 29.0945 31.7 32.0383 28.9625C34.9633 26.2437 36.9195 23 37.8508 20.7687C38.057 20.275 38.057 19.725 37.8508 19.2313C36.9195 17 34.9633 13.75 32.0383 11.0375C29.0945 8.30625 25.0508 6 20.0008 6ZM11.0008 20C11.0008 15.0312 15.032 11 20.0008 11C24.9695 11 29.0008 15.0312 29.0008 20C29.0008 24.9688 24.9695 29 20.0008 29C15.032 29 11.0008 24.9688 11.0008 20ZM20.0008 16C20.0008 18.2063 18.207 20 16.0008 20C15.282 20 14.607 19.8125 14.0195 19.475C13.957 20.1562 14.0133 20.8562 14.2008 21.55C15.057 24.75 18.3508 26.65 21.5508 25.7938C24.7508 24.9375 26.6508 21.6438 25.7945 18.4438C25.032 15.5875 22.3258 13.7688 19.4758 14.0188C19.807 14.6 20.0008 15.275 20.0008 16Z" fill="white"/>
</svg>
