<svg width="94" height="84" viewBox="0 0 94 84" fill="none" xmlns="http://www.w3.org/2000/svg">
<g clip-path="url(#clip0_1_82)">
<path d="M47.0005 13.125C36.3602 13.125 27.613 17.9812 20.9057 24.232C14.6227 30.1055 10.2818 37.0781 8.06233 42C10.2818 46.9219 14.6227 53.8945 20.9057 59.768C27.613 66.0187 36.3602 70.875 47.0005 70.875C57.6408 70.875 66.388 66.0187 73.0953 59.768C79.3783 53.8945 83.7193 46.9219 85.9387 42C83.7193 37.0781 79.3783 30.1055 73.0953 24.232C66.388 17.9812 57.6408 13.125 47.0005 13.125ZM15.5693 18.4734C23.2557 11.2875 33.8144 5.25 47.0005 5.25C60.1866 5.25 70.7453 11.2875 78.4318 18.4734C86.0693 25.6102 91.1772 34.125 93.6088 39.982C94.1474 41.2781 94.1474 42.7219 93.6088 44.018C91.1772 49.875 86.0693 58.4062 78.4318 65.5266C70.7453 72.6961 60.1866 78.75 47.0005 78.75C33.8144 78.75 23.2557 72.7125 15.5693 65.5266C7.93177 58.3898 2.82378 49.875 0.392187 44.018C-0.146354 42.7219 -0.146354 41.2781 0.392187 39.982C2.82378 34.125 7.93177 25.5938 15.5693 18.4734ZM47.0005 55.125C54.2137 55.125 60.0561 49.2516 60.0561 42C60.0561 37.1437 57.4286 32.8945 53.5283 30.6305C53.2998 40.425 45.4338 48.3328 35.6911 48.5625C37.9432 52.4836 42.17 55.125 47.0005 55.125ZM34.0102 40.6219C34.4182 40.6711 34.8262 40.6875 35.2505 40.6875C41.0113 40.6875 45.695 35.9789 45.695 30.1875C45.695 29.7609 45.6623 29.3508 45.6297 28.9406C39.5262 29.5805 34.663 34.4695 34.0266 40.6055L34.0102 40.6219ZM41.4519 21.7547C43.2144 21.2625 45.0748 21.0164 46.9842 21.0164C48.4203 21.0164 49.8401 21.1641 51.1946 21.443C51.2436 21.4594 51.2762 21.4594 51.3252 21.4758C60.7741 23.4773 67.8731 31.9266 67.8731 42.0164C67.8731 53.6156 58.522 63.0164 46.9842 63.0164C36.9314 63.0164 28.5432 55.8797 26.5523 46.3805C26.2585 44.9695 26.0953 43.5094 26.0953 42.0164C26.0953 40.2117 26.3238 38.4398 26.7481 36.7664C26.7807 36.6516 26.797 36.5531 26.8297 36.4547C28.7717 29.3344 34.3529 23.7234 41.4356 21.7711L41.4519 21.7547Z" fill="white"/>
</g>
<defs>
<clipPath id="clip0_1_82">
<rect width="94" height="84" fill="white"/>
</clipPath>
</defs>
</svg>
