<svg width="40" height="40" viewBox="0 0 40 40" fill="none" xmlns="http://www.w3.org/2000/svg">
<path d="M4.5624 2.44355C3.9749 1.85605 3.0249 1.85605 2.44365 2.44355C1.8624 3.03105 1.85615 3.98105 2.4374 4.56855L35.4374 37.5686C36.0249 38.1561 36.9749 38.1561 37.5562 37.5686C38.1374 36.9811 38.1437 36.0311 37.5562 35.4498L31.5312 29.4248C31.6999 29.2748 31.8687 29.1248 32.0312 28.9748C34.9562 26.2561 36.9124 23.0123 37.8437 20.7811C38.0499 20.2873 38.0499 19.7373 37.8437 19.2436C36.9124 17.0123 34.9562 13.7623 32.0312 11.0498C29.0874 8.31855 25.0437 6.0123 19.9937 6.0123C16.4437 6.0123 13.3937 7.1498 10.8687 8.7748L4.5624 2.44355ZM14.7812 12.6686C16.2499 11.6186 18.0562 10.9998 19.9999 10.9998C24.9687 10.9998 28.9999 15.0311 28.9999 19.9998C28.9999 21.9436 28.3812 23.7436 27.3312 25.2186L25.1624 23.0498C25.9562 21.7123 26.2249 20.0686 25.7937 18.4436C24.9374 15.2436 21.6437 13.3436 18.4437 14.1998C17.9062 14.3436 17.3999 14.5561 16.9437 14.8248L14.7749 12.6561L14.7812 12.6686ZM22.3312 28.6936C21.5874 28.8936 20.8062 28.9998 19.9999 28.9998C15.0312 28.9998 10.9999 24.9686 10.9999 19.9998C10.9999 19.1936 11.1062 18.4123 11.3062 17.6686L6.3374 12.6998C4.2999 14.9998 2.8999 17.4373 2.15615 19.2311C1.9499 19.7248 1.9499 20.2748 2.15615 20.7686C3.0874 22.9998 5.04365 26.2498 7.96865 28.9623C10.9124 31.6936 14.9562 33.9998 20.0062 33.9998C22.3374 33.9998 24.4562 33.5061 26.3499 32.7123L22.3374 28.6998L22.3312 28.6936Z" fill="black"/>
<path d="M4.5624 2.44355C3.9749 1.85605 3.0249 1.85605 2.44365 2.44355C1.8624 3.03105 1.85615 3.98105 2.4374 4.56855L35.4374 37.5686C36.0249 38.1561 36.9749 38.1561 37.5562 37.5686C38.1374 36.9811 38.1437 36.0311 37.5562 35.4498L31.5312 29.4248C31.6999 29.2748 31.8687 29.1248 32.0312 28.9748C34.9562 26.2561 36.9124 23.0123 37.8437 20.7811C38.0499 20.2873 38.0499 19.7373 37.8437 19.2436C36.9124 17.0123 34.9562 13.7623 32.0312 11.0498C29.0874 8.31855 25.0437 6.0123 19.9937 6.0123C16.4437 6.0123 13.3937 7.1498 10.8687 8.7748L4.5624 2.44355ZM14.7812 12.6686C16.2499 11.6186 18.0562 10.9998 19.9999 10.9998C24.9687 10.9998 28.9999 15.0311 28.9999 19.9998C28.9999 21.9436 28.3812 23.7436 27.3312 25.2186L25.1624 23.0498C25.9562 21.7123 26.2249 20.0686 25.7937 18.4436C24.9374 15.2436 21.6437 13.3436 18.4437 14.1998C17.9062 14.3436 17.3999 14.5561 16.9437 14.8248L14.7749 12.6561L14.7812 12.6686ZM22.3312 28.6936C21.5874 28.8936 20.8062 28.9998 19.9999 28.9998C15.0312 28.9998 10.9999 24.9686 10.9999 19.9998C10.9999 19.1936 11.1062 18.4123 11.3062 17.6686L6.3374 12.6998C4.2999 14.9998 2.8999 17.4373 2.15615 19.2311C1.9499 19.7248 1.9499 20.2748 2.15615 20.7686C3.0874 22.9998 5.04365 26.2498 7.96865 28.9623C10.9124 31.6936 14.9562 33.9998 20.0062 33.9998C22.3374 33.9998 24.4562 33.5061 26.3499 32.7123L22.3374 28.6998L22.3312 28.6936Z" fill="white"/>
</svg>
