<svg width="40" height="40" viewBox="0 0 40 40" fill="none" xmlns="http://www.w3.org/2000/svg">
<path d="M25.9937 21.5H14.0625C14.2437 25.5312 15.1375 29.2437 16.4062 31.9625C17.1187 33.4937 17.8875 34.575 18.6 35.2375C19.3 35.8937 19.7812 36 20.0312 36C20.2812 36 20.7625 35.8937 21.4625 35.2375C22.175 34.575 22.9438 33.4875 23.6562 31.9625C24.925 29.2437 25.8188 25.5312 26 21.5H25.9937ZM14.0562 18.5H25.9875C25.8125 14.4688 24.9187 10.7563 23.65 8.0375C22.9375 6.5125 22.1687 5.425 21.4562 4.7625C20.7562 4.10625 20.275 4 20.025 4C19.775 4 19.2937 4.10625 18.5938 4.7625C17.8813 5.425 17.1125 6.5125 16.4 8.0375C15.1312 10.7563 14.2375 14.4688 14.0562 18.5ZM11.0562 18.5C11.275 13.15 12.6562 8.18125 14.675 4.91875C8.91875 6.95625 4.68125 12.2 4.09375 18.5H11.0562ZM4.09375 21.5C4.68125 27.8 8.91875 33.0437 14.675 35.0812C12.6562 31.8187 11.275 26.85 11.0562 21.5H4.09375ZM28.9937 21.5C28.775 26.85 27.3937 31.8187 25.375 35.0812C31.1313 33.0375 35.3687 27.8 35.9562 21.5H28.9937ZM35.9562 18.5C35.3687 12.2 31.1313 6.95625 25.375 4.91875C27.3937 8.18125 28.775 13.15 28.9937 18.5H35.9562Z" fill="white"/>
<path d="M25.9937 21.5H14.0625C14.2437 25.5312 15.1375 29.2437 16.4062 31.9625C17.1187 33.4937 17.8875 34.575 18.6 35.2375C19.3 35.8937 19.7812 36 20.0312 36C20.2812 36 20.7625 35.8937 21.4625 35.2375C22.175 34.575 22.9438 33.4875 23.6562 31.9625C24.925 29.2437 25.8188 25.5312 26 21.5H25.9937ZM14.0562 18.5H25.9875C25.8125 14.4688 24.9187 10.7563 23.65 8.0375C22.9375 6.5125 22.1687 5.425 21.4562 4.7625C20.7562 4.10625 20.275 4 20.025 4C19.775 4 19.2937 4.10625 18.5938 4.7625C17.8813 5.425 17.1125 6.5125 16.4 8.0375C15.1312 10.7563 14.2375 14.4688 14.0562 18.5ZM11.0562 18.5C11.275 13.15 12.6562 8.18125 14.675 4.91875C8.91875 6.95625 4.68125 12.2 4.09375 18.5H11.0562ZM4.09375 21.5C4.68125 27.8 8.91875 33.0437 14.675 35.0812C12.6562 31.8187 11.275 26.85 11.0562 21.5H4.09375ZM28.9937 21.5C28.775 26.85 27.3937 31.8187 25.375 35.0812C31.1313 33.0375 35.3687 27.8 35.9562 21.5H28.9937ZM35.9562 18.5C35.3687 12.2 31.1313 6.95625 25.375 4.91875C27.3937 8.18125 28.775 13.15 28.9937 18.5H35.9562Z" fill="white"/>
</svg>
