<svg width="40" height="40" viewBox="0 0 40 40" fill="none" xmlns="http://www.w3.org/2000/svg">
<path d="M14.9004 6.40039C16.7754 6.40047 18.2996 7.9248 18.2998 9.7998C18.2998 10.5276 18.0714 11.1975 17.6836 11.75L19.2354 15.0703C19.7558 14.9588 20.2973 14.9004 20.8496 14.9004C22.7674 14.9004 24.5153 15.6071 25.8594 16.7705L30.2207 13.5723C30.2101 13.4501 30.2002 13.3277 30.2002 13.2002C30.2002 11.325 31.7244 9.79988 33.5996 9.7998C35.4749 9.7998 37 11.3249 37 13.2002C37 15.0754 35.4749 16.5996 33.5996 16.5996C33.1111 16.5996 32.649 16.4993 32.2295 16.3135L27.873 19.5117C28.2767 20.4412 28.5 21.4716 28.5 22.5498C28.5 23.3784 28.3674 24.1807 28.123 24.9297L31.9473 27.2246C32.436 26.9537 32.9994 26.7998 33.5996 26.7998C35.4749 26.7998 37 28.3249 37 30.2002C36.9998 32.0752 35.4747 33.5996 33.5996 33.5996C31.7246 33.5995 30.2004 32.0752 30.2002 30.2002V30.1416L26.3691 27.8408C24.9773 29.2963 23.017 30.2002 20.8496 30.2002C17.2109 30.2 14.1619 27.655 13.3916 24.25H9.34863C8.75901 25.2644 7.66501 25.95 6.40625 25.9502C4.53099 25.9502 3.00586 24.4251 3.00586 22.5498C3.00593 20.6746 4.53103 19.1504 6.40625 19.1504C7.66493 19.1506 8.76429 19.8353 9.34863 20.8496H13.3916C13.7901 19.0967 14.7887 17.5775 16.1592 16.5098L14.6084 13.1895C12.8659 13.0354 11.5 11.5794 11.5 9.7998C11.5002 7.92475 13.0253 6.40039 14.9004 6.40039ZM23.4082 18.0068C23.1493 17.8277 22.784 17.8316 22.5273 18.0146L16.8633 22.0664C16.6309 22.232 16.5398 22.5094 16.6416 22.7588C16.7435 23.008 17.0119 23.1729 17.3105 23.1729H19.7441L18.085 26.3389C17.9456 26.6019 18.0341 26.9136 18.293 27.0928C18.5518 27.2718 18.9163 27.2679 19.1729 27.085L24.8379 23.0332C25.0701 22.8676 25.1603 22.5911 25.0586 22.3418C24.9568 22.0924 24.6893 21.9268 24.3906 21.9268H21.957L23.6162 18.7588C23.7555 18.4958 23.6693 18.1821 23.4082 18.0049V18.0068Z" fill="black"/>
<path d="M14.9004 6.40039C16.7754 6.40047 18.2996 7.9248 18.2998 9.7998C18.2998 10.5276 18.0714 11.1975 17.6836 11.75L19.2354 15.0703C19.7558 14.9588 20.2973 14.9004 20.8496 14.9004C22.7674 14.9004 24.5153 15.6071 25.8594 16.7705L30.2207 13.5723C30.2101 13.4501 30.2002 13.3277 30.2002 13.2002C30.2002 11.325 31.7244 9.79988 33.5996 9.7998C35.4749 9.7998 37 11.3249 37 13.2002C37 15.0754 35.4749 16.5996 33.5996 16.5996C33.1111 16.5996 32.649 16.4993 32.2295 16.3135L27.873 19.5117C28.2767 20.4412 28.5 21.4716 28.5 22.5498C28.5 23.3784 28.3674 24.1807 28.123 24.9297L31.9473 27.2246C32.436 26.9537 32.9994 26.7998 33.5996 26.7998C35.4749 26.7998 37 28.3249 37 30.2002C36.9998 32.0752 35.4747 33.5996 33.5996 33.5996C31.7246 33.5995 30.2004 32.0752 30.2002 30.2002V30.1416L26.3691 27.8408C24.9773 29.2963 23.017 30.2002 20.8496 30.2002C17.2109 30.2 14.1619 27.655 13.3916 24.25H9.34863C8.75901 25.2644 7.66501 25.95 6.40625 25.9502C4.53099 25.9502 3.00586 24.4251 3.00586 22.5498C3.00593 20.6746 4.53103 19.1504 6.40625 19.1504C7.66493 19.1506 8.76429 19.8353 9.34863 20.8496H13.3916C13.7901 19.0967 14.7887 17.5775 16.1592 16.5098L14.6084 13.1895C12.8659 13.0354 11.5 11.5794 11.5 9.7998C11.5002 7.92475 13.0253 6.40039 14.9004 6.40039ZM23.4082 18.0068C23.1493 17.8277 22.784 17.8316 22.5273 18.0146L16.8633 22.0664C16.6309 22.232 16.5398 22.5094 16.6416 22.7588C16.7435 23.008 17.0119 23.1729 17.3105 23.1729H19.7441L18.085 26.3389C17.9456 26.6019 18.0341 26.9136 18.293 27.0928C18.5518 27.2718 18.9163 27.2679 19.1729 27.085L24.8379 23.0332C25.0701 22.8676 25.1603 22.5911 25.0586 22.3418C24.9568 22.0924 24.6893 21.9268 24.3906 21.9268H21.957L23.6162 18.7588C23.7555 18.4958 23.6693 18.1821 23.4082 18.0049V18.0068Z" fill="white"/>
</svg>
