<svg width="28" height="28" viewBox="0 0 28 28" fill="none" xmlns="http://www.w3.org/2000/svg">
<path d="M12.7979 6.875C12.7979 7.3834 12.6367 7.85098 12.3629 8.23691L13.458 10.5563C13.8256 10.4783 14.2082 10.4375 14.5982 10.4375C15.9522 10.4375 17.1861 10.9311 18.135 11.7438L21.2143 9.50977C21.2068 9.42441 21.1992 9.33906 21.1992 9.25C21.1992 7.94004 22.2757 6.875 23.5996 6.875C24.9236 6.875 26 7.94004 26 9.25C26 10.56 24.9236 11.625 23.5996 11.625C23.2546 11.625 22.9283 11.5545 22.632 11.4246L19.5565 13.6586C19.8415 14.308 19.9991 15.0279 19.9991 15.7812C19.9991 16.3602 19.9053 16.9205 19.7328 17.4437L22.4332 19.0469C22.7782 18.8576 23.1758 18.75 23.5996 18.75C24.9236 18.75 26 19.815 26 21.125C26 22.435 24.9236 23.5 23.5996 23.5C22.2757 23.5 21.1992 22.435 21.1992 21.125V21.0842L18.4951 19.4773C17.5124 20.4941 16.1285 21.125 14.5982 21.125C12.0291 21.125 9.87623 19.3475 9.3324 16.9688H6.4782C6.06188 17.6775 5.28926 18.1562 4.40037 18.1562C3.07642 18.1562 2 17.0912 2 15.7812C2 14.4713 3.07642 13.4062 4.40037 13.4062C5.28926 13.4062 6.06564 13.885 6.4782 14.5938H9.3324C9.61369 13.3691 10.3188 12.3078 11.2865 11.5619L10.1913 9.24258C8.96109 9.13496 7.99719 8.11816 7.99719 6.875C7.99719 5.56504 9.0736 4.5 10.3976 4.5C11.7215 4.5 12.7979 5.56504 12.7979 6.875ZM14.5982 17.5625C15.5921 17.5625 16.3985 16.7646 16.3985 15.7812C16.3985 14.7979 15.5921 14 14.5982 14C13.6043 14 12.7979 14.7979 12.7979 15.7812C12.7979 16.7646 13.6043 17.5625 14.5982 17.5625Z" fill="white"/>
<path d="M12.7979 6.875C12.7979 7.3834 12.6367 7.85098 12.3629 8.23691L13.458 10.5563C13.8256 10.4783 14.2082 10.4375 14.5982 10.4375C15.9522 10.4375 17.1861 10.9311 18.135 11.7438L21.2143 9.50977C21.2068 9.42441 21.1992 9.33906 21.1992 9.25C21.1992 7.94004 22.2757 6.875 23.5996 6.875C24.9236 6.875 26 7.94004 26 9.25C26 10.56 24.9236 11.625 23.5996 11.625C23.2546 11.625 22.9283 11.5545 22.632 11.4246L19.5565 13.6586C19.8415 14.308 19.9991 15.0279 19.9991 15.7812C19.9991 16.3602 19.9053 16.9205 19.7328 17.4437L22.4332 19.0469C22.7782 18.8576 23.1758 18.75 23.5996 18.75C24.9236 18.75 26 19.815 26 21.125C26 22.435 24.9236 23.5 23.5996 23.5C22.2757 23.5 21.1992 22.435 21.1992 21.125V21.0842L18.4951 19.4773C17.5124 20.4941 16.1285 21.125 14.5982 21.125C12.0291 21.125 9.87623 19.3475 9.3324 16.9688H6.4782C6.06188 17.6775 5.28926 18.1562 4.40037 18.1562C3.07642 18.1562 2 17.0912 2 15.7812C2 14.4713 3.07642 13.4062 4.40037 13.4062C5.28926 13.4062 6.06564 13.885 6.4782 14.5938H9.3324C9.61369 13.3691 10.3188 12.3078 11.2865 11.5619L10.1913 9.24258C8.96109 9.13496 7.99719 8.11816 7.99719 6.875C7.99719 5.56504 9.0736 4.5 10.3976 4.5C11.7215 4.5 12.7979 5.56504 12.7979 6.875ZM14.5982 17.5625C15.5921 17.5625 16.3985 16.7646 16.3985 15.7812C16.3985 14.7979 15.5921 14 14.5982 14C13.6043 14 12.7979 14.7979 12.7979 15.7812C12.7979 16.7646 13.6043 17.5625 14.5982 17.5625Z" fill="white"/>
</svg>
