<svg width="40" height="40" viewBox="0 0 40 40" fill="none" xmlns="http://www.w3.org/2000/svg">
<path d="M12 10V9C12 6.2375 17.375 4 24 4C30.625 4 36 6.2375 36 9V10C36 11.9125 33.4188 13.575 29.625 14.4187C29.475 14.2437 29.3188 14.075 29.1625 13.9187C28.1938 12.9625 26.9438 12.2375 25.6375 11.7C23.0188 10.6062 19.6062 10.0063 16 10.0063C14.6313 10.0063 13.2937 10.0938 12.0125 10.2625C12 10.1812 12 10.0938 12 10.0063V10ZM31 26.0625V23.175C31.9438 22.9312 32.8313 22.6437 33.6375 22.3062C34.4625 21.9625 35.2687 21.5438 36 21.0375V22C36 23.675 34.0312 25.1562 31 26.0625ZM31 20.0625V18C31 17.7188 30.975 17.45 30.9375 17.1875C31.9062 16.9438 32.8125 16.65 33.6375 16.3C34.4625 15.95 35.2687 15.5375 36 15.0312V15.9937C36 17.6687 34.0312 19.15 31 20.0562V20.0625ZM4 19V18C4 15.2375 9.375 13 16 13C22.625 13 28 15.2375 28 18V19C28 21.7625 22.625 24 16 24C9.375 24 4 21.7625 4 19ZM28 25C28 27.7625 22.625 30 16 30C9.375 30 4 27.7625 4 25V24.0375C4.725 24.5438 5.53125 24.9562 6.3625 25.3062C8.98125 26.4 12.3938 27 16 27C19.6062 27 23.0188 26.3937 25.6375 25.3062C26.4625 24.9625 27.2687 24.5438 28 24.0375V25ZM28 30.0375V31C28 33.7625 22.625 36 16 36C9.375 36 4 33.7625 4 31V30.0375C4.725 30.5438 5.53125 30.9562 6.3625 31.3062C8.98125 32.4 12.3938 33 16 33C19.6062 33 23.0188 32.3937 25.6375 31.3062C26.4625 30.9625 27.2687 30.5438 28 30.0375Z" fill="black"/>
<path d="M12 10V9C12 6.2375 17.375 4 24 4C30.625 4 36 6.2375 36 9V10C36 11.9125 33.4188 13.575 29.625 14.4187C29.475 14.2437 29.3188 14.075 29.1625 13.9187C28.1938 12.9625 26.9438 12.2375 25.6375 11.7C23.0188 10.6062 19.6062 10.0063 16 10.0063C14.6313 10.0063 13.2937 10.0938 12.0125 10.2625C12 10.1812 12 10.0938 12 10.0063V10ZM31 26.0625V23.175C31.9438 22.9312 32.8313 22.6437 33.6375 22.3062C34.4625 21.9625 35.2687 21.5438 36 21.0375V22C36 23.675 34.0312 25.1562 31 26.0625ZM31 20.0625V18C31 17.7188 30.975 17.45 30.9375 17.1875C31.9062 16.9438 32.8125 16.65 33.6375 16.3C34.4625 15.95 35.2687 15.5375 36 15.0312V15.9937C36 17.6687 34.0312 19.15 31 20.0562V20.0625ZM4 19V18C4 15.2375 9.375 13 16 13C22.625 13 28 15.2375 28 18V19C28 21.7625 22.625 24 16 24C9.375 24 4 21.7625 4 19ZM28 25C28 27.7625 22.625 30 16 30C9.375 30 4 27.7625 4 25V24.0375C4.725 24.5438 5.53125 24.9562 6.3625 25.3062C8.98125 26.4 12.3938 27 16 27C19.6062 27 23.0188 26.3937 25.6375 25.3062C26.4625 24.9625 27.2687 24.5438 28 24.0375V25ZM28 30.0375V31C28 33.7625 22.625 36 16 36C9.375 36 4 33.7625 4 31V30.0375C4.725 30.5438 5.53125 30.9562 6.3625 31.3062C8.98125 32.4 12.3938 33 16 33C19.6062 33 23.0188 32.3937 25.6375 31.3062C26.4625 30.9625 27.2687 30.5438 28 30.0375Z" fill="white"/>
</svg>
