<svg width="28" height="28" viewBox="0 0 28 28" fill="none" xmlns="http://www.w3.org/2000/svg">
<path d="M12.8975 4.27829C13.2913 4.11641 13.7419 4.20391 14.0438 4.50579L15.7938 6.25579C16.205 6.66704 16.205 7.33204 15.7938 7.73891L14.0438 9.48891C13.7419 9.79079 13.2913 9.87829 12.8975 9.71641C12.5038 9.55454 12.25 9.17391 12.25 8.74954V8.39954H7.70005C6.54067 8.39954 5.60005 9.34016 5.60005 10.4995C5.60005 11.6589 6.54067 12.5995 7.70005 12.5995H20.3C23.0082 12.5995 25.2 14.7914 25.2 17.4995C25.2 19.5295 23.9663 21.2664 22.2119 22.0145C21.805 23.0602 20.79 23.7995 19.6 23.7995C18.0557 23.7995 16.8 22.5439 16.8 20.9995C16.8 19.4552 18.0557 18.1995 19.6 18.1995C20.4138 18.1995 21.1488 18.5452 21.6563 19.1008C22.1113 18.7158 22.4 18.1427 22.4 17.4995C22.4 16.3402 21.4594 15.3995 20.3 15.3995H7.70005C4.99192 15.3995 2.80005 13.2077 2.80005 10.4995C2.80005 7.79141 4.99192 5.59954 7.70005 5.59954H12.25V5.24954C12.25 4.82516 12.5038 4.44016 12.8975 4.27829ZM21 4.19954C22.5444 4.19954 23.8 5.45516 23.8 6.99954C23.8 8.54391 22.5444 9.79954 21 9.79954C19.4557 9.79954 18.2 8.54391 18.2 6.99954C18.2 5.45516 19.4557 4.19954 21 4.19954ZM9.4238 22.3995C8.93817 23.2352 8.03692 23.7995 7.00005 23.7995C5.45567 23.7995 4.20005 22.5439 4.20005 20.9995C4.20005 19.4552 5.45567 18.1995 7.00005 18.1995C8.03692 18.1995 8.94255 18.7639 9.4238 19.5995H10.85V19.2495C10.85 18.8252 11.1038 18.4402 11.4975 18.2783C11.8913 18.1164 12.3419 18.2039 12.6438 18.5058L14.3938 20.2558C14.805 20.667 14.805 21.332 14.3938 21.7389L12.6438 23.4889C12.3419 23.7908 11.8913 23.8783 11.4975 23.7164C11.1038 23.5545 10.85 23.1739 10.85 22.7495V22.3995H9.4238Z" fill="white"/>
<path d="M12.8975 4.27829C13.2913 4.11641 13.7419 4.20391 14.0438 4.50579L15.7938 6.25579C16.205 6.66704 16.205 7.33204 15.7938 7.73891L14.0438 9.48891C13.7419 9.79079 13.2913 9.87829 12.8975 9.71641C12.5038 9.55454 12.25 9.17391 12.25 8.74954V8.39954H7.70005C6.54067 8.39954 5.60005 9.34016 5.60005 10.4995C5.60005 11.6589 6.54067 12.5995 7.70005 12.5995H20.3C23.0082 12.5995 25.2 14.7914 25.2 17.4995C25.2 19.5295 23.9663 21.2664 22.2119 22.0145C21.805 23.0602 20.79 23.7995 19.6 23.7995C18.0557 23.7995 16.8 22.5439 16.8 20.9995C16.8 19.4552 18.0557 18.1995 19.6 18.1995C20.4138 18.1995 21.1488 18.5452 21.6563 19.1008C22.1113 18.7158 22.4 18.1427 22.4 17.4995C22.4 16.3402 21.4594 15.3995 20.3 15.3995H7.70005C4.99192 15.3995 2.80005 13.2077 2.80005 10.4995C2.80005 7.79141 4.99192 5.59954 7.70005 5.59954H12.25V5.24954C12.25 4.82516 12.5038 4.44016 12.8975 4.27829ZM21 4.19954C22.5444 4.19954 23.8 5.45516 23.8 6.99954C23.8 8.54391 22.5444 9.79954 21 9.79954C19.4557 9.79954 18.2 8.54391 18.2 6.99954C18.2 5.45516 19.4557 4.19954 21 4.19954ZM9.4238 22.3995C8.93817 23.2352 8.03692 23.7995 7.00005 23.7995C5.45567 23.7995 4.20005 22.5439 4.20005 20.9995C4.20005 19.4552 5.45567 18.1995 7.00005 18.1995C8.03692 18.1995 8.94255 18.7639 9.4238 19.5995H10.85V19.2495C10.85 18.8252 11.1038 18.4402 11.4975 18.2783C11.8913 18.1164 12.3419 18.2039 12.6438 18.5058L14.3938 20.2558C14.805 20.667 14.805 21.332 14.3938 21.7389L12.6438 23.4889C12.3419 23.7908 11.8913 23.8783 11.4975 23.7164C11.1038 23.5545 10.85 23.1739 10.85 22.7495V22.3995H9.4238Z" fill="white" fill-opacity="0.960784"/>
</svg>
