<svg width="28" height="28" viewBox="0 0 28 28" fill="none" xmlns="http://www.w3.org/2000/svg">
<path d="M12.6 2.7998C14.1444 2.7998 15.4 3.74043 15.4 4.8998C15.4 5.3548 15.2076 5.7748 14.875 6.12043C14.5863 6.4223 14.35 6.78981 14.35 7.20981C14.35 7.86606 14.8838 8.39981 15.5401 8.39981H17.5C18.6594 8.39981 19.6 9.34043 19.6 10.4998V12.4598C19.6 13.1161 20.1338 13.6498 20.7901 13.6498C21.2057 13.6498 21.5776 13.4136 21.8794 13.1248C22.225 12.7967 22.6451 12.5998 23.1 12.5998C24.2594 12.5998 25.2001 13.8554 25.2001 15.3998C25.2001 16.9442 24.2594 18.1998 23.1 18.1998C22.6451 18.1998 22.2207 18.0073 21.8794 17.6748C21.5776 17.3861 21.2101 17.1498 20.7901 17.1498C20.1338 17.1498 19.6 17.6836 19.6 18.3398V23.0998C19.6 24.2592 18.6594 25.1998 17.5 25.1998H15.015C14.4551 25.1998 14 24.7448 14 24.1848C14 23.7823 14.2538 23.4279 14.5775 23.1873C15.0851 22.8067 15.4 22.2817 15.4 21.6998C15.4 20.5404 14.1444 19.5998 12.6 19.5998C11.0557 19.5998 9.80005 20.5404 9.80005 21.6998C9.80005 22.2817 10.115 22.8067 10.6225 23.1873C10.9463 23.4279 11.2 23.7779 11.2 24.1848C11.2 24.7448 10.745 25.1998 10.185 25.1998H4.90005C3.74067 25.1998 2.80005 24.2592 2.80005 23.0998V17.8148C2.80005 17.2548 3.25505 16.7998 3.81505 16.7998C4.21755 16.7998 4.57192 17.0536 4.81255 17.3773C5.19317 17.8848 5.71817 18.1998 6.30005 18.1998C7.45942 18.1998 8.40005 16.9442 8.40005 15.3998C8.40005 13.8554 7.45942 12.5998 6.30005 12.5998C5.71817 12.5998 5.19317 12.9148 4.81255 13.4223C4.57192 13.7461 4.22192 13.9998 3.81505 13.9998C3.25505 13.9998 2.80005 13.5448 2.80005 12.9848V10.4998C2.80005 9.34043 3.74067 8.39981 4.90005 8.39981H9.66005C10.3163 8.39981 10.85 7.86606 10.85 7.20981C10.85 6.79418 10.6138 6.4223 10.325 6.12043C9.99692 5.7748 9.80005 5.3548 9.80005 4.8998C9.80005 3.74043 11.0557 2.7998 12.6 2.7998Z" fill="white"/>
</svg>
