<svg width="40" height="40" viewBox="0 0 40 40" fill="none" xmlns="http://www.w3.org/2000/svg">
<path d="M7.56274 22.0006H14.0315C16.2377 22.0006 18.0315 23.7944 18.0315 26.0006V32.4694C18.0315 34.0256 19.7252 34.9819 21.0627 34.1819L26.5752 30.8756C27.4815 30.3319 28.0315 29.3569 28.0315 28.3006V22.3631C36.0877 17.6131 36.494 10.5194 35.8002 5.77562C35.6815 4.97562 35.0565 4.35062 34.2565 4.23187C29.5127 3.53812 22.419 3.94437 17.6627 12.0006H11.7252C10.669 12.0006 9.69399 12.5506 9.15024 13.4569L5.85024 18.9694C5.05024 20.3069 6.00649 22.0006 7.56274 22.0006ZM28.0315 9.00062C29.6877 9.00062 31.0315 10.3444 31.0315 12.0006C31.0315 13.6569 29.6877 15.0006 28.0315 15.0006C26.3752 15.0006 25.0315 13.6569 25.0315 12.0006C25.0315 10.3444 26.3752 9.00062 28.0315 9.00062ZM13.5565 33.6006C15.5252 31.6319 15.5252 28.4444 13.5565 26.4756C11.5877 24.5069 8.40024 24.5069 6.43149 26.4756C4.47524 28.4319 4.08774 32.2256 4.03774 34.3756C4.01274 35.2881 4.73774 36.0131 5.65649 35.9944C7.81274 35.9444 11.6002 35.5569 13.5565 33.6006ZM11.019 31.6006C10.3877 32.2319 9.23774 32.4131 8.43774 32.4569C7.93774 32.4881 7.54399 32.0881 7.56899 31.5881C7.61274 30.7881 7.80024 29.6381 8.42524 29.0069C9.13774 28.2944 10.3002 28.2944 11.0127 29.0069C11.7252 29.7194 11.7252 30.8819 11.0127 31.5944L11.019 31.6006Z" fill="black"/>
<path d="M7.56274 22.0006H14.0315C16.2377 22.0006 18.0315 23.7944 18.0315 26.0006V32.4694C18.0315 34.0256 19.7252 34.9819 21.0627 34.1819L26.5752 30.8756C27.4815 30.3319 28.0315 29.3569 28.0315 28.3006V22.3631C36.0877 17.6131 36.494 10.5194 35.8002 5.77562C35.6815 4.97562 35.0565 4.35062 34.2565 4.23187C29.5127 3.53812 22.419 3.94437 17.6627 12.0006H11.7252C10.669 12.0006 9.69399 12.5506 9.15024 13.4569L5.85024 18.9694C5.05024 20.3069 6.00649 22.0006 7.56274 22.0006ZM28.0315 9.00062C29.6877 9.00062 31.0315 10.3444 31.0315 12.0006C31.0315 13.6569 29.6877 15.0006 28.0315 15.0006C26.3752 15.0006 25.0315 13.6569 25.0315 12.0006C25.0315 10.3444 26.3752 9.00062 28.0315 9.00062ZM13.5565 33.6006C15.5252 31.6319 15.5252 28.4444 13.5565 26.4756C11.5877 24.5069 8.40024 24.5069 6.43149 26.4756C4.47524 28.4319 4.08774 32.2256 4.03774 34.3756C4.01274 35.2881 4.73774 36.0131 5.65649 35.9944C7.81274 35.9444 11.6002 35.5569 13.5565 33.6006ZM11.019 31.6006C10.3877 32.2319 9.23774 32.4131 8.43774 32.4569C7.93774 32.4881 7.54399 32.0881 7.56899 31.5881C7.61274 30.7881 7.80024 29.6381 8.42524 29.0069C9.13774 28.2944 10.3002 28.2944 11.0127 29.0069C11.7252 29.7194 11.7252 30.8819 11.0127 31.5944L11.019 31.6006Z" fill="white"/>
</svg>
