<svg width="28" height="28" viewBox="0 0 28 28" fill="none" xmlns="http://www.w3.org/2000/svg">
<path d="M5.29387 15.4002H9.82199C11.3664 15.4002 12.622 16.6559 12.622 18.2002V22.7284C12.622 23.8177 13.8076 24.4871 14.7439 23.9271L18.6026 21.6127C19.237 21.2321 19.622 20.5496 19.622 19.8102V15.654C25.2614 12.329 25.5457 7.36336 25.0601 4.04274C24.977 3.48274 24.5395 3.04524 23.9795 2.96211C20.6589 2.47649 15.6932 2.76087 12.3639 8.40024H8.20762C7.46824 8.40024 6.78574 8.78524 6.40512 9.41961L4.09512 13.2784C3.53512 14.2146 4.20449 15.4002 5.29387 15.4002ZM19.622 6.30024C20.7814 6.30024 21.722 7.24086 21.722 8.40024C21.722 9.55961 20.7814 10.5002 19.622 10.5002C18.4626 10.5002 17.522 9.55961 17.522 8.40024C17.522 7.24086 18.4626 6.30024 19.622 6.30024ZM9.48949 23.5202C10.8676 22.1421 10.8676 19.9109 9.48949 18.5327C8.11137 17.1546 5.88012 17.1546 4.50199 18.5327C3.13262 19.9021 2.86137 22.5577 2.82637 24.0627C2.80887 24.7015 3.31637 25.209 3.95949 25.1959C5.46887 25.1609 8.12012 24.8896 9.48949 23.5202ZM7.71324 22.1202C7.27137 22.5621 6.46637 22.689 5.90637 22.7196C5.55637 22.7415 5.28074 22.4615 5.29824 22.1115C5.32887 21.5515 5.46012 20.7465 5.89762 20.3046C6.39637 19.8059 7.21012 19.8059 7.70887 20.3046C8.20762 20.8034 8.20762 21.6171 7.70887 22.1159L7.71324 22.1202Z" fill="white"/>
<path d="M5.29387 15.4002H9.82199C11.3664 15.4002 12.622 16.6559 12.622 18.2002V22.7284C12.622 23.8177 13.8076 24.4871 14.7439 23.9271L18.6026 21.6127C19.237 21.2321 19.622 20.5496 19.622 19.8102V15.654C25.2614 12.329 25.5457 7.36336 25.0601 4.04274C24.977 3.48274 24.5395 3.04524 23.9795 2.96211C20.6589 2.47649 15.6932 2.76087 12.3639 8.40024H8.20762C7.46824 8.40024 6.78574 8.78524 6.40512 9.41961L4.09512 13.2784C3.53512 14.2146 4.20449 15.4002 5.29387 15.4002ZM19.622 6.30024C20.7814 6.30024 21.722 7.24086 21.722 8.40024C21.722 9.55961 20.7814 10.5002 19.622 10.5002C18.4626 10.5002 17.522 9.55961 17.522 8.40024C17.522 7.24086 18.4626 6.30024 19.622 6.30024ZM9.48949 23.5202C10.8676 22.1421 10.8676 19.9109 9.48949 18.5327C8.11137 17.1546 5.88012 17.1546 4.50199 18.5327C3.13262 19.9021 2.86137 22.5577 2.82637 24.0627C2.80887 24.7015 3.31637 25.209 3.95949 25.1959C5.46887 25.1609 8.12012 24.8896 9.48949 23.5202ZM7.71324 22.1202C7.27137 22.5621 6.46637 22.689 5.90637 22.7196C5.55637 22.7415 5.28074 22.4615 5.29824 22.1115C5.32887 21.5515 5.46012 20.7465 5.89762 20.3046C6.39637 19.8059 7.21012 19.8059 7.70887 20.3046C8.20762 20.8034 8.20762 21.6171 7.70887 22.1159L7.71324 22.1202Z" fill="white" fill-opacity="0.960784"/>
</svg>
