<svg width="28" height="28" viewBox="0 0 28 28" fill="none" xmlns="http://www.w3.org/2000/svg">
<path d="M16.8 4.1998H22.4C23.1743 4.1998 23.8 4.82543 23.8 5.5998C23.8 6.37418 23.1743 6.9998 22.4 6.9998H17.43C17.2025 8.12855 16.4281 9.06043 15.4 9.50668V22.3998H22.4C23.1743 22.3998 23.8 23.0254 23.8 23.7998C23.8 24.5742 23.1743 25.1998 22.4 25.1998H5.59996C4.82559 25.1998 4.19996 24.5742 4.19996 23.7998C4.19996 23.0254 4.82559 22.3998 5.59996 22.3998H12.6V9.50668C11.5718 9.05605 10.7975 8.12418 10.57 6.9998H5.59996C4.82559 6.9998 4.19996 6.37418 4.19996 5.5998C4.19996 4.82543 4.82559 4.1998 5.59996 4.1998H11.2C11.8387 3.35105 12.8537 2.7998 14 2.7998C15.1462 2.7998 16.1612 3.35105 16.8 4.1998ZM19.2325 16.7998H25.5675L22.4 11.3661L19.2325 16.7998ZM22.4 20.9998C19.6481 20.9998 17.36 19.5123 16.8875 17.5479C16.7737 17.0667 16.9312 16.5723 17.1806 16.1436L21.3456 9.00355C21.5643 8.6273 21.9668 8.3998 22.4 8.3998C22.8331 8.3998 23.2356 8.63168 23.4543 9.00355L27.6193 16.1436C27.8687 16.5723 28.0262 17.0667 27.9125 17.5479C27.44 19.5079 25.1518 20.9998 22.4 20.9998ZM5.54746 11.3661L2.37996 16.7998H8.71934L5.54746 11.3661ZM0.0393392 17.5479C-0.0744107 17.0667 0.0830892 16.5723 0.332464 16.1436L4.49746 9.00355C4.71621 8.6273 5.11871 8.3998 5.55184 8.3998C5.98496 8.3998 6.38746 8.63168 6.60621 9.00355L10.7712 16.1436C11.0206 16.5723 11.1781 17.0667 11.0643 17.5479C10.5918 19.5079 8.30371 20.9998 5.55184 20.9998C2.79996 20.9998 0.511839 19.5123 0.0393392 17.5479Z" fill="white"/>
<path d="M16.8 4.1998H22.4C23.1743 4.1998 23.8 4.82543 23.8 5.5998C23.8 6.37418 23.1743 6.9998 22.4 6.9998H17.43C17.2025 8.12855 16.4281 9.06043 15.4 9.50668V22.3998H22.4C23.1743 22.3998 23.8 23.0254 23.8 23.7998C23.8 24.5742 23.1743 25.1998 22.4 25.1998H5.59996C4.82559 25.1998 4.19996 24.5742 4.19996 23.7998C4.19996 23.0254 4.82559 22.3998 5.59996 22.3998H12.6V9.50668C11.5718 9.05605 10.7975 8.12418 10.57 6.9998H5.59996C4.82559 6.9998 4.19996 6.37418 4.19996 5.5998C4.19996 4.82543 4.82559 4.1998 5.59996 4.1998H11.2C11.8387 3.35105 12.8537 2.7998 14 2.7998C15.1462 2.7998 16.1612 3.35105 16.8 4.1998ZM19.2325 16.7998H25.5675L22.4 11.3661L19.2325 16.7998ZM22.4 20.9998C19.6481 20.9998 17.36 19.5123 16.8875 17.5479C16.7737 17.0667 16.9312 16.5723 17.1806 16.1436L21.3456 9.00355C21.5643 8.6273 21.9668 8.3998 22.4 8.3998C22.8331 8.3998 23.2356 8.63168 23.4543 9.00355L27.6193 16.1436C27.8687 16.5723 28.0262 17.0667 27.9125 17.5479C27.44 19.5079 25.1518 20.9998 22.4 20.9998ZM5.54746 11.3661L2.37996 16.7998H8.71934L5.54746 11.3661ZM0.0393392 17.5479C-0.0744107 17.0667 0.0830892 16.5723 0.332464 16.1436L4.49746 9.00355C4.71621 8.6273 5.11871 8.3998 5.55184 8.3998C5.98496 8.3998 6.38746 8.63168 6.60621 9.00355L10.7712 16.1436C11.0206 16.5723 11.1781 17.0667 11.0643 17.5479C10.5918 19.5079 8.30371 20.9998 5.55184 20.9998C2.79996 20.9998 0.511839 19.5123 0.0393392 17.5479Z" fill="white"/>
</svg>
