<svg width="40" height="40" viewBox="0 0 40 40" fill="none" xmlns="http://www.w3.org/2000/svg">
<path d="M20.0059 4C20.2934 4 20.5809 4.0625 20.8371 4.18125L32.6121 9.175C33.9871 9.75625 35.0121 11.1125 35.0059 12.75C34.9746 18.95 32.4246 30.2938 21.6496 35.45C20.6059 35.95 19.3934 35.95 18.3559 35.45C7.58089 30.2938 5.03714 18.9563 5.00589 12.75C4.99964 11.1125 6.02464 9.75625 7.39964 9.175L19.1684 4.18125C19.4246 4.0625 19.7121 4 20.0059 4ZM25.6871 14.2875C25.0184 13.8 24.0809 13.95 23.5934 14.6187L18.2434 21.975L16.5871 20.2625C16.0121 19.6688 15.0621 19.65 14.4684 20.225C13.8746 20.8 13.8559 21.75 14.4309 22.3438L17.3309 25.3438C17.6371 25.6625 18.0684 25.8312 18.5121 25.8C18.9559 25.7687 19.3621 25.5438 19.6246 25.1875L26.0184 16.3813C26.5059 15.7125 26.3559 14.775 25.6871 14.2875Z" fill="black"/>
<path d="M20.0059 4C20.2934 4 20.5809 4.0625 20.8371 4.18125L32.6121 9.175C33.9871 9.75625 35.0121 11.1125 35.0059 12.75C34.9746 18.95 32.4246 30.2938 21.6496 35.45C20.6059 35.95 19.3934 35.95 18.3559 35.45C7.58089 30.2938 5.03714 18.9563 5.00589 12.75C4.99964 11.1125 6.02464 9.75625 7.39964 9.175L19.1684 4.18125C19.4246 4.0625 19.7121 4 20.0059 4ZM25.6871 14.2875C25.0184 13.8 24.0809 13.95 23.5934 14.6187L18.2434 21.975L16.5871 20.2625C16.0121 19.6688 15.0621 19.65 14.4684 20.225C13.8746 20.8 13.8559 21.75 14.4309 22.3438L17.3309 25.3438C17.6371 25.6625 18.0684 25.8312 18.5121 25.8C18.9559 25.7687 19.3621 25.5438 19.6246 25.1875L26.0184 16.3813C26.5059 15.7125 26.3559 14.775 25.6871 14.2875Z" fill="white"/>
</svg>
