<svg width="40" height="40" viewBox="0 0 40 40" fill="none" xmlns="http://www.w3.org/2000/svg">
<path d="M26.95 29.7812L10.2188 13.05C8.81875 15.0125 8 17.4125 8 20C8 26.625 13.375 32 20 32C22.5938 32 24.9938 31.1812 26.95 29.7812ZM29.7812 26.95C31.1812 24.9875 32 22.5875 32 20C32 13.375 26.625 8 20 8C17.4062 8 15.0063 8.81875 13.05 10.2188L29.7812 26.95ZM4 20C4 11.1625 11.1625 4 20 4C28.8375 4 36 11.1625 36 20C36 28.8375 28.8375 36 20 36C11.1625 36 4 28.8375 4 20Z" fill="black"/>
<path d="M26.95 29.7812L10.2188 13.05C8.81875 15.0125 8 17.4125 8 20C8 26.625 13.375 32 20 32C22.5938 32 24.9938 31.1812 26.95 29.7812ZM29.7812 26.95C31.1812 24.9875 32 22.5875 32 20C32 13.375 26.625 8 20 8C17.4062 8 15.0063 8.81875 13.05 10.2188L29.7812 26.95ZM4 20C4 11.1625 11.1625 4 20 4C28.8375 4 36 11.1625 36 20C36 28.8375 28.8375 36 20 36C11.1625 36 4 28.8375 4 20Z" fill="white"/>
</svg>
