<svg width="106" height="94" viewBox="0 0 106 94" fill="none" xmlns="http://www.w3.org/2000/svg">
<g clip-path="url(#clip0_1_84)">
<path d="M71.1636 11.7868C70.8507 9.91412 71.458 8.00474 72.8014 6.66451L82.2236 -2.73549C83.7327 -4.2226 86.2722 -3.69018 87.0452 -1.74409L91.2778 8.81255L101.859 13.0352C103.828 13.8247 104.344 16.3399 102.853 17.8454L93.4309 27.2454C92.0875 28.5856 90.1736 29.1915 88.2966 28.8794L78.9663 27.3372L56.1285 50.1212C54.3986 51.8469 51.6014 51.8469 49.89 50.1212C48.1785 48.3954 48.1601 45.6047 49.89 43.8973L72.7278 21.1133L71.182 11.8051L71.1636 11.7868ZM90.1552 37.7469C93.1733 37.5633 96.0809 36.4618 98.4549 34.5708C99.5406 38.5364 100.13 42.704 100.13 47.0184C100.13 72.9786 79.04 94.0184 53.0184 94.0184C26.9969 94.0184 5.88892 72.9602 5.88892 47.0001C5.88892 21.0399 26.9785 5.48363e-05 53 5.48363e-05C57.3247 5.48363e-05 61.5021 0.587555 65.4771 1.67076C63.5816 4.03912 62.4591 6.9399 62.2934 9.95084C59.3306 9.21646 56.2205 8.81255 53.0184 8.81255C31.8736 8.81255 14.7407 25.9051 14.7407 47.0001C14.7407 68.095 31.8736 85.1876 53.0184 85.1876C74.1632 85.1876 91.2962 68.095 91.2962 47.0001C91.2962 43.8055 90.9097 40.7028 90.1552 37.7469ZM53 20.5626C55.374 20.5626 57.6743 20.8747 59.8643 21.4622L51.8959 29.4118C42.6577 29.9809 35.3334 37.6368 35.3334 47.0001C35.3334 56.7305 43.2466 64.6251 53 64.6251C62.3854 64.6251 70.0594 57.318 70.6299 48.1016L78.5983 40.152C79.1872 42.3368 79.5 44.6317 79.5 47.0001C79.5 61.5958 67.6302 73.4376 53 73.4376C38.3698 73.4376 26.5 61.5958 26.5 47.0001C26.5 32.4044 38.3698 20.5626 53 20.5626Z" fill="white"/>
</g>
<defs>
<clipPath id="clip0_1_84">
<rect width="106" height="94" fill="white"/>
</clipPath>
</defs>
</svg>
