<svg width="28" height="28" viewBox="0 0 28 28" fill="none" xmlns="http://www.w3.org/2000/svg">
<path d="M18.3182 5.60855C18.2438 5.1623 18.3882 4.7073 18.7075 4.38793L20.9475 2.14793C21.3063 1.79355 21.91 1.92043 22.0938 2.38418L23.1 4.8998L25.6157 5.90605C26.0838 6.09418 26.2063 6.69355 25.8519 7.0523L23.6119 9.2923C23.2925 9.61168 22.8375 9.75605 22.3913 9.68168L20.1732 9.31418L14.7438 14.7436C14.3325 15.1548 13.6675 15.1548 13.2607 14.7436C12.8538 14.3323 12.8494 13.6673 13.2607 13.2604L18.69 7.83105L18.3225 5.61293L18.3182 5.60855ZM22.0982 11.7598C23.065 11.9042 24.045 11.6373 24.8019 11.0336C25.06 11.9785 25.2 12.9717 25.2 13.9998C25.2 20.186 20.1863 25.1998 14 25.1998C7.8138 25.1998 2.80005 20.186 2.80005 13.9998C2.80005 7.81355 7.8138 2.7998 14 2.7998C15.0282 2.7998 16.0213 2.9398 16.9663 3.19793C16.3625 3.9548 16.0957 4.9348 16.24 5.90168C15.5269 5.7048 14.7788 5.5998 14 5.5998C9.36255 5.5998 5.60005 9.3623 5.60005 13.9998C5.60005 18.6373 9.36255 22.3998 14 22.3998C18.6375 22.3998 22.4 18.6373 22.4 13.9998C22.4 13.2254 22.295 12.4729 22.0982 11.7598ZM14 7.6998C14.5644 7.6998 15.1113 7.77418 15.6319 7.91418L12.8538 10.6923C11.4844 11.1692 10.5 12.4686 10.5 13.9998C10.5 15.9335 12.0663 17.4998 14 17.4998C15.5313 17.4998 16.8307 16.5154 17.3075 15.1461L20.0857 12.3679C20.2257 12.8886 20.3 13.4354 20.3 13.9998C20.3 17.4779 17.4782 20.2998 14 20.2998C10.5219 20.2998 7.70005 17.4779 7.70005 13.9998C7.70005 10.5217 10.5219 7.6998 14 7.6998Z" fill="white"/>
</svg>
