<svg width="28" height="28" viewBox="0 0 28 28" fill="none" xmlns="http://www.w3.org/2000/svg">
<path d="M14 3.5C16.5112 3.5 18.55 5.53875 18.55 8.05C18.55 10.5612 16.5112 12.6 14 12.6C11.4887 12.6 9.45 10.5612 9.45 8.05C9.45 5.53875 11.4887 3.5 14 3.5ZM4.2 6.65C5.94125 6.65 7.35 8.05875 7.35 9.8C7.35 11.5413 5.94125 12.95 4.2 12.95C2.45875 12.95 1.05 11.5413 1.05 9.8C1.05 8.05875 2.45875 6.65 4.2 6.65ZM0 21C0 17.9069 2.50688 15.4 5.6 15.4C6.16 15.4 6.7025 15.4831 7.21437 15.6362C5.775 17.2462 4.9 19.3725 4.9 21.7V22.4C4.9 22.8988 5.005 23.3713 5.19312 23.8H1.4C0.625625 23.8 0 23.1744 0 22.4V21ZM22.8069 23.8C22.995 23.3713 23.1 22.8988 23.1 22.4V21.7C23.1 19.3725 22.225 17.2462 20.7856 15.6362C21.2975 15.4831 21.84 15.4 22.4 15.4C25.4931 15.4 28 17.9069 28 21V22.4C28 23.1744 27.3744 23.8 26.6 23.8H22.8069ZM20.65 9.8C20.65 8.05875 22.0588 6.65 23.8 6.65C25.5413 6.65 26.95 8.05875 26.95 9.8C26.95 11.5413 25.5413 12.95 23.8 12.95C22.0588 12.95 20.65 11.5413 20.65 9.8ZM7 21.7C7 17.8325 10.1325 14.7 14 14.7C17.8675 14.7 21 17.8325 21 21.7V22.4C21 23.1744 20.3744 23.8 19.6 23.8H8.4C7.62562 23.8 7 23.1744 7 22.4V21.7Z" fill="white"/>
</svg>
