<svg width="28" height="28" viewBox="0 0 28 28" fill="none" xmlns="http://www.w3.org/2000/svg">
<path d="M11.2001 3.15039C14.1007 3.15039 16.4501 5.49977 16.4501 8.40039C16.4501 11.301 14.1007 13.6504 11.2001 13.6504C8.29947 13.6504 5.9501 11.301 5.9501 8.40039C5.9501 5.49977 8.29947 3.15039 11.2001 3.15039ZM9.90072 16.1004H12.4995C12.6701 16.1004 12.8451 16.1048 13.0157 16.1179C12.307 17.3516 11.9001 18.7779 11.9001 20.3004C11.9001 22.1291 12.4863 23.8223 13.4751 25.2004H3.39947C2.68197 25.2004 2.1001 24.6185 2.1001 23.901C2.1001 19.5916 5.59135 16.1004 9.90072 16.1004ZM14.0001 20.3004C14.0001 16.8223 16.822 14.0004 20.3001 14.0004C23.7782 14.0004 26.6001 16.8223 26.6001 20.3004C26.6001 23.7785 23.7782 26.6004 20.3001 26.6004C16.822 26.6004 14.0001 23.7785 14.0001 20.3004ZM23.8001 20.3004C23.8001 19.9154 23.4851 19.6004 23.1001 19.6004H17.5001C17.1151 19.6004 16.8001 19.9154 16.8001 20.3004C16.8001 20.6854 17.1151 21.0004 17.5001 21.0004H23.1001C23.4851 21.0004 23.8001 20.6854 23.8001 20.3004Z" fill="white"/>
<path d="M11.2001 3.15039C14.1007 3.15039 16.4501 5.49977 16.4501 8.40039C16.4501 11.301 14.1007 13.6504 11.2001 13.6504C8.29947 13.6504 5.9501 11.301 5.9501 8.40039C5.9501 5.49977 8.29947 3.15039 11.2001 3.15039ZM9.90072 16.1004H12.4995C12.6701 16.1004 12.8451 16.1048 13.0157 16.1179C12.307 17.3516 11.9001 18.7779 11.9001 20.3004C11.9001 22.1291 12.4863 23.8223 13.4751 25.2004H3.39947C2.68197 25.2004 2.1001 24.6185 2.1001 23.901C2.1001 19.5916 5.59135 16.1004 9.90072 16.1004ZM14.0001 20.3004C14.0001 16.8223 16.822 14.0004 20.3001 14.0004C23.7782 14.0004 26.6001 16.8223 26.6001 20.3004C26.6001 23.7785 23.7782 26.6004 20.3001 26.6004C16.822 26.6004 14.0001 23.7785 14.0001 20.3004ZM23.8001 20.3004C23.8001 19.9154 23.4851 19.6004 23.1001 19.6004H17.5001C17.1151 19.6004 16.8001 19.9154 16.8001 20.3004C16.8001 20.6854 17.1151 21.0004 17.5001 21.0004H23.1001C23.4851 21.0004 23.8001 20.6854 23.8001 20.3004Z" fill="white"/>
</svg>
