<svg width="173" height="78" viewBox="0 0 173 78" fill="none" xmlns="http://www.w3.org/2000/svg">
<rect x="0.5" y="0.5" width="172" height="76.0262" rx="9.5" fill="white"/>
<rect x="0.5" y="0.5" width="172" height="76.0262" rx="9.5" stroke="#E4E7EC"/>
<path d="M15.5238 20.9914V19.8238H21.6583V20.9914H19.2819V27.5127H17.9003V20.9914H15.5238ZM24.3966 27.6253C23.8334 27.6253 23.3454 27.5014 22.9324 27.2536C22.5194 27.0059 22.1991 26.6592 21.9713 26.2137C21.746 25.7682 21.6334 25.2476 21.6334 24.6519C21.6334 24.0562 21.746 23.5343 21.9713 23.0863C22.1991 22.6383 22.5194 22.2904 22.9324 22.0426C23.3454 21.7948 23.8334 21.6709 24.3966 21.6709C24.9597 21.6709 25.4478 21.7948 25.8608 22.0426C26.2738 22.2904 26.5929 22.6383 26.8181 23.0863C27.0459 23.5343 27.1598 24.0562 27.1598 24.6519C27.1598 25.2476 27.0459 25.7682 26.8181 26.2137C26.5929 26.6592 26.2738 27.0059 25.8608 27.2536C25.4478 27.5014 24.9597 27.6253 24.3966 27.6253ZM24.4041 26.5366C24.7095 26.5366 24.9647 26.4527 25.17 26.285C25.3752 26.1148 25.5279 25.8871 25.628 25.6017C25.7306 25.3164 25.7819 24.9985 25.7819 24.6481C25.7819 24.2952 25.7306 23.9761 25.628 23.6908C25.5279 23.4029 25.3752 23.1739 25.17 23.0037C24.9647 22.8335 24.7095 22.7484 24.4041 22.7484C24.0912 22.7484 23.8309 22.8335 23.6232 23.0037C23.418 23.1739 23.264 23.4029 23.1614 23.6908C23.0613 23.9761 23.0112 24.2952 23.0112 24.6481C23.0112 24.9985 23.0613 25.3164 23.1614 25.6017C23.264 25.8871 23.418 26.1148 23.6232 26.285C23.8309 26.4527 24.0912 26.5366 24.4041 26.5366ZM31.1295 21.746V22.7972H27.8144V21.746H31.1295ZM28.6328 20.3644H29.9919V25.7782C29.9919 25.9609 30.0194 26.1011 30.0745 26.1987C30.1321 26.2938 30.2071 26.3589 30.2997 26.3939C30.3924 26.4289 30.495 26.4465 30.6076 26.4465C30.6927 26.4465 30.7703 26.4402 30.8404 26.4277C30.913 26.4152 30.968 26.4039 31.0056 26.3939L31.2346 27.4564C31.162 27.4814 31.0581 27.5089 30.923 27.539C30.7903 27.569 30.6276 27.5865 30.4349 27.5915C30.0945 27.6015 29.7879 27.5502 29.5151 27.4376C29.2423 27.3225 29.0258 27.1448 28.8656 26.9045C28.7079 26.6642 28.6303 26.3639 28.6328 26.0035V20.3644ZM33.8621 27.6291C33.4966 27.6291 33.1675 27.564 32.8747 27.4339C32.5843 27.3012 32.3541 27.106 32.1839 26.8482C32.0162 26.5904 31.9323 26.2725 31.9323 25.8946C31.9323 25.5692 31.9924 25.3001 32.1125 25.0874C32.2327 24.8746 32.3966 24.7044 32.6044 24.5768C32.8121 24.4492 33.0461 24.3528 33.3064 24.2877C33.5692 24.2201 33.8408 24.1713 34.1211 24.1413C34.459 24.1063 34.7331 24.075 34.9433 24.0474C35.1536 24.0174 35.3062 23.9724 35.4013 23.9123C35.499 23.8497 35.5478 23.7533 35.5478 23.6232V23.6007C35.5478 23.3178 35.4639 23.0988 35.2962 22.9437C35.1285 22.7885 34.887 22.7109 34.5716 22.7109C34.2388 22.7109 33.9747 22.7835 33.7795 22.9286C33.5867 23.0738 33.4566 23.2453 33.389 23.443L32.1201 23.2628C32.2202 22.9124 32.3854 22.6195 32.6156 22.3843C32.8459 22.1465 33.1275 21.9688 33.4604 21.8512C33.7932 21.731 34.1612 21.6709 34.5641 21.6709C34.8419 21.6709 35.1185 21.7035 35.3938 21.7686C35.6692 21.8336 35.9207 21.9413 36.1485 22.0914C36.3762 22.2391 36.5589 22.4406 36.6966 22.6959C36.8368 22.9512 36.9068 23.2703 36.9068 23.6532V27.5127H35.6003V26.7205H35.5553C35.4727 26.8807 35.3563 27.0309 35.2061 27.1711C35.0584 27.3087 34.872 27.4201 34.6467 27.5052C34.424 27.5878 34.1624 27.6291 33.8621 27.6291ZM34.215 26.6304C34.4878 26.6304 34.7243 26.5766 34.9245 26.469C35.1248 26.3589 35.2787 26.2137 35.3863 26.0335C35.4965 25.8533 35.5515 25.6568 35.5515 25.4441V24.7645C35.509 24.7996 35.4364 24.8321 35.3338 24.8621C35.2337 24.8922 35.121 24.9184 34.9959 24.941C34.8707 24.9635 34.7468 24.9835 34.6242 25.001C34.5016 25.0186 34.3952 25.0336 34.3051 25.0461C34.1023 25.0736 33.9209 25.1187 33.7607 25.1813C33.6005 25.2438 33.4741 25.3314 33.3815 25.4441C33.2889 25.5542 33.2426 25.6968 33.2426 25.872C33.2426 26.1223 33.334 26.3113 33.5167 26.439C33.6994 26.5666 33.9321 26.6304 34.215 26.6304ZM39.5691 19.8238V27.5127H38.21V19.8238H39.5691ZM43.4621 27.5127V21.746H44.8212V27.5127H43.4621ZM44.1454 20.9276C43.9302 20.9276 43.745 20.8563 43.5898 20.7136C43.4346 20.5684 43.357 20.3945 43.357 20.1917C43.357 19.9865 43.4346 19.8125 43.5898 19.6699C43.745 19.5247 43.9302 19.4521 44.1454 19.4521C44.3632 19.4521 44.5484 19.5247 44.7011 19.6699C44.8563 19.8125 44.9338 19.9865 44.9338 20.1917C44.9338 20.3945 44.8563 20.5684 44.7011 20.7136C44.5484 20.8563 44.3632 20.9276 44.1454 20.9276ZM47.5144 24.1338V27.5127H46.1553V21.746H47.4543V22.7259H47.5219C47.6546 22.403 47.8661 22.1465 48.1564 21.9563C48.4492 21.7661 48.8109 21.6709 49.2414 21.6709C49.6394 21.6709 49.986 21.756 50.2814 21.9262C50.5792 22.0964 50.8095 22.343 50.9722 22.6658C51.1373 22.9887 51.2187 23.3804 51.2162 23.841V27.5127H49.8571V24.0512C49.8571 23.6657 49.757 23.3641 49.5568 23.1464C49.359 22.9286 49.085 22.8198 48.7346 22.8198C48.4968 22.8198 48.2853 22.8723 48.1001 22.9775C47.9174 23.0801 47.7735 23.229 47.6683 23.4242C47.5657 23.6194 47.5144 23.856 47.5144 24.1338ZM55.4139 21.746V22.7972H52.0988V21.746H55.4139ZM52.9173 20.3644H54.2764V25.7782C54.2764 25.9609 54.3039 26.1011 54.359 26.1987C54.4165 26.2938 54.4916 26.3589 54.5842 26.3939C54.6768 26.4289 54.7794 26.4465 54.8921 26.4465C54.9772 26.4465 55.0548 26.4402 55.1248 26.4277C55.1974 26.4152 55.2525 26.4039 55.29 26.3939L55.5191 27.4564C55.4465 27.4814 55.3426 27.5089 55.2074 27.539C55.0748 27.569 54.9121 27.5865 54.7194 27.5915C54.379 27.6015 54.0724 27.5502 53.7996 27.4376C53.5267 27.3225 53.3102 27.1448 53.1501 26.9045C52.9924 26.6642 52.9148 26.3639 52.9173 26.0035V20.3644ZM58.9781 27.6253C58.4 27.6253 57.9006 27.5052 57.4801 27.2649C57.0622 27.0221 56.7405 26.6792 56.5153 26.2362C56.29 25.7907 56.1774 25.2663 56.1774 24.6632C56.1774 24.07 56.29 23.5494 56.5153 23.1013C56.743 22.6508 57.0609 22.3004 57.4689 22.0501C57.8769 21.7973 58.3562 21.6709 58.9068 21.6709C59.2622 21.6709 59.5976 21.7285 59.913 21.8436C60.2308 21.9563 60.5111 22.1315 60.7539 22.3692C60.9992 22.607 61.1919 22.9099 61.3321 23.2778C61.4723 23.6432 61.5423 24.0787 61.5423 24.5843V25.001H56.8156V24.085H60.2396C60.2371 23.8247 60.1808 23.5932 60.0706 23.3904C59.9605 23.1852 59.8066 23.0238 59.6089 22.9061C59.4136 22.7885 59.1859 22.7297 58.9256 22.7297C58.6477 22.7297 58.4037 22.7972 58.1935 22.9324C57.9832 23.0651 57.8193 23.2403 57.7017 23.458C57.5865 23.6733 57.5277 23.9098 57.5252 24.1676V24.9673C57.5252 25.3026 57.5865 25.5905 57.7092 25.8308C57.8318 26.0685 58.0032 26.2512 58.2235 26.3789C58.4438 26.504 58.7016 26.5666 58.9969 26.5666C59.1946 26.5666 59.3736 26.5391 59.5338 26.484C59.694 26.4264 59.8329 26.3426 59.9505 26.2325C60.0681 26.1223 60.157 25.9859 60.2171 25.8232L61.486 25.9659C61.4059 26.3013 61.2533 26.5941 61.028 26.8444C60.8052 27.0922 60.5199 27.2849 60.172 27.4226C59.8241 27.5577 59.4261 27.6253 58.9781 27.6253ZM62.6287 27.5127V21.746H63.9464V22.7071H64.0065C64.1116 22.3743 64.2918 22.1177 64.5471 21.9375C64.8049 21.7548 65.099 21.6634 65.4294 21.6634C65.5045 21.6634 65.5883 21.6672 65.681 21.6747C65.7761 21.6797 65.8549 21.6885 65.9175 21.701V22.9512C65.8599 22.9311 65.7686 22.9136 65.6434 22.8986C65.5208 22.8811 65.4019 22.8723 65.2867 22.8723C65.039 22.8723 64.8162 22.9261 64.6185 23.0338C64.4232 23.1389 64.2693 23.2853 64.1567 23.473C64.0441 23.6607 63.9877 23.8772 63.9877 24.1225V27.5127H62.6287ZM69.0725 27.6253C68.4943 27.6253 67.995 27.5052 67.5745 27.2649C67.1565 27.0221 66.8349 26.6792 66.6096 26.2362C66.3843 25.7907 66.2717 25.2663 66.2717 24.6632C66.2717 24.07 66.3843 23.5494 66.6096 23.1013C66.8374 22.6508 67.1552 22.3004 67.5632 22.0501C67.9712 21.7973 68.4505 21.6709 69.0011 21.6709C69.3565 21.6709 69.6919 21.7285 70.0073 21.8436C70.3252 21.9563 70.6055 22.1315 70.8483 22.3692C71.0935 22.607 71.2863 22.9099 71.4264 23.2778C71.5666 23.6432 71.6367 24.0787 71.6367 24.5843V25.001H66.91V24.085H70.3339C70.3314 23.8247 70.2751 23.5932 70.165 23.3904C70.0548 23.1852 69.9009 23.0238 69.7032 22.9061C69.508 22.7885 69.2802 22.7297 69.0199 22.7297C68.7421 22.7297 68.498 22.7972 68.2878 22.9324C68.0776 23.0651 67.9136 23.2403 67.796 23.458C67.6808 23.6733 67.622 23.9098 67.6195 24.1676V24.9673C67.6195 25.3026 67.6808 25.5905 67.8035 25.8308C67.9261 26.0685 68.0976 26.2512 68.3178 26.3789C68.5381 26.504 68.7959 26.5666 69.0912 26.5666C69.289 26.5666 69.4679 26.5391 69.6281 26.484C69.7883 26.4264 69.9272 26.3426 70.0448 26.2325C70.1625 26.1223 70.2513 25.9859 70.3114 25.8232L71.5804 25.9659C71.5003 26.3013 71.3476 26.5941 71.1223 26.8444C70.8996 27.0922 70.6142 27.2849 70.2663 27.4226C69.9184 27.5577 69.5205 27.6253 69.0725 27.6253ZM77.2808 23.2703L76.0418 23.4054C76.0068 23.2803 75.9455 23.1627 75.8579 23.0525C75.7728 22.9424 75.6576 22.8536 75.5125 22.786C75.3673 22.7184 75.1896 22.6846 74.9794 22.6846C74.6965 22.6846 74.4588 22.7459 74.266 22.8686C74.0758 22.9912 73.982 23.1502 73.9845 23.3454C73.982 23.5131 74.0433 23.6495 74.1684 23.7546C74.2961 23.8597 74.5063 23.9461 74.7992 24.0137L75.7828 24.2239C76.3284 24.3415 76.7339 24.528 76.9992 24.7833C77.267 25.0386 77.4022 25.3727 77.4047 25.7857C77.4022 26.1486 77.2958 26.469 77.0855 26.7468C76.8778 27.0221 76.5887 27.2374 76.2183 27.3926C75.8479 27.5477 75.4224 27.6253 74.9418 27.6253C74.236 27.6253 73.6678 27.4777 73.2373 27.1823C72.8068 26.8845 72.5503 26.4702 72.4677 25.9396L73.793 25.812C73.8531 26.0723 73.9807 26.2688 74.1759 26.4014C74.3712 26.5341 74.6252 26.6004 74.9381 26.6004C75.2609 26.6004 75.52 26.5341 75.7152 26.4014C75.9129 26.2688 76.0118 26.1048 76.0118 25.9096C76.0118 25.7444 75.948 25.608 75.8203 25.5004C75.6952 25.3927 75.5 25.3101 75.2347 25.2526L74.251 25.0461C73.6979 24.931 73.2887 24.737 73.0233 24.4642C72.758 24.1889 72.6266 23.841 72.6291 23.4205C72.6266 23.0651 72.723 22.7572 72.9182 22.4969C73.116 22.2341 73.39 22.0314 73.7404 21.8887C74.0933 21.7435 74.5001 21.6709 74.9606 21.6709C75.6364 21.6709 76.1682 21.8149 76.5562 22.1027C76.9466 22.3905 77.1882 22.7797 77.2808 23.2703ZM81.3415 21.746V22.7972H78.0264V21.746H81.3415ZM78.8448 20.3644H80.2039V25.7782C80.2039 25.9609 80.2314 26.1011 80.2865 26.1987C80.3441 26.2938 80.4192 26.3589 80.5118 26.3939C80.6044 26.4289 80.707 26.4465 80.8196 26.4465C80.9047 26.4465 80.9823 26.4402 81.0524 26.4277C81.125 26.4152 81.18 26.4039 81.2176 26.3939L81.4466 27.4564C81.374 27.4814 81.2701 27.5089 81.135 27.539C81.0023 27.569 80.8396 27.5865 80.6469 27.5915C80.3065 27.6015 79.9999 27.5502 79.7271 27.4376C79.4543 27.3225 79.2378 27.1448 79.0776 26.9045C78.9199 26.6642 78.8423 26.3639 78.8448 26.0035V20.3644ZM87.5266 27.6253C86.9484 27.6253 86.4491 27.5052 86.0286 27.2649C85.6106 27.0221 85.289 26.6792 85.0637 26.2362C84.8385 25.7907 84.7259 25.2663 84.7259 24.6632C84.7259 24.07 84.8385 23.5494 85.0637 23.1013C85.2915 22.6508 85.6094 22.3004 86.0174 22.0501C86.4253 21.7973 86.9046 21.6709 87.4553 21.6709C87.8107 21.6709 88.1461 21.7285 88.4614 21.8436C88.7793 21.9563 89.0596 22.1315 89.3024 22.3692C89.5477 22.607 89.7404 22.9099 89.8806 23.2778C90.0207 23.6432 90.0908 24.0787 90.0908 24.5843V25.001H85.3641V24.085H88.7881C88.7856 23.8247 88.7292 23.5932 88.6191 23.3904C88.509 23.1852 88.3551 23.0238 88.1573 22.9061C87.9621 22.7885 87.7343 22.7297 87.474 22.7297C87.1962 22.7297 86.9522 22.7972 86.7419 22.9324C86.5317 23.0651 86.3678 23.2403 86.2501 23.458C86.135 23.6733 86.0762 23.9098 86.0737 24.1676V24.9673C86.0737 25.3026 86.135 25.5905 86.2576 25.8308C86.3803 26.0685 86.5517 26.2512 86.772 26.3789C86.9922 26.504 87.25 26.5666 87.5454 26.5666C87.7431 26.5666 87.9221 26.5391 88.0822 26.484C88.2424 26.4264 88.3813 26.3426 88.499 26.2325C88.6166 26.1223 88.7055 25.9859 88.7655 25.8232L90.0345 25.9659C89.9544 26.3013 89.8017 26.5941 89.5765 26.8444C89.3537 27.0922 89.0684 27.2849 88.7205 27.4226C88.3726 27.5577 87.9746 27.6253 87.5266 27.6253ZM92.8366 27.6291C92.4711 27.6291 92.142 27.564 91.8492 27.4339C91.5588 27.3012 91.3286 27.106 91.1584 26.8482C90.9907 26.5904 90.9068 26.2725 90.9068 25.8946C90.9068 25.5692 90.9669 25.3001 91.087 25.0874C91.2072 24.8746 91.3711 24.7044 91.5789 24.5768C91.7866 24.4492 92.0206 24.3528 92.2809 24.2877C92.5437 24.2201 92.8153 24.1713 93.0956 24.1413C93.4335 24.1063 93.7076 24.075 93.9178 24.0474C94.1281 24.0174 94.2807 23.9724 94.3758 23.9123C94.4735 23.8497 94.5223 23.7533 94.5223 23.6232V23.6007C94.5223 23.3178 94.4384 23.0988 94.2707 22.9437C94.103 22.7885 93.8615 22.7109 93.5461 22.7109C93.2132 22.7109 92.9492 22.7835 92.754 22.9286C92.5612 23.0738 92.4311 23.2453 92.3635 23.443L91.0945 23.2628C91.1947 22.9124 91.3599 22.6195 91.5901 22.3843C91.8204 22.1465 92.102 21.9688 92.4348 21.8512C92.7677 21.731 93.1357 21.6709 93.5386 21.6709C93.8164 21.6709 94.093 21.7035 94.3683 21.7686C94.6437 21.8336 94.8952 21.9413 95.123 22.0914C95.3507 22.2391 95.5334 22.4406 95.6711 22.6959C95.8113 22.9512 95.8813 23.2703 95.8813 23.6532V27.5127H94.5748V26.7205H94.5298C94.4472 26.8807 94.3308 27.0309 94.1806 27.1711C94.0329 27.3087 93.8465 27.4201 93.6212 27.5052C93.3985 27.5878 93.1369 27.6291 92.8366 27.6291ZM93.1895 26.6304C93.4623 26.6304 93.6988 26.5766 93.899 26.469C94.0993 26.3589 94.2532 26.2137 94.3608 26.0335C94.471 25.8533 94.526 25.6568 94.526 25.4441V24.7645C94.4835 24.7996 94.4109 24.8321 94.3083 24.8621C94.2081 24.8922 94.0955 24.9184 93.9704 24.941C93.8452 24.9635 93.7213 24.9835 93.5987 25.001C93.4761 25.0186 93.3697 25.0336 93.2796 25.0461C93.0768 25.0736 92.8954 25.1187 92.7352 25.1813C92.575 25.2438 92.4486 25.3314 92.356 25.4441C92.2634 25.5542 92.2171 25.6968 92.2171 25.872C92.2171 26.1223 92.3085 26.3113 92.4912 26.439C92.6739 26.5666 92.9066 26.6304 93.1895 26.6304ZM97.1845 27.5127V21.746H98.5022V22.7071H98.5623C98.6674 22.3743 98.8476 22.1177 99.1029 21.9375C99.3607 21.7548 99.6548 21.6634 99.9852 21.6634C100.06 21.6634 100.144 21.6672 100.237 21.6747C100.332 21.6797 100.411 21.6885 100.473 21.701V22.9512C100.416 22.9311 100.324 22.9136 100.199 22.8986C100.077 22.8811 99.9577 22.8723 99.8425 22.8723C99.5948 22.8723 99.372 22.9261 99.1743 23.0338C98.979 23.1389 98.8251 23.2853 98.7125 23.473C98.5999 23.6607 98.5435 23.8772 98.5435 24.1225V27.5127H97.1845ZM102.672 24.1338V27.5127H101.313V21.746H102.612V22.7259H102.679C102.812 22.403 103.023 22.1465 103.314 21.9563C103.607 21.7661 103.968 21.6709 104.399 21.6709C104.797 21.6709 105.143 21.756 105.439 21.9262C105.737 22.0964 105.967 22.343 106.13 22.6658C106.295 22.9887 106.376 23.3804 106.374 23.841V27.5127H105.015V24.0512C105.015 23.6657 104.914 23.3641 104.714 23.1464C104.516 22.9286 104.242 22.8198 103.892 22.8198C103.654 22.8198 103.443 22.8723 103.258 22.9775C103.075 23.0801 102.931 23.229 102.826 23.4242C102.723 23.6194 102.672 23.856 102.672 24.1338ZM110.245 27.6253C109.667 27.6253 109.167 27.5052 108.747 27.2649C108.329 27.0221 108.007 26.6792 107.782 26.2362C107.557 25.7907 107.444 25.2663 107.444 24.6632C107.444 24.07 107.557 23.5494 107.782 23.1013C108.01 22.6508 108.328 22.3004 108.735 22.0501C109.143 21.7973 109.623 21.6709 110.173 21.6709C110.529 21.6709 110.864 21.7285 111.18 21.8436C111.497 21.9563 111.778 22.1315 112.021 22.3692C112.266 22.607 112.459 22.9099 112.599 23.2778C112.739 23.6432 112.809 24.0787 112.809 24.5843V25.001H108.082V24.085H111.506C111.504 23.8247 111.447 23.5932 111.337 23.3904C111.227 23.1852 111.073 23.0238 110.875 22.9061C110.68 22.7885 110.452 22.7297 110.192 22.7297C109.914 22.7297 109.67 22.7972 109.46 22.9324C109.25 23.0651 109.086 23.2403 108.968 23.458C108.853 23.6733 108.794 23.9098 108.792 24.1676V24.9673C108.792 25.3026 108.853 25.5905 108.976 25.8308C109.098 26.0685 109.27 26.2512 109.49 26.3789C109.71 26.504 109.968 26.5666 110.263 26.5666C110.461 26.5666 110.64 26.5391 110.8 26.484C110.961 26.4264 111.099 26.3426 111.217 26.2325C111.335 26.1223 111.424 25.9859 111.484 25.8232L112.753 25.9659C112.673 26.3013 112.52 26.5941 112.295 26.8444C112.072 27.0922 111.787 27.2849 111.439 27.4226C111.091 27.5577 110.693 27.6253 110.245 27.6253ZM116.035 27.6141C115.582 27.6141 115.177 27.4977 114.819 27.2649C114.461 27.0321 114.178 26.6942 113.97 26.2512C113.763 25.8082 113.659 25.2701 113.659 24.6369C113.659 23.9961 113.764 23.4555 113.974 23.015C114.187 22.572 114.473 22.2378 114.834 22.0126C115.194 21.7848 115.596 21.6709 116.039 21.6709C116.377 21.6709 116.655 21.7285 116.872 21.8436C117.09 21.9563 117.263 22.0927 117.391 22.2529C117.518 22.4105 117.617 22.5595 117.687 22.6996H117.743V19.8238H119.106V27.5127H117.77V26.6041H117.687C117.617 26.7443 117.516 26.8932 117.383 27.0509C117.25 27.2061 117.075 27.3387 116.857 27.4489C116.64 27.559 116.366 27.6141 116.035 27.6141ZM116.414 26.499C116.702 26.499 116.948 26.4214 117.15 26.2663C117.353 26.1086 117.507 25.8896 117.612 25.6092C117.717 25.3289 117.77 25.0023 117.77 24.6294C117.77 24.2564 117.717 23.9323 117.612 23.657C117.509 23.3817 117.357 23.1677 117.154 23.015C116.954 22.8623 116.707 22.786 116.414 22.786C116.112 22.786 115.859 22.8648 115.656 23.0225C115.453 23.1802 115.301 23.3979 115.198 23.6758C115.095 23.9536 115.044 24.2714 115.044 24.6294C115.044 24.9898 115.095 25.3114 115.198 25.5942C115.303 25.8746 115.457 26.0961 115.66 26.2587C115.865 26.4189 116.117 26.499 116.414 26.499Z" fill="#576072"/>
<path d="M15.767 54.5127V52.8313C16.239 52.8313 16.6077 52.7044 16.8732 52.4508C17.1446 52.1912 17.2685 51.7664 17.2449 51.1764L17.1298 48.734H15.767V47.1853H17.059L16.9705 45.3269C16.9292 44.4891 17.0856 43.7576 17.4395 43.1322C17.7935 42.501 18.2891 42.0113 18.9263 41.6632C19.5634 41.3151 20.295 41.1411 21.1209 41.1411C21.8997 41.1411 22.59 41.3181 23.1917 41.672C23.7994 42.0201 24.2714 42.5069 24.6077 43.1322C24.9498 43.7517 25.1209 44.4714 25.1209 45.2915H23.2891C23.2891 44.5127 23.0944 43.908 22.705 43.4773C22.3156 43.0467 21.7906 42.8313 21.1298 42.8313C20.41 42.8313 19.8407 43.0467 19.4218 43.4773C19.0089 43.9021 18.8201 44.498 18.8555 45.265L18.9351 47.1853H22.528V48.734H18.9971L19.0944 51.026C19.1121 51.4921 19.0443 51.8696 18.8909 52.1587C18.7434 52.4419 18.5369 52.6661 18.2714 52.8313H22.6696C23.118 52.8313 23.3422 52.6071 23.3422 52.1587V51.6189H25.1386V52.0614C25.1386 53.6956 24.3215 54.5127 22.6873 54.5127H15.767ZM26.1858 54.5127V52.9552L30.9292 48.7251C31.4306 48.2708 31.8495 47.8638 32.1858 47.5039C32.5221 47.1381 32.7728 46.7782 32.938 46.4242C33.1091 46.0703 33.1946 45.672 33.1946 45.2296C33.1946 44.4803 32.9704 43.8874 32.5221 43.4508C32.0737 43.0083 31.4631 42.7871 30.6902 42.7871C29.8525 42.7871 29.2006 43.0467 28.7345 43.5658C28.2684 44.085 28.0354 44.79 28.0354 45.6809H26.2035C26.2035 44.7782 26.3864 43.9847 26.7522 43.3004C27.1239 42.616 27.643 42.0821 28.3097 41.6986C28.9823 41.3092 29.7728 41.1145 30.6814 41.1145C31.5309 41.1145 32.2831 41.2856 32.938 41.6278C33.5929 41.9641 34.1061 42.4361 34.4778 43.0437C34.8554 43.6455 35.0442 44.3446 35.0442 45.1411C35.0442 46.0201 34.8023 46.8136 34.3185 47.5216C33.8347 48.2236 33.1179 48.9994 32.1681 49.849L28.8584 52.8224V52.8401H35.115V54.5127H26.1858ZM41.0117 41.3269V54.5127H39.1091V43.2561H39.1002L35.879 45.3623V43.4862L39.1622 41.3269H41.0117ZM42.3155 57.0879L43.05 52.5658H44.9615L43.6518 57.0879H42.3155ZM50.699 54.6985C49.8199 54.6985 49.0353 54.5245 48.345 54.1764C47.6606 53.8224 47.112 53.3387 46.699 52.7251C46.2919 52.1056 46.0707 51.4006 46.0353 50.6101H47.9556C48.0146 51.318 48.2978 51.9021 48.8052 52.3623C49.3185 52.8165 49.9527 53.0437 50.7078 53.0437C51.5043 53.0437 52.1473 52.7752 52.637 52.2384C53.1326 51.7015 53.3804 51.0142 53.3804 50.1764C53.3804 49.3446 53.1414 48.6602 52.6636 48.1233C52.1857 47.5806 51.5633 47.3092 50.7963 47.3092C50.1238 47.3092 49.5456 47.4478 49.0618 47.7251C48.578 47.9965 48.2418 48.3918 48.053 48.911H46.2034L46.637 41.3269H54.522V43.0083H48.3981L48.1061 46.8933H48.1238C48.8966 46.0732 49.8848 45.6632 51.0884 45.6632C51.8907 45.6632 52.6046 45.8579 53.2299 46.2472C53.8612 46.6307 54.3568 47.1617 54.7167 47.8402C55.0824 48.5127 55.2653 49.2797 55.2653 50.141C55.2653 51.0319 55.0736 51.8195 54.6901 52.5039C54.3125 53.1882 53.7816 53.7251 53.0972 54.1145C52.4128 54.5038 51.6134 54.6985 50.699 54.6985ZM61.2771 54.7251C60.2565 54.7251 59.3745 54.4478 58.6311 53.8932C57.8936 53.3387 57.3243 52.554 56.9231 51.5393C56.522 50.5186 56.3214 49.3151 56.3214 47.9287C56.3214 46.5363 56.522 45.3298 56.9231 44.3092C57.3243 43.2886 57.8936 42.501 58.6311 41.9464C59.3745 41.3918 60.2565 41.1145 61.2771 41.1145C62.2918 41.1145 63.1679 41.3918 63.9054 41.9464C64.6488 42.501 65.221 43.2886 65.6222 44.3092C66.0234 45.3298 66.224 46.5363 66.224 47.9287C66.224 49.3151 66.0234 50.5186 65.6222 51.5393C65.221 52.554 64.6488 53.3387 63.9054 53.8932C63.1679 54.4478 62.2918 54.7251 61.2771 54.7251ZM61.2771 53.0525C62.2328 53.0525 62.9851 52.5982 63.5337 51.6897C64.0883 50.7752 64.3656 49.5216 64.3656 47.9287C64.3656 46.3298 64.0883 45.0732 63.5337 44.1588C62.9851 43.2443 62.2328 42.7871 61.2771 42.7871C60.3154 42.7871 59.5573 43.2443 59.0028 44.1588C58.4541 45.0732 58.1798 46.3298 58.1798 47.9287C58.1798 49.5216 58.4541 50.7752 59.0028 51.6897C59.5573 52.5982 60.3154 53.0525 61.2771 53.0525ZM72.2446 54.7251C71.224 54.7251 70.342 54.4478 69.5986 53.8932C68.8611 53.3387 68.2918 52.554 67.8906 51.5393C67.4895 50.5186 67.2889 49.3151 67.2889 47.9287C67.2889 46.5363 67.4895 45.3298 67.8906 44.3092C68.2918 43.2886 68.8611 42.501 69.5986 41.9464C70.342 41.3918 71.224 41.1145 72.2446 41.1145C73.2593 41.1145 74.1354 41.3918 74.8729 41.9464C75.6163 42.501 76.1885 43.2886 76.5897 44.3092C76.9909 45.3298 77.1915 46.5363 77.1915 47.9287C77.1915 49.3151 76.9909 50.5186 76.5897 51.5393C76.1885 52.554 75.6163 53.3387 74.8729 53.8932C74.1354 54.4478 73.2593 54.7251 72.2446 54.7251ZM72.2446 53.0525C73.2003 53.0525 73.9526 52.5982 74.5012 51.6897C75.0558 50.7752 75.3331 49.5216 75.3331 47.9287C75.3331 46.3298 75.0558 45.0732 74.5012 44.1588C73.9526 43.2443 73.2003 42.7871 72.2446 42.7871C71.283 42.7871 70.5248 43.2443 69.9703 44.1588C69.4216 45.0732 69.1473 46.3298 69.1473 47.9287C69.1473 49.5216 69.4216 50.7752 69.9703 51.6897C70.5248 52.5982 71.283 53.0525 72.2446 53.0525ZM79.1059 54.6631C78.7637 54.6631 78.4717 54.5451 78.2298 54.3092C77.9938 54.0673 77.8758 53.7723 77.8758 53.4242C77.8758 53.082 77.9938 52.79 78.2298 52.5481C78.4717 52.3062 78.7637 52.1853 79.1059 52.1853C79.454 52.1853 79.746 52.3062 79.982 52.5481C80.2239 52.79 80.3449 53.082 80.3449 53.4242C80.3449 53.7723 80.2239 54.0673 79.982 54.3092C79.746 54.5451 79.454 54.6631 79.1059 54.6631ZM85.9849 54.7251C84.9643 54.7251 84.0823 54.4478 83.3389 53.8932C82.6015 53.3387 82.0322 52.554 81.631 51.5393C81.2298 50.5186 81.0292 49.3151 81.0292 47.9287C81.0292 46.5363 81.2298 45.3298 81.631 44.3092C82.0322 43.2886 82.6015 42.501 83.3389 41.9464C84.0823 41.3918 84.9643 41.1145 85.9849 41.1145C86.9997 41.1145 87.8758 41.3918 88.6133 41.9464C89.3566 42.501 89.9289 43.2886 90.3301 44.3092C90.7312 45.3298 90.9318 46.5363 90.9318 47.9287C90.9318 49.3151 90.7312 50.5186 90.3301 51.5393C89.9289 52.554 89.3566 53.3387 88.6133 53.8932C87.8758 54.4478 86.9997 54.7251 85.9849 54.7251ZM85.9849 53.0525C86.9407 53.0525 87.6929 52.5982 88.2416 51.6897C88.7961 50.7752 89.0734 49.5216 89.0734 47.9287C89.0734 46.3298 88.7961 45.0732 88.2416 44.1588C87.6929 43.2443 86.9407 42.7871 85.9849 42.7871C85.0233 42.7871 84.2652 43.2443 83.7106 44.1588C83.162 45.0732 82.8876 46.3298 82.8876 47.9287C82.8876 49.5216 83.162 50.7752 83.7106 51.6897C84.2652 52.5982 85.0233 53.0525 85.9849 53.0525ZM96.9524 54.7251C95.9318 54.7251 95.0498 54.4478 94.3064 53.8932C93.569 53.3387 92.9997 52.554 92.5985 51.5393C92.1973 50.5186 91.9967 49.3151 91.9967 47.9287C91.9967 46.5363 92.1973 45.3298 92.5985 44.3092C92.9997 43.2886 93.569 42.501 94.3064 41.9464C95.0498 41.3918 95.9318 41.1145 96.9524 41.1145C97.9672 41.1145 98.8433 41.3918 99.5808 41.9464C100.324 42.501 100.896 43.2886 101.298 44.3092C101.699 45.3298 101.899 46.5363 101.899 47.9287C101.899 49.3151 101.699 50.5186 101.298 51.5393C100.896 52.554 100.324 53.3387 99.5808 53.8932C98.8433 54.4478 97.9672 54.7251 96.9524 54.7251ZM96.9524 53.0525C97.9082 53.0525 98.6604 52.5982 99.2091 51.6897C99.7636 50.7752 100.041 49.5216 100.041 47.9287C100.041 46.3298 99.7636 45.0732 99.2091 44.1588C98.6604 43.2443 97.9082 42.7871 96.9524 42.7871C95.9908 42.7871 95.2327 43.2443 94.6781 44.1588C94.1295 45.0732 93.8551 46.3298 93.8551 47.9287C93.8551 49.5216 94.1295 50.7752 94.6781 51.6897C95.2327 52.5982 95.9908 53.0525 96.9524 53.0525Z" fill="#212329"/>
</svg>
