<svg width="250" height="54" viewBox="0 0 250 54" fill="none" xmlns="http://www.w3.org/2000/svg">
<g clip-path="url(#clip0_7_10412)">
<rect width="250" height="53.7984" rx="10" fill="white"/>
<path d="M18.8993 25.0979C15.8929 25.0979 13.4563 22.6613 13.4563 19.6549C13.4563 16.6485 15.8929 14.2119 18.8993 14.2119C21.9057 14.2119 24.3422 16.6485 24.3422 19.6549C24.3422 22.6613 21.9057 25.0979 18.8993 25.0979ZM21.4081 17.3097C21.1806 17.1439 20.8617 17.1949 20.6959 17.4224L18.1572 20.9136L17.0495 19.8058C16.8497 19.606 16.5265 19.606 16.3287 19.8058C16.131 20.0057 16.1289 20.3289 16.3287 20.5266L17.8596 22.0574C17.9659 22.1638 18.1105 22.2169 18.2593 22.2063C18.4081 22.1956 18.5442 22.1191 18.6314 21.9979L21.5208 18.022C21.6867 17.7945 21.6356 17.4756 21.4081 17.3097Z" fill="#217613"/>
<path d="M37.9069 23.0957H32.4799V21.9269H37.9069V23.0957ZM36.3735 20.0552H32.4535V18.9164H36.3735V20.0552ZM34.5921 17.6273L34.7123 20.8482C34.7274 21.1814 34.6722 21.4696 34.547 21.7126C34.4242 21.9532 34.2075 22.1511 33.8968 22.3064L32.9046 21.9269C33.0273 21.9093 33.1213 21.8454 33.1864 21.7352C33.2516 21.6249 33.2954 21.4946 33.318 21.3443C33.3405 21.1915 33.3493 21.0461 33.3443 20.9083L33.2315 17.6273C33.214 17.1187 33.3105 16.6914 33.5209 16.3457C33.7339 15.9974 34.0233 15.7356 34.3891 15.5602C34.7549 15.3823 35.1596 15.2933 35.6031 15.2933C35.9839 15.2933 36.3247 15.351 36.6253 15.4662C36.9285 15.5815 37.1828 15.7418 37.3883 15.9473C37.5962 16.1528 37.7478 16.3908 37.843 16.6614C37.9408 16.932 37.9721 17.2239 37.937 17.5371L36.6328 17.4281C36.6504 17.2001 36.6128 17.0134 36.5201 16.8681C36.4299 16.7203 36.3046 16.6125 36.1443 16.5449C35.9864 16.4747 35.8173 16.4396 35.6369 16.4396C35.4515 16.4396 35.2786 16.4822 35.1182 16.5674C34.9604 16.6526 34.8326 16.7829 34.7349 16.9583C34.6397 17.1337 34.5921 17.3567 34.5921 17.6273ZM42.0998 23.2009C41.5586 23.2009 41.0775 23.1082 40.6566 22.9228C40.2381 22.7374 39.9074 22.4793 39.6644 22.1486C39.4213 21.8179 39.2923 21.4358 39.2772 21.0023H40.6904C40.7029 21.2103 40.7718 21.3919 40.8971 21.5473C41.0224 21.7001 41.189 21.8191 41.397 21.9043C41.6049 21.9895 41.8379 22.0321 42.096 22.0321C42.3716 22.0321 42.6159 21.9845 42.8289 21.8893C43.0419 21.7916 43.2085 21.6562 43.3288 21.4834C43.449 21.3105 43.5079 21.1113 43.5054 20.8858C43.5079 20.6528 43.4478 20.4473 43.325 20.2694C43.2022 20.0915 43.0243 19.9525 42.7913 19.8522C42.5608 19.752 42.2827 19.7019 41.957 19.7019H41.2767V18.627H41.957C42.2251 18.627 42.4593 18.5807 42.6598 18.4879C42.8627 18.3952 43.0218 18.265 43.1371 18.0971C43.2523 17.9267 43.3087 17.73 43.3062 17.507C43.3087 17.289 43.2599 17.0999 43.1596 16.9395C43.0619 16.7766 42.9229 16.6501 42.7425 16.5599C42.5646 16.4697 42.3553 16.4246 42.1148 16.4246C41.8793 16.4246 41.6613 16.4672 41.4609 16.5524C41.2604 16.6376 41.0988 16.7591 40.976 16.917C40.8533 17.0723 40.7881 17.2577 40.7806 17.4732H39.4389C39.4489 17.0422 39.5729 16.6639 39.8109 16.3382C40.0515 16.0099 40.3722 15.7544 40.7731 15.5715C41.174 15.386 41.6237 15.2933 42.1223 15.2933C42.636 15.2933 43.082 15.3898 43.4603 15.5827C43.8412 15.7732 44.1356 16.03 44.3435 16.3532C44.5515 16.6764 44.6555 17.0335 44.6555 17.4243C44.658 17.8578 44.5302 18.2211 44.2721 18.5143C44.0165 18.8074 43.6808 18.9991 43.2649 19.0893V19.1494C43.8061 19.2246 44.2208 19.425 44.5089 19.7508C44.7995 20.074 44.9436 20.4761 44.9411 20.9572C44.9411 21.3882 44.8183 21.774 44.5728 22.1148C44.3297 22.453 43.994 22.7186 43.5655 22.9115C43.1396 23.1045 42.651 23.2009 42.0998 23.2009ZM47.5526 22.0434L47.5038 22.4568C47.4687 22.7725 47.406 23.0932 47.3158 23.4189C47.2281 23.7472 47.1354 24.0491 47.0377 24.3247C46.94 24.6003 46.8611 24.817 46.8009 24.9749H45.8839C45.919 24.822 45.9666 24.6141 46.0267 24.351C46.0894 24.0879 46.1495 23.7923 46.2071 23.464C46.2648 23.1358 46.3036 22.8026 46.3236 22.4643L46.3499 22.0434H47.5526ZM51.5171 23.2009C51.1488 23.1984 50.7893 23.1345 50.4385 23.0093C50.0877 22.8815 49.772 22.6748 49.4914 22.3891C49.2108 22.101 48.9878 21.7189 48.8224 21.2428C48.657 20.7643 48.5756 20.1717 48.5781 19.4651C48.5781 18.8062 48.6483 18.2186 48.7886 17.7025C48.9289 17.1863 49.1306 16.7503 49.3937 16.3945C49.6568 16.0362 49.9737 15.7631 50.3445 15.5752C50.7179 15.3873 51.135 15.2933 51.5961 15.2933C52.0796 15.2933 52.5081 15.3886 52.8814 15.579C53.2573 15.7694 53.5604 16.03 53.791 16.3607C54.0215 16.6889 54.1643 17.0598 54.2194 17.4732H52.8476C52.7774 17.1775 52.6334 16.942 52.4154 16.7666C52.1999 16.5887 51.9268 16.4998 51.5961 16.4998C51.0624 16.4998 50.6515 16.7315 50.3633 17.1951C50.0777 17.6586 49.9336 18.295 49.9311 19.1043H49.9837C50.1065 18.8838 50.2656 18.6947 50.461 18.5368C50.6565 18.379 50.877 18.2574 51.1225 18.1722C51.3706 18.0846 51.6324 18.0407 51.908 18.0407C52.359 18.0407 52.7637 18.1484 53.122 18.3639C53.4828 18.5794 53.7684 18.8763 53.9789 19.2547C54.1893 19.6305 54.2933 20.0615 54.2908 20.5475C54.2933 21.0537 54.1781 21.5084 53.945 21.9118C53.712 22.3127 53.3876 22.6284 52.9716 22.8589C52.5557 23.0894 52.0709 23.2034 51.5171 23.2009ZM51.5096 22.0734C51.7827 22.0734 52.027 22.007 52.2425 21.8742C52.458 21.7414 52.6284 21.5623 52.7536 21.3368C52.8789 21.1113 52.9403 20.8582 52.9378 20.5776C52.9403 20.302 52.8802 20.0527 52.7574 19.8297C52.6371 19.6067 52.4705 19.43 52.2575 19.2998C52.0446 19.1695 51.8015 19.1043 51.5284 19.1043C51.3255 19.1043 51.1363 19.1432 50.9609 19.2208C50.7855 19.2985 50.6327 19.4062 50.5024 19.544C50.3721 19.6793 50.2694 19.8372 50.1942 20.0176C50.1215 20.1955 50.084 20.3859 50.0814 20.5889C50.084 20.857 50.1466 21.1038 50.2694 21.3293C50.3921 21.5548 50.5613 21.7352 50.7767 21.8705C50.9922 22.0058 51.2365 22.0734 51.5096 22.0734ZM58.3427 23.2423C57.7238 23.2423 57.1927 23.0857 56.7492 22.7725C56.3082 22.4568 55.9687 22.002 55.7307 21.4082C55.4951 20.8119 55.3774 20.094 55.3774 19.2547C55.3799 18.4153 55.4989 17.7012 55.7344 17.1124C55.9724 16.5211 56.312 16.0701 56.7529 15.7594C57.1964 15.4487 57.7264 15.2933 58.3427 15.2933C58.9591 15.2933 59.489 15.4487 59.9325 15.7594C60.376 16.0701 60.7155 16.5211 60.951 17.1124C61.1891 17.7037 61.3081 18.4178 61.3081 19.2547C61.3081 20.0965 61.1891 20.8156 60.951 21.412C60.7155 22.0058 60.376 22.4593 59.9325 22.7725C59.4915 23.0857 58.9616 23.2423 58.3427 23.2423ZM58.3427 22.0659C58.8238 22.0659 59.2034 21.8291 59.4815 21.3556C59.7621 20.8795 59.9024 20.1792 59.9024 19.2547C59.9024 18.6433 59.8386 18.1297 59.7108 17.7137C59.583 17.2978 59.4026 16.9846 59.1696 16.7741C58.9365 16.5612 58.6609 16.4547 58.3427 16.4547C57.8642 16.4547 57.4858 16.6927 57.2077 17.1688C56.9296 17.6423 56.7893 18.3376 56.7868 19.2547C56.7843 19.8685 56.8456 20.3847 56.9709 20.8031C57.0987 21.2215 57.2791 21.5372 57.5121 21.7502C57.7451 21.9607 58.022 22.0659 58.3427 22.0659ZM65.3384 23.2423C64.7195 23.2423 64.1883 23.0857 63.7448 22.7725C63.3038 22.4568 62.9643 22.002 62.7263 21.4082C62.4908 20.8119 62.373 20.094 62.373 19.2547C62.3755 18.4153 62.4945 17.7012 62.7301 17.1124C62.9681 16.5211 63.3076 16.0701 63.7486 15.7594C64.1921 15.4487 64.722 15.2933 65.3384 15.2933C65.9547 15.2933 66.4847 15.4487 66.9282 15.7594C67.3716 16.0701 67.7112 16.5211 67.9467 17.1124C68.1847 17.7037 68.3037 18.4178 68.3037 19.2547C68.3037 20.0965 68.1847 20.8156 67.9467 21.412C67.7112 22.0058 67.3716 22.4593 66.9282 22.7725C66.4872 23.0857 65.9572 23.2423 65.3384 23.2423ZM65.3384 22.0659C65.8194 22.0659 66.199 21.8291 66.4772 21.3556C66.7578 20.8795 66.8981 20.1792 66.8981 19.2547C66.8981 18.6433 66.8342 18.1297 66.7064 17.7137C66.5786 17.2978 66.3982 16.9846 66.1652 16.7741C65.9322 16.5612 65.6566 16.4547 65.3384 16.4547C64.8598 16.4547 64.4815 16.6927 64.2033 17.1688C63.9252 17.6423 63.7849 18.3376 63.7824 19.2547C63.7799 19.8685 63.8413 20.3847 63.9666 20.8031C64.0944 21.2215 64.2748 21.5372 64.5078 21.7502C64.7408 21.9607 65.0177 22.0659 65.3384 22.0659ZM70.0424 23.1784C69.8143 23.1784 69.6189 23.0982 69.4561 22.9379C69.2932 22.7775 69.213 22.5821 69.2155 22.3515C69.213 22.126 69.2932 21.9331 69.4561 21.7728C69.6189 21.6124 69.8143 21.5322 70.0424 21.5322C70.2628 21.5322 70.4545 21.6124 70.6174 21.7728C70.7828 21.9331 70.8667 22.126 70.8692 22.3515C70.8667 22.5044 70.8266 22.6434 70.7489 22.7687C70.6738 22.894 70.5735 22.9942 70.4483 23.0694C70.3255 23.1421 70.1902 23.1784 70.0424 23.1784ZM74.7407 23.2423C74.1218 23.2423 73.5906 23.0857 73.1472 22.7725C72.7062 22.4568 72.3667 22.002 72.1286 21.4082C71.8931 20.8119 71.7754 20.094 71.7754 19.2547C71.7779 18.4153 71.8969 17.7012 72.1324 17.1124C72.3704 16.5211 72.7099 16.0701 73.1509 15.7594C73.5944 15.4487 74.1243 15.2933 74.7407 15.2933C75.3571 15.2933 75.887 15.4487 76.3305 15.7594C76.774 16.0701 77.1135 16.5211 77.349 17.1124C77.587 17.7037 77.7061 18.4178 77.7061 19.2547C77.7061 20.0965 77.587 20.8156 77.349 21.412C77.1135 22.0058 76.774 22.4593 76.3305 22.7725C75.8895 23.0857 75.3596 23.2423 74.7407 23.2423ZM74.7407 22.0659C75.2218 22.0659 75.6014 21.8291 75.8795 21.3556C76.1601 20.8795 76.3004 20.1792 76.3004 19.2547C76.3004 18.6433 76.2365 18.1297 76.1087 17.7137C75.981 17.2978 75.8006 16.9846 75.5675 16.7741C75.3345 16.5612 75.0589 16.4547 74.7407 16.4547C74.2621 16.4547 73.8838 16.6927 73.6057 17.1688C73.3276 17.6423 73.1872 18.3376 73.1847 19.2547C73.1822 19.8685 73.2436 20.3847 73.3689 20.8031C73.4967 21.2215 73.6771 21.5372 73.9101 21.7502C74.1431 21.9607 74.42 22.0659 74.7407 22.0659ZM81.7363 23.2423C81.1175 23.2423 80.5863 23.0857 80.1428 22.7725C79.7018 22.4568 79.3623 22.002 79.1243 21.4082C78.8888 20.8119 78.771 20.094 78.771 19.2547C78.7735 18.4153 78.8925 17.7012 79.128 17.1124C79.3661 16.5211 79.7056 16.0701 80.1466 15.7594C80.59 15.4487 81.12 15.2933 81.7363 15.2933C82.3527 15.2933 82.8827 15.4487 83.3261 15.7594C83.7696 16.0701 84.1091 16.5211 84.3447 17.1124C84.5827 17.7037 84.7017 18.4178 84.7017 19.2547C84.7017 20.0965 84.5827 20.8156 84.3447 21.412C84.1091 22.0058 83.7696 22.4593 83.3261 22.7725C82.8852 23.0857 82.3552 23.2423 81.7363 23.2423ZM81.7363 22.0659C82.2174 22.0659 82.597 21.8291 82.8751 21.3556C83.1558 20.8795 83.2961 20.1792 83.2961 19.2547C83.2961 18.6433 83.2322 18.1297 83.1044 17.7137C82.9766 17.2978 82.7962 16.9846 82.5632 16.7741C82.3302 16.5612 82.0546 16.4547 81.7363 16.4547C81.2578 16.4547 80.8794 16.6927 80.6013 17.1688C80.3232 17.6423 80.1829 18.3376 80.1804 19.2547C80.1779 19.8685 80.2393 20.3847 80.3645 20.8031C80.4923 21.2215 80.6727 21.5372 80.9058 21.7502C81.1388 21.9607 81.4156 22.0659 81.7363 22.0659ZM88.4637 25.2605V17.3229H89.8016V18.2775H89.8806C89.9507 18.1372 90.0497 17.9881 90.1775 17.8302C90.3053 17.6699 90.4781 17.5333 90.6961 17.4206C90.9141 17.3053 91.1922 17.2477 91.5305 17.2477C91.9765 17.2477 92.3786 17.3617 92.7369 17.5897C93.0977 17.8152 93.3834 18.1497 93.5938 18.5932C93.8068 19.0342 93.9133 19.5754 93.9133 20.2168C93.9133 20.8507 93.8093 21.3894 93.6013 21.8329C93.3934 22.2764 93.1103 22.6146 92.752 22.8477C92.3937 23.0807 91.9878 23.1972 91.5342 23.1972C91.2035 23.1972 90.9291 23.1421 90.7112 23.0318C90.4932 22.9216 90.3178 22.7888 90.185 22.6334C90.0547 22.4756 89.9532 22.3265 89.8806 22.1862H89.8242V25.2605H88.4637ZM89.7979 20.2093C89.7979 20.5826 89.8505 20.9096 89.9557 21.1902C90.0635 21.4708 90.2176 21.6901 90.418 21.8479C90.621 22.0033 90.8665 22.0809 91.1547 22.0809C91.4553 22.0809 91.7071 22.0008 91.9101 21.8404C92.113 21.6775 92.2659 21.4558 92.3686 21.1752C92.4738 20.892 92.5265 20.5701 92.5265 20.2093C92.5265 19.851 92.4751 19.5328 92.3724 19.2547C92.2696 18.9765 92.1168 18.7586 91.9138 18.6007C91.7109 18.4428 91.4578 18.3639 91.1547 18.3639C90.864 18.3639 90.6172 18.4403 90.4143 18.5932C90.2113 18.746 90.0572 18.9602 89.952 19.2359C89.8492 19.5115 89.7979 19.8359 89.7979 20.2093ZM96.6761 23.2122C96.3103 23.2122 95.9808 23.1471 95.6876 23.0168C95.397 22.884 95.1665 22.6885 94.9961 22.4305C94.8282 22.1724 94.7443 21.8542 94.7443 21.4758C94.7443 21.1501 94.8044 20.8808 94.9247 20.6678C95.0449 20.4548 95.2091 20.2844 95.417 20.1567C95.625 20.0289 95.8593 19.9324 96.1198 19.8673C96.3829 19.7996 96.6548 19.7508 96.9354 19.7207C97.2737 19.6856 97.548 19.6543 97.7585 19.6267C97.969 19.5967 98.1218 19.5516 98.217 19.4914C98.3147 19.4288 98.3636 19.3323 98.3636 19.202V19.1795C98.3636 18.8964 98.2796 18.6771 98.1118 18.5218C97.9439 18.3664 97.7021 18.2888 97.3864 18.2888C97.0532 18.2888 96.7888 18.3614 96.5934 18.5067C96.4005 18.6521 96.2702 18.8237 96.2025 19.0216L94.9322 18.8412C95.0324 18.4905 95.1978 18.1973 95.4283 17.9618C95.6588 17.7237 95.9407 17.5459 96.2739 17.4281C96.6072 17.3078 96.9755 17.2477 97.3789 17.2477C97.657 17.2477 97.9339 17.2803 98.2095 17.3454C98.4851 17.4106 98.7369 17.5183 98.9649 17.6686C99.1929 17.8165 99.3758 18.0182 99.5136 18.2737C99.654 18.5293 99.7241 18.8488 99.7241 19.2321V23.0957H98.4162V22.3027H98.3711C98.2884 22.463 98.1719 22.6134 98.0216 22.7537C97.8737 22.8915 97.6871 23.003 97.4616 23.0882C97.2386 23.1709 96.9767 23.2122 96.6761 23.2122ZM97.0294 22.2125C97.3025 22.2125 97.5393 22.1586 97.7397 22.0509C97.9401 21.9406 98.0942 21.7953 98.202 21.6149C98.3122 21.4345 98.3673 21.2378 98.3673 21.0248V20.3446C98.3247 20.3797 98.2521 20.4122 98.1494 20.4423C98.0491 20.4724 97.9364 20.4987 97.8111 20.5212C97.6858 20.5438 97.5618 20.5638 97.439 20.5814C97.3163 20.5989 97.2098 20.6139 97.1196 20.6265C96.9166 20.654 96.735 20.6991 96.5746 20.7618C96.4142 20.8244 96.2877 20.9121 96.195 21.0248C96.1023 21.1351 96.0559 21.2779 96.0559 21.4533C96.0559 21.7039 96.1474 21.893 96.3303 22.0208C96.5132 22.1486 96.7462 22.2125 97.0294 22.2125ZM101.668 25.2605C101.482 25.2605 101.311 25.2455 101.153 25.2154C100.997 25.1879 100.873 25.1553 100.781 25.1177L101.096 24.0578C101.294 24.1155 101.471 24.143 101.626 24.1405C101.782 24.138 101.918 24.0892 102.036 23.994C102.156 23.9012 102.258 23.7459 102.34 23.5279L102.457 23.216L100.363 17.3229H101.807L103.137 21.6826H103.197L104.531 17.3229H105.978L103.667 23.7948C103.559 24.1004 103.416 24.3623 103.239 24.5803C103.061 24.8007 102.843 24.9686 102.585 25.0839C102.329 25.2016 102.023 25.2605 101.668 25.2605ZM106.856 23.0957V17.3229H108.157V18.3038H108.224C108.345 17.9731 108.544 17.715 108.822 17.5296C109.1 17.3416 109.432 17.2477 109.818 17.2477C110.209 17.2477 110.538 17.3429 110.806 17.5333C111.077 17.7212 111.267 17.9781 111.378 18.3038H111.438C111.566 17.9831 111.781 17.7275 112.084 17.5371C112.39 17.3442 112.752 17.2477 113.17 17.2477C113.702 17.2477 114.135 17.4156 114.471 17.7513C114.807 18.0871 114.974 18.5769 114.974 19.2208V23.0957H113.61V19.4313C113.61 19.073 113.515 18.8112 113.325 18.6458C113.134 18.4779 112.901 18.394 112.625 18.394C112.297 18.394 112.04 18.4967 111.855 18.7022C111.672 18.9051 111.581 19.1695 111.581 19.4952V23.0957H110.246V19.3749C110.246 19.0768 110.156 18.8387 109.976 18.6608C109.798 18.4829 109.565 18.394 109.277 18.394C109.081 18.394 108.903 18.4441 108.743 18.5443C108.583 18.642 108.455 18.7811 108.36 18.9615C108.265 19.1394 108.217 19.3474 108.217 19.5854V23.0957H106.856ZM118.847 23.2085C118.268 23.2085 117.768 23.0882 117.347 22.8477C116.929 22.6046 116.607 22.2613 116.381 21.8179C116.156 21.3719 116.043 20.8469 116.043 20.2431C116.043 19.6493 116.156 19.1281 116.381 18.6796C116.609 18.2286 116.928 17.8778 117.336 17.6273C117.744 17.3742 118.224 17.2477 118.775 17.2477C119.131 17.2477 119.467 17.3053 119.783 17.4206C120.101 17.5333 120.382 17.7087 120.625 17.9467C120.87 18.1848 121.063 18.4879 121.203 18.8563C121.344 19.2221 121.414 19.6581 121.414 20.1642V20.5814H116.682V19.6643H120.11C120.107 19.4037 120.051 19.172 119.941 18.969C119.83 18.7636 119.676 18.602 119.478 18.4842C119.283 18.3664 119.055 18.3075 118.794 18.3075C118.516 18.3075 118.272 18.3752 118.061 18.5105C117.851 18.6433 117.687 18.8187 117.569 19.0367C117.454 19.2521 117.395 19.4889 117.392 19.747V20.5475C117.392 20.8833 117.454 21.1714 117.577 21.412C117.699 21.65 117.871 21.8329 118.091 21.9607C118.312 22.086 118.57 22.1486 118.866 22.1486C119.064 22.1486 119.243 22.121 119.403 22.0659C119.564 22.0083 119.703 21.9243 119.82 21.8141C119.938 21.7039 120.027 21.5673 120.087 21.4044L121.357 21.5473C121.277 21.883 121.124 22.1762 120.899 22.4267C120.676 22.6748 120.39 22.8677 120.042 23.0055C119.694 23.1408 119.295 23.2085 118.847 23.2085ZM123.862 19.7132V23.0957H122.501V17.3229H123.802V18.3038H123.869C124.002 17.9806 124.214 17.7237 124.505 17.5333C124.798 17.3429 125.16 17.2477 125.591 17.2477C125.989 17.2477 126.336 17.3329 126.632 17.5033C126.93 17.6736 127.16 17.9204 127.323 18.2437C127.489 18.5669 127.57 18.959 127.568 19.42V23.0957H126.207V19.6305C126.207 19.2446 126.107 18.9427 125.906 18.7247C125.709 18.5067 125.434 18.3977 125.083 18.3977C124.845 18.3977 124.634 18.4504 124.448 18.5556C124.265 18.6583 124.121 18.8074 124.016 19.0028C123.913 19.1983 123.862 19.4351 123.862 19.7132ZM131.77 17.3229V18.3752H128.451V17.3229H131.77ZM129.271 15.9398H130.631V21.3593C130.631 21.5422 130.659 21.6826 130.714 21.7803C130.771 21.8755 130.847 21.9406 130.939 21.9757C131.032 22.0108 131.135 22.0283 131.247 22.0283C131.333 22.0283 131.41 22.0221 131.48 22.0095C131.553 21.997 131.608 21.9857 131.646 21.9757L131.875 23.0393C131.802 23.0644 131.698 23.0919 131.563 23.122C131.43 23.1521 131.268 23.1696 131.075 23.1746C130.734 23.1847 130.427 23.1333 130.154 23.0205C129.881 22.9053 129.664 22.7274 129.504 22.4868C129.346 22.2463 129.268 21.9456 129.271 21.5848V15.9398ZM136.597 23.0957L134.966 17.3229H136.353L137.368 21.3819H137.42L138.458 17.3229H139.83L140.867 21.3593H140.923L141.923 17.3229H143.314L141.679 23.0957H140.262L139.179 19.1945H139.1L138.018 23.0957H136.597ZM145.861 23.2122C145.495 23.2122 145.166 23.1471 144.873 23.0168C144.582 22.884 144.352 22.6885 144.181 22.4305C144.013 22.1724 143.929 21.8542 143.929 21.4758C143.929 21.1501 143.989 20.8808 144.11 20.6678C144.23 20.4548 144.394 20.2844 144.602 20.1567C144.81 20.0289 145.044 19.9324 145.305 19.8673C145.568 19.7996 145.84 19.7508 146.12 19.7207C146.459 19.6856 146.733 19.6543 146.944 19.6267C147.154 19.5967 147.307 19.5516 147.402 19.4914C147.5 19.4288 147.549 19.3323 147.549 19.202V19.1795C147.549 18.8964 147.465 18.6771 147.297 18.5218C147.129 18.3664 146.887 18.2888 146.571 18.2888C146.238 18.2888 145.974 18.3614 145.778 18.5067C145.586 18.6521 145.455 18.8237 145.388 19.0216L144.117 18.8412C144.218 18.4905 144.383 18.1973 144.613 17.9618C144.844 17.7237 145.126 17.5459 145.459 17.4281C145.792 17.3078 146.161 17.2477 146.564 17.2477C146.842 17.2477 147.119 17.2803 147.395 17.3454C147.67 17.4106 147.922 17.5183 148.15 17.6686C148.378 17.8165 148.561 18.0182 148.699 18.2737C148.839 18.5293 148.909 18.8488 148.909 19.2321V23.0957H147.601V22.3027H147.556C147.473 22.463 147.357 22.6134 147.207 22.7537C147.059 22.8915 146.872 23.003 146.647 23.0882C146.424 23.1709 146.162 23.2122 145.861 23.2122ZM146.214 22.2125C146.488 22.2125 146.724 22.1586 146.925 22.0509C147.125 21.9406 147.279 21.7953 147.387 21.6149C147.497 21.4345 147.552 21.2378 147.552 21.0248V20.3446C147.51 20.3797 147.437 20.4122 147.334 20.4423C147.234 20.4724 147.121 20.4987 146.996 20.5212C146.871 20.5438 146.747 20.5638 146.624 20.5814C146.501 20.5989 146.395 20.6139 146.305 20.6265C146.102 20.654 145.92 20.6991 145.76 20.7618C145.599 20.8244 145.473 20.9121 145.38 21.0248C145.287 21.1351 145.241 21.2779 145.241 21.4533C145.241 21.7039 145.332 21.893 145.515 22.0208C145.698 22.1486 145.931 22.2125 146.214 22.2125ZM154.776 18.8488L153.536 18.9841C153.501 18.8588 153.44 18.741 153.352 18.6308C153.267 18.5205 153.152 18.4316 153.006 18.3639C152.861 18.2963 152.683 18.2624 152.473 18.2624C152.189 18.2624 151.951 18.3238 151.758 18.4466C151.568 18.5694 151.474 18.7285 151.477 18.9239C151.474 19.0918 151.535 19.2283 151.661 19.3336C151.788 19.4388 151.999 19.5253 152.292 19.5929L153.277 19.8034C153.823 19.9211 154.229 20.1078 154.495 20.3634C154.763 20.6189 154.898 20.9534 154.9 21.3669C154.898 21.7302 154.791 22.0509 154.581 22.329C154.373 22.6046 154.084 22.8201 153.713 22.9754C153.342 23.1308 152.916 23.2085 152.435 23.2085C151.728 23.2085 151.16 23.0606 150.729 22.765C150.298 22.4668 150.041 22.0521 149.958 21.5209L151.285 21.3932C151.345 21.6537 151.473 21.8504 151.668 21.9832C151.864 22.116 152.118 22.1824 152.431 22.1824C152.754 22.1824 153.014 22.116 153.209 21.9832C153.407 21.8504 153.506 21.6863 153.506 21.4909C153.506 21.3255 153.442 21.189 153.314 21.0812C153.189 20.9735 152.994 20.8908 152.728 20.8332L151.743 20.6265C151.19 20.5112 150.78 20.317 150.514 20.0439C150.249 19.7683 150.117 19.42 150.12 18.9991C150.117 18.6433 150.214 18.3351 150.409 18.0745C150.607 17.8114 150.881 17.6085 151.232 17.4657C151.586 17.3203 151.993 17.2477 152.454 17.2477C153.13 17.2477 153.663 17.3918 154.051 17.6799C154.442 17.968 154.684 18.3577 154.776 18.8488ZM158.521 23.0957V17.3229H159.84V18.285H159.9C160.005 17.9518 160.185 17.6949 160.441 17.5145C160.699 17.3316 160.994 17.2402 161.324 17.2402C161.399 17.2402 161.483 17.2439 161.576 17.2514C161.671 17.2565 161.75 17.2652 161.813 17.2778V18.5293C161.755 18.5092 161.664 18.4917 161.538 18.4767C161.416 18.4591 161.297 18.4504 161.181 18.4504C160.933 18.4504 160.71 18.5042 160.512 18.612C160.317 18.7172 160.163 18.8638 160.05 19.0517C159.937 19.2396 159.881 19.4564 159.881 19.7019V23.0957H158.521ZM164.971 23.2085C164.392 23.2085 163.893 23.0882 163.472 22.8477C163.053 22.6046 162.731 22.2613 162.506 21.8179C162.28 21.3719 162.167 20.8469 162.167 20.2431C162.167 19.6493 162.28 19.1281 162.506 18.6796C162.734 18.2286 163.052 17.8778 163.46 17.6273C163.869 17.3742 164.349 17.2477 164.9 17.2477C165.256 17.2477 165.591 17.3053 165.907 17.4206C166.225 17.5333 166.506 17.7087 166.749 17.9467C166.994 18.1848 167.187 18.4879 167.328 18.8563C167.468 19.2221 167.538 19.6581 167.538 20.1642V20.5814H162.806V19.6643H166.234C166.231 19.4037 166.175 19.172 166.065 18.969C165.955 18.7636 165.801 18.602 165.603 18.4842C165.407 18.3664 165.179 18.3075 164.919 18.3075C164.64 18.3075 164.396 18.3752 164.186 18.5105C163.975 18.6433 163.811 18.8187 163.693 19.0367C163.578 19.2521 163.519 19.4889 163.517 19.747V20.5475C163.517 20.8833 163.578 21.1714 163.701 21.412C163.824 21.65 163.995 21.8329 164.216 21.9607C164.436 22.086 164.694 22.1486 164.99 22.1486C165.188 22.1486 165.367 22.121 165.527 22.0659C165.688 22.0083 165.827 21.9243 165.945 21.8141C166.062 21.7039 166.151 21.5673 166.211 21.4044L167.482 21.5473C167.402 21.883 167.249 22.1762 167.023 22.4267C166.8 22.6748 166.515 22.8677 166.166 23.0055C165.818 23.1408 165.42 23.2085 164.971 23.2085ZM171.136 25.3808C170.648 25.3808 170.228 25.3144 169.877 25.1816C169.526 25.0513 169.245 24.8759 169.032 24.6554C168.819 24.4349 168.671 24.1906 168.588 23.9225L169.813 23.6256C169.868 23.7384 169.949 23.8499 170.054 23.9601C170.159 24.0729 170.301 24.1656 170.479 24.2382C170.659 24.3134 170.886 24.351 171.159 24.351C171.545 24.351 171.864 24.257 172.117 24.0691C172.37 23.8837 172.497 23.578 172.497 23.1521V22.0584H172.429C172.359 22.1987 172.256 22.3428 172.121 22.4906C171.988 22.6384 171.811 22.7625 171.591 22.8627C171.373 22.9629 171.099 23.013 170.768 23.013C170.324 23.013 169.922 22.909 169.561 22.7011C169.203 22.4906 168.918 22.1774 168.705 21.7615C168.494 21.3431 168.389 20.8194 168.389 20.1905C168.389 19.5566 168.494 19.0216 168.705 18.5857C168.918 18.1472 169.204 17.8152 169.565 17.5897C169.926 17.3617 170.328 17.2477 170.772 17.2477C171.11 17.2477 171.388 17.3053 171.606 17.4206C171.827 17.5333 172.002 17.6699 172.132 17.8302C172.262 17.9881 172.361 18.1372 172.429 18.2775H172.504V17.3229H173.846V23.1897C173.846 23.6833 173.728 24.0917 173.493 24.4149C173.257 24.7381 172.935 24.9799 172.527 25.1403C172.118 25.3006 171.655 25.3808 171.136 25.3808ZM171.148 21.9456C171.436 21.9456 171.681 21.8755 171.884 21.7352C172.087 21.5949 172.241 21.3932 172.346 21.1301C172.452 20.867 172.504 20.5513 172.504 20.183C172.504 19.8197 172.452 19.5015 172.346 19.2283C172.244 18.9552 172.091 18.7435 171.888 18.5932C171.687 18.4403 171.441 18.3639 171.148 18.3639C170.844 18.3639 170.591 18.4428 170.388 18.6007C170.185 18.7586 170.033 18.9753 169.93 19.2509C169.827 19.524 169.776 19.8347 169.776 20.183C169.776 20.5363 169.827 20.8457 169.93 21.1113C170.035 21.3744 170.189 21.5798 170.392 21.7277C170.598 21.873 170.849 21.9456 171.148 21.9456ZM175.177 23.0957V17.3229H176.537V23.0957H175.177ZM175.861 16.5035C175.645 16.5035 175.46 16.4321 175.305 16.2893C175.149 16.144 175.072 15.9698 175.072 15.7669C175.072 15.5614 175.149 15.3873 175.305 15.2445C175.46 15.0992 175.645 15.0265 175.861 15.0265C176.079 15.0265 176.264 15.0992 176.417 15.2445C176.572 15.3873 176.65 15.5614 176.65 15.7669C176.65 15.9698 176.572 16.144 176.417 16.2893C176.264 16.4321 176.079 16.5035 175.861 16.5035ZM182.436 18.8488L181.195 18.9841C181.16 18.8588 181.099 18.741 181.011 18.6308C180.926 18.5205 180.811 18.4316 180.665 18.3639C180.52 18.2963 180.342 18.2624 180.132 18.2624C179.849 18.2624 179.611 18.3238 179.418 18.4466C179.227 18.5694 179.133 18.7285 179.136 18.9239C179.133 19.0918 179.195 19.2283 179.32 19.3336C179.448 19.4388 179.658 19.5253 179.951 19.5929L180.936 19.8034C181.482 19.9211 181.888 20.1078 182.154 20.3634C182.422 20.6189 182.557 20.9534 182.56 21.3669C182.557 21.7302 182.451 22.0509 182.24 22.329C182.032 22.6046 181.743 22.8201 181.372 22.9754C181.001 23.1308 180.575 23.2085 180.094 23.2085C179.388 23.2085 178.819 23.0606 178.388 22.765C177.957 22.4668 177.7 22.0521 177.617 21.5209L178.944 21.3932C179.004 21.6537 179.132 21.8504 179.327 21.9832C179.523 22.116 179.777 22.1824 180.09 22.1824C180.414 22.1824 180.673 22.116 180.868 21.9832C181.066 21.8504 181.165 21.6863 181.165 21.4909C181.165 21.3255 181.101 21.189 180.974 21.0812C180.848 20.9735 180.653 20.8908 180.387 20.8332L179.403 20.6265C178.849 20.5112 178.439 20.317 178.174 20.0439C177.908 19.7683 177.776 19.42 177.779 18.9991C177.776 18.6433 177.873 18.3351 178.068 18.0745C178.266 17.8114 178.541 17.6085 178.891 17.4657C179.245 17.3203 179.652 17.2477 180.113 17.2477C180.789 17.2477 181.322 17.3918 181.71 17.6799C182.101 17.968 182.343 18.3577 182.436 18.8488ZM186.501 17.3229V18.3752H183.182V17.3229H186.501ZM184.001 15.9398H185.362V21.3593C185.362 21.5422 185.389 21.6826 185.445 21.7803C185.502 21.8755 185.577 21.9406 185.67 21.9757C185.763 22.0108 185.866 22.0283 185.978 22.0283C186.063 22.0283 186.141 22.0221 186.211 22.0095C186.284 21.997 186.339 21.9857 186.377 21.9757L186.606 23.0393C186.533 23.0644 186.429 23.0919 186.294 23.122C186.161 23.1521 185.998 23.1696 185.805 23.1746C185.465 23.1847 185.158 23.1333 184.885 23.0205C184.611 22.9053 184.395 22.7274 184.234 22.4868C184.077 22.2463 183.999 21.9456 184.001 21.5848V15.9398ZM190.069 23.2085C189.49 23.2085 188.99 23.0882 188.569 22.8477C188.151 22.6046 187.829 22.2613 187.603 21.8179C187.378 21.3719 187.265 20.8469 187.265 20.2431C187.265 19.6493 187.378 19.1281 187.603 18.6796C187.831 18.2286 188.149 17.8778 188.558 17.6273C188.966 17.3742 189.446 17.2477 189.997 17.2477C190.353 17.2477 190.689 17.3053 191.005 17.4206C191.323 17.5333 191.603 17.7087 191.846 17.9467C192.092 18.1848 192.285 18.4879 192.425 18.8563C192.565 19.2221 192.636 19.6581 192.636 20.1642V20.5814H187.904V19.6643H191.331C191.329 19.4037 191.273 19.172 191.162 18.969C191.052 18.7636 190.898 18.602 190.7 18.4842C190.505 18.3664 190.277 18.3075 190.016 18.3075C189.738 18.3075 189.494 18.3752 189.283 18.5105C189.073 18.6433 188.909 18.8187 188.791 19.0367C188.676 19.2521 188.617 19.4889 188.614 19.747V20.5475C188.614 20.8833 188.676 21.1714 188.798 21.412C188.921 21.65 189.093 21.8329 189.313 21.9607C189.534 22.086 189.792 22.1486 190.087 22.1486C190.285 22.1486 190.465 22.121 190.625 22.0659C190.785 22.0083 190.924 21.9243 191.042 21.8141C191.16 21.7039 191.249 21.5673 191.309 21.4044L192.579 21.5473C192.499 21.883 192.346 22.1762 192.121 22.4267C191.898 22.6748 191.612 22.8677 191.264 23.0055C190.916 23.1408 190.517 23.2085 190.069 23.2085ZM193.723 23.0957V17.3229H195.042V18.285H195.102C195.208 17.9518 195.388 17.6949 195.644 17.5145C195.902 17.3316 196.196 17.2402 196.527 17.2402C196.602 17.2402 196.686 17.2439 196.779 17.2514C196.874 17.2565 196.953 17.2652 197.015 17.2778V18.5293C196.958 18.5092 196.866 18.4917 196.741 18.4767C196.618 18.4591 196.499 18.4504 196.384 18.4504C196.136 18.4504 195.913 18.5042 195.715 18.612C195.52 18.7172 195.366 18.8638 195.253 19.0517C195.14 19.2396 195.084 19.4564 195.084 19.7019V23.0957H193.723ZM200.174 23.2085C199.595 23.2085 199.095 23.0882 198.674 22.8477C198.256 22.6046 197.934 22.2613 197.708 21.8179C197.483 21.3719 197.37 20.8469 197.37 20.2431C197.37 19.6493 197.483 19.1281 197.708 18.6796C197.936 18.2286 198.255 17.8778 198.663 17.6273C199.071 17.3742 199.551 17.2477 200.102 17.2477C200.458 17.2477 200.794 17.3053 201.11 17.4206C201.428 17.5333 201.708 17.7087 201.952 17.9467C202.197 18.1848 202.39 18.4879 202.53 18.8563C202.671 19.2221 202.741 19.6581 202.741 20.1642V20.5814H198.009V19.6643H201.437C201.434 19.4037 201.378 19.172 201.268 18.969C201.157 18.7636 201.003 18.602 200.805 18.4842C200.61 18.3664 200.382 18.3075 200.121 18.3075C199.843 18.3075 199.599 18.3752 199.388 18.5105C199.178 18.6433 199.014 18.8187 198.896 19.0367C198.781 19.2521 198.722 19.4889 198.719 19.747V20.5475C198.719 20.8833 198.781 21.1714 198.903 21.412C199.026 21.65 199.198 21.8329 199.418 21.9607C199.639 22.086 199.897 22.1486 200.193 22.1486C200.391 22.1486 200.57 22.121 200.73 22.0659C200.89 22.0083 201.029 21.9243 201.147 21.8141C201.265 21.7039 201.354 21.5673 201.414 21.4044L202.684 21.5473C202.604 21.883 202.451 22.1762 202.226 22.4267C202.003 22.6748 201.717 22.8677 201.369 23.0055C201.021 23.1408 200.622 23.2085 200.174 23.2085ZM205.971 23.1972C205.517 23.1972 205.111 23.0807 204.753 22.8477C204.395 22.6146 204.111 22.2764 203.903 21.8329C203.695 21.3894 203.592 20.8507 203.592 20.2168C203.592 19.5754 203.697 19.0342 203.907 18.5932C204.12 18.1497 204.407 17.8152 204.768 17.5897C205.129 17.3617 205.531 17.2477 205.974 17.2477C206.313 17.2477 206.591 17.3053 206.809 17.4206C207.027 17.5333 207.2 17.6699 207.327 17.8302C207.455 17.9881 207.554 18.1372 207.624 18.2775H207.681V15.3986H209.045V23.0957H207.707V22.1862H207.624C207.554 22.3265 207.453 22.4756 207.32 22.6334C207.187 22.7888 207.012 22.9216 206.794 23.0318C206.576 23.1421 206.301 23.1972 205.971 23.1972ZM206.35 22.0809C206.638 22.0809 206.884 22.0033 207.087 21.8479C207.29 21.6901 207.444 21.4708 207.549 21.1902C207.654 20.9096 207.707 20.5826 207.707 20.2093C207.707 19.8359 207.654 19.5115 207.549 19.2359C207.446 18.9602 207.293 18.746 207.091 18.5932C206.89 18.4403 206.643 18.3639 206.35 18.3639C206.047 18.3639 205.794 18.4428 205.591 18.6007C205.388 18.7586 205.235 18.9765 205.132 19.2547C205.03 19.5328 204.978 19.851 204.978 20.2093C204.978 20.5701 205.03 20.892 205.132 21.1752C205.238 21.4558 205.392 21.6775 205.595 21.8404C205.8 22.0008 206.052 22.0809 206.35 22.0809ZM212.096 15.3986L211.972 20.8332H210.762L210.642 15.3986H212.096ZM211.367 23.1784C211.139 23.1784 210.944 23.0982 210.781 22.9379C210.62 22.7775 210.54 22.5821 210.54 22.3515C210.54 22.126 210.62 21.9331 210.781 21.7728C210.944 21.6124 211.139 21.5322 211.367 21.5322C211.59 21.5322 211.783 21.6124 211.946 21.7728C212.111 21.9331 212.194 22.126 212.194 22.3515C212.194 22.5044 212.155 22.6434 212.077 22.7687C212.002 22.894 211.902 22.9942 211.777 23.0694C211.654 23.1421 211.517 23.1784 211.367 23.1784Z" fill="#212329"/>
<path d="M33.6149 31.9103V39.6074H32.6828V31.9103H33.6149ZM37.8105 33.8346V34.5862H34.8189V33.8346H37.8105ZM35.6908 32.4515H36.5778V37.9537C36.5778 38.2043 36.6141 38.3922 36.6868 38.5175C36.762 38.6403 36.8572 38.723 36.9724 38.7655C37.0902 38.8056 37.2142 38.8257 37.3445 38.8257C37.4422 38.8257 37.5224 38.8207 37.585 38.8106C37.6477 38.7981 37.6978 38.7881 37.7354 38.7806L37.9158 39.5774C37.8556 39.5999 37.7717 39.6225 37.664 39.645C37.5562 39.6701 37.4197 39.6826 37.2543 39.6826C37.0038 39.6826 36.7582 39.6287 36.5177 39.521C36.2796 39.4132 36.0817 39.2491 35.9238 39.0286C35.7685 38.8081 35.6908 38.53 35.6908 38.1943V32.4515ZM41.9944 39.6074V33.8346H42.8513V34.7366H42.9265C43.0467 34.4284 43.2409 34.1891 43.509 34.0187C43.7771 33.8458 44.0991 33.7594 44.4749 33.7594C44.8558 33.7594 45.1727 33.8458 45.4258 34.0187C45.6813 34.1891 45.8805 34.4284 46.0234 34.7366H46.0835C46.2313 34.4384 46.4531 34.2016 46.7487 34.0263C47.0444 33.8484 47.3989 33.7594 47.8123 33.7594C48.3285 33.7594 48.7507 33.921 49.0789 34.2442C49.4071 34.5649 49.5713 35.0648 49.5713 35.7438V39.6074H48.6843V35.7438C48.6843 35.3179 48.5678 35.0134 48.3347 34.8305C48.1017 34.6476 47.8274 34.5562 47.5117 34.5562C47.1058 34.5562 46.7913 34.679 46.5683 34.9245C46.3453 35.1675 46.2338 35.4757 46.2338 35.8491V39.6074H45.3318V35.6536C45.3318 35.3254 45.2253 35.0611 45.0124 34.8606C44.7994 34.6577 44.525 34.5562 44.1893 34.5562C43.9588 34.5562 43.7433 34.6176 43.5428 34.7403C43.3449 34.8631 43.1845 35.0335 43.0618 35.2515C42.9415 35.467 42.8814 35.7163 42.8814 35.9994V39.6074H41.9944ZM52.8283 39.7427C52.4624 39.7427 52.1305 39.6738 51.8323 39.536C51.5341 39.3957 51.2974 39.194 51.122 38.9309C50.9466 38.6653 50.8589 38.3446 50.8589 37.9688C50.8589 37.638 50.924 37.3699 51.0543 37.1645C51.1846 36.9565 51.3587 36.7937 51.5767 36.6759C51.7947 36.5581 52.0352 36.4704 52.2983 36.4128C52.5639 36.3527 52.8308 36.3051 53.0989 36.27C53.4496 36.2249 53.734 36.1911 53.952 36.1685C54.1725 36.1435 54.3329 36.1021 54.4331 36.0445C54.5358 35.9869 54.5872 35.8866 54.5872 35.7438V35.7138C54.5872 35.3429 54.4857 35.0548 54.2828 34.8493C54.0823 34.6439 53.7779 34.5411 53.3695 34.5411C52.946 34.5411 52.614 34.6339 52.3735 34.8193C52.133 35.0047 51.9638 35.2026 51.8661 35.4131L51.0242 35.1124C51.1746 34.7616 51.375 34.4885 51.6256 34.2931C51.8787 34.0952 52.1543 33.9573 52.4524 33.8797C52.7531 33.7995 53.0488 33.7594 53.3394 33.7594C53.5248 33.7594 53.7378 33.782 53.9783 33.8271C54.2214 33.8697 54.4556 33.9586 54.6811 34.0939C54.9091 34.2292 55.0983 34.4334 55.2487 34.7065C55.399 34.9796 55.4742 35.3454 55.4742 35.804V39.6074H54.5872V38.8257H54.5421C54.4819 38.951 54.3817 39.085 54.2414 39.2278C54.1011 39.3706 53.9144 39.4922 53.6814 39.5924C53.4484 39.6926 53.164 39.7427 52.8283 39.7427ZM52.9636 38.9459C53.3143 38.9459 53.61 38.877 53.8505 38.7392C54.0936 38.6014 54.2765 38.4235 54.3993 38.2056C54.5245 37.9876 54.5872 37.7583 54.5872 37.5178V36.706C54.5496 36.7511 54.4669 36.7924 54.3391 36.83C54.2138 36.8651 54.0685 36.8964 53.9032 36.9239C53.7403 36.949 53.5812 36.9716 53.4258 36.9916C53.273 37.0091 53.149 37.0242 53.0538 37.0367C52.8233 37.0668 52.6078 37.1156 52.4073 37.1833C52.2094 37.2484 52.049 37.3474 51.9263 37.4802C51.806 37.6105 51.7459 37.7884 51.7459 38.0139C51.7459 38.3221 51.8599 38.5551 52.0879 38.7129C52.3184 38.8683 52.6103 38.9459 52.9636 38.9459ZM57.3941 41.7722C57.2438 41.7722 57.1097 41.7597 56.992 41.7347C56.8742 41.7121 56.7928 41.6896 56.7477 41.667L56.9732 40.8853C57.1887 40.9404 57.3791 40.9604 57.5445 40.9454C57.7098 40.9304 57.8564 40.8565 57.9842 40.7237C58.1145 40.5934 58.2335 40.3816 58.3412 40.0885L58.5066 39.6375L56.3719 33.8346H57.334L58.9275 38.4348H58.9877L60.5812 33.8346H61.5434L59.0929 40.4493C58.9827 40.7475 58.8461 40.9943 58.6832 41.1897C58.5204 41.3876 58.3312 41.5342 58.1157 41.6294C57.9028 41.7246 57.6622 41.7722 57.3941 41.7722ZM68.0743 33.8346V34.5862H65.0826V33.8346H68.0743ZM65.9546 32.4515H66.8416V37.9537C66.8416 38.2043 66.8779 38.3922 66.9506 38.5175C67.0257 38.6403 67.1209 38.723 67.2362 38.7655C67.3539 38.8056 67.478 38.8257 67.6083 38.8257C67.706 38.8257 67.7862 38.8207 67.8488 38.8106C67.9114 38.7981 67.9616 38.7881 67.9991 38.7806L68.1795 39.5774C68.1194 39.5999 68.0355 39.6225 67.9277 39.645C67.82 39.6701 67.6834 39.6826 67.5181 39.6826C67.2675 39.6826 67.022 39.6287 66.7814 39.521C66.5434 39.4132 66.3455 39.2491 66.1876 39.0286C66.0323 38.8081 65.9546 38.53 65.9546 38.1943V32.4515ZM71.0438 39.7427C70.678 39.7427 70.346 39.6738 70.0478 39.536C69.7497 39.3957 69.5129 39.194 69.3375 38.9309C69.1621 38.6653 69.0744 38.3446 69.0744 37.9688C69.0744 37.638 69.1396 37.3699 69.2699 37.1645C69.4001 36.9565 69.5743 36.7937 69.7923 36.6759C70.0103 36.5581 70.2508 36.4704 70.5139 36.4128C70.7795 36.3527 71.0463 36.3051 71.3144 36.27C71.6652 36.2249 71.9496 36.1911 72.1676 36.1685C72.388 36.1435 72.5484 36.1021 72.6486 36.0445C72.7514 35.9869 72.8027 35.8866 72.8027 35.7438V35.7138C72.8027 35.3429 72.7012 35.0548 72.4983 34.8493C72.2978 34.6439 71.9934 34.5411 71.585 34.5411C71.1616 34.5411 70.8296 34.6339 70.589 34.8193C70.3485 35.0047 70.1794 35.2026 70.0817 35.4131L69.2398 35.1124C69.3901 34.7616 69.5906 34.4885 69.8411 34.2931C70.0942 34.0952 70.3698 33.9573 70.668 33.8797C70.9686 33.7995 71.2643 33.7594 71.5549 33.7594C71.7404 33.7594 71.9533 33.782 72.1939 33.8271C72.4369 33.8697 72.6712 33.9586 72.8967 34.0939C73.1247 34.2292 73.3139 34.4334 73.4642 34.7065C73.6145 34.9796 73.6897 35.3454 73.6897 35.804V39.6074H72.8027V38.8257H72.7576C72.6975 38.951 72.5973 39.085 72.4569 39.2278C72.3166 39.3706 72.13 39.4922 71.897 39.5924C71.6639 39.6926 71.3795 39.7427 71.0438 39.7427ZM71.1791 38.9459C71.5299 38.9459 71.8255 38.877 72.0661 38.7392C72.3091 38.6014 72.492 38.4235 72.6148 38.2056C72.7401 37.9876 72.8027 37.7583 72.8027 37.5178V36.706C72.7651 36.7511 72.6824 36.7924 72.5547 36.83C72.4294 36.8651 72.2841 36.8964 72.1187 36.9239C71.9558 36.949 71.7967 36.9716 71.6414 36.9916C71.4885 37.0091 71.3645 37.0242 71.2693 37.0367C71.0388 37.0668 70.8233 37.1156 70.6229 37.1833C70.4249 37.2484 70.2646 37.3474 70.1418 37.4802C70.0215 37.6105 69.9614 37.7884 69.9614 38.0139C69.9614 38.3221 70.0754 38.5551 70.3034 38.7129C70.5339 38.8683 70.8258 38.9459 71.1791 38.9459ZM76.0719 37.5027L76.0569 36.4053H76.2373L78.7629 33.8346H79.8604L77.1694 36.5556H77.0942L76.0719 37.5027ZM75.2451 39.6074V31.9103H76.1321V39.6074H75.2451ZM78.9133 39.6074L76.6582 36.7511L77.2897 36.1347L80.0408 39.6074H78.9133ZM83.1211 39.7277C82.5649 39.7277 82.0851 39.6049 81.6817 39.3594C81.2808 39.1113 80.9714 38.7655 80.7534 38.3221C80.5379 37.8761 80.4302 37.3574 80.4302 36.7661C80.4302 36.1748 80.5379 35.6536 80.7534 35.2026C80.9714 34.7491 81.2745 34.3958 81.6629 34.1428C82.0538 33.8872 82.5098 33.7594 83.0309 33.7594C83.3316 33.7594 83.6285 33.8095 83.9217 33.9097C84.2148 34.01 84.4817 34.1728 84.7222 34.3983C84.9627 34.6213 85.1544 34.917 85.2972 35.2853C85.4401 35.6536 85.5115 36.1071 85.5115 36.6458V37.0217H81.0616V36.255H84.6095C84.6095 35.9292 84.5443 35.6386 84.414 35.383C84.2862 35.1275 84.1033 34.9258 83.8653 34.7779C83.6298 34.6301 83.3517 34.5562 83.0309 34.5562C82.6777 34.5562 82.372 34.6439 82.1139 34.8193C81.8583 34.9922 81.6616 35.2177 81.5238 35.4958C81.386 35.7739 81.3171 36.0721 81.3171 36.3903V36.9014C81.3171 37.3374 81.3923 37.7069 81.5426 38.0101C81.6955 38.3108 81.9072 38.54 82.1778 38.6979C82.4484 38.8532 82.7629 38.9309 83.1211 38.9309C83.3542 38.9309 83.5646 38.8983 83.7526 38.8332C83.943 38.7655 84.1071 38.6653 84.2449 38.5325C84.3827 38.3972 84.4892 38.2294 84.5644 38.0289L85.4213 38.2694C85.3311 38.5601 85.1795 38.8157 84.9665 39.0362C84.7535 39.2541 84.4904 39.4245 84.1772 39.5473C83.8641 39.6676 83.512 39.7277 83.1211 39.7277ZM91.4091 39.7427C91.0433 39.7427 90.7113 39.6738 90.4132 39.536C90.115 39.3957 89.8782 39.194 89.7028 38.9309C89.5274 38.6653 89.4397 38.3446 89.4397 37.9688C89.4397 37.638 89.5049 37.3699 89.6352 37.1645C89.7655 36.9565 89.9396 36.7937 90.1576 36.6759C90.3756 36.5581 90.6161 36.4704 90.8792 36.4128C91.1448 36.3527 91.4116 36.3051 91.6797 36.27C92.0305 36.2249 92.3149 36.1911 92.5329 36.1685C92.7534 36.1435 92.9137 36.1021 93.0139 36.0445C93.1167 35.9869 93.168 35.8866 93.168 35.7438V35.7138C93.168 35.3429 93.0666 35.0548 92.8636 34.8493C92.6632 34.6439 92.3587 34.5411 91.9503 34.5411C91.5269 34.5411 91.1949 34.6339 90.9544 34.8193C90.7138 35.0047 90.5447 35.2026 90.447 35.4131L89.6051 35.1124C89.7554 34.7616 89.9559 34.4885 90.2064 34.2931C90.4595 34.0952 90.7351 33.9573 91.0333 33.8797C91.334 33.7995 91.6296 33.7594 91.9203 33.7594C92.1057 33.7594 92.3186 33.782 92.5592 33.8271C92.8022 33.8697 93.0365 33.9586 93.262 34.0939C93.49 34.2292 93.6792 34.4334 93.8295 34.7065C93.9798 34.9796 94.055 35.3454 94.055 35.804V39.6074H93.168V38.8257H93.1229C93.0628 38.951 92.9626 39.085 92.8223 39.2278C92.682 39.3706 92.4953 39.4922 92.2623 39.5924C92.0293 39.6926 91.7449 39.7427 91.4091 39.7427ZM91.5444 38.9459C91.8952 38.9459 92.1909 38.877 92.4314 38.7392C92.6744 38.6014 92.8573 38.4235 92.9801 38.2056C93.1054 37.9876 93.168 37.7583 93.168 37.5178V36.706C93.1305 36.7511 93.0478 36.7924 92.92 36.83C92.7947 36.8651 92.6494 36.8964 92.484 36.9239C92.3212 36.949 92.162 36.9716 92.0067 36.9916C91.8539 37.0091 91.7298 37.0242 91.6346 37.0367C91.4041 37.0668 91.1886 37.1156 90.9882 37.1833C90.7902 37.2484 90.6299 37.3474 90.5071 37.4802C90.3868 37.6105 90.3267 37.7884 90.3267 38.0139C90.3267 38.3221 90.4407 38.5551 90.6687 38.7129C90.8992 38.8683 91.1911 38.9459 91.5444 38.9459ZM101.094 33.8346V34.5862H97.9823V33.8346H101.094ZM98.9144 39.6074V33.0378C98.9144 32.7071 98.9921 32.4315 99.1474 32.211C99.3028 31.9905 99.5045 31.8251 99.7525 31.7149C100.001 31.6046 100.262 31.5495 100.538 31.5495C100.756 31.5495 100.934 31.567 101.072 31.6021C101.21 31.6372 101.312 31.6698 101.38 31.6998L101.124 32.4665C101.079 32.4515 101.017 32.4327 100.936 32.4102C100.859 32.3876 100.756 32.3763 100.628 32.3763C100.335 32.3763 100.123 32.4502 99.9931 32.5981C99.8653 32.7459 99.8014 32.9626 99.8014 33.2483V39.6074H98.9144ZM104.457 39.7277C103.9 39.7277 103.42 39.6049 103.017 39.3594C102.616 39.1113 102.307 38.7655 102.089 38.3221C101.873 37.8761 101.766 37.3574 101.766 36.7661C101.766 36.1748 101.873 35.6536 102.089 35.2026C102.307 34.7491 102.61 34.3958 102.998 34.1428C103.389 33.8872 103.845 33.7594 104.366 33.7594C104.667 33.7594 104.964 33.8095 105.257 33.9097C105.55 34.01 105.817 34.1728 106.058 34.3983C106.298 34.6213 106.49 34.917 106.633 35.2853C106.775 35.6536 106.847 36.1071 106.847 36.6458V37.0217H102.397V36.255H105.945C105.945 35.9292 105.88 35.6386 105.749 35.383C105.622 35.1275 105.439 34.9258 105.201 34.7779C104.965 34.6301 104.687 34.5562 104.366 34.5562C104.013 34.5562 103.707 34.6439 103.449 34.8193C103.194 34.9922 102.997 35.2177 102.859 35.4958C102.721 35.7739 102.653 36.0721 102.653 36.3903V36.9014C102.653 37.3374 102.728 37.7069 102.878 38.0101C103.031 38.3108 103.243 38.54 103.513 38.6979C103.784 38.8532 104.098 38.9309 104.457 38.9309C104.69 38.9309 104.9 38.8983 105.088 38.8332C105.278 38.7655 105.442 38.6653 105.58 38.5325C105.718 38.3972 105.825 38.2294 105.9 38.0289L106.757 38.2694C106.666 38.5601 106.515 38.8157 106.302 39.0362C106.089 39.2541 105.826 39.4245 105.513 39.5473C105.199 39.6676 104.847 39.7277 104.457 39.7277ZM109.441 39.6074L107.682 33.8346H108.614L109.861 38.2544H109.922L111.154 33.8346H112.101L113.319 38.2394H113.379L114.627 33.8346H115.559L113.8 39.6074H112.928L111.665 35.1726H111.575L110.312 39.6074H109.441ZM123.67 35.1275L122.874 35.353C122.824 35.2202 122.75 35.0911 122.652 34.9658C122.557 34.8381 122.426 34.7328 122.261 34.6501C122.096 34.5675 121.884 34.5261 121.626 34.5261C121.273 34.5261 120.978 34.6075 120.743 34.7704C120.51 34.9308 120.393 35.135 120.393 35.383C120.393 35.6035 120.473 35.7776 120.634 35.9054C120.794 36.0332 121.045 36.1397 121.385 36.2249L122.242 36.4354C122.758 36.5606 123.143 36.7523 123.396 37.0104C123.649 37.266 123.776 37.5954 123.776 37.9988C123.776 38.3296 123.68 38.6252 123.49 38.8858C123.302 39.1464 123.039 39.3519 122.701 39.5022C122.363 39.6525 121.969 39.7277 121.521 39.7277C120.932 39.7277 120.445 39.5999 120.059 39.3443C119.673 39.0888 119.429 38.7154 119.326 38.2243L120.168 38.0139C120.248 38.3246 120.399 38.5576 120.622 38.7129C120.848 38.8683 121.142 38.9459 121.506 38.9459C121.919 38.9459 122.247 38.8583 122.49 38.6829C122.736 38.505 122.859 38.292 122.859 38.0439C122.859 37.8435 122.788 37.6756 122.648 37.5403C122.508 37.4025 122.292 37.2998 122.002 37.2321L121.04 37.0066C120.511 36.8814 120.123 36.6872 119.875 36.4241C119.629 36.1585 119.506 35.8265 119.506 35.4281C119.506 35.1024 119.598 34.8143 119.781 34.5637C119.966 34.3131 120.218 34.1165 120.536 33.9736C120.857 33.8308 121.22 33.7594 121.626 33.7594C122.197 33.7594 122.646 33.8847 122.971 34.1352C123.3 34.3858 123.533 34.7165 123.67 35.1275ZM127.468 39.7277C126.911 39.7277 126.432 39.6049 126.028 39.3594C125.627 39.1113 125.318 38.7655 125.1 38.3221C124.884 37.8761 124.777 37.3574 124.777 36.7661C124.777 36.1748 124.884 35.6536 125.1 35.2026C125.318 34.7491 125.621 34.3958 126.009 34.1428C126.4 33.8872 126.856 33.7594 127.378 33.7594C127.678 33.7594 127.975 33.8095 128.268 33.9097C128.561 34.01 128.828 34.1728 129.069 34.3983C129.309 34.6213 129.501 34.917 129.644 35.2853C129.787 35.6536 129.858 36.1071 129.858 36.6458V37.0217H125.408V36.255H128.956C128.956 35.9292 128.891 35.6386 128.761 35.383C128.633 35.1275 128.45 34.9258 128.212 34.7779C127.976 34.6301 127.698 34.5562 127.378 34.5562C127.024 34.5562 126.719 34.6439 126.46 34.8193C126.205 34.9922 126.008 35.2177 125.87 35.4958C125.733 35.7739 125.664 36.0721 125.664 36.3903V36.9014C125.664 37.3374 125.739 37.7069 125.889 38.0101C126.042 38.3108 126.254 38.54 126.524 38.6979C126.795 38.8532 127.109 38.9309 127.468 38.9309C127.701 38.9309 127.911 38.8983 128.099 38.8332C128.29 38.7655 128.454 38.6653 128.591 38.5325C128.729 38.3972 128.836 38.2294 128.911 38.0289L129.768 38.2694C129.678 38.5601 129.526 38.8157 129.313 39.0362C129.1 39.2541 128.837 39.4245 128.524 39.5473C128.211 39.6676 127.859 39.7277 127.468 39.7277ZM133.489 39.7277C132.948 39.7277 132.482 39.5999 132.091 39.3443C131.7 39.0888 131.399 38.7367 131.189 38.2882C130.978 37.8397 130.873 37.3273 130.873 36.7511C130.873 36.1648 130.981 35.6474 131.196 35.1989C131.414 34.7479 131.718 34.3958 132.106 34.1428C132.497 33.8872 132.953 33.7594 133.474 33.7594C133.88 33.7594 134.246 33.8346 134.571 33.9849C134.897 34.1352 135.164 34.3457 135.372 34.6163C135.58 34.8869 135.709 35.2026 135.759 35.5634H134.872C134.804 35.3003 134.654 35.0673 134.421 34.8644C134.191 34.6589 133.88 34.5562 133.489 34.5562C133.143 34.5562 132.84 34.6464 132.579 34.8268C132.321 35.0047 132.12 35.2565 131.974 35.5822C131.832 35.9054 131.76 36.285 131.76 36.721C131.76 37.167 131.83 37.5554 131.971 37.8861C132.113 38.2168 132.314 38.4736 132.572 38.6566C132.833 38.8395 133.138 38.9309 133.489 38.9309C133.72 38.9309 133.929 38.8908 134.117 38.8106C134.305 38.7305 134.464 38.6152 134.594 38.4649C134.724 38.3145 134.817 38.1341 134.872 37.9237H135.759C135.709 38.2644 135.585 38.5714 135.387 38.8445C135.192 39.1151 134.932 39.3306 134.609 39.4909C134.288 39.6488 133.915 39.7277 133.489 39.7277ZM139.337 39.7277C138.816 39.7277 138.359 39.6037 137.966 39.3556C137.575 39.1076 137.269 38.7605 137.049 38.3145C136.831 37.8686 136.722 37.3474 136.722 36.7511C136.722 36.1497 136.831 35.6248 137.049 35.1763C137.269 34.7278 137.575 34.3795 137.966 34.1315C138.359 33.8834 138.816 33.7594 139.337 33.7594C139.859 33.7594 140.315 33.8834 140.705 34.1315C141.099 34.3795 141.405 34.7278 141.623 35.1763C141.843 35.6248 141.953 36.1497 141.953 36.7511C141.953 37.3474 141.843 37.8686 141.623 38.3145C141.405 38.7605 141.099 39.1076 140.705 39.3556C140.315 39.6037 139.859 39.7277 139.337 39.7277ZM139.337 38.9309C139.733 38.9309 140.059 38.8294 140.315 38.6265C140.57 38.4235 140.759 38.1567 140.882 37.826C141.005 37.4952 141.066 37.1369 141.066 36.7511C141.066 36.3652 141.005 36.0057 140.882 35.6724C140.759 35.3392 140.57 35.0698 140.315 34.8644C140.059 34.6589 139.733 34.5562 139.337 34.5562C138.942 34.5562 138.616 34.6589 138.36 34.8644C138.105 35.0698 137.916 35.3392 137.793 35.6724C137.67 36.0057 137.609 36.3652 137.609 36.7511C137.609 37.1369 137.67 37.4952 137.793 37.826C137.916 38.1567 138.105 38.4235 138.36 38.6265C138.616 38.8294 138.942 38.9309 139.337 38.9309ZM144.131 36.1347V39.6074H143.244V33.8346H144.101V34.7366H144.176C144.311 34.4434 144.517 34.2079 144.792 34.03C145.068 33.8496 145.424 33.7594 145.86 33.7594C146.25 33.7594 146.592 33.8396 146.886 33.9999C147.179 34.1578 147.407 34.3983 147.57 34.7215C147.732 35.0423 147.814 35.4482 147.814 35.9393V39.6074H146.927V35.9994C146.927 35.5459 146.809 35.1926 146.574 34.9395C146.338 34.684 146.015 34.5562 145.604 34.5562C145.321 34.5562 145.068 34.6176 144.845 34.7403C144.624 34.8631 144.45 35.0423 144.322 35.2778C144.195 35.5133 144.131 35.7989 144.131 36.1347ZM151.551 39.7277C151.07 39.7277 150.645 39.6062 150.277 39.3631C149.909 39.1176 149.62 38.7718 149.413 38.3258C149.205 37.8773 149.101 37.3474 149.101 36.736C149.101 36.1297 149.205 35.6035 149.413 35.1575C149.62 34.7115 149.91 34.367 150.281 34.124C150.652 33.8809 151.08 33.7594 151.566 33.7594C151.942 33.7594 152.239 33.822 152.457 33.9473C152.677 34.0701 152.845 34.2104 152.96 34.3683C153.078 34.5236 153.17 34.6514 153.235 34.7516H153.31V31.9103H154.197V39.6074H153.34V38.7204H153.235C153.17 38.8257 153.077 38.9585 152.957 39.1188C152.836 39.2767 152.665 39.4183 152.442 39.5435C152.219 39.6663 151.922 39.7277 151.551 39.7277ZM151.671 38.9309C152.027 38.9309 152.328 38.8382 152.573 38.6528C152.819 38.4649 153.006 38.2056 153.133 37.8748C153.261 37.5416 153.325 37.157 153.325 36.721C153.325 36.29 153.262 35.9129 153.137 35.5897C153.012 35.264 152.826 35.0109 152.581 34.8305C152.335 34.6476 152.032 34.5562 151.671 34.5562C151.295 34.5562 150.982 34.6526 150.732 34.8456C150.484 35.036 150.297 35.2953 150.172 35.6236C150.049 35.9493 149.988 36.3151 149.988 36.721C149.988 37.1319 150.05 37.5052 150.175 37.841C150.303 38.1742 150.491 38.4398 150.739 38.6378C150.99 38.8332 151.3 38.9309 151.671 38.9309ZM159.97 35.1275L159.173 35.353C159.123 35.2202 159.049 35.0911 158.952 34.9658C158.856 34.8381 158.726 34.7328 158.561 34.6501C158.395 34.5675 158.184 34.5261 157.926 34.5261C157.572 34.5261 157.278 34.6075 157.042 34.7704C156.809 34.9308 156.693 35.135 156.693 35.383C156.693 35.6035 156.773 35.7776 156.933 35.9054C157.094 36.0332 157.344 36.1397 157.685 36.2249L158.542 36.4354C159.058 36.5606 159.443 36.7523 159.696 37.0104C159.949 37.266 160.075 37.5954 160.075 37.9988C160.075 38.3296 159.98 38.6252 159.79 38.8858C159.602 39.1464 159.339 39.3519 159 39.5022C158.662 39.6525 158.269 39.7277 157.82 39.7277C157.232 39.7277 156.744 39.5999 156.358 39.3443C155.972 39.0888 155.728 38.7154 155.625 38.2243L156.467 38.0139C156.548 38.3246 156.699 38.5576 156.922 38.7129C157.148 38.8683 157.442 38.9459 157.805 38.9459C158.219 38.9459 158.547 38.8583 158.79 38.6829C159.036 38.505 159.158 38.292 159.158 38.0439C159.158 37.8435 159.088 37.6756 158.948 37.5403C158.808 37.4025 158.592 37.2998 158.301 37.2321L157.339 37.0066C156.811 36.8814 156.422 36.6872 156.174 36.4241C155.929 36.1585 155.806 35.8265 155.806 35.4281C155.806 35.1024 155.897 34.8143 156.08 34.5637C156.266 34.3131 156.517 34.1165 156.836 33.9736C157.156 33.8308 157.52 33.7594 157.926 33.7594C158.497 33.7594 158.945 33.8847 159.271 34.1352C159.599 34.3858 159.832 34.7165 159.97 35.1275ZM166.771 33.8346V34.5862H163.779V33.8346H166.771ZM164.651 32.4515H165.538V37.9537C165.538 38.2043 165.574 38.3922 165.647 38.5175C165.722 38.6403 165.817 38.723 165.933 38.7655C166.05 38.8056 166.174 38.8257 166.305 38.8257C166.402 38.8257 166.483 38.8207 166.545 38.8106C166.608 38.7981 166.658 38.7881 166.696 38.7806L166.876 39.5774C166.816 39.5999 166.732 39.6225 166.624 39.645C166.516 39.6701 166.38 39.6826 166.215 39.6826C165.964 39.6826 165.718 39.6287 165.478 39.521C165.24 39.4132 165.042 39.2491 164.884 39.0286C164.729 38.8081 164.651 38.53 164.651 38.1943V32.4515ZM170.325 39.7277C169.804 39.7277 169.346 39.6037 168.953 39.3556C168.562 39.1076 168.256 38.7605 168.036 38.3145C167.818 37.8686 167.709 37.3474 167.709 36.7511C167.709 36.1497 167.818 35.6248 168.036 35.1763C168.256 34.7278 168.562 34.3795 168.953 34.1315C169.346 33.8834 169.804 33.7594 170.325 33.7594C170.846 33.7594 171.302 33.8834 171.693 34.1315C172.086 34.3795 172.392 34.7278 172.61 35.1763C172.83 35.6248 172.94 36.1497 172.94 36.7511C172.94 37.3474 172.83 37.8686 172.61 38.3145C172.392 38.7605 172.086 39.1076 171.693 39.3556C171.302 39.6037 170.846 39.7277 170.325 39.7277ZM170.325 38.9309C170.721 38.9309 171.046 38.8294 171.302 38.6265C171.557 38.4235 171.747 38.1567 171.869 37.826C171.992 37.4952 172.054 37.1369 172.054 36.7511C172.054 36.3652 171.992 36.0057 171.869 35.6724C171.747 35.3392 171.557 35.0698 171.302 34.8644C171.046 34.6589 170.721 34.5562 170.325 34.5562C169.929 34.5562 169.603 34.6589 169.347 34.8644C169.092 35.0698 168.903 35.3392 168.78 35.6724C168.657 36.0057 168.596 36.3652 168.596 36.7511C168.596 37.1369 168.657 37.4952 168.78 37.826C168.903 38.1567 169.092 38.4235 169.347 38.6265C169.603 38.8294 169.929 38.9309 170.325 38.9309ZM177.144 41.7722V33.8346H178.001V34.7516H178.106C178.171 34.6514 178.262 34.5236 178.377 34.3683C178.495 34.2104 178.662 34.0701 178.88 33.9473C179.101 33.822 179.399 33.7594 179.775 33.7594C180.261 33.7594 180.689 33.8809 181.06 34.124C181.431 34.367 181.721 34.7115 181.928 35.1575C182.136 35.6035 182.24 36.1297 182.24 36.736C182.24 37.3474 182.136 37.8773 181.928 38.3258C181.721 38.7718 181.432 39.1176 181.064 39.3631C180.696 39.6062 180.271 39.7277 179.79 39.7277C179.419 39.7277 179.122 39.6663 178.899 39.5435C178.676 39.4183 178.505 39.2767 178.384 39.1188C178.264 38.9585 178.171 38.8257 178.106 38.7204H178.031V41.7722H177.144ZM178.016 36.721C178.016 37.157 178.08 37.5416 178.208 37.8748C178.335 38.2056 178.522 38.4649 178.768 38.6528C179.013 38.8382 179.314 38.9309 179.67 38.9309C180.041 38.9309 180.35 38.8332 180.598 38.6378C180.849 38.4398 181.036 38.1742 181.162 37.841C181.29 37.5052 181.353 37.1319 181.353 36.721C181.353 36.3151 181.291 35.9493 181.166 35.6236C181.043 35.2953 180.856 35.036 180.606 34.8456C180.357 34.6526 180.046 34.5562 179.67 34.5562C179.309 34.5562 179.006 34.6476 178.76 34.8305C178.515 35.0109 178.329 35.264 178.204 35.5897C178.079 35.9129 178.016 36.29 178.016 36.721ZM183.53 39.6074V33.8346H184.387V34.7065H184.447C184.552 34.4209 184.743 34.1891 185.018 34.0112C185.294 33.8333 185.605 33.7444 185.95 33.7444C186.015 33.7444 186.097 33.7456 186.195 33.7481C186.292 33.7506 186.366 33.7544 186.416 33.7594V34.6614C186.386 34.6539 186.317 34.6426 186.21 34.6276C186.104 34.61 185.993 34.6013 185.875 34.6013C185.595 34.6013 185.344 34.6602 185.123 34.7779C184.905 34.8932 184.733 35.0535 184.605 35.259C184.48 35.4619 184.417 35.6937 184.417 35.9543V39.6074H183.53ZM189.574 39.7277C189.053 39.7277 188.595 39.6037 188.202 39.3556C187.811 39.1076 187.505 38.7605 187.285 38.3145C187.067 37.8686 186.958 37.3474 186.958 36.7511C186.958 36.1497 187.067 35.6248 187.285 35.1763C187.505 34.7278 187.811 34.3795 188.202 34.1315C188.595 33.8834 189.053 33.7594 189.574 33.7594C190.095 33.7594 190.551 33.8834 190.942 34.1315C191.335 34.3795 191.641 34.7278 191.859 35.1763C192.079 35.6248 192.19 36.1497 192.19 36.7511C192.19 37.3474 192.079 37.8686 191.859 38.3145C191.641 38.7605 191.335 39.1076 190.942 39.3556C190.551 39.6037 190.095 39.7277 189.574 39.7277ZM189.574 38.9309C189.97 38.9309 190.295 38.8294 190.551 38.6265C190.807 38.4235 190.996 38.1567 191.118 37.826C191.241 37.4952 191.303 37.1369 191.303 36.7511C191.303 36.3652 191.241 36.0057 191.118 35.6724C190.996 35.3392 190.807 35.0698 190.551 34.8644C190.295 34.6589 189.97 34.5562 189.574 34.5562C189.178 34.5562 188.852 34.6589 188.597 34.8644C188.341 35.0698 188.152 35.3392 188.029 35.6724C187.906 36.0057 187.845 36.3652 187.845 36.7511C187.845 37.1369 187.906 37.4952 188.029 37.826C188.152 38.1567 188.341 38.4235 188.597 38.6265C188.852 38.8294 189.178 38.9309 189.574 38.9309ZM195.825 39.7277C195.284 39.7277 194.818 39.5999 194.427 39.3443C194.036 39.0888 193.736 38.7367 193.525 38.2882C193.315 37.8397 193.209 37.3273 193.209 36.7511C193.209 36.1648 193.317 35.6474 193.533 35.1989C193.751 34.7479 194.054 34.3958 194.442 34.1428C194.833 33.8872 195.289 33.7594 195.81 33.7594C196.216 33.7594 196.582 33.8346 196.908 33.9849C197.233 34.1352 197.5 34.3457 197.708 34.6163C197.916 34.8869 198.045 35.2026 198.095 35.5634H197.208C197.141 35.3003 196.99 35.0673 196.757 34.8644C196.527 34.6589 196.216 34.5562 195.825 34.5562C195.479 34.5562 195.176 34.6464 194.916 34.8268C194.658 35.0047 194.456 35.2565 194.311 35.5822C194.168 35.9054 194.096 36.285 194.096 36.721C194.096 37.167 194.167 37.5554 194.307 37.8861C194.45 38.2168 194.65 38.4736 194.908 38.6566C195.169 38.8395 195.474 38.9309 195.825 38.9309C196.056 38.9309 196.265 38.8908 196.453 38.8106C196.641 38.7305 196.8 38.6152 196.93 38.4649C197.06 38.3145 197.153 38.1341 197.208 37.9237H198.095C198.045 38.2644 197.921 38.5714 197.723 38.8445C197.528 39.1151 197.268 39.3306 196.945 39.4909C196.625 39.6488 196.251 39.7277 195.825 39.7277ZM201.749 39.7277C201.193 39.7277 200.713 39.6049 200.309 39.3594C199.908 39.1113 199.599 38.7655 199.381 38.3221C199.166 37.8761 199.058 37.3574 199.058 36.7661C199.058 36.1748 199.166 35.6536 199.381 35.2026C199.599 34.7491 199.902 34.3958 200.291 34.1428C200.681 33.8872 201.137 33.7594 201.659 33.7594C201.959 33.7594 202.256 33.8095 202.549 33.9097C202.843 34.01 203.109 34.1728 203.35 34.3983C203.59 34.6213 203.782 34.917 203.925 35.2853C204.068 35.6536 204.139 36.1071 204.139 36.6458V37.0217H199.689V36.255H203.237C203.237 35.9292 203.172 35.6386 203.042 35.383C202.914 35.1275 202.731 34.9258 202.493 34.7779C202.257 34.6301 201.979 34.5562 201.659 34.5562C201.305 34.5562 201 34.6439 200.742 34.8193C200.486 34.9922 200.289 35.2177 200.152 35.4958C200.014 35.7739 199.945 36.0721 199.945 36.3903V36.9014C199.945 37.3374 200.02 37.7069 200.17 38.0101C200.323 38.3108 200.535 38.54 200.805 38.6979C201.076 38.8532 201.391 38.9309 201.749 38.9309C201.982 38.9309 202.192 38.8983 202.38 38.8332C202.571 38.7655 202.735 38.6653 202.873 38.5325C203.01 38.3972 203.117 38.2294 203.192 38.0289L204.049 38.2694C203.959 38.5601 203.807 38.8157 203.594 39.0362C203.381 39.2541 203.118 39.4245 202.805 39.5473C202.492 39.6676 202.14 39.7277 201.749 39.7277ZM209.514 35.1275L208.717 35.353C208.667 35.2202 208.593 35.0911 208.495 34.9658C208.4 34.8381 208.27 34.7328 208.105 34.6501C207.939 34.5675 207.728 34.5261 207.469 34.5261C207.116 34.5261 206.822 34.6075 206.586 34.7704C206.353 34.9308 206.237 35.135 206.237 35.383C206.237 35.6035 206.317 35.7776 206.477 35.9054C206.638 36.0332 206.888 36.1397 207.229 36.2249L208.086 36.4354C208.602 36.5606 208.987 36.7523 209.24 37.0104C209.493 37.266 209.619 37.5954 209.619 37.9988C209.619 38.3296 209.524 38.6252 209.334 38.8858C209.146 39.1464 208.883 39.3519 208.544 39.5022C208.206 39.6525 207.813 39.7277 207.364 39.7277C206.775 39.7277 206.288 39.5999 205.902 39.3443C205.516 39.0888 205.272 38.7154 205.169 38.2243L206.011 38.0139C206.091 38.3246 206.243 38.5576 206.466 38.7129C206.691 38.8683 206.986 38.9459 207.349 38.9459C207.763 38.9459 208.091 38.8583 208.334 38.6829C208.579 38.505 208.702 38.292 208.702 38.0439C208.702 37.8435 208.632 37.6756 208.492 37.5403C208.351 37.4025 208.136 37.2998 207.845 37.2321L206.883 37.0066C206.354 36.8814 205.966 36.6872 205.718 36.4241C205.472 36.1585 205.35 35.8265 205.35 35.4281C205.35 35.1024 205.441 34.8143 205.624 34.5637C205.809 34.3131 206.061 34.1165 206.38 33.9736C206.7 33.8308 207.064 33.7594 207.469 33.7594C208.041 33.7594 208.489 33.8847 208.815 34.1352C209.143 34.3858 209.376 34.7165 209.514 35.1275ZM214.98 35.1275L214.183 35.353C214.133 35.2202 214.059 35.0911 213.961 34.9658C213.866 34.8381 213.736 34.7328 213.571 34.6501C213.405 34.5675 213.194 34.5261 212.935 34.5261C212.582 34.5261 212.288 34.6075 212.052 34.7704C211.819 34.9308 211.703 35.135 211.703 35.383C211.703 35.6035 211.783 35.7776 211.943 35.9054C212.104 36.0332 212.354 36.1397 212.695 36.2249L213.552 36.4354C214.068 36.5606 214.453 36.7523 214.706 37.0104C214.959 37.266 215.085 37.5954 215.085 37.9988C215.085 38.3296 214.99 38.6252 214.8 38.8858C214.612 39.1464 214.349 39.3519 214.01 39.5022C213.672 39.6525 213.279 39.7277 212.83 39.7277C212.241 39.7277 211.754 39.5999 211.368 39.3443C210.982 39.0888 210.738 38.7154 210.635 38.2243L211.477 38.0139C211.557 38.3246 211.709 38.5576 211.932 38.7129C212.157 38.8683 212.452 38.9459 212.815 38.9459C213.229 38.9459 213.557 38.8583 213.8 38.6829C214.045 38.505 214.168 38.292 214.168 38.0439C214.168 37.8435 214.098 37.6756 213.958 37.5403C213.817 37.4025 213.602 37.2998 213.311 37.2321L212.349 37.0066C211.82 36.8814 211.432 36.6872 211.184 36.4241C210.938 36.1585 210.816 35.8265 210.816 35.4281C210.816 35.1024 210.907 34.8143 211.09 34.5637C211.275 34.3131 211.527 34.1165 211.846 33.9736C212.166 33.8308 212.53 33.7594 212.935 33.7594C213.507 33.7594 213.955 33.8847 214.281 34.1352C214.609 34.3858 214.842 34.7165 214.98 35.1275Z" fill="#474D5D"/>
<path d="M228.37 16.8013C228.192 16.6236 228.192 16.3363 228.37 16.1606C228.547 15.9848 228.835 15.9829 229.01 16.1606L231.864 19.0144L234.718 16.1606C234.896 15.9829 235.183 15.9829 235.359 16.1606C235.534 16.3382 235.536 16.6255 235.359 16.8013L232.505 19.655L235.359 22.5088C235.536 22.6865 235.536 22.9737 235.359 23.1495C235.181 23.3253 234.894 23.3272 234.718 23.1495L231.864 20.2957L229.01 23.1495C228.833 23.3272 228.546 23.3272 228.37 23.1495C228.194 22.9719 228.192 22.6846 228.37 22.5088L231.224 19.655L228.37 16.8013Z" fill="#576072"/>
</g>
<rect x="0.377984" y="0.377984" width="249.244" height="53.0424" rx="9.62202" stroke="#E4E7EC" stroke-width="0.755968"/>
<defs>
<clipPath id="clip0_7_10412">
<rect width="250" height="53.7984" rx="10" fill="white"/>
</clipPath>
</defs>
</svg>
