<svg width="173" height="78" viewBox="0 0 173 78" fill="none" xmlns="http://www.w3.org/2000/svg">
<rect x="0.5" y="0.5" width="172" height="76.0262" rx="9.5" fill="white"/>
<rect x="0.5" y="0.5" width="172" height="76.0262" rx="9.5" stroke="#E4E7EC"/>
<path d="M15.5238 20.9914V19.8238H21.6583V20.9914H19.2819V27.5127H17.9003V20.9914H15.5238ZM24.3966 27.6253C23.8334 27.6253 23.3454 27.5014 22.9324 27.2536C22.5194 27.0059 22.1991 26.6592 21.9713 26.2137C21.746 25.7682 21.6334 25.2476 21.6334 24.6519C21.6334 24.0562 21.746 23.5343 21.9713 23.0863C22.1991 22.6383 22.5194 22.2904 22.9324 22.0426C23.3454 21.7948 23.8334 21.6709 24.3966 21.6709C24.9597 21.6709 25.4478 21.7948 25.8608 22.0426C26.2738 22.2904 26.5929 22.6383 26.8181 23.0863C27.0459 23.5343 27.1598 24.0562 27.1598 24.6519C27.1598 25.2476 27.0459 25.7682 26.8181 26.2137C26.5929 26.6592 26.2738 27.0059 25.8608 27.2536C25.4478 27.5014 24.9597 27.6253 24.3966 27.6253ZM24.4041 26.5366C24.7095 26.5366 24.9647 26.4527 25.17 26.285C25.3752 26.1148 25.5279 25.8871 25.628 25.6017C25.7306 25.3164 25.7819 24.9985 25.7819 24.6481C25.7819 24.2952 25.7306 23.9761 25.628 23.6908C25.5279 23.4029 25.3752 23.1739 25.17 23.0037C24.9647 22.8335 24.7095 22.7484 24.4041 22.7484C24.0912 22.7484 23.8309 22.8335 23.6232 23.0037C23.418 23.1739 23.264 23.4029 23.1614 23.6908C23.0613 23.9761 23.0112 24.2952 23.0112 24.6481C23.0112 24.9985 23.0613 25.3164 23.1614 25.6017C23.264 25.8871 23.418 26.1148 23.6232 26.285C23.8309 26.4527 24.0912 26.5366 24.4041 26.5366ZM31.1295 21.746V22.7972H27.8144V21.746H31.1295ZM28.6328 20.3644H29.9919V25.7782C29.9919 25.9609 30.0194 26.1011 30.0745 26.1987C30.1321 26.2938 30.2071 26.3589 30.2997 26.3939C30.3924 26.4289 30.495 26.4465 30.6076 26.4465C30.6927 26.4465 30.7703 26.4402 30.8404 26.4277C30.913 26.4152 30.968 26.4039 31.0056 26.3939L31.2346 27.4564C31.162 27.4814 31.0581 27.5089 30.923 27.539C30.7903 27.569 30.6276 27.5865 30.4349 27.5915C30.0945 27.6015 29.7879 27.5502 29.5151 27.4376C29.2423 27.3225 29.0258 27.1448 28.8656 26.9045C28.7079 26.6642 28.6303 26.3639 28.6328 26.0035V20.3644ZM33.8621 27.6291C33.4966 27.6291 33.1675 27.564 32.8747 27.4339C32.5843 27.3012 32.3541 27.106 32.1839 26.8482C32.0162 26.5904 31.9323 26.2725 31.9323 25.8946C31.9323 25.5692 31.9924 25.3001 32.1125 25.0874C32.2327 24.8746 32.3966 24.7044 32.6044 24.5768C32.8121 24.4492 33.0461 24.3528 33.3064 24.2877C33.5692 24.2201 33.8408 24.1713 34.1211 24.1413C34.459 24.1063 34.7331 24.075 34.9433 24.0474C35.1536 24.0174 35.3062 23.9724 35.4013 23.9123C35.499 23.8497 35.5478 23.7533 35.5478 23.6232V23.6007C35.5478 23.3178 35.4639 23.0988 35.2962 22.9437C35.1285 22.7885 34.887 22.7109 34.5716 22.7109C34.2388 22.7109 33.9747 22.7835 33.7795 22.9286C33.5867 23.0738 33.4566 23.2453 33.389 23.443L32.1201 23.2628C32.2202 22.9124 32.3854 22.6195 32.6156 22.3843C32.8459 22.1465 33.1275 21.9688 33.4604 21.8512C33.7932 21.731 34.1612 21.6709 34.5641 21.6709C34.8419 21.6709 35.1185 21.7035 35.3938 21.7686C35.6692 21.8336 35.9207 21.9413 36.1485 22.0914C36.3762 22.2391 36.5589 22.4406 36.6966 22.6959C36.8368 22.9512 36.9068 23.2703 36.9068 23.6532V27.5127H35.6003V26.7205H35.5553C35.4727 26.8807 35.3563 27.0309 35.2061 27.1711C35.0584 27.3087 34.872 27.4201 34.6467 27.5052C34.424 27.5878 34.1624 27.6291 33.8621 27.6291ZM34.215 26.6304C34.4878 26.6304 34.7243 26.5766 34.9245 26.469C35.1248 26.3589 35.2787 26.2137 35.3863 26.0335C35.4965 25.8533 35.5515 25.6568 35.5515 25.4441V24.7645C35.509 24.7996 35.4364 24.8321 35.3338 24.8621C35.2337 24.8922 35.121 24.9184 34.9959 24.941C34.8707 24.9635 34.7468 24.9835 34.6242 25.001C34.5016 25.0186 34.3952 25.0336 34.3051 25.0461C34.1023 25.0736 33.9209 25.1187 33.7607 25.1813C33.6005 25.2438 33.4741 25.3314 33.3815 25.4441C33.2889 25.5542 33.2426 25.6968 33.2426 25.872C33.2426 26.1223 33.334 26.3113 33.5167 26.439C33.6994 26.5666 33.9321 26.6304 34.215 26.6304ZM39.5691 19.8238V27.5127H38.21V19.8238H39.5691ZM43.4621 27.5127V21.746H44.8212V27.5127H43.4621ZM44.1454 20.9276C43.9302 20.9276 43.745 20.8563 43.5898 20.7136C43.4346 20.5684 43.357 20.3945 43.357 20.1917C43.357 19.9865 43.4346 19.8125 43.5898 19.6699C43.745 19.5247 43.9302 19.4521 44.1454 19.4521C44.3632 19.4521 44.5484 19.5247 44.7011 19.6699C44.8563 19.8125 44.9338 19.9865 44.9338 20.1917C44.9338 20.3945 44.8563 20.5684 44.7011 20.7136C44.5484 20.8563 44.3632 20.9276 44.1454 20.9276ZM47.5144 24.1338V27.5127H46.1553V21.746H47.4543V22.7259H47.5219C47.6546 22.403 47.8661 22.1465 48.1564 21.9563C48.4492 21.7661 48.8109 21.6709 49.2414 21.6709C49.6394 21.6709 49.986 21.756 50.2814 21.9262C50.5792 22.0964 50.8095 22.343 50.9722 22.6658C51.1373 22.9887 51.2187 23.3804 51.2162 23.841V27.5127H49.8571V24.0512C49.8571 23.6657 49.757 23.3641 49.5568 23.1464C49.359 22.9286 49.085 22.8198 48.7346 22.8198C48.4968 22.8198 48.2853 22.8723 48.1001 22.9775C47.9174 23.0801 47.7735 23.229 47.6683 23.4242C47.5657 23.6194 47.5144 23.856 47.5144 24.1338ZM57.4788 21.746L55.4252 27.5127H53.9235L51.8698 21.746H53.319L54.6443 26.0297H54.7044L56.0334 21.746H57.4788ZM60.7126 27.6253C60.1345 27.6253 59.6351 27.5052 59.2146 27.2649C58.7967 27.0221 58.475 26.6792 58.2498 26.2362C58.0245 25.7907 57.9119 25.2663 57.9119 24.6632C57.9119 24.07 58.0245 23.5494 58.2498 23.1013C58.4775 22.6508 58.7954 22.3004 59.2034 22.0501C59.6114 21.7973 60.0907 21.6709 60.6413 21.6709C60.9967 21.6709 61.3321 21.7285 61.6475 21.8436C61.9653 21.9563 62.2457 22.1315 62.4884 22.3692C62.7337 22.607 62.9264 22.9099 63.0666 23.2778C63.2068 23.6432 63.2768 24.0787 63.2768 24.5843V25.001H58.5501V24.085H61.9741C61.9716 23.8247 61.9153 23.5932 61.8051 23.3904C61.695 23.1852 61.5411 23.0238 61.3434 22.9061C61.1481 22.7885 60.9204 22.7297 60.6601 22.7297C60.3822 22.7297 60.1382 22.7972 59.928 22.9324C59.7177 23.0651 59.5538 23.2403 59.4362 23.458C59.321 23.6733 59.2622 23.9098 59.2597 24.1676V24.9673C59.2597 25.3026 59.321 25.5905 59.4437 25.8308C59.5663 26.0685 59.7378 26.2512 59.958 26.3789C60.1783 26.504 60.4361 26.5666 60.7314 26.5666C60.9291 26.5666 61.1081 26.5391 61.2683 26.484C61.4285 26.4264 61.5674 26.3426 61.685 26.2325C61.8026 26.1223 61.8915 25.9859 61.9516 25.8232L63.2205 25.9659C63.1404 26.3013 62.9878 26.5941 62.7625 26.8444C62.5397 27.0922 62.2544 27.2849 61.9065 27.4226C61.5586 27.5577 61.1606 27.6253 60.7126 27.6253ZM68.9209 23.2703L67.682 23.4054C67.647 23.2803 67.5857 23.1627 67.4981 23.0525C67.413 22.9424 67.2978 22.8536 67.1527 22.786C67.0075 22.7184 66.8298 22.6846 66.6195 22.6846C66.3367 22.6846 66.0989 22.7459 65.9062 22.8686C65.716 22.9912 65.6221 23.1502 65.6246 23.3454C65.6221 23.5131 65.6835 23.6495 65.8086 23.7546C65.9362 23.8597 66.1465 23.9461 66.4393 24.0137L67.423 24.2239C67.9686 24.3415 68.3741 24.528 68.6394 24.7833C68.9072 25.0386 69.0423 25.3727 69.0448 25.7857C69.0423 26.1486 68.936 26.469 68.7257 26.7468C68.518 27.0221 68.2289 27.2374 67.8585 27.3926C67.488 27.5477 67.0625 27.6253 66.582 27.6253C65.8762 27.6253 65.308 27.4777 64.8775 27.1823C64.447 26.8845 64.1905 26.4702 64.1079 25.9396L65.4332 25.812C65.4932 26.0723 65.6209 26.2688 65.8161 26.4014C66.0113 26.5341 66.2654 26.6004 66.5782 26.6004C66.9011 26.6004 67.1602 26.5341 67.3554 26.4014C67.5531 26.2688 67.652 26.1048 67.652 25.9096C67.652 25.7444 67.5882 25.608 67.4605 25.5004C67.3354 25.3927 67.1401 25.3101 66.8748 25.2526L65.8912 25.0461C65.3381 24.931 64.9288 24.737 64.6635 24.4642C64.3982 24.1889 64.2668 23.841 64.2693 23.4205C64.2668 23.0651 64.3632 22.7572 64.5584 22.4969C64.7561 22.2341 65.0302 22.0314 65.3806 21.8887C65.7335 21.7435 66.1402 21.6709 66.6008 21.6709C67.2765 21.6709 67.8084 21.8149 68.1964 22.1027C68.5868 22.3905 68.8283 22.7797 68.9209 23.2703ZM72.9817 21.746V22.7972H69.6666V21.746H72.9817ZM70.485 20.3644H71.8441V25.7782C71.8441 25.9609 71.8716 26.1011 71.9267 26.1987C71.9843 26.2938 72.0593 26.3589 72.1519 26.3939C72.2446 26.4289 72.3472 26.4465 72.4598 26.4465C72.5449 26.4465 72.6225 26.4402 72.6926 26.4277C72.7652 26.4152 72.8202 26.4039 72.8578 26.3939L73.0868 27.4564C73.0142 27.4814 72.9103 27.5089 72.7752 27.539C72.6425 27.569 72.4798 27.5865 72.2871 27.5915C71.9467 27.6015 71.6401 27.5502 71.3673 27.4376C71.0945 27.3225 70.878 27.1448 70.7178 26.9045C70.5601 26.6642 70.4825 26.3639 70.485 26.0035V20.3644ZM76.5459 27.6253C75.9677 27.6253 75.4684 27.5052 75.0479 27.2649C74.6299 27.0221 74.3083 26.6792 74.083 26.2362C73.8577 25.7907 73.7451 25.2663 73.7451 24.6632C73.7451 24.07 73.8577 23.5494 74.083 23.1013C74.3108 22.6508 74.6286 22.3004 75.0366 22.0501C75.4446 21.7973 75.9239 21.6709 76.4745 21.6709C76.8299 21.6709 77.1653 21.7285 77.4807 21.8436C77.7986 21.9563 78.0789 22.1315 78.3217 22.3692C78.5669 22.607 78.7597 22.9099 78.8998 23.2778C79.04 23.6432 79.1101 24.0787 79.1101 24.5843V25.001H74.3834V24.085H77.8073C77.8048 23.8247 77.7485 23.5932 77.6384 23.3904C77.5282 23.1852 77.3743 23.0238 77.1766 22.9061C76.9814 22.7885 76.7536 22.7297 76.4933 22.7297C76.2155 22.7297 75.9714 22.7972 75.7612 22.9324C75.551 23.0651 75.387 23.2403 75.2694 23.458C75.1542 23.6733 75.0954 23.9098 75.0929 24.1676V24.9673C75.0929 25.3026 75.1542 25.5905 75.2769 25.8308C75.3995 26.0685 75.571 26.2512 75.7912 26.3789C76.0115 26.504 76.2693 26.5666 76.5646 26.5666C76.7624 26.5666 76.9413 26.5391 77.1015 26.484C77.2617 26.4264 77.4006 26.3426 77.5182 26.2325C77.6359 26.1223 77.7247 25.9859 77.7848 25.8232L79.0538 25.9659C78.9737 26.3013 78.821 26.5941 78.5957 26.8444C78.373 27.0922 78.0876 27.2849 77.7397 27.4226C77.3918 27.5577 76.9939 27.6253 76.5459 27.6253ZM82.3364 27.6141C81.8834 27.6141 81.4779 27.4977 81.12 27.2649C80.7621 27.0321 80.4792 26.6942 80.2715 26.2512C80.0637 25.8082 79.9599 25.2701 79.9599 24.6369C79.9599 23.9961 80.065 23.4555 80.2752 23.015C80.488 22.572 80.7746 22.2378 81.135 22.0126C81.4954 21.7848 81.8971 21.6709 82.3401 21.6709C82.678 21.6709 82.9558 21.7285 83.1736 21.8436C83.3913 21.9563 83.564 22.0927 83.6917 22.2529C83.8193 22.4105 83.9182 22.5595 83.9883 22.6996H84.0446V19.8238H85.4074V27.5127H84.0709V26.6041H83.9883C83.9182 26.7443 83.8168 26.8932 83.6842 27.0509C83.5515 27.2061 83.3763 27.3387 83.1586 27.4489C82.9408 27.559 82.6668 27.6141 82.3364 27.6141ZM82.7156 26.499C83.0034 26.499 83.2487 26.4214 83.4514 26.2663C83.6541 26.1086 83.8081 25.8896 83.9132 25.6092C84.0183 25.3289 84.0709 25.0023 84.0709 24.6294C84.0709 24.2564 84.0183 23.9323 83.9132 23.657C83.8106 23.3817 83.6579 23.1677 83.4552 23.015C83.2549 22.8623 83.0084 22.786 82.7156 22.786C82.4127 22.786 82.1599 22.8648 81.9572 23.0225C81.7545 23.1802 81.6018 23.3979 81.4992 23.6758C81.3965 23.9536 81.3452 24.2714 81.3452 24.6294C81.3452 24.9898 81.3965 25.3114 81.4992 25.5942C81.6043 25.8746 81.7582 26.0961 81.9609 26.2587C82.1662 26.4189 82.4177 26.499 82.7156 26.499Z" fill="#576072"/>
<path d="M15.767 54.5127V52.8313C16.239 52.8313 16.6077 52.7044 16.8732 52.4508C17.1446 52.1912 17.2685 51.7664 17.2449 51.1764L17.1298 48.734H15.767V47.1853H17.059L16.9705 45.3269C16.9292 44.4891 17.0856 43.7576 17.4395 43.1322C17.7935 42.501 18.2891 42.0113 18.9263 41.6632C19.5634 41.3151 20.295 41.1411 21.1209 41.1411C21.8997 41.1411 22.59 41.3181 23.1917 41.672C23.7994 42.0201 24.2714 42.5069 24.6077 43.1322C24.9498 43.7517 25.1209 44.4714 25.1209 45.2915H23.2891C23.2891 44.5127 23.0944 43.908 22.705 43.4773C22.3156 43.0467 21.7906 42.8313 21.1298 42.8313C20.41 42.8313 19.8407 43.0467 19.4218 43.4773C19.0089 43.9021 18.8201 44.498 18.8555 45.265L18.9351 47.1853H22.528V48.734H18.9971L19.0944 51.026C19.1121 51.4921 19.0443 51.8696 18.8909 52.1587C18.7434 52.4419 18.5369 52.6661 18.2714 52.8313H22.6696C23.118 52.8313 23.3422 52.6071 23.3422 52.1587V51.6189H25.1386V52.0614C25.1386 53.6956 24.3215 54.5127 22.6873 54.5127H15.767ZM30.9911 54.7251C30.0177 54.7251 29.174 54.5333 28.4601 54.1499C27.7522 53.7664 27.2035 53.2413 26.8141 52.5747C26.4248 51.908 26.2301 51.1499 26.2301 50.3003H28.1681C28.1681 51.1794 28.4129 51.8637 28.9026 52.3534C29.3982 52.8431 30.0826 53.0879 30.9557 53.0879C31.7935 53.0879 32.4719 52.8755 32.9911 52.4508C33.5162 52.026 33.7787 51.4567 33.7787 50.7428C33.7787 50.0879 33.4985 49.5629 32.938 49.1676C32.3834 48.7664 31.6519 48.5658 30.7433 48.5658H29.646V46.9641H30.7433C31.5457 46.9641 32.1917 46.7812 32.6814 46.4154C33.1769 46.0496 33.4247 45.5629 33.4247 44.9552C33.4247 44.2709 33.1946 43.731 32.7345 43.3358C32.2743 42.9405 31.6666 42.7428 30.9115 42.7428C30.1327 42.7428 29.5162 42.9611 29.0619 43.3977C28.6135 43.8343 28.3893 44.436 28.3893 45.203H26.5044C26.5044 44.4065 26.6902 43.7015 27.0619 43.088C27.4336 42.4685 27.9498 41.9847 28.6106 41.6366C29.2713 41.2886 30.0413 41.1145 30.9203 41.1145C31.7581 41.1145 32.5073 41.2738 33.1681 41.5924C33.8288 41.9051 34.348 42.3417 34.7256 42.9021C35.1091 43.4567 35.3008 44.0909 35.3008 44.8048C35.3008 45.5009 35.0825 46.1057 34.646 46.6189C34.2094 47.1263 33.6224 47.4803 32.8849 47.6809V47.7074C33.7522 47.8431 34.4395 48.1971 34.9468 48.7694C35.4542 49.3416 35.7079 50.0171 35.7079 50.7959C35.7079 51.5629 35.5044 52.2413 35.0973 52.8313C34.6902 53.4213 34.1297 53.8844 33.4159 54.2207C32.7079 54.5569 31.8997 54.7251 30.9911 54.7251ZM41.348 54.6985C40.4689 54.6985 39.6843 54.5245 38.994 54.1764C38.3097 53.8224 37.761 53.3387 37.348 52.7251C36.9409 52.1056 36.7197 51.4006 36.6843 50.6101H38.6046C38.6636 51.318 38.9468 51.9021 39.4542 52.3623C39.9675 52.8165 40.6017 53.0437 41.3568 53.0437C42.1533 53.0437 42.7964 52.7752 43.286 52.2384C43.7816 51.7015 44.0294 51.0142 44.0294 50.1764C44.0294 49.3446 43.7905 48.6602 43.3126 48.1233C42.8347 47.5806 42.2123 47.3092 41.4453 47.3092C40.7728 47.3092 40.1946 47.4478 39.7108 47.7251C39.2271 47.9965 38.8908 48.3918 38.702 48.911H36.8524L37.2861 41.3269H45.171V43.0083H39.0471L38.7551 46.8933H38.7728C39.5456 46.0732 40.5338 45.6632 41.7374 45.6632C42.5397 45.6632 43.2536 45.8579 43.8789 46.2472C44.5102 46.6307 45.0058 47.1617 45.3657 47.8402C45.7314 48.5127 45.9143 49.2797 45.9143 50.141C45.9143 51.0319 45.7226 51.8195 45.3391 52.5039C44.9615 53.1882 44.4306 53.7251 43.7462 54.1145C43.0618 54.5038 42.2624 54.6985 41.348 54.6985ZM51.9261 54.7251C50.9055 54.7251 50.0235 54.4478 49.2801 53.8932C48.5426 53.3387 47.9733 52.554 47.5721 51.5393C47.171 50.5186 46.9704 49.3151 46.9704 47.9287C46.9704 46.5363 47.171 45.3298 47.5721 44.3092C47.9733 43.2886 48.5426 42.501 49.2801 41.9464C50.0235 41.3918 50.9055 41.1145 51.9261 41.1145C52.9409 41.1145 53.817 41.3918 54.5544 41.9464C55.2978 42.501 55.87 43.2886 56.2712 44.3092C56.6724 45.3298 56.873 46.5363 56.873 47.9287C56.873 49.3151 56.6724 50.5186 56.2712 51.5393C55.87 52.554 55.2978 53.3387 54.5544 53.8932C53.817 54.4478 52.9409 54.7251 51.9261 54.7251ZM51.9261 53.0525C52.8819 53.0525 53.6341 52.5982 54.1827 51.6897C54.7373 50.7752 55.0146 49.5216 55.0146 47.9287C55.0146 46.3298 54.7373 45.0732 54.1827 44.1588C53.6341 43.2443 52.8819 42.7871 51.9261 42.7871C50.9645 42.7871 50.2064 43.2443 49.6518 44.1588C49.1031 45.0732 48.8288 46.3298 48.8288 47.9287C48.8288 49.5216 49.1031 50.7752 49.6518 51.6897C50.2064 52.5982 50.9645 53.0525 51.9261 53.0525ZM57.1945 57.0879L57.929 52.5658H59.8405L58.5308 57.0879H57.1945ZM65.6665 54.7251C64.6458 54.7251 63.7638 54.4478 63.0205 53.8932C62.283 53.3387 61.7137 52.554 61.3125 51.5393C60.9113 50.5186 60.7107 49.3151 60.7107 47.9287C60.7107 46.5363 60.9113 45.3298 61.3125 44.3092C61.7137 43.2886 62.283 42.501 63.0205 41.9464C63.7638 41.3918 64.6458 41.1145 65.6665 41.1145C66.6812 41.1145 67.5573 41.3918 68.2948 41.9464C69.0381 42.501 69.6104 43.2886 70.0116 44.3092C70.4128 45.3298 70.6133 46.5363 70.6133 47.9287C70.6133 49.3151 70.4128 50.5186 70.0116 51.5393C69.6104 52.554 69.0381 53.3387 68.2948 53.8932C67.5573 54.4478 66.6812 54.7251 65.6665 54.7251ZM65.6665 53.0525C66.6222 53.0525 67.3744 52.5982 67.9231 51.6897C68.4777 50.7752 68.7549 49.5216 68.7549 47.9287C68.7549 46.3298 68.4777 45.0732 67.9231 44.1588C67.3744 43.2443 66.6222 42.7871 65.6665 42.7871C64.7048 42.7871 63.9467 43.2443 63.3921 44.1588C62.8435 45.0732 62.5691 46.3298 62.5691 47.9287C62.5691 49.5216 62.8435 50.7752 63.3921 51.6897C63.9467 52.5982 64.7048 53.0525 65.6665 53.0525ZM76.634 54.7251C75.6133 54.7251 74.7313 54.4478 73.988 53.8932C73.2505 53.3387 72.6812 52.554 72.28 51.5393C71.8788 50.5186 71.6782 49.3151 71.6782 47.9287C71.6782 46.5363 71.8788 45.3298 72.28 44.3092C72.6812 43.2886 73.2505 42.501 73.988 41.9464C74.7313 41.3918 75.6133 41.1145 76.634 41.1145C77.6487 41.1145 78.5248 41.3918 79.2623 41.9464C80.0056 42.501 80.5779 43.2886 80.9791 44.3092C81.3802 45.3298 81.5808 46.5363 81.5808 47.9287C81.5808 49.3151 81.3802 50.5186 80.9791 51.5393C80.5779 52.554 80.0056 53.3387 79.2623 53.8932C78.5248 54.4478 77.6487 54.7251 76.634 54.7251ZM76.634 53.0525C77.5897 53.0525 78.3419 52.5982 78.8906 51.6897C79.4452 50.7752 79.7224 49.5216 79.7224 47.9287C79.7224 46.3298 79.4452 45.0732 78.8906 44.1588C78.3419 43.2443 77.5897 42.7871 76.634 42.7871C75.6723 42.7871 74.9142 43.2443 74.3596 44.1588C73.811 45.0732 73.5366 46.3298 73.5366 47.9287C73.5366 49.5216 73.811 50.7752 74.3596 51.6897C74.9142 52.5982 75.6723 53.0525 76.634 53.0525ZM87.6015 54.7251C86.5808 54.7251 85.6988 54.4478 84.9555 53.8932C84.218 53.3387 83.6487 52.554 83.2475 51.5393C82.8463 50.5186 82.6457 49.3151 82.6457 47.9287C82.6457 46.5363 82.8463 45.3298 83.2475 44.3092C83.6487 43.2886 84.218 42.501 84.9555 41.9464C85.6988 41.3918 86.5808 41.1145 87.6015 41.1145C88.6162 41.1145 89.4923 41.3918 90.2298 41.9464C90.9731 42.501 91.5454 43.2886 91.9466 44.3092C92.3477 45.3298 92.5483 46.5363 92.5483 47.9287C92.5483 49.3151 92.3477 50.5186 91.9466 51.5393C91.5454 52.554 90.9731 53.3387 90.2298 53.8932C89.4923 54.4478 88.6162 54.7251 87.6015 54.7251ZM87.6015 53.0525C88.5572 53.0525 89.3094 52.5982 89.8581 51.6897C90.4127 50.7752 90.6899 49.5216 90.6899 47.9287C90.6899 46.3298 90.4127 45.0732 89.8581 44.1588C89.3094 43.2443 88.5572 42.7871 87.6015 42.7871C86.6398 42.7871 85.8817 43.2443 85.3271 44.1588C84.7785 45.0732 84.5041 46.3298 84.5041 47.9287C84.5041 49.5216 84.7785 50.7752 85.3271 51.6897C85.8817 52.5982 86.6398 53.0525 87.6015 53.0525ZM94.4628 54.6631C94.1206 54.6631 93.8286 54.5451 93.5867 54.3092C93.3507 54.0673 93.2327 53.7723 93.2327 53.4242C93.2327 53.082 93.3507 52.79 93.5867 52.5481C93.8286 52.3062 94.1206 52.1853 94.4628 52.1853C94.8109 52.1853 95.1029 52.3062 95.3389 52.5481C95.5808 52.79 95.7017 53.082 95.7017 53.4242C95.7017 53.7723 95.5808 54.0673 95.3389 54.3092C95.1029 54.5451 94.8109 54.6631 94.4628 54.6631ZM101.342 54.7251C100.321 54.7251 99.4392 54.4478 98.6958 53.8932C97.9583 53.3387 97.389 52.554 96.9879 51.5393C96.5867 50.5186 96.3861 49.3151 96.3861 47.9287C96.3861 46.5363 96.5867 45.3298 96.9879 44.3092C97.389 43.2886 97.9583 42.501 98.6958 41.9464C99.4392 41.3918 100.321 41.1145 101.342 41.1145C102.357 41.1145 103.233 41.3918 103.97 41.9464C104.713 42.501 105.286 43.2886 105.687 44.3092C106.088 45.3298 106.289 46.5363 106.289 47.9287C106.289 49.3151 106.088 50.5186 105.687 51.5393C105.286 52.554 104.713 53.3387 103.97 53.8932C103.233 54.4478 102.357 54.7251 101.342 54.7251ZM101.342 53.0525C102.298 53.0525 103.05 52.5982 103.598 51.6897C104.153 50.7752 104.43 49.5216 104.43 47.9287C104.43 46.3298 104.153 45.0732 103.598 44.1588C103.05 43.2443 102.298 42.7871 101.342 42.7871C100.38 42.7871 99.6221 43.2443 99.0675 44.1588C98.5188 45.0732 98.2445 46.3298 98.2445 47.9287C98.2445 49.5216 98.5188 50.7752 99.0675 51.6897C99.6221 52.5982 100.38 53.0525 101.342 53.0525ZM112.309 54.7251C111.289 54.7251 110.407 54.4478 109.663 53.8932C108.926 53.3387 108.357 52.554 107.955 51.5393C107.554 50.5186 107.354 49.3151 107.354 47.9287C107.354 46.5363 107.554 45.3298 107.955 44.3092C108.357 43.2886 108.926 42.501 109.663 41.9464C110.407 41.3918 111.289 41.1145 112.309 41.1145C113.324 41.1145 114.2 41.3918 114.938 41.9464C115.681 42.501 116.253 43.2886 116.654 44.3092C117.056 45.3298 117.256 46.5363 117.256 47.9287C117.256 49.3151 117.056 50.5186 116.654 51.5393C116.253 52.554 115.681 53.3387 114.938 53.8932C114.2 54.4478 113.324 54.7251 112.309 54.7251ZM112.309 53.0525C113.265 53.0525 114.017 52.5982 114.566 51.6897C115.121 50.7752 115.398 49.5216 115.398 47.9287C115.398 46.3298 115.121 45.0732 114.566 44.1588C114.017 43.2443 113.265 42.7871 112.309 42.7871C111.348 42.7871 110.59 43.2443 110.035 44.1588C109.486 45.0732 109.212 46.3298 109.212 47.9287C109.212 49.5216 109.486 50.7752 110.035 51.6897C110.59 52.5982 111.348 53.0525 112.309 53.0525Z" fill="#212329"/>
</svg>
