<svg width="173" height="78" viewBox="0 0 173 78" fill="none" xmlns="http://www.w3.org/2000/svg">
<rect x="0.5" y="0.5" width="172" height="76.0262" rx="9.5" fill="white"/>
<rect x="0.5" y="0.5" width="172" height="76.0262" rx="9.5" stroke="#E4E7EC"/>
<path d="M15.8616 27.5127V19.8238H17.2545V26.3451H20.6409V27.5127H15.8616ZM24.2417 27.6253C23.6786 27.6253 23.1905 27.5014 22.7775 27.2536C22.3646 27.0059 22.0442 26.6592 21.8164 26.2137C21.5912 25.7682 21.4785 25.2476 21.4785 24.6519C21.4785 24.0562 21.5912 23.5343 21.8164 23.0863C22.0442 22.6383 22.3646 22.2904 22.7775 22.0426C23.1905 21.7948 23.6786 21.6709 24.2417 21.6709C24.8049 21.6709 25.2929 21.7948 25.7059 22.0426C26.1189 22.2904 26.438 22.6383 26.6633 23.0863C26.891 23.5343 27.0049 24.0562 27.0049 24.6519C27.0049 25.2476 26.891 25.7682 26.6633 26.2137C26.438 26.6592 26.1189 27.0059 25.7059 27.2536C25.2929 27.5014 24.8049 27.6253 24.2417 27.6253ZM24.2492 26.5366C24.5546 26.5366 24.8099 26.4527 25.0151 26.285C25.2204 26.1148 25.373 25.8871 25.4731 25.6017C25.5758 25.3164 25.6271 24.9985 25.6271 24.6481C25.6271 24.2952 25.5758 23.9761 25.4731 23.6908C25.373 23.4029 25.2204 23.1739 25.0151 23.0037C24.8099 22.8335 24.5546 22.7484 24.2492 22.7484C23.9364 22.7484 23.6761 22.8335 23.4683 23.0037C23.2631 23.1739 23.1092 23.4029 23.0065 23.6908C22.9064 23.9761 22.8564 24.2952 22.8564 24.6481C22.8564 24.9985 22.9064 25.3164 23.0065 25.6017C23.1092 25.8871 23.2631 26.1148 23.4683 26.285C23.6761 26.4527 23.9364 26.5366 24.2492 26.5366ZM29.7544 27.6291C29.389 27.6291 29.0599 27.564 28.767 27.4339C28.4767 27.3012 28.2464 27.106 28.0762 26.8482C27.9085 26.5904 27.8247 26.2725 27.8247 25.8946C27.8247 25.5692 27.8848 25.3001 28.0049 25.0874C28.125 24.8746 28.289 24.7044 28.4967 24.5768C28.7045 24.4492 28.9385 24.3528 29.1988 24.2877C29.4616 24.2201 29.7332 24.1713 30.0135 24.1413C30.3514 24.1063 30.6254 24.075 30.8357 24.0474C31.0459 24.0174 31.1986 23.9724 31.2937 23.9123C31.3913 23.8497 31.4401 23.7533 31.4401 23.6232V23.6007C31.4401 23.3178 31.3563 23.0988 31.1886 22.9437C31.0209 22.7885 30.7794 22.7109 30.464 22.7109C30.1311 22.7109 29.8671 22.7835 29.6718 22.9286C29.4791 23.0738 29.349 23.2453 29.2814 23.443L28.0124 23.2628C28.1125 22.9124 28.2777 22.6195 28.508 22.3843C28.7383 22.1465 29.0198 21.9688 29.3527 21.8512C29.6856 21.731 30.0535 21.6709 30.4565 21.6709C30.7343 21.6709 31.0109 21.7035 31.2862 21.7686C31.5615 21.8336 31.8131 21.9413 32.0408 22.0914C32.2686 22.2391 32.4513 22.4406 32.589 22.6959C32.7291 22.9512 32.7992 23.2703 32.7992 23.6532V27.5127H31.4927V26.7205H31.4476C31.365 26.8807 31.2487 27.0309 31.0985 27.1711C30.9508 27.3087 30.7643 27.4201 30.5391 27.5052C30.3163 27.5878 30.0548 27.6291 29.7544 27.6291ZM30.1073 26.6304C30.3801 26.6304 30.6167 26.5766 30.8169 26.469C31.0171 26.3589 31.1711 26.2137 31.2787 26.0335C31.3888 25.8533 31.4439 25.6568 31.4439 25.4441V24.7645C31.4013 24.7996 31.3287 24.8321 31.2261 24.8621C31.126 24.8922 31.0134 24.9184 30.8882 24.941C30.7631 24.9635 30.6392 24.9835 30.5166 25.001C30.3939 25.0186 30.2875 25.0336 30.1974 25.0461C29.9947 25.0736 29.8132 25.1187 29.6531 25.1813C29.4929 25.2438 29.3665 25.3314 29.2739 25.4441C29.1813 25.5542 29.135 25.6968 29.135 25.872C29.135 26.1223 29.2263 26.3113 29.409 26.439C29.5917 26.5666 29.8245 26.6304 30.1073 26.6304ZM35.4614 24.1338V27.5127H34.1023V21.746H35.4013V22.7259H35.4689C35.6016 22.403 35.8131 22.1465 36.1034 21.9563C36.3962 21.7661 36.7579 21.6709 37.1884 21.6709C37.5864 21.6709 37.933 21.756 38.2284 21.9262C38.5262 22.0964 38.7565 22.343 38.9192 22.6658C39.0844 22.9887 39.1657 23.3804 39.1632 23.841V27.5127H37.8041V24.0512C37.8041 23.6657 37.704 23.3641 37.5038 23.1464C37.306 22.9286 37.032 22.8198 36.6816 22.8198C36.4438 22.8198 36.2323 22.8723 36.0471 22.9775C35.8644 23.0801 35.7205 23.229 35.6153 23.4242C35.5127 23.6194 35.4614 23.856 35.4614 24.1338ZM45.0391 23.2703L43.8002 23.4054C43.7652 23.2803 43.7038 23.1627 43.6162 23.0525C43.5311 22.9424 43.416 22.8536 43.2708 22.786C43.1257 22.7184 42.948 22.6846 42.7377 22.6846C42.4549 22.6846 42.2171 22.7459 42.0244 22.8686C41.8342 22.9912 41.7403 23.1502 41.7428 23.3454C41.7403 23.5131 41.8016 23.6495 41.9268 23.7546C42.0544 23.8597 42.2647 23.9461 42.5575 24.0137L43.5411 24.2239C44.0868 24.3415 44.4922 24.528 44.7575 24.7833C45.0254 25.0386 45.1605 25.3727 45.163 25.7857C45.1605 26.1486 45.0541 26.469 44.8439 26.7468C44.6362 27.0221 44.3471 27.2374 43.9766 27.3926C43.6062 27.5477 43.1807 27.6253 42.7002 27.6253C41.9944 27.6253 41.4262 27.4777 40.9957 27.1823C40.5652 26.8845 40.3087 26.4702 40.2261 25.9396L41.5513 25.812C41.6114 26.0723 41.7391 26.2688 41.9343 26.4014C42.1295 26.5341 42.3836 26.6004 42.6964 26.6004C43.0193 26.6004 43.2783 26.5341 43.4736 26.4014C43.6713 26.2688 43.7702 26.1048 43.7702 25.9096C43.7702 25.7444 43.7063 25.608 43.5787 25.5004C43.4535 25.3927 43.2583 25.3101 42.993 25.2526L42.0094 25.0461C41.4562 24.931 41.047 24.737 40.7817 24.4642C40.5164 24.1889 40.385 23.841 40.3875 23.4205C40.385 23.0651 40.4814 22.7572 40.6766 22.4969C40.8743 22.2341 41.1484 22.0314 41.4988 21.8887C41.8517 21.7435 42.2584 21.6709 42.7189 21.6709C43.3947 21.6709 43.9266 21.8149 44.3145 22.1027C44.705 22.3905 44.9465 22.7797 45.0391 23.2703ZM51.7001 21.746V22.7972H48.2912V21.746H51.7001ZM49.1434 27.5127V21.2016C49.1434 20.8137 49.2235 20.4908 49.3837 20.233C49.5464 19.9752 49.7641 19.7825 50.0369 19.6549C50.3097 19.5272 50.6126 19.4634 50.9455 19.4634C51.1808 19.4634 51.3897 19.4822 51.5725 19.5197C51.7552 19.5572 51.8903 19.591 51.9779 19.6211L51.7076 20.6723C51.65 20.6548 51.5775 20.6372 51.4899 20.6197C51.4023 20.5997 51.3046 20.5897 51.197 20.5897C50.9442 20.5897 50.7653 20.651 50.6602 20.7737C50.5575 20.8938 50.5062 21.0665 50.5062 21.2918V27.5127H49.1434ZM56.3765 25.0874V21.746H57.7356V27.5127H56.4178V26.4878H56.3578C56.2276 26.8106 56.0136 27.0747 55.7158 27.2799C55.4204 27.4852 55.0563 27.5878 54.6232 27.5878C54.2453 27.5878 53.9112 27.5039 53.6208 27.3362C53.333 27.166 53.1077 26.9195 52.9451 26.5966C52.7824 26.2713 52.701 25.8783 52.701 25.4178V21.746H54.0601V25.2075C54.0601 25.573 54.1602 25.8633 54.3604 26.0785C54.5607 26.2938 54.8235 26.4014 55.1489 26.4014C55.3491 26.4014 55.5431 26.3526 55.7308 26.255C55.9185 26.1574 56.0724 26.0122 56.1926 25.8195C56.3152 25.6243 56.3765 25.3802 56.3765 25.0874ZM60.4288 24.1338V27.5127H59.0697V21.746H60.3687V22.7259H60.4363C60.569 22.403 60.7804 22.1465 61.0708 21.9563C61.3636 21.7661 61.7253 21.6709 62.1558 21.6709C62.5537 21.6709 62.9004 21.756 63.1957 21.9262C63.4936 22.0964 63.7238 22.343 63.8865 22.6658C64.0517 22.9887 64.1331 23.3804 64.1306 23.841V27.5127H62.7715V24.0512C62.7715 23.6657 62.6714 23.3641 62.4711 23.1464C62.2734 22.9286 61.9994 22.8198 61.6489 22.8198C61.4112 22.8198 61.1997 22.8723 61.0145 22.9775C60.8318 23.0801 60.6878 23.229 60.5827 23.4242C60.4801 23.6194 60.4288 23.856 60.4288 24.1338ZM67.5887 27.6141C67.1357 27.6141 66.7302 27.4977 66.3723 27.2649C66.0144 27.0321 65.7316 26.6942 65.5238 26.2512C65.3161 25.8082 65.2122 25.2701 65.2122 24.6369C65.2122 23.9961 65.3173 23.4555 65.5276 23.015C65.7403 22.572 66.0269 22.2378 66.3873 22.0126C66.7477 21.7848 67.1494 21.6709 67.5925 21.6709C67.9303 21.6709 68.2082 21.7285 68.4259 21.8436C68.6437 21.9563 68.8164 22.0927 68.944 22.2529C69.0717 22.4105 69.1705 22.5595 69.2406 22.6996H69.2969V19.8238H70.6598V27.5127H69.3232V26.6041H69.2406C69.1705 26.7443 69.0692 26.8932 68.9365 27.0509C68.8039 27.2061 68.6287 27.3387 68.4109 27.4489C68.1932 27.559 67.9191 27.6141 67.5887 27.6141ZM67.9679 26.499C68.2557 26.499 68.501 26.4214 68.7037 26.2663C68.9065 26.1086 69.0604 25.8896 69.1655 25.6092C69.2706 25.3289 69.3232 25.0023 69.3232 24.6294C69.3232 24.2564 69.2706 23.9323 69.1655 23.657C69.0629 23.3817 68.9102 23.1677 68.7075 23.015C68.5073 22.8623 68.2607 22.786 67.9679 22.786C67.665 22.786 67.4123 22.8648 67.2095 23.0225C67.0068 23.1802 66.8541 23.3979 66.7515 23.6758C66.6489 23.9536 66.5976 24.2714 66.5976 24.6294C66.5976 24.9898 66.6489 25.3114 66.7515 25.5942C66.8566 25.8746 67.0105 26.0961 67.2133 26.2587C67.4185 26.4189 67.67 26.499 67.9679 26.499ZM74.5975 27.6253C74.0193 27.6253 73.52 27.5052 73.0995 27.2649C72.6815 27.0221 72.3599 26.6792 72.1347 26.2362C71.9094 25.7907 71.7968 25.2663 71.7968 24.6632C71.7968 24.07 71.9094 23.5494 72.1347 23.1013C72.3624 22.6508 72.6803 22.3004 73.0883 22.0501C73.4962 21.7973 73.9755 21.6709 74.5262 21.6709C74.8816 21.6709 75.217 21.7285 75.5323 21.8436C75.8502 21.9563 76.1305 22.1315 76.3733 22.3692C76.6186 22.607 76.8113 22.9099 76.9515 23.2778C77.0916 23.6432 77.1617 24.0787 77.1617 24.5843V25.001H72.435V24.085H75.859C75.8565 23.8247 75.8002 23.5932 75.69 23.3904C75.5799 23.1852 75.426 23.0238 75.2282 22.9061C75.033 22.7885 74.8053 22.7297 74.545 22.7297C74.2671 22.7297 74.0231 22.7972 73.8129 22.9324C73.6026 23.0651 73.4387 23.2403 73.321 23.458C73.2059 23.6733 73.1471 23.9098 73.1446 24.1676V24.9673C73.1446 25.3026 73.2059 25.5905 73.3285 25.8308C73.4512 26.0685 73.6226 26.2512 73.8429 26.3789C74.0631 26.504 74.3209 26.5666 74.6163 26.5666C74.814 26.5666 74.993 26.5391 75.1532 26.484C75.3133 26.4264 75.4522 26.3426 75.5699 26.2325C75.6875 26.1223 75.7764 25.9859 75.8364 25.8232L77.1054 25.9659C77.0253 26.3013 76.8726 26.5941 76.6474 26.8444C76.4246 27.0922 76.1393 27.2849 75.7914 27.4226C75.4435 27.5577 75.0455 27.6253 74.5975 27.6253ZM80.388 27.6141C79.935 27.6141 79.5295 27.4977 79.1716 27.2649C78.8137 27.0321 78.5309 26.6942 78.3231 26.2512C78.1154 25.8082 78.0115 25.2701 78.0115 24.6369C78.0115 23.9961 78.1167 23.4555 78.3269 23.015C78.5396 22.572 78.8262 22.2378 79.1866 22.0126C79.5471 21.7848 79.9488 21.6709 80.3918 21.6709C80.7297 21.6709 81.0075 21.7285 81.2253 21.8436C81.443 21.9563 81.6157 22.0927 81.7433 22.2529C81.871 22.4105 81.9699 22.5595 82.0399 22.6996H82.0963V19.8238H83.4591V27.5127H82.1225V26.6041H82.0399C81.9699 26.7443 81.8685 26.8932 81.7358 27.0509C81.6032 27.2061 81.428 27.3387 81.2102 27.4489C80.9925 27.559 80.7184 27.6141 80.388 27.6141ZM80.7672 26.499C81.0551 26.499 81.3003 26.4214 81.5031 26.2663C81.7058 26.1086 81.8597 25.8896 81.9649 25.6092C82.07 25.3289 82.1225 25.0023 82.1225 24.6294C82.1225 24.2564 82.07 23.9323 81.9649 23.657C81.8622 23.3817 81.7096 23.1677 81.5068 23.015C81.3066 22.8623 81.0601 22.786 80.7672 22.786C80.4644 22.786 80.2116 22.8648 80.0088 23.0225C79.8061 23.1802 79.6534 23.3979 79.5508 23.6758C79.4482 23.9536 79.3969 24.2714 79.3969 24.6294C79.3969 24.9898 79.4482 25.3114 79.5508 25.5942C79.6559 25.8746 79.8099 26.0961 80.0126 26.2587C80.2178 26.4189 80.4694 26.499 80.7672 26.499Z" fill="#576072"/>
<path d="M20.6431 54.7251C19.6696 54.7251 18.826 54.5333 18.1121 54.1499C17.4041 53.7664 16.8555 53.2413 16.4661 52.5747C16.0767 51.908 15.882 51.1499 15.882 50.3003H17.8201C17.8201 51.1794 18.0649 51.8637 18.5546 52.3534C19.0502 52.8431 19.7345 53.0879 20.6077 53.0879C21.4454 53.0879 22.1239 52.8755 22.6431 52.4508C23.1681 52.026 23.4307 51.4567 23.4307 50.7428C23.4307 50.0879 23.1504 49.5629 22.59 49.1676C22.0354 48.7664 21.3038 48.5658 20.3953 48.5658H19.2979V46.9641H20.3953C21.1976 46.9641 21.8437 46.7812 22.3333 46.4154C22.8289 46.0496 23.0767 45.5629 23.0767 44.9552C23.0767 44.2709 22.8466 43.731 22.3864 43.3358C21.9262 42.9405 21.3186 42.7428 20.5634 42.7428C19.7847 42.7428 19.1681 42.9611 18.7139 43.3977C18.2655 43.8343 18.0413 44.436 18.0413 45.203H16.1564C16.1564 44.4065 16.3422 43.7015 16.7139 43.088C17.0856 42.4685 17.6018 41.9847 18.2625 41.6366C18.9233 41.2886 19.6932 41.1145 20.5723 41.1145C21.41 41.1145 22.1593 41.2738 22.82 41.5924C23.4808 41.9051 24 42.3417 24.3776 42.9021C24.761 43.4567 24.9528 44.0909 24.9528 44.8048C24.9528 45.5009 24.7345 46.1057 24.2979 46.6189C23.8613 47.1263 23.2743 47.4803 22.5369 47.6809V47.7074C23.4041 47.8431 24.0914 48.1971 24.5988 48.7694C25.1062 49.3416 25.3599 50.0171 25.3599 50.7959C25.3599 51.5629 25.1563 52.2413 24.7492 52.8313C24.3422 53.4213 23.7817 53.8844 23.0678 54.2207C22.3599 54.5569 21.5516 54.7251 20.6431 54.7251Z" fill="#212329"/>
</svg>
