<svg width="127" height="33" viewBox="0 0 127 33" fill="none" xmlns="http://www.w3.org/2000/svg">
<path d="M56.413 23.8157H53.2756L51.8409 21.0128L48.4252 14.3011L45.0081 21.0128L43.5663 23.8157H40.4375L41.8606 21.0128L48.4252 8.13867L54.9885 21.0128L56.413 23.8157Z" fill="white"/>
<path d="M69.452 8.1543V10.95H63.0157V23.8227H60.22V10.95H53.7793V8.1543H69.452Z" fill="white"/>
<path d="M85.8026 15.9775C85.8026 17.5271 85.3431 19.0419 84.4822 20.3303C83.6213 21.6188 82.3977 22.623 80.966 23.216C79.5344 23.809 77.959 23.9642 76.4392 23.6619C74.9194 23.3595 73.5233 22.6133 72.4276 21.5176C71.3319 20.4219 70.5857 19.0258 70.2834 17.506C69.9811 15.9862 70.1362 14.4108 70.7292 12.9792C71.3222 11.5476 72.3264 10.3239 73.6149 9.463C74.9033 8.60209 76.4181 8.14258 77.9677 8.14258C80.0457 8.14258 82.0385 8.96804 83.5078 10.4374C84.9772 11.9067 85.8026 13.8995 85.8026 15.9775ZM83.0098 15.9775C83.0098 14.9794 82.7138 14.0037 82.1593 13.1739C81.6048 12.344 80.8167 11.6972 79.8946 11.3152C78.9725 10.9333 77.9578 10.8333 76.9789 11.028C76 11.2228 75.1008 11.7034 74.395 12.4091C73.6893 13.1149 73.2087 14.0141 73.014 14.993C72.8192 15.9719 72.9192 16.9866 73.3011 17.9087C73.6831 18.8308 74.3299 19.6189 75.1598 20.1734C75.9896 20.7279 76.9653 21.0239 77.9634 21.0239C78.6262 21.0239 79.2826 20.8933 79.8949 20.6396C80.5073 20.3859 81.0636 20.0141 81.5323 19.5453C82.0009 19.0766 82.3726 18.5201 82.6261 17.9077C82.8796 17.2952 83.01 16.6389 83.0098 15.976V15.9775Z" fill="white"/>
<path d="M103.677 8.00586V23.6843H100.876V13.704L98.1289 15.8163L95.8378 17.5854L93.5482 15.8163L90.8087 13.704V23.6843H88V8.00586L90.8015 10.1686L95.8378 14.0515L100.876 10.1686L103.677 8.00586Z" fill="white"/>
<path d="M106.324 23.811V8.14258H109.12V23.811H106.324Z" fill="white"/>
<path d="M126.918 8.14876L120.848 16.0096L126.891 23.8301H123.363L119.095 18.2863L114.821 23.8258H111.287L117.32 16.0096L111.25 8.143H114.778L119.095 13.7243L123.406 8.13867H126.924L126.918 8.14876ZM111.25 23.8258H111.287L111.25 23.8719V23.8258ZM126.918 23.8633L126.891 23.8258H126.918V23.8633Z" fill="white"/>
<path d="M18.9503 23.8894C16.355 28.3115 12.9884 30.9544 10.2114 30.2089C8.46966 29.7418 7.19652 27.9957 6.47561 25.4956C6.39775 25.2245 6.33143 24.9405 6.2651 24.6507C6.1411 24.0985 6.03441 23.5261 5.95943 22.9205C5.92627 22.6465 5.90609 22.3611 5.88302 22.077C5.83832 21.5233 5.80948 20.9567 5.80516 20.3713C5.80516 19.9604 5.81237 19.5408 5.82967 19.1155C5.86139 18.3282 5.92868 17.5218 6.03153 16.6961C6.07911 16.3097 6.12813 15.9218 6.19301 15.5297C6.36026 14.506 6.5823 13.4635 6.86346 12.4153C7.78191 8.98374 9.20788 5.92706 10.8458 3.55525C10.3039 3.33319 9.75041 3.14066 9.18769 2.97852C7.56708 5.42963 6.18436 8.49785 5.25005 11.9842C5.10587 12.4989 4.99341 13.0093 4.88094 13.5169C4.79299 13.9148 4.71802 14.3084 4.64593 14.7006C4.49165 15.5354 4.35756 16.3616 4.27538 17.1661C4.23068 17.5843 4.20328 17.9937 4.17589 18.4018C4.09922 19.5158 4.09296 20.6335 4.15715 21.7483C4.17445 22.0424 4.19752 22.3308 4.22635 22.6134C4.28691 23.2305 4.37246 23.824 4.483 24.394C4.53779 24.6824 4.59402 24.9708 4.66179 25.2591C5.49949 28.7109 7.25708 31.1519 9.78029 31.8281C12.2098 32.4784 14.8469 31.3638 17.2302 28.9819C18.7442 27.4608 20.1499 25.4177 21.3394 23.0027C20.5695 23.3199 19.7765 23.6198 18.9503 23.8894Z" fill="white"/>
<path d="M18.3965 4.18671C19.0583 4.69712 19.7172 5.23204 20.366 5.81598C25.4946 5.85491 29.4625 7.44813 30.2065 10.2222C30.6722 11.9654 29.797 13.9407 27.9919 15.8151C28.2557 16.3832 28.4835 16.9455 28.6868 17.502C28.7791 17.4141 28.8844 17.329 28.9752 17.2396C31.3557 14.8563 32.4702 12.2134 31.8185 9.78245C30.7544 5.80444 25.3072 3.72388 18.3965 4.18671Z" fill="white"/>
<path d="M20.2311 20.7472C19.8721 20.8914 19.8721 20.8914 19.4987 21.0356C18.5283 21.4018 17.5147 21.732 16.4708 22.0117C13.0393 22.9302 9.67979 23.2243 6.81055 22.9922C6.88847 23.5746 6.9987 24.1522 7.14073 24.7224C10.0749 24.8997 13.4213 24.5652 16.9062 23.6309C17.4224 23.4867 17.9242 23.3425 18.4216 23.1796C18.8109 23.0571 19.1887 22.9258 19.565 22.7932C20.3652 22.5048 21.1395 22.2049 21.8791 21.8776C22.2655 21.7061 22.639 21.5287 23.0066 21.347C24.0081 20.8558 24.9779 20.3025 25.9105 19.6904C25.7486 19.1285 25.556 18.576 25.3337 18.0352C24.8767 18.3509 24.3994 18.6595 23.8919 18.9565C23.5372 19.1641 23.171 19.366 22.7932 19.5635C22.0882 19.9268 20.9967 20.4243 20.2311 20.7472Z" fill="white"/>
<path d="M21.1616 7.71483C20.7853 7.33707 20.4017 6.9795 20.0182 6.62769C19.7169 6.3523 19.4141 6.09133 19.1099 5.8318C18.4639 5.28102 17.8122 4.75619 17.1605 4.27895C16.8202 4.03095 16.48 3.8017 16.1397 3.57389C15.2129 2.94937 14.2479 2.38355 13.2503 1.87974C12.9879 1.74902 12.7259 1.62406 12.4645 1.50487C11.8993 1.24966 11.3427 1.02906 10.7934 0.837298C10.5137 0.739253 10.234 0.644092 9.96 0.56335C6.55152 -0.437281 3.55827 -0.135938 1.71273 1.71681C-1.19977 4.62787 -0.278438 10.3865 3.57125 16.1423C3.68227 15.3133 3.81636 14.4756 3.99659 13.622C1.46618 9.16099 0.864934 4.92921 2.89359 2.89767C4.16961 1.62165 6.31794 1.3924 8.84259 2.02392C9.11798 2.09169 9.39769 2.16811 9.68029 2.26327C10.2413 2.43402 10.7933 2.63326 11.3341 2.86019C11.5878 2.96832 11.8459 3.09232 12.1026 3.21488C12.6043 3.45278 13.1118 3.71231 13.6194 4.00068C13.9769 4.20397 14.3403 4.42169 14.695 4.6495C15.3611 5.07051 16.0258 5.5319 16.689 6.03366C17.0005 6.26868 17.3105 6.50514 17.6176 6.75457C18.4405 7.42741 19.2292 8.14105 19.9807 8.89281C22.4924 11.4088 24.4273 14.1714 25.6644 16.7753C25.787 17.0319 25.911 17.29 26.0191 17.5438C26.2487 18.0869 26.4508 18.6413 26.6247 19.2048C26.7112 19.4816 26.7919 19.757 26.8597 20.0252C27.285 21.7366 27.3067 23.2664 26.8871 24.4776C26.5565 24.4214 26.2172 24.4444 25.8972 24.5446C25.5771 24.6449 25.2854 24.8195 25.0459 25.0543C24.6874 25.4676 24.4988 26.0013 24.5182 26.5481C24.5376 27.0949 24.7634 27.6139 25.1503 28.0008C25.5371 28.3877 26.0562 28.6135 26.603 28.6329C27.1497 28.6523 27.6835 28.4637 28.0968 28.1052C28.4444 27.7519 28.6577 27.2882 28.6999 26.7944C28.742 26.3005 28.6103 25.8074 28.3275 25.4003C29.0657 23.6442 29.0369 21.3978 28.3116 18.9251C28.2309 18.6526 28.1357 18.3743 28.0377 18.096C27.8459 17.5452 27.6239 16.9858 27.3672 16.4192C27.249 16.1582 27.125 15.8972 26.9938 15.6334C25.6788 12.9977 23.7151 10.2669 21.1616 7.71483Z" fill="white"/>
</svg>
