<svg width="240" height="61" viewBox="0 0 240 61" fill="none" xmlns="http://www.w3.org/2000/svg">
<path d="M105.774 35.2831H99.8917L97.2018 30.0276L90.7973 17.4431L84.3902 30.0276L81.6868 35.2831H75.8203L78.4886 30.0276L90.7973 5.88867L103.103 30.0276L105.774 35.2831Z" fill="white"/>
<path d="M130.224 5.91211V11.1541H118.156V35.2903H112.914V11.1541H100.838V5.91211H130.224Z" fill="white"/>
<path d="M160.877 20.585C160.877 23.4905 160.015 26.3307 158.401 28.7466C156.787 31.1624 154.493 33.0453 151.808 34.1572C149.124 35.2691 146.17 35.56 143.321 34.9932C140.471 34.4263 137.853 33.0272 135.799 30.9727C133.744 28.9182 132.345 26.3006 131.778 23.451C131.212 20.6013 131.502 17.6475 132.614 14.9632C133.726 12.2789 135.609 9.98453 138.025 8.37032C140.441 6.75611 143.281 5.89453 146.187 5.89453C150.083 5.89453 153.819 7.44227 156.574 10.1973C159.329 12.9523 160.877 16.6888 160.877 20.585ZM155.64 20.585C155.64 18.7136 155.086 16.8842 154.046 15.3282C153.006 13.7722 151.528 12.5594 149.799 11.8432C148.07 11.1271 146.168 10.9397 144.332 11.3048C142.497 11.6699 140.811 12.571 139.488 13.8943C138.164 15.2176 137.263 16.9036 136.898 18.739C136.533 20.5745 136.721 22.477 137.437 24.2059C138.153 25.9349 139.366 27.4127 140.922 28.4524C142.478 29.4921 144.307 30.047 146.178 30.047C147.421 30.047 148.652 29.8022 149.8 29.3265C150.948 28.8508 151.991 28.1536 152.87 27.2747C153.749 26.3958 154.446 25.3524 154.921 24.2041C155.396 23.0558 155.641 21.8251 155.64 20.5823V20.585Z" fill="white"/>
<path d="M194.394 5.63672V35.0338H189.142V16.3207L183.992 20.2812L179.696 23.5983L175.403 20.2812L170.266 16.3207V35.0338H165V5.63672L170.253 9.69187L179.696 16.9722L189.142 9.69187L194.394 5.63672Z" fill="white"/>
<path d="M199.355 35.2727V5.89453H204.597V35.2727H199.355Z" fill="white"/>
<path d="M237.972 5.9076L226.59 20.6467L237.921 35.3101H231.305L223.303 24.9154L215.29 35.302H208.664L219.975 20.6467L208.594 5.89678H215.209L223.303 16.3618L231.386 5.88867H237.983L237.972 5.9076ZM208.594 35.302H208.664L208.594 35.3885V35.302ZM237.972 35.3723L237.921 35.302H237.972V35.3723Z" fill="white"/>
<path d="M35.5304 44.7919C30.6642 53.0833 24.3517 58.0387 19.1449 56.641C15.8792 55.7651 13.492 52.4912 12.1403 47.8035C11.9943 47.2953 11.87 46.7627 11.7456 46.2193C11.5131 45.1839 11.3131 44.1106 11.1725 42.9752C11.1103 42.4615 11.0724 41.9262 11.0292 41.3937C10.9454 40.3555 10.8913 39.2931 10.8832 38.1955C10.8832 37.425 10.8967 36.6383 10.9292 35.8408C10.9886 34.3647 11.1148 32.8526 11.3076 31.3044C11.3969 30.5799 11.4888 29.8527 11.6104 29.1174C11.924 27.1979 12.3404 25.2433 12.8675 23.278C14.5896 16.8438 17.2633 11.1125 20.3344 6.66536C19.3184 6.24899 18.2806 5.88801 17.2255 5.58398C14.1868 10.1798 11.5942 15.9327 9.84238 22.4696C9.57204 23.4348 9.36117 24.3918 9.15031 25.3434C8.9854 26.0895 8.84482 26.8276 8.70965 27.5629C8.42038 29.1282 8.16896 30.6772 8.01486 32.1858C7.93106 32.9698 7.87969 33.7375 7.82833 34.5026C7.68457 36.5913 7.67284 38.6871 7.79318 40.7773C7.82562 41.3288 7.86888 41.8695 7.92295 42.3993C8.03649 43.5564 8.1969 44.6693 8.40416 45.7381C8.50689 46.2788 8.61232 46.8194 8.73938 47.3601C10.3101 53.8322 13.6056 58.4091 18.3366 59.677C22.8919 60.8962 27.8364 58.8065 32.3052 54.3404C35.1438 51.4883 37.7797 47.6575 40.01 43.1293C38.5664 43.724 37.0795 44.2863 35.5304 44.7919Z" fill="white"/>
<path d="M34.4922 7.84788C35.7331 8.8049 36.9685 9.80787 38.1851 10.9028C47.8012 10.9758 55.241 13.963 56.636 19.1645C57.5092 22.4329 55.8682 26.1366 52.4835 29.6511C52.9783 30.7162 53.4054 31.7706 53.7866 32.8141C53.9596 32.6492 54.157 32.4897 54.3273 32.3221C58.7906 27.8533 60.8804 22.8979 59.6584 18.3399C57.6633 10.8811 47.4497 6.98008 34.4922 7.84788Z" fill="white"/>
<path d="M37.935 38.9016C37.2619 39.1719 37.2619 39.1719 36.5617 39.4423C34.7423 40.1289 32.8418 40.748 30.8845 41.2725C24.4503 42.9946 18.1513 43.5461 12.7715 43.1108C12.9176 44.2028 13.1243 45.2859 13.3906 46.3549C18.8921 46.6874 25.1667 46.0603 31.7009 44.3084C32.6688 44.0381 33.6095 43.7677 34.5422 43.4623C35.2722 43.2325 35.9805 42.9865 36.6861 42.7377C38.1865 42.197 39.6382 41.6347 41.0251 41.0211C41.7496 40.6993 42.4498 40.3668 43.1392 40.0262C45.0169 39.1051 46.8354 38.0676 48.5839 36.9199C48.2803 35.8665 47.9193 34.8304 47.5025 33.8164C46.6455 34.4085 45.7507 34.987 44.7991 35.5439C44.134 35.9332 43.4473 36.3117 42.739 36.682C41.4171 37.3633 39.3706 38.296 37.935 38.9016Z" fill="white"/>
<path d="M39.678 14.4653C38.9724 13.757 38.2533 13.0866 37.5342 12.4269C36.9691 11.9106 36.4014 11.4212 35.831 10.9346C34.6199 9.90191 33.3979 8.91786 32.176 8.02303C31.5379 7.55804 30.8999 7.12819 30.2619 6.70105C28.5242 5.53007 26.7147 4.46915 24.8442 3.52452C24.3522 3.2794 23.8611 3.04511 23.3709 2.82162C22.3111 2.34312 21.2676 1.92949 20.2376 1.56993C19.7131 1.3861 19.1887 1.20767 18.675 1.05628C12.2841 -0.819902 6.67176 -0.254884 3.21137 3.21903C-2.24956 8.67726 -0.52207 19.4748 6.6961 30.2669C6.90426 28.7124 7.15568 27.1417 7.49361 25.5413C2.74908 17.1769 1.62175 9.24228 5.42548 5.43314C7.81802 3.0406 11.8461 2.61076 16.5798 3.79486C17.0962 3.92192 17.6207 4.0652 18.1505 4.24363C19.2025 4.5638 20.2374 4.93735 21.2514 5.36285C21.7272 5.56561 22.2111 5.7981 22.6923 6.02789C23.6331 6.47396 24.5847 6.96058 25.5363 7.50127C26.2068 7.88245 26.888 8.29067 27.5531 8.71781C28.8021 9.50721 30.0484 10.3723 31.2919 11.3131C31.8759 11.7538 32.4571 12.1971 33.0329 12.6648C34.5759 13.9264 36.0548 15.2645 37.4639 16.674C42.1732 21.3915 45.8013 26.5713 48.1208 31.4537C48.3506 31.9349 48.5831 32.4188 48.7858 32.8946C49.2164 33.913 49.5953 34.9524 49.9213 36.009C50.0835 36.528 50.2349 37.0444 50.3619 37.5472C51.1595 40.7562 51.2 43.6245 50.4133 45.8954C49.7934 45.7901 49.1573 45.8332 48.5572 46.0211C47.9571 46.2091 47.4101 46.5366 46.961 46.9768C46.2888 47.7517 45.9353 48.7525 45.9716 49.7777C46.0079 50.8028 46.4314 51.7761 47.1568 52.5015C47.8821 53.2269 48.8554 53.6504 49.8806 53.6867C50.9058 53.723 51.9066 53.3695 52.6815 52.6973C53.3333 52.0348 53.7333 51.1655 53.8122 50.2394C53.8912 49.3134 53.6443 48.3889 53.114 47.6256C54.4982 44.3328 54.4441 40.1209 53.0843 35.4845C52.9329 34.9736 52.7545 34.4518 52.5707 33.93C52.2111 32.8973 51.7948 31.8484 51.3136 30.7859C51.0919 30.2966 50.8594 29.8073 50.6134 29.3126C48.1478 24.3707 44.4658 19.2504 39.678 14.4653Z" fill="white"/>
<path d="M76.2105 56.2617V43.989H78.4337V54.398H83.839V56.2617H76.2105ZM89.7308 56.4415C88.8079 56.4415 88.0109 56.2497 87.3397 55.8662C86.6726 55.4787 86.1592 54.9314 85.7997 54.2243C85.4401 53.5131 85.2603 52.6762 85.2603 51.7134C85.2603 50.7666 85.4401 49.9356 85.7997 49.2205C86.1632 48.5014 86.6706 47.9421 87.3218 47.5426C87.973 47.1391 88.738 46.9373 89.6169 46.9373C90.1842 46.9373 90.7195 47.0292 91.2229 47.213C91.7303 47.3928 92.1777 47.6724 92.5652 48.0519C92.9568 48.4315 93.2644 48.9149 93.4881 49.5021C93.7118 50.0854 93.8237 50.7805 93.8237 51.5875V52.2527H86.2791V50.7905H91.7443C91.7403 50.375 91.6504 50.0055 91.4746 49.6819C91.2988 49.3543 91.0531 49.0966 90.7375 48.9089C90.4259 48.7211 90.0624 48.6272 89.6469 48.6272C89.2034 48.6272 88.8139 48.7351 88.4783 48.9508C88.1427 49.1626 87.8811 49.4422 87.6933 49.7898C87.5095 50.1333 87.4157 50.5109 87.4117 50.9224V52.1988C87.4117 52.7341 87.5095 53.1935 87.7053 53.5771C87.901 53.9566 88.1747 54.2482 88.5263 54.452C88.8778 54.6517 89.2893 54.7516 89.7607 54.7516C90.0763 54.7516 90.362 54.7077 90.6177 54.6198C90.8734 54.5279 91.0951 54.394 91.2828 54.2183C91.4706 54.0425 91.6124 53.8248 91.7083 53.5651L93.7338 53.7928C93.6059 54.3281 93.3623 54.7955 93.0027 55.195C92.6471 55.5906 92.1917 55.8982 91.6364 56.1179C91.0811 56.3336 90.4459 56.4415 89.7308 56.4415ZM97.8113 50.8684V56.2617H95.642V47.0572H97.7154V48.6212H97.8233C98.035 48.1059 98.3726 47.6964 98.836 47.3928C99.3035 47.0891 99.8807 46.9373 100.568 46.9373C101.203 46.9373 101.756 47.0732 102.228 47.3448C102.703 47.6165 103.071 48.01 103.33 48.5253C103.594 49.0407 103.724 49.6659 103.72 50.401V56.2617H101.551V50.7366C101.551 50.1214 101.391 49.64 101.071 49.2924C100.756 48.9448 100.318 48.771 99.7589 48.771C99.3794 48.771 99.0418 48.8549 98.7462 49.0227C98.4545 49.1865 98.2248 49.4242 98.057 49.7358C97.8932 50.0475 97.8113 50.425 97.8113 50.8684ZM109.324 56.4235C108.601 56.4235 107.954 56.2377 107.383 55.8662C106.811 55.4947 106.36 54.9553 106.028 54.2482C105.697 53.5411 105.531 52.6822 105.531 51.6714C105.531 50.6487 105.699 49.7858 106.034 49.0827C106.374 48.3755 106.831 47.8422 107.406 47.4826C107.982 47.1191 108.623 46.9373 109.33 46.9373C109.869 46.9373 110.313 47.0292 110.66 47.213C111.008 47.3928 111.284 47.6105 111.487 47.8662C111.691 48.1179 111.849 48.3556 111.961 48.5793H112.051V43.989H114.226V56.2617H112.093V54.8115H111.961C111.849 55.0352 111.687 55.2729 111.475 55.5246C111.264 55.7723 110.984 55.9841 110.636 56.1598C110.289 56.3356 109.851 56.4235 109.324 56.4235ZM109.929 54.6437C110.389 54.6437 110.78 54.5199 111.104 54.2722C111.427 54.0205 111.673 53.6709 111.841 53.2235C112.009 52.7761 112.093 52.2547 112.093 51.6594C112.093 51.0642 112.009 50.5468 111.841 50.1074C111.677 49.6679 111.433 49.3263 111.11 49.0827C110.79 48.839 110.397 48.7171 109.929 48.7171C109.446 48.7171 109.042 48.843 108.719 49.0946C108.395 49.3463 108.152 49.6939 107.988 50.1373C107.824 50.5808 107.742 51.0882 107.742 51.6594C107.742 52.2347 107.824 52.7481 107.988 53.1995C108.156 53.647 108.401 54.0005 108.725 54.2602C109.052 54.5159 109.454 54.6437 109.929 54.6437ZM116.521 56.2617V47.0572H118.69V56.2617H116.521ZM117.611 45.7508C117.268 45.7508 116.972 45.6369 116.724 45.4092C116.477 45.1775 116.353 44.8999 116.353 44.5763C116.353 44.2487 116.477 43.971 116.724 43.7433C116.972 43.5116 117.268 43.3957 117.611 43.3957C117.959 43.3957 118.255 43.5116 118.498 43.7433C118.746 43.971 118.87 44.2487 118.87 44.5763C118.87 44.8999 118.746 45.1775 118.498 45.4092C118.255 45.6369 117.959 45.7508 117.611 45.7508ZM123.073 50.8684V56.2617H120.904V47.0572H122.977V48.6212H123.085C123.297 48.1059 123.634 47.6964 124.098 47.3928C124.565 47.0891 125.143 46.9373 125.83 46.9373C126.465 46.9373 127.018 47.0732 127.49 47.3448C127.965 47.6165 128.333 48.01 128.592 48.5253C128.856 49.0407 128.986 49.6659 128.982 50.401V56.2617H126.813V50.7366C126.813 50.1214 126.653 49.64 126.333 49.2924C126.018 48.9448 125.58 48.771 125.021 48.771C124.641 48.771 124.304 48.8549 124.008 49.0227C123.716 49.1865 123.487 49.4242 123.319 49.7358C123.155 50.0475 123.073 50.425 123.073 50.8684ZM135.173 59.9052C134.394 59.9052 133.725 59.7993 133.166 59.5876C132.606 59.3798 132.157 59.1002 131.817 58.7486C131.478 58.3971 131.242 58.0075 131.11 57.5801L133.064 57.1067C133.152 57.2864 133.28 57.4642 133.447 57.64C133.615 57.8198 133.841 57.9676 134.125 58.0835C134.412 58.2033 134.774 58.2632 135.209 58.2632C135.824 58.2632 136.334 58.1134 136.737 57.8138C137.141 57.5182 137.343 57.0308 137.343 56.3516V54.6078H137.235C137.123 54.8315 136.959 55.0612 136.743 55.2969C136.532 55.5326 136.25 55.7304 135.898 55.8902C135.551 56.05 135.113 56.1299 134.586 56.1299C133.879 56.1299 133.238 55.9641 132.662 55.6325C132.091 55.2969 131.636 54.7975 131.296 54.1344C130.96 53.4672 130.793 52.6322 130.793 51.6295C130.793 50.6187 130.96 49.7658 131.296 49.0707C131.636 48.3715 132.093 47.8422 132.668 47.4826C133.244 47.1191 133.885 46.9373 134.592 46.9373C135.131 46.9373 135.575 47.0292 135.922 47.213C136.274 47.3928 136.554 47.6105 136.761 47.8662C136.969 48.1179 137.127 48.3556 137.235 48.5793H137.355V47.0572H139.494V56.4115C139.494 57.1986 139.306 57.8497 138.931 58.3651C138.555 58.8805 138.042 59.266 137.39 59.5217C136.739 59.7773 136 59.9052 135.173 59.9052ZM135.191 54.428C135.651 54.428 136.042 54.3161 136.366 54.0924C136.689 53.8687 136.935 53.5471 137.103 53.1276C137.271 52.7081 137.355 52.2048 137.355 51.6175C137.355 51.0382 137.271 50.5309 137.103 50.0954C136.939 49.6599 136.695 49.3224 136.372 49.0827C136.052 48.839 135.659 48.7171 135.191 48.7171C134.708 48.7171 134.304 48.843 133.981 49.0946C133.657 49.3463 133.413 49.6919 133.25 50.1313C133.086 50.5668 133.004 51.0622 133.004 51.6175C133.004 52.1808 133.086 52.6742 133.25 53.0977C133.417 53.5171 133.663 53.8447 133.987 54.0804C134.314 54.3121 134.716 54.428 135.191 54.428ZM145.965 56.2617V43.989H150.567C151.51 43.989 152.301 44.1528 152.94 44.4804C153.584 44.808 154.069 45.2674 154.397 45.8587C154.728 46.4459 154.894 47.1311 154.894 47.9141C154.894 48.7011 154.726 49.3843 154.391 49.9636C154.059 50.5388 153.57 50.9843 152.922 51.2999C152.275 51.6115 151.48 51.7673 150.537 51.7673H147.259V49.9216H150.238C150.789 49.9216 151.24 49.8457 151.592 49.6939C151.944 49.5381 152.203 49.3124 152.371 49.0167C152.543 48.7171 152.629 48.3496 152.629 47.9141C152.629 47.4786 152.543 47.1071 152.371 46.7995C152.199 46.4879 151.938 46.2522 151.586 46.0924C151.234 45.9286 150.781 45.8467 150.226 45.8467H148.188V56.2617H145.965ZM152.305 50.7006L155.343 56.2617H152.862L149.878 50.7006H152.305ZM160.771 56.4415C159.848 56.4415 159.051 56.2497 158.38 55.8662C157.713 55.4787 157.199 54.9314 156.84 54.2243C156.48 53.5131 156.3 52.6762 156.3 51.7134C156.3 50.7666 156.48 49.9356 156.84 49.2205C157.203 48.5014 157.711 47.9421 158.362 47.5426C159.013 47.1391 159.778 46.9373 160.657 46.9373C161.224 46.9373 161.759 47.0292 162.263 47.213C162.77 47.3928 163.218 47.6724 163.605 48.0519C163.997 48.4315 164.304 48.9149 164.528 49.5021C164.752 50.0854 164.864 50.7805 164.864 51.5875V52.2527H157.319V50.7905H162.784C162.78 50.375 162.69 50.0055 162.515 49.6819C162.339 49.3543 162.093 49.0966 161.777 48.9089C161.466 48.7211 161.102 48.6272 160.687 48.6272C160.243 48.6272 159.854 48.7351 159.518 48.9508C159.183 49.1626 158.921 49.4422 158.733 49.7898C158.549 50.1333 158.456 50.5109 158.452 50.9224V52.1988C158.452 52.7341 158.549 53.1935 158.745 53.5771C158.941 53.9566 159.215 54.2482 159.566 54.452C159.918 54.6517 160.329 54.7516 160.801 54.7516C161.116 54.7516 161.402 54.7077 161.658 54.6198C161.913 54.5279 162.135 54.394 162.323 54.2183C162.511 54.0425 162.652 53.8248 162.748 53.5651L164.774 53.7928C164.646 54.3281 164.402 54.7955 164.043 55.195C163.687 55.5906 163.232 55.8982 162.676 56.1179C162.121 56.3336 161.486 56.4415 160.771 56.4415ZM166.682 56.2617V47.0572H168.851V56.2617H166.682ZM167.773 45.7508C167.429 45.7508 167.133 45.6369 166.886 45.4092C166.638 45.1775 166.514 44.8999 166.514 44.5763C166.514 44.2487 166.638 43.971 166.886 43.7433C167.133 43.5116 167.429 43.3957 167.773 43.3957C168.12 43.3957 168.416 43.5116 168.659 43.7433C168.907 43.971 169.031 44.2487 169.031 44.5763C169.031 44.8999 168.907 45.1775 168.659 45.4092C168.416 45.6369 168.12 45.7508 167.773 45.7508ZM171.065 56.2617V47.0572H173.139V48.6212H173.246C173.438 48.0939 173.756 47.6824 174.199 47.3868C174.643 47.0871 175.172 46.9373 175.787 46.9373C176.41 46.9373 176.936 47.0891 177.363 47.3928C177.795 47.6924 178.098 48.1019 178.274 48.6212H178.37C178.574 48.1099 178.917 47.7024 179.401 47.3987C179.888 47.0911 180.465 46.9373 181.133 46.9373C181.98 46.9373 182.671 47.205 183.206 47.7403C183.741 48.2757 184.009 49.0567 184.009 50.0834V56.2617H181.834V50.419C181.834 49.8477 181.682 49.4302 181.378 49.1665C181.075 48.8989 180.703 48.765 180.264 48.765C179.74 48.765 179.331 48.9288 179.035 49.2564C178.744 49.58 178.598 50.0015 178.598 50.5209V56.2617H176.47V50.3291C176.47 49.8537 176.327 49.4742 176.039 49.1905C175.755 48.9069 175.384 48.765 174.924 48.765C174.613 48.765 174.329 48.8449 174.073 49.0047C173.818 49.1606 173.614 49.3823 173.462 49.6699C173.31 49.9536 173.234 50.2852 173.234 50.6647V56.2617H171.065ZM188.842 56.4475C188.258 56.4475 187.733 56.3436 187.266 56.1359C186.802 55.9241 186.435 55.6125 186.163 55.201C185.895 54.7896 185.761 54.2822 185.761 53.6789C185.761 53.1596 185.857 52.7301 186.049 52.3905C186.241 52.051 186.502 51.7793 186.834 51.5756C187.166 51.3718 187.539 51.218 187.955 51.1141C188.374 51.0063 188.808 50.9284 189.255 50.8804C189.794 50.8245 190.232 50.7745 190.567 50.7306C190.903 50.6827 191.147 50.6108 191.299 50.5149C191.454 50.415 191.532 50.2612 191.532 50.0534V50.0175C191.532 49.5661 191.398 49.2165 191.131 48.9688C190.863 48.7211 190.478 48.5973 189.974 48.5973C189.443 48.5973 189.021 48.7131 188.71 48.9448C188.402 49.1765 188.194 49.4502 188.087 49.7658L186.061 49.4782C186.221 48.9189 186.485 48.4514 186.852 48.0759C187.22 47.6964 187.669 47.4127 188.2 47.225C188.732 47.0332 189.319 46.9373 189.962 46.9373C190.406 46.9373 190.847 46.9893 191.287 47.0931C191.726 47.197 192.127 47.3688 192.491 47.6085C192.855 47.8442 193.146 48.1658 193.366 48.5733C193.59 48.9808 193.702 49.4901 193.702 50.1014V56.2617H191.616V54.9973H191.544C191.412 55.253 191.227 55.4927 190.987 55.7164C190.751 55.9361 190.454 56.1139 190.094 56.2497C189.738 56.3816 189.321 56.4475 188.842 56.4475ZM189.405 54.8535C189.84 54.8535 190.218 54.7676 190.537 54.5958C190.857 54.42 191.103 54.1883 191.275 53.9007C191.45 53.613 191.538 53.2994 191.538 52.9598V51.8752C191.47 51.9311 191.354 51.983 191.191 52.031C191.031 52.0789 190.851 52.1209 190.651 52.1568C190.452 52.1928 190.254 52.2247 190.058 52.2527C189.862 52.2807 189.693 52.3046 189.549 52.3246C189.225 52.3686 188.935 52.4405 188.68 52.5403C188.424 52.6402 188.222 52.7801 188.075 52.9598C187.927 53.1356 187.853 53.3633 187.853 53.643C187.853 54.0425 187.999 54.3441 188.29 54.5479C188.582 54.7516 188.953 54.8535 189.405 54.8535ZM199.869 59.9052C199.09 59.9052 198.421 59.7993 197.861 59.5876C197.302 59.3798 196.853 59.1002 196.513 58.7486C196.174 58.3971 195.938 58.0075 195.806 57.5801L197.76 57.1067C197.847 57.2864 197.975 57.4642 198.143 57.64C198.311 57.8198 198.537 57.9676 198.82 58.0835C199.108 58.2033 199.469 58.2632 199.905 58.2632C200.52 58.2632 201.03 58.1134 201.433 57.8138C201.837 57.5182 202.038 57.0308 202.038 56.3516V54.6078H201.93C201.819 54.8315 201.655 55.0612 201.439 55.2969C201.227 55.5326 200.946 55.7304 200.594 55.8902C200.246 56.05 199.809 56.1299 199.282 56.1299C198.575 56.1299 197.933 55.9641 197.358 55.6325C196.787 55.2969 196.331 54.7975 195.992 54.1344C195.656 53.4672 195.488 52.6322 195.488 51.6295C195.488 50.6187 195.656 49.7658 195.992 49.0707C196.331 48.3715 196.789 47.8422 197.364 47.4826C197.939 47.1191 198.581 46.9373 199.288 46.9373C199.827 46.9373 200.27 47.0292 200.618 47.213C200.97 47.3928 201.249 47.6105 201.457 47.8662C201.665 48.1179 201.823 48.3556 201.93 48.5793H202.05V47.0572H204.19V56.4115C204.19 57.1986 204.002 57.8497 203.626 58.3651C203.251 58.8805 202.737 59.266 202.086 59.5217C201.435 59.7773 200.696 59.9052 199.869 59.9052ZM199.887 54.428C200.346 54.428 200.738 54.3161 201.061 54.0924C201.385 53.8687 201.631 53.5471 201.799 53.1276C201.966 52.7081 202.05 52.2048 202.05 51.6175C202.05 51.0382 201.966 50.5309 201.799 50.0954C201.635 49.6599 201.391 49.3224 201.067 49.0827C200.748 48.839 200.354 48.7171 199.887 48.7171C199.404 48.7171 199 48.843 198.676 49.0946C198.353 49.3463 198.109 49.6919 197.945 50.1313C197.782 50.5668 197.7 51.0622 197.7 51.6175C197.7 52.1808 197.782 52.6742 197.945 53.0977C198.113 53.5171 198.359 53.8447 198.682 54.0804C199.01 54.3121 199.412 54.428 199.887 54.428ZM206.396 56.2617V47.0572H208.565V56.2617H206.396ZM207.487 45.7508C207.143 45.7508 206.847 45.6369 206.6 45.4092C206.352 45.1775 206.228 44.8999 206.228 44.5763C206.228 44.2487 206.352 43.971 206.6 43.7433C206.847 43.5116 207.143 43.3957 207.487 43.3957C207.834 43.3957 208.13 43.5116 208.373 43.7433C208.621 43.971 208.745 44.2487 208.745 44.5763C208.745 44.8999 208.621 45.1775 208.373 45.4092C208.13 45.6369 207.834 45.7508 207.487 45.7508ZM212.948 50.8684V56.2617H210.779V47.0572H212.853V48.6212H212.96C213.172 48.1059 213.51 47.6964 213.973 47.3928C214.441 47.0891 215.018 46.9373 215.705 46.9373C216.34 46.9373 216.893 47.0732 217.365 47.3448C217.84 47.6165 218.208 48.01 218.468 48.5253C218.731 49.0407 218.861 49.6659 218.857 50.401V56.2617H216.688V50.7366C216.688 50.1214 216.528 49.64 216.208 49.2924C215.893 48.9448 215.455 48.771 214.896 48.771C214.516 48.771 214.179 48.8549 213.883 49.0227C213.592 49.1865 213.362 49.4242 213.194 49.7358C213.03 50.0475 212.948 50.425 212.948 50.8684ZM225.12 56.4415C224.197 56.4415 223.4 56.2497 222.729 55.8662C222.062 55.4787 221.549 54.9314 221.189 54.2243C220.83 53.5131 220.65 52.6762 220.65 51.7134C220.65 50.7666 220.83 49.9356 221.189 49.2205C221.553 48.5014 222.06 47.9421 222.711 47.5426C223.363 47.1391 224.128 46.9373 225.006 46.9373C225.574 46.9373 226.109 47.0292 226.612 47.213C227.12 47.3928 227.567 47.6724 227.955 48.0519C228.346 48.4315 228.654 48.9149 228.878 49.5021C229.101 50.0854 229.213 50.7805 229.213 51.5875V52.2527H221.669V50.7905H227.134C227.13 50.375 227.04 50.0055 226.864 49.6819C226.688 49.3543 226.443 49.0966 226.127 48.9089C225.815 48.7211 225.452 48.6272 225.036 48.6272C224.593 48.6272 224.203 48.7351 223.868 48.9508C223.532 49.1626 223.271 49.4422 223.083 49.7898C222.899 50.1333 222.805 50.5109 222.801 50.9224V52.1988C222.801 52.7341 222.899 53.1935 223.095 53.5771C223.291 53.9566 223.564 54.2482 223.916 54.452C224.267 54.6517 224.679 54.7516 225.15 54.7516C225.466 54.7516 225.752 54.7077 226.007 54.6198C226.263 54.5279 226.485 54.394 226.672 54.2183C226.86 54.0425 227.002 53.8248 227.098 53.5651L229.123 53.7928C228.996 54.3281 228.752 54.7955 228.392 55.195C228.037 55.5906 227.581 55.8982 227.026 56.1179C226.471 56.3336 225.835 56.4415 225.12 56.4415ZM234.447 56.4235C233.724 56.4235 233.077 56.2377 232.506 55.8662C231.934 55.4947 231.483 54.9553 231.151 54.2482C230.82 53.5411 230.654 52.6822 230.654 51.6714C230.654 50.6487 230.822 49.7858 231.157 49.0827C231.497 48.3755 231.954 47.8422 232.53 47.4826C233.105 47.1191 233.746 46.9373 234.453 46.9373C234.993 46.9373 235.436 47.0292 235.784 47.213C236.131 47.3928 236.407 47.6105 236.611 47.8662C236.814 48.1179 236.972 48.3556 237.084 48.5793H237.174V43.989H239.349V56.2617H237.216V54.8115H237.084C236.972 55.0352 236.81 55.2729 236.599 55.5246C236.387 55.7723 236.107 55.9841 235.76 56.1598C235.412 56.3356 234.975 56.4235 234.447 56.4235ZM235.053 54.6437C235.512 54.6437 235.904 54.5199 236.227 54.2722C236.551 54.0205 236.796 53.6709 236.964 53.2235C237.132 52.7761 237.216 52.2547 237.216 51.6594C237.216 51.0642 237.132 50.5468 236.964 50.1074C236.8 49.6679 236.557 49.3263 236.233 49.0827C235.914 48.839 235.52 48.7171 235.053 48.7171C234.569 48.7171 234.166 48.843 233.842 49.0946C233.518 49.3463 233.275 49.6939 233.111 50.1373C232.947 50.5808 232.865 51.0882 232.865 51.6594C232.865 52.2347 232.947 52.7481 233.111 53.1995C233.279 53.647 233.524 54.0005 233.848 54.2602C234.176 54.5159 234.577 54.6437 235.053 54.6437Z" fill="white"/>
</svg>
