<svg width="128" height="33" viewBox="0 0 128 33" fill="none" xmlns="http://www.w3.org/2000/svg">
<path d="M56.413 18.8167H53.2756L51.8409 16.0138L48.4252 9.30203L45.0081 16.0138L43.5663 18.8167H40.4375L41.8606 16.0138L48.4252 3.13965L54.9885 16.0138L56.413 18.8167Z" fill="#212329"/>
<path d="M69.452 3.15332V5.94903H63.0157V18.8217H60.22V5.94903H53.7793V3.15332H69.452Z" fill="#212329"/>
<path d="M85.8026 10.9785C85.8026 12.5281 85.3431 14.0429 84.4822 15.3313C83.6213 16.6198 82.3977 17.624 80.966 18.217C79.5344 18.81 77.959 18.9651 76.4392 18.6628C74.9194 18.3605 73.5233 17.6143 72.4276 16.5186C71.3319 15.4229 70.5857 14.0268 70.2834 12.507C69.9811 10.9872 70.1362 9.41182 70.7292 7.98018C71.3222 6.54853 72.3264 5.32489 73.6149 4.46397C74.9033 3.60306 76.4181 3.14355 77.9677 3.14355C80.0457 3.14355 82.0385 3.96902 83.5078 5.43835C84.9772 6.90768 85.8026 8.90052 85.8026 10.9785ZM83.0098 10.9785C83.0098 9.98038 82.7138 9.00471 82.1593 8.17483C81.6048 7.34495 80.8167 6.69814 79.8946 6.31619C78.9725 5.93424 77.9578 5.8343 76.9789 6.02902C76 6.22374 75.1008 6.70436 74.395 7.41012C73.6893 8.11587 73.2087 9.01505 73.014 9.99396C72.8192 10.9729 72.9192 11.9875 73.3011 12.9096C73.6831 13.8318 74.3299 14.6199 75.1598 15.1744C75.9896 15.7289 76.9653 16.0249 77.9634 16.0249C78.6262 16.0249 79.2826 15.8943 79.8949 15.6406C80.5073 15.3869 81.0636 15.0151 81.5323 14.5463C82.0009 14.0776 82.3726 13.5211 82.6261 12.9086C82.8796 12.2962 83.01 11.6398 83.0098 10.977V10.9785Z" fill="#212329"/>
<path d="M103.677 3.00586V18.6843H100.876V8.70398L98.1289 10.8163L95.8378 12.5854L93.5482 10.8163L90.8087 8.70398V18.6843H88V3.00586L90.8015 5.16861L95.8378 9.05146L100.876 5.16861L103.677 3.00586Z" fill="#212329"/>
<path d="M106.324 18.8119V3.14355H109.12V18.8119H106.324Z" fill="#212329"/>
<path d="M126.918 3.14974L120.848 11.0106L126.891 18.8311H123.363L119.095 13.2873L114.821 18.8268H111.287L117.32 11.0106L111.25 3.14397H114.778L119.095 8.7253L123.406 3.13965H126.924L126.918 3.14974ZM111.25 18.8268H111.287L111.25 18.8729V18.8268ZM126.918 18.8643L126.891 18.8268H126.918V18.8643Z" fill="#212329"/>
<path d="M18.9503 23.8894C16.355 28.3115 12.9884 30.9544 10.2114 30.2089C8.46966 29.7418 7.19652 27.9957 6.47561 25.4956C6.39775 25.2245 6.33143 24.9405 6.2651 24.6507C6.1411 24.0985 6.03441 23.5261 5.95943 22.9205C5.92627 22.6465 5.90609 22.3611 5.88302 22.077C5.83832 21.5233 5.80948 20.9567 5.80516 20.3713C5.80516 19.9604 5.81237 19.5408 5.82967 19.1155C5.86139 18.3282 5.92868 17.5218 6.03153 16.6961C6.07911 16.3097 6.12813 15.9218 6.19301 15.5297C6.36026 14.506 6.5823 13.4635 6.86346 12.4153C7.78191 8.98374 9.20788 5.92706 10.8458 3.55525C10.3039 3.33319 9.75041 3.14066 9.18769 2.97852C7.56708 5.42963 6.18436 8.49785 5.25005 11.9842C5.10587 12.4989 4.99341 13.0093 4.88094 13.5169C4.79299 13.9148 4.71802 14.3084 4.64593 14.7006C4.49165 15.5354 4.35756 16.3616 4.27538 17.1661C4.23068 17.5843 4.20328 17.9937 4.17589 18.4018C4.09922 19.5158 4.09296 20.6335 4.15715 21.7483C4.17445 22.0424 4.19752 22.3308 4.22635 22.6134C4.28691 23.2305 4.37246 23.824 4.483 24.394C4.53779 24.6824 4.59402 24.9708 4.66179 25.2591C5.49949 28.7109 7.25708 31.1519 9.78029 31.8281C12.2098 32.4784 14.8469 31.3638 17.2302 28.9819C18.7442 27.4608 20.1499 25.4177 21.3394 23.0027C20.5695 23.3199 19.7765 23.6198 18.9503 23.8894Z" fill="#212329"/>
<path d="M18.3965 4.18671C19.0583 4.69712 19.7172 5.23204 20.366 5.81598C25.4946 5.85491 29.4625 7.44813 30.2065 10.2222C30.6722 11.9654 29.797 13.9407 27.9919 15.8151C28.2557 16.3832 28.4835 16.9455 28.6868 17.502C28.7791 17.4141 28.8844 17.329 28.9752 17.2396C31.3557 14.8563 32.4702 12.2134 31.8185 9.78245C30.7544 5.80444 25.3072 3.72388 18.3965 4.18671Z" fill="#212329"/>
<path d="M20.2311 20.7472C19.8721 20.8914 19.8721 20.8914 19.4987 21.0356C18.5283 21.4018 17.5147 21.732 16.4708 22.0117C13.0393 22.9302 9.67979 23.2243 6.81055 22.9922C6.88847 23.5746 6.9987 24.1522 7.14073 24.7224C10.0749 24.8997 13.4213 24.5652 16.9062 23.6309C17.4224 23.4867 17.9242 23.3425 18.4216 23.1796C18.8109 23.0571 19.1887 22.9258 19.565 22.7932C20.3652 22.5048 21.1395 22.2049 21.8791 21.8776C22.2655 21.7061 22.639 21.5287 23.0066 21.347C24.0081 20.8558 24.9779 20.3025 25.9105 19.6904C25.7486 19.1285 25.556 18.576 25.3337 18.0352C24.8767 18.3509 24.3994 18.6595 23.8919 18.9565C23.5372 19.1641 23.171 19.366 22.7932 19.5635C22.0882 19.9268 20.9967 20.4243 20.2311 20.7472Z" fill="#212329"/>
<path d="M21.1616 7.71483C20.7853 7.33707 20.4017 6.9795 20.0182 6.62769C19.7169 6.3523 19.4141 6.09133 19.1099 5.8318C18.4639 5.28102 17.8122 4.75619 17.1605 4.27895C16.8202 4.03095 16.48 3.8017 16.1397 3.57389C15.2129 2.94937 14.2479 2.38355 13.2503 1.87974C12.9879 1.74902 12.7259 1.62406 12.4645 1.50487C11.8993 1.24966 11.3427 1.02906 10.7934 0.837298C10.5137 0.739253 10.234 0.644092 9.96 0.56335C6.55152 -0.437281 3.55827 -0.135938 1.71273 1.71681C-1.19977 4.62787 -0.278438 10.3865 3.57125 16.1423C3.68227 15.3133 3.81636 14.4756 3.99659 13.622C1.46618 9.16099 0.864934 4.92921 2.89359 2.89767C4.16961 1.62165 6.31794 1.3924 8.84259 2.02392C9.11798 2.09169 9.39769 2.16811 9.68029 2.26327C10.2413 2.43402 10.7933 2.63326 11.3341 2.86019C11.5878 2.96832 11.8459 3.09232 12.1026 3.21488C12.6043 3.45278 13.1118 3.71231 13.6194 4.00068C13.9769 4.20397 14.3403 4.42169 14.695 4.6495C15.3611 5.07051 16.0258 5.5319 16.689 6.03366C17.0005 6.26868 17.3105 6.50514 17.6176 6.75457C18.4405 7.42741 19.2292 8.14105 19.9807 8.89281C22.4924 11.4088 24.4273 14.1714 25.6644 16.7753C25.787 17.0319 25.911 17.29 26.0191 17.5438C26.2487 18.0869 26.4508 18.6413 26.6247 19.2048C26.7112 19.4816 26.7919 19.757 26.8597 20.0252C27.285 21.7366 27.3067 23.2664 26.8871 24.4776C26.5565 24.4214 26.2172 24.4444 25.8972 24.5446C25.5771 24.6449 25.2854 24.8195 25.0459 25.0543C24.6874 25.4676 24.4988 26.0013 24.5182 26.5481C24.5376 27.0949 24.7634 27.6139 25.1503 28.0008C25.5371 28.3877 26.0562 28.6135 26.603 28.6329C27.1497 28.6523 27.6835 28.4637 28.0968 28.1052C28.4444 27.7519 28.6577 27.2882 28.6999 26.7944C28.742 26.3005 28.6103 25.8074 28.3275 25.4003C29.0657 23.6442 29.0369 21.3978 28.3116 18.9251C28.2309 18.6526 28.1357 18.3743 28.0377 18.096C27.8459 17.5452 27.6239 16.9858 27.3672 16.4192C27.249 16.1582 27.125 15.8972 26.9938 15.6334C25.6788 12.9977 23.7151 10.2669 21.1616 7.71483Z" fill="#212329"/>
<path d="M40.6456 30.0059V23.4604H41.8313V29.0119H44.7141V30.0059H40.6456ZM47.8564 30.1017C47.3642 30.1017 46.9392 29.9995 46.5812 29.7949C46.2254 29.5882 45.9516 29.2963 45.7598 28.9192C45.5681 28.54 45.4722 28.0936 45.4722 27.5801C45.4722 27.0751 45.5681 26.6319 45.7598 26.2505C45.9537 25.867 46.2243 25.5687 46.5716 25.3556C46.9189 25.1404 47.3269 25.0328 47.7957 25.0328C48.0982 25.0328 48.3838 25.0819 48.6522 25.1799C48.9228 25.2757 49.1615 25.4249 49.3681 25.6273C49.5769 25.8297 49.741 26.0875 49.8603 26.4007C49.9796 26.7118 50.0393 27.0826 50.0393 27.513V27.8677H46.0155V27.0879H48.9303C48.9281 26.8663 48.8802 26.6692 48.7865 26.4966C48.6927 26.3219 48.5617 26.1845 48.3933 26.0843C48.2272 25.9842 48.0333 25.9341 47.8117 25.9341C47.5752 25.9341 47.3674 25.9917 47.1884 26.1067C47.0095 26.2196 46.8699 26.3688 46.7698 26.5542C46.6718 26.7374 46.6217 26.9387 46.6196 27.1582V27.839C46.6196 28.1245 46.6718 28.3695 46.7762 28.574C46.8806 28.7765 47.0265 28.932 47.214 29.0407C47.4015 29.1472 47.621 29.2005 47.8724 29.2005C48.0407 29.2005 48.1931 29.177 48.3294 29.1301C48.4658 29.0811 48.584 29.0098 48.6842 28.916C48.7843 28.8223 48.86 28.7061 48.9111 28.5676L49.9914 28.6891C49.9232 28.9746 49.7932 29.2239 49.6014 29.437C49.4118 29.6479 49.1689 29.812 48.8727 29.9292C48.5766 30.0442 48.2378 30.1017 47.8564 30.1017ZM52.166 27.1294V30.0059H51.0091V25.0968H52.1149V25.9309H52.1724C52.2854 25.6561 52.4654 25.4377 52.7126 25.2757C52.9618 25.1138 53.2697 25.0328 53.6362 25.0328C53.975 25.0328 54.2701 25.1053 54.5215 25.2502C54.7751 25.3951 54.9711 25.6049 55.1096 25.8798C55.2502 26.1547 55.3194 26.4881 55.3173 26.8801V30.0059H54.1604V27.0591C54.1604 26.731 54.0751 26.4743 53.9047 26.2889C53.7364 26.1035 53.503 26.0108 53.2047 26.0108C53.0023 26.0108 52.8223 26.0556 52.6646 26.1451C52.5091 26.2324 52.3866 26.3592 52.2971 26.5254C52.2097 26.6916 52.166 26.8929 52.166 27.1294ZM58.3062 30.0922C57.9205 30.0922 57.5754 29.9931 57.2707 29.7949C56.966 29.5968 56.7252 29.3091 56.5484 28.932C56.3715 28.5549 56.2831 28.0968 56.2831 27.5577C56.2831 27.0123 56.3726 26.552 56.5516 26.177C56.7327 25.7999 56.9766 25.5154 57.2835 25.3237C57.5903 25.1298 57.9323 25.0328 58.3094 25.0328C58.597 25.0328 58.8335 25.0819 59.0189 25.1799C59.2043 25.2757 59.3513 25.3919 59.4599 25.5282C59.5686 25.6625 59.6528 25.7892 59.7124 25.9086H59.7604V23.4604H60.9205V30.0059H59.7827V29.2324H59.7124C59.6528 29.3517 59.5665 29.4785 59.4536 29.6127C59.3406 29.7449 59.1915 29.8578 59.0061 29.9515C58.8207 30.0453 58.5874 30.0922 58.3062 30.0922ZM58.629 29.1429C58.874 29.1429 59.0828 29.0769 59.2554 28.9448C59.428 28.8105 59.559 28.6241 59.6485 28.3855C59.738 28.1468 59.7827 27.8688 59.7827 27.5513C59.7827 27.2338 59.738 26.9579 59.6485 26.7235C59.5612 26.4892 59.4312 26.307 59.2586 26.177C59.0881 26.0471 58.8783 25.9821 58.629 25.9821C58.3712 25.9821 58.156 26.0492 57.9834 26.1834C57.8108 26.3176 57.6808 26.503 57.5935 26.7395C57.5061 26.976 57.4624 27.2466 57.4624 27.5513C57.4624 27.8581 57.5061 28.1319 57.5935 28.3727C57.683 28.6113 57.814 28.7999 57.9866 28.9384C58.1613 29.0748 58.3754 29.1429 58.629 29.1429ZM62.1444 30.0059V25.0968H63.3014V30.0059H62.1444ZM62.7261 24.4C62.5428 24.4 62.3852 24.3393 62.2531 24.2179C62.121 24.0943 62.0549 23.9462 62.0549 23.7736C62.0549 23.5989 62.121 23.4508 62.2531 23.3294C62.3852 23.2058 62.5428 23.144 62.7261 23.144C62.9114 23.144 63.0691 23.2058 63.1991 23.3294C63.3312 23.4508 63.3972 23.5989 63.3972 23.7736C63.3972 23.9462 63.3312 24.0943 63.1991 24.2179C63.0691 24.3393 62.9114 24.4 62.7261 24.4ZM65.639 27.1294V30.0059H64.4821V25.0968H65.5879V25.9309H65.6454C65.7584 25.6561 65.9384 25.4377 66.1856 25.2757C66.4348 25.1138 66.7427 25.0328 67.1092 25.0328C67.448 25.0328 67.7431 25.1053 67.9945 25.2502C68.2481 25.3951 68.4441 25.6049 68.5826 25.8798C68.7232 26.1547 68.7924 26.4881 68.7903 26.8801V30.0059H67.6334V27.0591C67.6334 26.731 67.5481 26.4743 67.3777 26.2889C67.2094 26.1035 66.976 26.0108 66.6777 26.0108C66.4753 26.0108 66.2953 26.0556 66.1376 26.1451C65.9821 26.2324 65.8596 26.3592 65.7701 26.5254C65.6827 26.6916 65.639 26.8929 65.639 27.1294ZM72.0924 31.949C71.6769 31.949 71.32 31.8926 71.0217 31.7797C70.7234 31.6689 70.4837 31.5197 70.3026 31.3322C70.1215 31.1447 69.9958 30.937 69.9255 30.709L70.9674 30.4565C71.0143 30.5524 71.0825 30.6472 71.1719 30.7409C71.2614 30.8368 71.3818 30.9157 71.5331 30.9775C71.6865 31.0414 71.8793 31.0733 72.1116 31.0733C72.4397 31.0733 72.7114 30.9934 72.9266 30.8336C73.1418 30.676 73.2494 30.416 73.2494 30.0538V29.1238H73.1918C73.1322 29.2431 73.0448 29.3656 72.9298 29.4913C72.8168 29.617 72.6666 29.7225 72.4791 29.8077C72.2937 29.8929 72.0604 29.9355 71.7792 29.9355C71.4021 29.9355 71.0601 29.8471 70.7533 29.6703C70.4486 29.4913 70.2057 29.225 70.0246 28.8713C69.8456 28.5154 69.7561 28.0701 69.7561 27.5353C69.7561 26.9963 69.8456 26.5414 70.0246 26.1706C70.2057 25.7978 70.4496 25.5154 70.7565 25.3237C71.0633 25.1298 71.4052 25.0328 71.7824 25.0328C72.07 25.0328 72.3065 25.0819 72.4919 25.1799C72.6794 25.2757 72.8285 25.3919 72.9393 25.5282C73.0501 25.6625 73.1343 25.7892 73.1918 25.9086H73.2557V25.0968H74.3967V30.0858C74.3967 30.5055 74.2966 30.8528 74.0963 31.1277C73.896 31.4025 73.6222 31.6081 73.2749 31.7445C72.9276 31.8809 72.5334 31.949 72.0924 31.949ZM72.102 29.0279C72.347 29.0279 72.5558 28.9682 72.7284 28.8489C72.901 28.7296 73.032 28.5581 73.1215 28.3343C73.211 28.1106 73.2557 27.8422 73.2557 27.5289C73.2557 27.22 73.211 26.9494 73.1215 26.7172C73.0342 26.4849 72.9042 26.3049 72.7316 26.177C72.5611 26.0471 72.3513 25.9821 72.102 25.9821C71.8442 25.9821 71.629 26.0492 71.4564 26.1834C71.2838 26.3176 71.1538 26.502 71.0665 26.7363C70.9791 26.9686 70.9354 27.2328 70.9354 27.5289C70.9354 27.8294 70.9791 28.0925 71.0665 28.3184C71.156 28.5421 71.287 28.7168 71.4596 28.8425C71.6343 28.9661 71.8484 29.0279 72.102 29.0279ZM77.848 30.0059V23.4604H80.3026C80.8054 23.4604 81.2273 23.5478 81.5682 23.7225C81.9112 23.8972 82.1701 24.1422 82.3448 24.4576C82.5217 24.7708 82.6101 25.1362 82.6101 25.5538C82.6101 25.9735 82.5206 26.3379 82.3416 26.6468C82.1648 26.9537 81.9038 27.1912 81.5586 27.3596C81.2134 27.5257 80.7894 27.6088 80.2866 27.6088H78.5384V26.6245H80.1268C80.4208 26.6245 80.6616 26.584 80.8491 26.503C81.0366 26.4199 81.1751 26.2995 81.2646 26.1419C81.3562 25.9821 81.402 25.786 81.402 25.5538C81.402 25.3216 81.3562 25.1234 81.2646 24.9593C81.1729 24.7931 81.0334 24.6674 80.8459 24.5822C80.6584 24.4949 80.4165 24.4512 80.1204 24.4512H79.0337V30.0059H77.848ZM81.2294 27.04L82.8498 30.0059H81.5266L79.935 27.04H81.2294ZM85.7444 30.1017C85.2522 30.1017 84.8271 29.9995 84.4692 29.7949C84.1133 29.5882 83.8395 29.2963 83.6478 28.9192C83.456 28.54 83.3601 28.0936 83.3601 27.5801C83.3601 27.0751 83.456 26.6319 83.6478 26.2505C83.8417 25.867 84.1123 25.5687 84.4596 25.3556C84.8069 25.1404 85.2149 25.0328 85.6836 25.0328C85.9862 25.0328 86.2717 25.0819 86.5402 25.1799C86.8108 25.2757 87.0494 25.4249 87.2561 25.6273C87.4649 25.8297 87.629 26.0875 87.7483 26.4007C87.8676 26.7118 87.9273 27.0826 87.9273 27.513V27.8677H83.9035V27.0879H86.8182C86.8161 26.8663 86.7682 26.6692 86.6744 26.4966C86.5807 26.3219 86.4496 26.1845 86.2813 26.0843C86.1151 25.9842 85.9212 25.9341 85.6996 25.9341C85.4631 25.9341 85.2554 25.9917 85.0764 26.1067C84.8974 26.2196 84.7579 26.3688 84.6577 26.5542C84.5597 26.7374 84.5096 26.9387 84.5075 27.1582V27.839C84.5075 28.1245 84.5597 28.3695 84.6641 28.574C84.7685 28.7765 84.9145 28.932 85.102 29.0407C85.2895 29.1472 85.5089 29.2005 85.7604 29.2005C85.9287 29.2005 86.081 29.177 86.2174 29.1301C86.3537 29.0811 86.472 29.0098 86.5721 28.916C86.6723 28.8223 86.7479 28.7061 86.7991 28.5676L87.8793 28.6891C87.8111 28.9746 87.6812 29.2239 87.4894 29.437C87.2998 29.6479 87.0569 29.812 86.7607 29.9292C86.4645 30.0442 86.1258 30.1017 85.7444 30.1017ZM88.897 30.0059V25.0968H90.054V30.0059H88.897ZM89.4787 24.4C89.2955 24.4 89.1378 24.3393 89.0057 24.2179C88.8736 24.0943 88.8075 23.9462 88.8075 23.7736C88.8075 23.5989 88.8736 23.4508 89.0057 23.3294C89.1378 23.2058 89.2955 23.144 89.4787 23.144C89.6641 23.144 89.8218 23.2058 89.9517 23.3294C90.0838 23.4508 90.1499 23.5989 90.1499 23.7736C90.1499 23.9462 90.0838 24.0943 89.9517 24.2179C89.8218 24.3393 89.6641 24.4 89.4787 24.4ZM91.2347 30.0059V25.0968H92.3405V25.9309H92.3981C92.5003 25.6497 92.6697 25.4302 92.9062 25.2725C93.1427 25.1127 93.4251 25.0328 93.7532 25.0328C94.0856 25.0328 94.3658 25.1138 94.5937 25.2757C94.8239 25.4355 94.9858 25.6539 95.0795 25.9309H95.1307C95.2393 25.6582 95.4226 25.4409 95.6804 25.2789C95.9403 25.1149 96.2482 25.0328 96.604 25.0328C97.0557 25.0328 97.4244 25.1756 97.7099 25.4611C97.9954 25.7466 98.1381 26.1632 98.1381 26.7108V30.0059H96.978V26.8897C96.978 26.585 96.897 26.3624 96.7351 26.2218C96.5731 26.079 96.375 26.0076 96.1406 26.0076C95.8615 26.0076 95.6431 26.095 95.4854 26.2697C95.3299 26.4423 95.2521 26.6671 95.2521 26.9441V30.0059H94.1175V26.8418C94.1175 26.5882 94.0408 26.3858 93.8874 26.2346C93.7361 26.0833 93.538 26.0076 93.293 26.0076C93.1268 26.0076 92.9755 26.0502 92.8391 26.1355C92.7028 26.2186 92.5941 26.3368 92.5131 26.4902C92.4322 26.6415 92.3917 26.8184 92.3917 27.0208V30.0059H91.2347ZM100.716 30.1049C100.404 30.1049 100.124 30.0495 99.875 29.9387C99.6278 29.8258 99.4318 29.6596 99.2869 29.4402C99.1441 29.2207 99.0728 28.9501 99.0728 28.6284C99.0728 28.3514 99.1239 28.1223 99.2262 27.9412C99.3284 27.7601 99.468 27.6152 99.6448 27.5066C99.8217 27.3979 100.021 27.3159 100.242 27.2605C100.466 27.2029 100.697 27.1614 100.936 27.1358C101.224 27.106 101.457 27.0794 101.636 27.0559C101.815 27.0304 101.945 26.992 102.026 26.9409C102.109 26.8876 102.151 26.8056 102.151 26.6948V26.6756C102.151 26.4348 102.079 26.2484 101.936 26.1163C101.794 25.9842 101.588 25.9181 101.32 25.9181C101.036 25.9181 100.811 25.9799 100.645 26.1035C100.481 26.2271 100.37 26.373 100.313 26.5414L99.2326 26.388C99.3178 26.0897 99.4584 25.8404 99.6544 25.6401C99.8505 25.4377 100.09 25.2864 100.374 25.1863C100.657 25.084 100.97 25.0328 101.313 25.0328C101.55 25.0328 101.785 25.0605 102.019 25.1159C102.254 25.1713 102.468 25.263 102.662 25.3908C102.856 25.5165 103.011 25.688 103.129 25.9054C103.248 26.1227 103.307 26.3944 103.307 26.7203V30.0059H102.195V29.3315H102.157C102.087 29.4679 101.988 29.5957 101.86 29.715C101.734 29.8322 101.575 29.927 101.383 29.9995C101.194 30.0698 100.971 30.1049 100.716 30.1049ZM101.016 29.2548C101.248 29.2548 101.45 29.209 101.62 29.1174C101.79 29.0236 101.921 28.9 102.013 28.7466C102.107 28.5932 102.154 28.426 102.154 28.2449V27.6664C102.117 27.6962 102.056 27.7239 101.968 27.7495C101.883 27.775 101.787 27.7974 101.681 27.8166C101.574 27.8358 101.469 27.8528 101.364 27.8677C101.26 27.8826 101.169 27.8954 101.093 27.9061C100.92 27.9295 100.766 27.9679 100.629 28.0211C100.493 28.0744 100.385 28.149 100.306 28.2449C100.228 28.3386 100.188 28.46 100.188 28.6092C100.188 28.8223 100.266 28.9831 100.421 29.0918C100.577 29.2005 100.775 29.2548 101.016 29.2548ZM106.597 31.949C106.181 31.949 105.824 31.8926 105.526 31.7797C105.228 31.6689 104.988 31.5197 104.807 31.3322C104.626 31.1447 104.5 30.937 104.43 30.709L105.472 30.4565C105.519 30.5524 105.587 30.6472 105.676 30.7409C105.766 30.8368 105.886 30.9157 106.037 30.9775C106.191 31.0414 106.384 31.0733 106.616 31.0733C106.944 31.0733 107.216 30.9934 107.431 30.8336C107.646 30.676 107.754 30.416 107.754 30.0538V29.1238H107.696C107.637 29.2431 107.549 29.3656 107.434 29.4913C107.321 29.617 107.171 29.7225 106.983 29.8077C106.798 29.8929 106.565 29.9355 106.284 29.9355C105.906 29.9355 105.564 29.8471 105.258 29.6703C104.953 29.4913 104.71 29.225 104.529 28.8713C104.35 28.5154 104.26 28.0701 104.26 27.5353C104.26 26.9963 104.35 26.5414 104.529 26.1706C104.71 25.7978 104.954 25.5154 105.261 25.3237C105.568 25.1298 105.91 25.0328 106.287 25.0328C106.574 25.0328 106.811 25.0819 106.996 25.1799C107.184 25.2757 107.333 25.3919 107.444 25.5282C107.555 25.6625 107.639 25.7892 107.696 25.9086H107.76V25.0968H108.901V30.0858C108.901 30.5055 108.801 30.8528 108.601 31.1277C108.4 31.4025 108.127 31.6081 107.779 31.7445C107.432 31.8809 107.038 31.949 106.597 31.949ZM106.606 29.0279C106.851 29.0279 107.06 28.9682 107.233 28.8489C107.405 28.7296 107.536 28.5581 107.626 28.3343C107.715 28.1106 107.76 27.8422 107.76 27.5289C107.76 27.22 107.715 26.9494 107.626 26.7172C107.539 26.4849 107.409 26.3049 107.236 26.177C107.066 26.0471 106.856 25.9821 106.606 25.9821C106.349 25.9821 106.133 26.0492 105.961 26.1834C105.788 26.3176 105.658 26.502 105.571 26.7363C105.483 26.9686 105.44 27.2328 105.44 27.5289C105.44 27.8294 105.483 28.0925 105.571 28.3184C105.66 28.5421 105.791 28.7168 105.964 28.8425C106.139 28.9661 106.353 29.0279 106.606 29.0279ZM110.078 30.0059V25.0968H111.235V30.0059H110.078ZM110.66 24.4C110.476 24.4 110.319 24.3393 110.187 24.2179C110.054 24.0943 109.988 23.9462 109.988 23.7736C109.988 23.5989 110.054 23.4508 110.187 23.3294C110.319 23.2058 110.476 23.144 110.66 23.144C110.845 23.144 111.003 23.2058 111.133 23.3294C111.265 23.4508 111.331 23.5989 111.331 23.7736C111.331 23.9462 111.265 24.0943 111.133 24.2179C111.003 24.3393 110.845 24.4 110.66 24.4ZM113.572 27.1294V30.0059H112.416V25.0968H113.521V25.9309H113.579C113.692 25.6561 113.872 25.4377 114.119 25.2757C114.368 25.1138 114.676 25.0328 115.043 25.0328C115.381 25.0328 115.677 25.1053 115.928 25.2502C116.181 25.3951 116.378 25.6049 116.516 25.8798C116.657 26.1547 116.726 26.4881 116.724 26.8801V30.0059H115.567V27.0591C115.567 26.731 115.482 26.4743 115.311 26.2889C115.143 26.1035 114.909 26.0108 114.611 26.0108C114.409 26.0108 114.229 26.0556 114.071 26.1451C113.916 26.2324 113.793 26.3592 113.704 26.5254C113.616 26.6916 113.572 26.8929 113.572 27.1294ZM120.064 30.1017C119.572 30.1017 119.147 29.9995 118.789 29.7949C118.433 29.5882 118.159 29.2963 117.968 28.9192C117.776 28.54 117.68 28.0936 117.68 27.5801C117.68 27.0751 117.776 26.6319 117.968 26.2505C118.161 25.867 118.432 25.5687 118.779 25.3556C119.127 25.1404 119.535 25.0328 120.003 25.0328C120.306 25.0328 120.592 25.0819 120.86 25.1799C121.131 25.2757 121.369 25.4249 121.576 25.6273C121.785 25.8297 121.949 26.0875 122.068 26.4007C122.187 26.7118 122.247 27.0826 122.247 27.513V27.8677H118.223V27.0879H121.138C121.136 26.8663 121.088 26.6692 120.994 26.4966C120.9 26.3219 120.769 26.1845 120.601 26.0843C120.435 25.9842 120.241 25.9341 120.019 25.9341C119.783 25.9341 119.575 25.9917 119.396 26.1067C119.217 26.2196 119.078 26.3688 118.978 26.5542C118.88 26.7374 118.829 26.9387 118.827 27.1582V27.839C118.827 28.1245 118.88 28.3695 118.984 28.574C119.088 28.7765 119.234 28.932 119.422 29.0407C119.609 29.1472 119.829 29.2005 120.08 29.2005C120.248 29.2005 120.401 29.177 120.537 29.1301C120.674 29.0811 120.792 29.0098 120.892 28.916C120.992 28.8223 121.068 28.7061 121.119 28.5676L122.199 28.6891C122.131 28.9746 122.001 29.2239 121.809 29.437C121.62 29.6479 121.377 29.812 121.081 29.9292C120.784 30.0442 120.446 30.1017 120.064 30.1017ZM125.039 30.0922C124.653 30.0922 124.308 29.9931 124.003 29.7949C123.698 29.5968 123.458 29.3091 123.281 28.932C123.104 28.5549 123.016 28.0968 123.016 27.5577C123.016 27.0123 123.105 26.552 123.284 26.177C123.465 25.7999 123.709 25.5154 124.016 25.3237C124.323 25.1298 124.665 25.0328 125.042 25.0328C125.329 25.0328 125.566 25.0819 125.751 25.1799C125.937 25.2757 126.084 25.3919 126.192 25.5282C126.301 25.6625 126.385 25.7892 126.445 25.9086H126.493V23.4604H127.653V30.0059H126.515V29.2324H126.445C126.385 29.3517 126.299 29.4785 126.186 29.6127C126.073 29.7449 125.924 29.8578 125.739 29.9515C125.553 30.0453 125.32 30.0922 125.039 30.0922ZM125.361 29.1429C125.606 29.1429 125.815 29.0769 125.988 28.9448C126.16 28.8105 126.291 28.6241 126.381 28.3855C126.47 28.1468 126.515 27.8688 126.515 27.5513C126.515 27.2338 126.47 26.9579 126.381 26.7235C126.294 26.4892 126.164 26.307 125.991 26.177C125.821 26.0471 125.611 25.9821 125.361 25.9821C125.104 25.9821 124.888 26.0492 124.716 26.1834C124.543 26.3176 124.413 26.503 124.326 26.7395C124.239 26.976 124.195 27.2466 124.195 27.5513C124.195 27.8581 124.239 28.1319 124.326 28.3727C124.415 28.6113 124.546 28.7999 124.719 28.9384C124.894 29.0748 125.108 29.1429 125.361 29.1429Z" fill="#212329"/>
</svg>
