<svg width="32" height="33" viewBox="0 0 32 33" fill="none" xmlns="http://www.w3.org/2000/svg">
<path d="M18.9503 23.8894C16.355 28.3115 12.9884 30.9544 10.2114 30.2089C8.46966 29.7418 7.19652 27.9957 6.47561 25.4956C6.39775 25.2245 6.33143 24.9405 6.2651 24.6507C6.1411 24.0985 6.03441 23.5261 5.95943 22.9205C5.92627 22.6465 5.90609 22.3611 5.88302 22.077C5.83832 21.5233 5.80948 20.9567 5.80516 20.3713C5.80516 19.9604 5.81237 19.5408 5.82967 19.1155C5.86139 18.3282 5.92868 17.5218 6.03153 16.6961C6.07911 16.3097 6.12813 15.9218 6.19301 15.5297C6.36026 14.506 6.5823 13.4635 6.86346 12.4153C7.78191 8.98374 9.20788 5.92706 10.8458 3.55525C10.3039 3.33319 9.75041 3.14066 9.18769 2.97852C7.56708 5.42963 6.18436 8.49785 5.25005 11.9842C5.10587 12.4989 4.99341 13.0093 4.88094 13.5169C4.79299 13.9148 4.71802 14.3084 4.64593 14.7006C4.49165 15.5354 4.35756 16.3616 4.27538 17.1661C4.23068 17.5843 4.20328 17.9937 4.17589 18.4018C4.09922 19.5158 4.09296 20.6335 4.15715 21.7483C4.17445 22.0424 4.19752 22.3308 4.22635 22.6134C4.28691 23.2305 4.37246 23.824 4.483 24.394C4.53779 24.6824 4.59402 24.9708 4.66179 25.2591C5.49949 28.7109 7.25708 31.1519 9.78029 31.8281C12.2098 32.4784 14.8469 31.3638 17.2302 28.9819C18.7442 27.4608 20.1499 25.4177 21.3394 23.0027C20.5695 23.3199 19.7765 23.6198 18.9503 23.8894Z" fill="#212329"/>
<path d="M18.3965 4.18671C19.0583 4.69712 19.7172 5.23204 20.366 5.81598C25.4946 5.85491 29.4625 7.44813 30.2065 10.2222C30.6722 11.9654 29.797 13.9407 27.9919 15.8151C28.2557 16.3832 28.4835 16.9455 28.6868 17.502C28.7791 17.4141 28.8844 17.329 28.9752 17.2396C31.3557 14.8563 32.4702 12.2134 31.8185 9.78245C30.7544 5.80444 25.3072 3.72388 18.3965 4.18671Z" fill="#212329"/>
<path d="M20.2311 20.7472C19.8721 20.8914 19.8721 20.8914 19.4987 21.0356C18.5283 21.4018 17.5147 21.732 16.4708 22.0117C13.0393 22.9302 9.67979 23.2243 6.81055 22.9922C6.88847 23.5746 6.9987 24.1522 7.14073 24.7224C10.0749 24.8997 13.4213 24.5652 16.9062 23.6309C17.4224 23.4867 17.9242 23.3425 18.4216 23.1796C18.8109 23.0571 19.1887 22.9258 19.565 22.7932C20.3652 22.5048 21.1395 22.2049 21.8791 21.8776C22.2655 21.7061 22.639 21.5287 23.0066 21.347C24.0081 20.8558 24.9779 20.3025 25.9105 19.6904C25.7486 19.1285 25.556 18.576 25.3337 18.0352C24.8767 18.3509 24.3994 18.6595 23.8919 18.9565C23.5372 19.1641 23.171 19.366 22.7932 19.5635C22.0882 19.9268 20.9967 20.4243 20.2311 20.7472Z" fill="#212329"/>
<path d="M21.1616 7.71483C20.7853 7.33707 20.4017 6.9795 20.0182 6.62769C19.7169 6.3523 19.4141 6.09133 19.1099 5.8318C18.4639 5.28102 17.8122 4.75619 17.1605 4.27895C16.8202 4.03095 16.48 3.8017 16.1397 3.57389C15.2129 2.94937 14.2479 2.38355 13.2503 1.87974C12.9879 1.74902 12.7259 1.62406 12.4645 1.50487C11.8993 1.24966 11.3427 1.02906 10.7934 0.837298C10.5137 0.739253 10.234 0.644092 9.96 0.56335C6.55152 -0.437281 3.55827 -0.135938 1.71273 1.71681C-1.19977 4.62787 -0.278437 10.3865 3.57125 16.1423C3.68227 15.3133 3.81636 14.4756 3.99659 13.622C1.46618 9.16099 0.864935 4.92921 2.89359 2.89767C4.16961 1.62165 6.31794 1.3924 8.84259 2.02392C9.11798 2.09169 9.39769 2.16811 9.68029 2.26327C10.2413 2.43402 10.7933 2.63326 11.3341 2.86019C11.5878 2.96832 11.8459 3.09232 12.1026 3.21488C12.6043 3.45278 13.1118 3.71231 13.6194 4.00068C13.9769 4.20397 14.3403 4.42169 14.695 4.6495C15.3611 5.07051 16.0258 5.5319 16.689 6.03366C17.0005 6.26868 17.3105 6.50514 17.6176 6.75457C18.4405 7.42741 19.2292 8.14105 19.9807 8.89281C22.4924 11.4088 24.4273 14.1714 25.6644 16.7753C25.787 17.0319 25.911 17.29 26.0191 17.5438C26.2487 18.0869 26.4508 18.6413 26.6247 19.2048C26.7112 19.4816 26.7919 19.757 26.8597 20.0252C27.285 21.7366 27.3067 23.2664 26.8871 24.4776C26.5565 24.4214 26.2172 24.4444 25.8972 24.5446C25.5771 24.6449 25.2854 24.8195 25.0459 25.0543C24.6874 25.4676 24.4988 26.0013 24.5182 26.5481C24.5376 27.0949 24.7634 27.6139 25.1503 28.0008C25.5371 28.3877 26.0562 28.6135 26.603 28.6329C27.1497 28.6523 27.6835 28.4637 28.0968 28.1052C28.4444 27.7519 28.6577 27.2882 28.6999 26.7944C28.742 26.3005 28.6103 25.8074 28.3275 25.4003C29.0657 23.6442 29.0369 21.3978 28.3116 18.9251C28.2309 18.6526 28.1357 18.3743 28.0377 18.096C27.8459 17.5452 27.6239 16.9858 27.3672 16.4192C27.249 16.1582 27.125 15.8972 26.9938 15.6334C25.6788 12.9977 23.7151 10.2669 21.1616 7.71483Z" fill="#212329"/>
</svg>
