<svg width="224" height="263" viewBox="0 0 224 263" fill="none" xmlns="http://www.w3.org/2000/svg">
<foreignObject x="-20" y="-20" width="264" height="302.943"><div xmlns="http://www.w3.org/1999/xhtml" style="backdrop-filter:blur(10px);clip-path:url(#bgblur_0_15_12120_clip_path);height:100%;width:100%"></div></foreignObject><g data-figma-bg-blur-radius="20">
<rect width="224" height="262.943" rx="10" fill="white" fill-opacity="0.2"/>
<g filter="url(#filter1_d_15_12120)">
<rect x="10" y="10" width="204" height="74.3143" rx="8.74286" fill="white" shape-rendering="crispEdges"/>
<rect x="10.3643" y="10.3643" width="203.271" height="73.5857" rx="8.37857" stroke="#E4E7EC" stroke-width="0.728571" shape-rendering="crispEdges"/>
<path d="M25.3031 35.0144V27.5962H26.6469V33.8879H29.9141V35.0144H25.3031ZM33.3881 35.1231C32.8448 35.1231 32.3739 35.0035 31.9755 34.7645C31.577 34.5254 31.268 34.191 31.0482 33.7611C30.8309 33.3313 30.7222 32.829 30.7222 32.2543C30.7222 31.6796 30.8309 31.1761 31.0482 30.7439C31.268 30.3116 31.577 29.976 31.9755 29.7369C32.3739 29.4979 32.8448 29.3783 33.3881 29.3783C33.9314 29.3783 34.4023 29.4979 34.8008 29.7369C35.1992 29.976 35.5071 30.3116 35.7244 30.7439C35.9442 31.1761 36.054 31.6796 36.054 32.2543C36.054 32.829 35.9442 33.3313 35.7244 33.7611C35.5071 34.191 35.1992 34.5254 34.8008 34.7645C34.4023 35.0035 33.9314 35.1231 33.3881 35.1231ZM33.3954 34.0726C33.69 34.0726 33.9363 33.9917 34.1343 33.83C34.3323 33.6658 34.4796 33.446 34.5762 33.1707C34.6752 32.8954 34.7247 32.5888 34.7247 32.2507C34.7247 31.9102 34.6752 31.6023 34.5762 31.327C34.4796 31.0493 34.3323 30.8284 34.1343 30.6642C33.9363 30.5 33.69 30.4179 33.3954 30.4179C33.0935 30.4179 32.8424 30.5 32.642 30.6642C32.4439 30.8284 32.2954 31.0493 32.1964 31.327C32.0998 31.6023 32.0515 31.9102 32.0515 32.2507C32.0515 32.5888 32.0998 32.8954 32.1964 33.1707C32.2954 33.446 32.4439 33.6658 32.642 33.83C32.8424 33.9917 33.0935 34.0726 33.3954 34.0726ZM38.7067 35.1267C38.3542 35.1267 38.0366 35.0639 37.7541 34.9383C37.474 34.8104 37.2518 34.622 37.0876 34.3733C36.9258 34.1246 36.8449 33.8179 36.8449 33.4533C36.8449 33.1393 36.9029 32.8797 37.0188 32.6745C37.1347 32.4692 37.2929 32.305 37.4933 32.1819C37.6937 32.0587 37.9195 31.9658 38.1707 31.903C38.4242 31.8378 38.6862 31.7907 38.9567 31.7617C39.2827 31.7279 39.5471 31.6977 39.7499 31.6712C39.9528 31.6422 40.1001 31.5987 40.1918 31.5408C40.286 31.4804 40.3331 31.3874 40.3331 31.2618V31.2401C40.3331 30.9672 40.2522 30.756 40.0904 30.6062C39.9286 30.4565 39.6956 30.3817 39.3913 30.3817C39.0702 30.3817 38.8154 30.4517 38.627 30.5917C38.4411 30.7318 38.3155 30.8972 38.2503 31.088L37.0261 30.9141C37.1226 30.5761 37.282 30.2935 37.5042 30.0665C37.7263 29.8371 37.998 29.6657 38.3192 29.5522C38.6403 29.4363 38.9953 29.3783 39.3841 29.3783C39.6521 29.3783 39.919 29.4097 40.1846 29.4725C40.4502 29.5353 40.6929 29.6391 40.9126 29.784C41.1324 29.9265 41.3087 30.1209 41.4415 30.3672C41.5767 30.6135 41.6443 30.9214 41.6443 31.2908V35.0144H40.3838V34.2501H40.3403C40.2606 34.4047 40.1484 34.5496 40.0035 34.6848C39.861 34.8176 39.6811 34.9251 39.4638 35.0072C39.2489 35.0868 38.9965 35.1267 38.7067 35.1267ZM39.0472 34.1632C39.3104 34.1632 39.5386 34.1113 39.7318 34.0074C39.925 33.9012 40.0735 33.7611 40.1773 33.5873C40.2836 33.4134 40.3367 33.2239 40.3367 33.0186V32.363C40.2957 32.3968 40.2256 32.4282 40.1266 32.4572C40.03 32.4861 39.9214 32.5115 39.8006 32.5332C39.6799 32.555 39.5604 32.5743 39.442 32.5912C39.3237 32.6081 39.2211 32.6226 39.1341 32.6346C38.9386 32.6612 38.7635 32.7047 38.6089 32.765C38.4544 32.8254 38.3324 32.9099 38.2431 33.0186C38.1538 33.1248 38.1091 33.2625 38.1091 33.4315C38.1091 33.673 38.1972 33.8553 38.3735 33.9785C38.5498 34.1016 38.7743 34.1632 39.0472 34.1632ZM44.2128 31.7545V35.0144H42.9016V29.4508H44.1548V30.3962H44.22C44.348 30.0846 44.5521 29.8371 44.8322 29.6536C45.1147 29.4701 45.4636 29.3783 45.879 29.3783C46.2629 29.3783 46.5974 29.4604 46.8823 29.6246C47.1697 29.7888 47.3918 30.0267 47.5488 30.3382C47.7082 30.6497 47.7867 31.0276 47.7842 31.4719V35.0144H46.473V31.6748C46.473 31.3029 46.3764 31.0119 46.1832 30.8018C45.9925 30.5917 45.7281 30.4867 45.39 30.4867C45.1606 30.4867 44.9565 30.5374 44.7778 30.6388C44.6016 30.7378 44.4627 30.8815 44.3613 31.0699C44.2623 31.2582 44.2128 31.4864 44.2128 31.7545ZM53.4533 30.9214L52.258 31.0518C52.2242 30.931 52.165 30.8175 52.0805 30.7113C51.9984 30.605 51.8873 30.5193 51.7473 30.4541C51.6072 30.3889 51.4358 30.3563 51.2329 30.3563C50.96 30.3563 50.7306 30.4155 50.5447 30.5338C50.3612 30.6521 50.2706 30.8055 50.273 30.9938C50.2706 31.1556 50.3298 31.2872 50.4505 31.3886C50.5737 31.49 50.7765 31.5734 51.0591 31.6386L52.0081 31.8414C52.5345 31.9549 52.9257 32.1348 53.1816 32.3811C53.44 32.6274 53.5704 32.9498 53.5728 33.3482C53.5704 33.6984 53.4678 34.0074 53.2649 34.2755C53.0645 34.5411 52.7856 34.7488 52.4282 34.8985C52.0708 35.0482 51.6603 35.1231 51.1967 35.1231C50.5157 35.1231 49.9676 34.9806 49.5522 34.6957C49.1369 34.4083 48.8894 34.0087 48.8097 33.4967L50.0883 33.3736C50.1463 33.6247 50.2694 33.8143 50.4578 33.9422C50.6461 34.0702 50.8912 34.1342 51.1931 34.1342C51.5046 34.1342 51.7545 34.0702 51.9429 33.9422C52.1336 33.8143 52.229 33.6561 52.229 33.4677C52.229 33.3084 52.1674 33.1768 52.0443 33.0729C51.9235 32.9691 51.7352 32.8894 51.4792 32.8339L50.5302 32.6346C49.9966 32.5236 49.6017 32.3364 49.3458 32.0732C49.0898 31.8076 48.963 31.4719 48.9654 31.0663C48.963 30.7234 49.056 30.4263 49.2443 30.1752C49.4351 29.9216 49.6995 29.7261 50.0376 29.5884C50.3781 29.4484 50.7705 29.3783 51.2148 29.3783C51.8668 29.3783 52.3799 29.5172 52.7542 29.7949C53.1309 30.0726 53.364 30.4481 53.4533 30.9214ZM59.8798 29.4508V30.465H56.5908V29.4508H59.8798ZM57.4131 35.0144V28.9256C57.4131 28.5513 57.4903 28.2398 57.6449 27.991C57.8018 27.7423 58.0119 27.5564 58.2751 27.4332C58.5384 27.3101 58.8305 27.2485 59.1517 27.2485C59.3787 27.2485 59.5803 27.2666 59.7566 27.3028C59.9329 27.339 60.0633 27.3716 60.1478 27.4006L59.887 28.4148C59.8315 28.3979 59.7614 28.381 59.6769 28.3641C59.5924 28.3448 59.4982 28.3351 59.3944 28.3351C59.1505 28.3351 58.9778 28.3943 58.8764 28.5126C58.7774 28.6285 58.7279 28.7952 58.7279 29.0125V35.0144H57.4131ZM64.3915 32.6745V29.4508H65.7028V35.0144H64.4314V34.0256H64.3734C64.2479 34.3371 64.0414 34.5918 63.754 34.7898C63.4691 34.9878 63.1177 35.0868 62.7 35.0868C62.3354 35.0868 62.013 35.006 61.7329 34.8442C61.4552 34.68 61.2378 34.4421 61.0809 34.1306C60.9239 33.8167 60.8454 33.4376 60.8454 32.9932V29.4508H62.1567V32.7904C62.1567 33.143 62.2533 33.4231 62.4464 33.6307C62.6396 33.8384 62.8932 33.9422 63.2071 33.9422C63.4003 33.9422 63.5874 33.8952 63.7685 33.801C63.9496 33.7068 64.0981 33.5667 64.2141 33.3808C64.3324 33.1925 64.3915 32.957 64.3915 32.6745ZM68.3011 31.7545V35.0144H66.9899V29.4508H68.2432V30.3962H68.3084C68.4364 30.0846 68.6404 29.8371 68.9205 29.6536C69.203 29.4701 69.552 29.3783 69.9673 29.3783C70.3513 29.3783 70.6857 29.4604 70.9707 29.6246C71.258 29.7888 71.4802 30.0267 71.6371 30.3382C71.7965 30.6497 71.875 31.0276 71.8726 31.4719V35.0144H70.5614V31.6748C70.5614 31.3029 70.4648 31.0119 70.2716 30.8018C70.0808 30.5917 69.8164 30.4867 69.4783 30.4867C69.2489 30.4867 69.0449 30.5374 68.8662 30.6388C68.6899 30.7378 68.5511 30.8815 68.4496 31.0699C68.3506 31.2582 68.3011 31.4864 68.3011 31.7545ZM75.209 35.1122C74.7719 35.1122 74.3807 34.9999 74.0354 34.7753C73.6901 34.5508 73.4172 34.2248 73.2168 33.7974C73.0164 33.3699 72.9161 32.8508 72.9161 32.2398C72.9161 31.6216 73.0176 31.1001 73.2204 30.6751C73.4257 30.2476 73.7021 29.9253 74.0499 29.7079C74.3976 29.4882 74.7852 29.3783 75.2126 29.3783C75.5386 29.3783 75.8066 29.4339 76.0167 29.5449C76.2268 29.6536 76.3934 29.7852 76.5166 29.9398C76.6397 30.0919 76.7351 30.2356 76.8027 30.3708H76.857V27.5962H78.1719V35.0144H76.8824V34.1378H76.8027C76.7351 34.2731 76.6373 34.4167 76.5093 34.5689C76.3813 34.7186 76.2123 34.8466 76.0022 34.9528C75.7921 35.0591 75.5277 35.1122 75.209 35.1122ZM75.5748 34.0364C75.8525 34.0364 76.0891 33.9616 76.2847 33.8118C76.4803 33.6597 76.6289 33.4484 76.7303 33.178C76.8317 32.9075 76.8824 32.5924 76.8824 32.2326C76.8824 31.8728 76.8317 31.5601 76.7303 31.2944C76.6313 31.0288 76.484 30.8224 76.2884 30.6751C76.0952 30.5278 75.8573 30.4541 75.5748 30.4541C75.2826 30.4541 75.0387 30.5302 74.8431 30.6823C74.6475 30.8344 74.5002 31.0445 74.4012 31.3126C74.3022 31.5806 74.2527 31.8873 74.2527 32.2326C74.2527 32.5803 74.3022 32.8906 74.4012 33.1635C74.5026 33.4339 74.6512 33.6476 74.8467 33.8046C75.0448 33.9591 75.2874 34.0364 75.5748 34.0364ZM81.971 35.1231C81.4132 35.1231 80.9314 35.0072 80.5258 34.7753C80.1225 34.5411 79.8122 34.2103 79.5949 33.7829C79.3775 33.353 79.2689 32.8471 79.2689 32.2652C79.2689 31.6929 79.3775 31.1906 79.5949 30.7584C79.8146 30.3237 80.1213 29.9856 80.5149 29.7442C80.9085 29.5003 81.3709 29.3783 81.9022 29.3783C82.2451 29.3783 82.5687 29.4339 82.8729 29.5449C83.1796 29.6536 83.4501 29.8226 83.6843 30.052C83.9209 30.2814 84.1069 30.5736 84.2421 30.9286C84.3773 31.2812 84.4449 31.7013 84.4449 32.1891V32.5912H79.8846V31.7074H83.1881C83.1856 31.4562 83.1313 31.2329 83.0251 31.0373C82.9188 30.8393 82.7703 30.6835 82.5795 30.57C82.3912 30.4565 82.1714 30.3998 81.9203 30.3998C81.6523 30.3998 81.4168 30.465 81.214 30.5954C81.0111 30.7234 80.853 30.8924 80.7395 31.1025C80.6284 31.3101 80.5716 31.5383 80.5692 31.7871V32.5586C80.5692 32.8822 80.6284 33.1599 80.7467 33.3917C80.865 33.6211 81.0305 33.7974 81.243 33.9205C81.4555 34.0413 81.7042 34.1016 81.9891 34.1016C82.1799 34.1016 82.3525 34.0751 82.5071 34.0219C82.6616 33.9664 82.7957 33.8855 82.9091 33.7792C83.0226 33.673 83.1084 33.5414 83.1663 33.3844L84.3906 33.5221C84.3133 33.8457 84.166 34.1282 83.9487 34.3697C83.7338 34.6087 83.4585 34.7947 83.1229 34.9275C82.7872 35.0579 82.4033 35.1231 81.971 35.1231ZM87.5577 35.1122C87.1206 35.1122 86.7294 34.9999 86.3841 34.7753C86.0388 34.5508 85.7659 34.2248 85.5655 33.7974C85.365 33.3699 85.2648 32.8508 85.2648 32.2398C85.2648 31.6216 85.3663 31.1001 85.5691 30.6751C85.7743 30.2476 86.0508 29.9253 86.3986 29.7079C86.7463 29.4882 87.1339 29.3783 87.5613 29.3783C87.8873 29.3783 88.1553 29.4339 88.3654 29.5449C88.5755 29.6536 88.7421 29.7852 88.8653 29.9398C88.9884 30.0919 89.0838 30.2356 89.1514 30.3708H89.2057V27.5962H90.5206V35.0144H89.2311V34.1378H89.1514C89.0838 34.2731 88.986 34.4167 88.858 34.5689C88.73 34.7186 88.561 34.8466 88.3509 34.9528C88.1408 35.0591 87.8764 35.1122 87.5577 35.1122ZM87.9235 34.0364C88.2012 34.0364 88.4378 33.9616 88.6334 33.8118C88.829 33.6597 88.9775 33.4484 89.079 33.178C89.1804 32.9075 89.2311 32.5924 89.2311 32.2326C89.2311 31.8728 89.1804 31.5601 89.079 31.2944C88.98 31.0288 88.8327 30.8224 88.6371 30.6751C88.4439 30.5278 88.206 30.4541 87.9235 30.4541C87.6313 30.4541 87.3874 30.5302 87.1918 30.6823C86.9962 30.8344 86.8489 31.0445 86.7499 31.3126C86.6509 31.5806 86.6014 31.8873 86.6014 32.2326C86.6014 32.5803 86.6509 32.8906 86.7499 33.1635C86.8513 33.4339 86.9998 33.6476 87.1954 33.8046C87.3935 33.9591 87.6361 34.0364 87.9235 34.0364Z" fill="#576072"/>
<path d="M29.9076 51.5785V64.3H28.072V53.4398H28.0634L24.9556 55.4718V53.6618L28.1232 51.5785H29.9076ZM35.8273 64.4793C34.9792 64.4793 34.2221 64.3114 33.5562 63.9756C32.8959 63.6341 32.3666 63.1673 31.9681 62.5754C31.5754 61.9777 31.3619 61.2975 31.3278 60.5348H33.1805C33.2374 61.2179 33.5106 61.7814 34.0001 62.2253C34.4954 62.6636 35.1072 62.8827 35.8358 62.8827C36.6042 62.8827 37.2246 62.6238 37.6971 62.1058C38.1752 61.5878 38.4143 60.9247 38.4143 60.1165C38.4143 59.3139 38.1837 58.6536 37.7227 58.1357C37.2616 57.612 36.6611 57.3502 35.9212 57.3502C35.2723 57.3502 34.7145 57.4839 34.2478 57.7514C33.781 58.0133 33.4566 58.3946 33.2744 58.8955H31.49L31.9084 51.5785H39.5157V53.2007H33.6074L33.3257 56.9489H33.3427C34.0884 56.1577 35.0418 55.7621 36.2029 55.7621C36.977 55.7621 37.6658 55.9499 38.2691 56.3256C38.8782 56.6956 39.3563 57.2079 39.7035 57.8624C40.0564 58.5113 40.2329 59.2513 40.2329 60.0823C40.2329 60.9418 40.0479 61.7017 39.6779 62.3619C39.3136 63.0222 38.8013 63.5402 38.1411 63.9158C37.4808 64.2915 36.7095 64.4793 35.8273 64.4793Z" fill="#212329"/>
</g>
<g filter="url(#filter2_d_15_12120)">
<rect x="10" y="94.3142" width="204" height="74.3143" rx="8.74286" fill="white" shape-rendering="crispEdges"/>
<rect x="10.3643" y="94.6785" width="203.271" height="73.5857" rx="8.37857" stroke="#E4E7EC" stroke-width="0.728571" shape-rendering="crispEdges"/>
<path d="M24.9771 113.037V111.91H30.8957V113.037H28.6029V119.329H27.2699V113.037H24.9771ZM33.5375 119.437C32.9942 119.437 32.5233 119.318 32.1249 119.079C31.7265 118.84 31.4174 118.505 31.1976 118.075C30.9803 117.646 30.8716 117.143 30.8716 116.569C30.8716 115.994 30.9803 115.49 31.1976 115.058C31.4174 114.626 31.7265 114.29 32.1249 114.051C32.5233 113.812 32.9942 113.693 33.5375 113.693C34.0809 113.693 34.5517 113.812 34.9502 114.051C35.3486 114.29 35.6565 114.626 35.8738 115.058C36.0936 115.49 36.2034 115.994 36.2034 116.569C36.2034 117.143 36.0936 117.646 35.8738 118.075C35.6565 118.505 35.3486 118.84 34.9502 119.079C34.5517 119.318 34.0809 119.437 33.5375 119.437ZM33.5448 118.387C33.8394 118.387 34.0857 118.306 34.2837 118.144C34.4817 117.98 34.629 117.76 34.7256 117.485C34.8246 117.21 34.8741 116.903 34.8741 116.565C34.8741 116.224 34.8246 115.917 34.7256 115.641C34.629 115.364 34.4817 115.143 34.2837 114.978C34.0857 114.814 33.8394 114.732 33.5448 114.732C33.2429 114.732 32.9918 114.814 32.7914 114.978C32.5934 115.143 32.4449 115.364 32.3458 115.641C32.2493 115.917 32.201 116.224 32.201 116.565C32.201 116.903 32.2493 117.21 32.3458 117.485C32.4449 117.76 32.5934 117.98 32.7914 118.144C32.9918 118.306 33.2429 118.387 33.5448 118.387ZM40.0334 113.765V114.779H36.835V113.765H40.0334ZM37.6246 112.432H38.9358V117.655C38.9358 117.831 38.9624 117.967 39.0155 118.061C39.0711 118.153 39.1435 118.215 39.2329 118.249C39.3222 118.283 39.4212 118.3 39.5299 118.3C39.612 118.3 39.6868 118.294 39.7544 118.282C39.8245 118.27 39.8776 118.259 39.9138 118.249L40.1348 119.274C40.0647 119.298 39.9645 119.325 39.8341 119.354C39.7061 119.383 39.5492 119.4 39.3633 119.405C39.0348 119.414 38.739 119.365 38.4758 119.256C38.2126 119.145 38.0037 118.974 37.8492 118.742C37.6971 118.51 37.6222 118.22 37.6246 117.873V112.432ZM42.6698 119.441C42.3172 119.441 41.9997 119.378 41.7171 119.253C41.437 119.125 41.2149 118.936 41.0506 118.687C40.8889 118.439 40.808 118.132 40.808 117.767C40.808 117.454 40.8659 117.194 40.9818 116.989C41.0977 116.783 41.2559 116.619 41.4563 116.496C41.6568 116.373 41.8825 116.28 42.1337 116.217C42.3872 116.152 42.6492 116.105 42.9197 116.076C43.2457 116.042 43.5101 116.012 43.7129 115.985C43.9158 115.956 44.0631 115.913 44.1548 115.855C44.249 115.795 44.2961 115.702 44.2961 115.576V115.554C44.2961 115.281 44.2152 115.07 44.0534 114.92C43.8916 114.771 43.6586 114.696 43.3543 114.696C43.0332 114.696 42.7784 114.766 42.5901 114.906C42.4041 115.046 42.2786 115.211 42.2134 115.402L40.9891 115.228C41.0857 114.89 41.245 114.608 41.4672 114.381C41.6894 114.151 41.961 113.98 42.2822 113.866C42.6033 113.75 42.9583 113.693 43.3471 113.693C43.6151 113.693 43.882 113.724 44.1476 113.787C44.4132 113.849 44.6559 113.953 44.8756 114.098C45.0954 114.241 45.2717 114.435 45.4045 114.681C45.5397 114.928 45.6073 115.236 45.6073 115.605V119.329H44.3468V118.564H44.3033C44.2237 118.719 44.1114 118.864 43.9665 118.999C43.824 119.132 43.6441 119.239 43.4268 119.321C43.2119 119.401 42.9595 119.441 42.6698 119.441ZM43.0102 118.477C43.2734 118.477 43.5016 118.425 43.6948 118.322C43.888 118.215 44.0365 118.075 44.1404 117.901C44.2466 117.728 44.2997 117.538 44.2997 117.333V116.677C44.2587 116.711 44.1886 116.742 44.0896 116.771C43.993 116.8 43.8844 116.826 43.7636 116.847C43.6429 116.869 43.5234 116.888 43.4051 116.905C43.2867 116.922 43.1841 116.937 43.0972 116.949C42.9016 116.975 42.7265 117.019 42.572 117.079C42.4174 117.14 42.2955 117.224 42.2061 117.333C42.1168 117.439 42.0721 117.577 42.0721 117.746C42.0721 117.987 42.1602 118.17 42.3365 118.293C42.5128 118.416 42.7374 118.477 43.0102 118.477ZM48.1758 111.91V119.329H46.8646V111.91H48.1758ZM51.9318 119.329V113.765H53.2431V119.329H51.9318ZM52.5911 112.975C52.3834 112.975 52.2047 112.907 52.055 112.769C51.9053 112.629 51.8304 112.461 51.8304 112.265C51.8304 112.067 51.9053 111.9 52.055 111.762C52.2047 111.622 52.3834 111.552 52.5911 111.552C52.8012 111.552 52.9799 111.622 53.1272 111.762C53.2769 111.9 53.3517 112.067 53.3517 112.265C53.3517 112.461 53.2769 112.629 53.1272 112.769C52.9799 112.907 52.8012 112.975 52.5911 112.975ZM55.8414 116.069V119.329H54.5302V113.765H55.7835V114.71H55.8487C55.9767 114.399 56.1807 114.151 56.4608 113.968C56.7433 113.784 57.0923 113.693 57.5076 113.693C57.8916 113.693 58.226 113.775 58.511 113.939C58.7983 114.103 59.0205 114.341 59.1774 114.652C59.3368 114.964 59.4153 115.342 59.4129 115.786V119.329H58.1017V115.989C58.1017 115.617 58.0051 115.326 57.8119 115.116C57.6211 114.906 57.3567 114.801 57.0186 114.801C56.7892 114.801 56.5852 114.852 56.4065 114.953C56.2302 115.052 56.0914 115.196 55.9899 115.384C55.8909 115.572 55.8414 115.801 55.8414 116.069ZM65.455 113.765L63.4737 119.329H62.0248L60.0435 113.765H61.4417L62.7203 117.898H62.7782L64.0605 113.765H65.455ZM68.575 119.437C68.0172 119.437 67.5354 119.321 67.1297 119.09C66.7265 118.855 66.4162 118.524 66.1988 118.097C65.9815 117.667 65.8728 117.161 65.8728 116.579C65.8728 116.007 65.9815 115.505 66.1988 115.073C66.4186 114.638 66.7253 114.3 67.1189 114.058C67.5125 113.814 67.9749 113.693 68.5062 113.693C68.8491 113.693 69.1726 113.748 69.4769 113.859C69.7836 113.968 70.054 114.137 70.2883 114.366C70.5249 114.596 70.7108 114.888 70.8461 115.243C70.9813 115.595 71.0489 116.016 71.0489 116.503V116.905H66.4886V116.022H69.792C69.7896 115.77 69.7353 115.547 69.629 115.351C69.5228 115.153 69.3743 114.998 69.1835 114.884C68.9952 114.771 68.7754 114.714 68.5243 114.714C68.2562 114.714 68.0208 114.779 67.8179 114.91C67.6151 115.038 67.4569 115.207 67.3434 115.417C67.2324 115.624 67.1756 115.853 67.1732 116.101V116.873C67.1732 117.196 67.2324 117.474 67.3507 117.706C67.469 117.935 67.6344 118.112 67.8469 118.235C68.0594 118.355 68.3081 118.416 68.5931 118.416C68.7839 118.416 68.9565 118.389 69.1111 118.336C69.2656 118.281 69.3996 118.2 69.5131 118.093C69.6266 117.987 69.7123 117.856 69.7703 117.699L70.9946 117.836C70.9173 118.16 70.77 118.442 70.5527 118.684C70.3378 118.923 70.0625 119.109 69.7268 119.242C69.3912 119.372 69.0072 119.437 68.575 119.437ZM76.4943 115.236L75.299 115.366C75.2652 115.245 75.206 115.132 75.1215 115.025C75.0394 114.919 74.9283 114.834 74.7883 114.768C74.6482 114.703 74.4768 114.671 74.2739 114.671C74.001 114.671 73.7716 114.73 73.5857 114.848C73.4022 114.966 73.3116 115.12 73.314 115.308C73.3116 115.47 73.3708 115.601 73.4915 115.703C73.6147 115.804 73.8175 115.888 74.1001 115.953L75.0491 116.156C75.5755 116.269 75.9667 116.449 76.2226 116.695C76.481 116.942 76.6114 117.264 76.6138 117.662C76.6114 118.013 76.5088 118.322 76.3059 118.59C76.1055 118.855 75.8266 119.063 75.4692 119.213C75.1118 119.362 74.7013 119.437 74.2377 119.437C73.5567 119.437 73.0086 119.295 72.5932 119.01C72.1779 118.723 71.9304 118.323 71.8507 117.811L73.1293 117.688C73.1873 117.939 73.3104 118.128 73.4988 118.256C73.6871 118.384 73.9322 118.448 74.2341 118.448C74.5456 118.448 74.7955 118.384 74.9839 118.256C75.1746 118.128 75.27 117.97 75.27 117.782C75.27 117.623 75.2084 117.491 75.0853 117.387C74.9645 117.283 74.7762 117.204 74.5202 117.148L73.5712 116.949C73.0376 116.838 72.6427 116.651 72.3868 116.387C72.1308 116.122 72.004 115.786 72.0064 115.38C72.004 115.038 72.097 114.741 72.2854 114.489C72.4761 114.236 72.7405 114.04 73.0786 113.903C73.4191 113.763 73.8115 113.693 74.2558 113.693C74.9078 113.693 75.4209 113.831 75.7952 114.109C76.1719 114.387 76.405 114.762 76.4943 115.236ZM80.412 113.765V114.779H77.2137V113.765H80.412ZM78.0033 112.432H79.3145V117.655C79.3145 117.831 79.3411 117.967 79.3942 118.061C79.4498 118.153 79.5222 118.215 79.6115 118.249C79.7009 118.283 79.7999 118.3 79.9086 118.3C79.9907 118.3 80.0655 118.294 80.1331 118.282C80.2032 118.27 80.2563 118.259 80.2925 118.249L80.5135 119.274C80.4434 119.298 80.3432 119.325 80.2128 119.354C80.0848 119.383 79.9279 119.4 79.7419 119.405C79.4135 119.414 79.1177 119.365 78.8545 119.256C78.5913 119.145 78.3824 118.974 78.2279 118.742C78.0757 118.51 78.0009 118.22 78.0033 117.873V112.432ZM83.8508 119.437C83.2929 119.437 82.8112 119.321 82.4055 119.09C82.0022 118.855 81.6919 118.524 81.4746 118.097C81.2573 117.667 81.1486 117.161 81.1486 116.579C81.1486 116.007 81.2573 115.505 81.4746 115.073C81.6944 114.638 82.001 114.3 82.3946 114.058C82.7883 113.814 83.2507 113.693 83.7819 113.693C84.1248 113.693 84.4484 113.748 84.7527 113.859C85.0593 113.968 85.3298 114.137 85.564 114.366C85.8007 114.596 85.9866 114.888 86.1218 115.243C86.2571 115.595 86.3247 116.016 86.3247 116.503V116.905H81.7644V116.022H85.0678C85.0654 115.77 85.0111 115.547 84.9048 115.351C84.7986 115.153 84.65 114.998 84.4593 114.884C84.2709 114.771 84.0512 114.714 83.8 114.714C83.532 114.714 83.2966 114.779 83.0937 114.91C82.8909 115.038 82.7327 115.207 82.6192 115.417C82.5081 115.624 82.4514 115.853 82.449 116.101V116.873C82.449 117.196 82.5081 117.474 82.6265 117.706C82.7448 117.935 82.9102 118.112 83.1227 118.235C83.3352 118.355 83.5839 118.416 83.8689 118.416C84.0596 118.416 84.2323 118.389 84.3868 118.336C84.5414 118.281 84.6754 118.2 84.7889 118.093C84.9024 117.987 84.9881 117.856 85.0461 117.699L86.2704 117.836C86.1931 118.16 86.0458 118.442 85.8285 118.684C85.6135 118.923 85.3383 119.109 85.0026 119.242C84.6669 119.372 84.283 119.437 83.8508 119.437ZM89.4374 119.426C89.0003 119.426 88.6091 119.314 88.2638 119.09C87.9185 118.865 87.6456 118.539 87.4452 118.112C87.2448 117.684 87.1446 117.165 87.1446 116.554C87.1446 115.936 87.246 115.414 87.4488 114.989C87.6541 114.562 87.9306 114.239 88.2783 114.022C88.626 113.802 89.0136 113.693 89.441 113.693C89.767 113.693 90.0351 113.748 90.2451 113.859C90.4552 113.968 90.6218 114.099 90.745 114.254C90.8682 114.406 90.9635 114.55 91.0312 114.685H91.0855V111.91H92.4003V119.329H91.1108V118.452H91.0312C90.9635 118.587 90.8657 118.731 90.7378 118.883C90.6098 119.033 90.4407 119.161 90.2307 119.267C90.0206 119.373 89.7562 119.426 89.4374 119.426ZM89.8032 118.351C90.0809 118.351 90.3176 118.276 90.5132 118.126C90.7088 117.974 90.8573 117.763 90.9587 117.492C91.0601 117.222 91.1108 116.907 91.1108 116.547C91.1108 116.187 91.0601 115.874 90.9587 115.609C90.8597 115.343 90.7124 115.137 90.5168 114.989C90.3236 114.842 90.0858 114.768 89.8032 114.768C89.5111 114.768 89.2672 114.844 89.0716 114.997C88.876 115.149 88.7287 115.359 88.6297 115.627C88.5307 115.895 88.4812 116.201 88.4812 116.547C88.4812 116.895 88.5307 117.205 88.6297 117.478C88.7311 117.748 88.8796 117.962 89.0752 118.119C89.2732 118.273 89.5159 118.351 89.8032 118.351Z" fill="#576072"/>
<path d="M25.2118 148.614V146.992C25.6671 146.992 26.0229 146.87 26.279 146.625C26.5408 146.374 26.6604 145.965 26.6376 145.395L26.5266 143.039H25.2118V141.545H26.4583L26.3729 139.752C26.3331 138.944 26.4839 138.238 26.8254 137.634C27.1669 137.025 27.6451 136.553 28.2598 136.217C28.8745 135.881 29.5803 135.713 30.3772 135.713C31.1286 135.713 31.7945 135.884 32.3751 136.226C32.9614 136.562 33.4167 137.031 33.7412 137.634C34.0713 138.232 34.2364 138.927 34.2364 139.718H32.469C32.469 138.966 32.2812 138.383 31.9055 137.967C31.5298 137.552 31.0233 137.344 30.3858 137.344C29.6913 137.344 29.1421 137.552 28.7379 137.967C28.3395 138.377 28.1573 138.952 28.1915 139.692L28.2683 141.545H31.7347V143.039H28.3281L28.422 145.25C28.4391 145.7 28.3736 146.064 28.2257 146.343C28.0834 146.616 27.8841 146.833 27.628 146.992H31.8714C32.3039 146.992 32.5202 146.776 32.5202 146.343V145.822H34.2534V146.249C34.2534 147.826 33.4651 148.614 31.8884 148.614H25.2118ZM39.8913 135.893V148.614H38.0557V137.754H38.0471L34.9393 139.786V137.976L38.1069 135.893H39.8913ZM41.1493 151.099L41.8579 146.736H43.7021L42.4385 151.099H41.1493ZM49.4681 148.819C48.5289 148.819 47.7149 148.634 47.0262 148.264C46.3432 147.894 45.8138 147.388 45.4382 146.744C45.0625 146.101 44.8746 145.37 44.8746 144.55H46.7445C46.7445 145.398 46.9807 146.059 47.4531 146.531C47.9312 147.003 48.5915 147.24 49.4339 147.24C50.2422 147.24 50.8967 147.035 51.3976 146.625C51.9042 146.215 52.1575 145.666 52.1575 144.977C52.1575 144.345 51.8871 143.839 51.3464 143.457C50.8114 143.07 50.1056 142.877 49.229 142.877H48.1703V141.331H49.229C50.0031 141.331 50.6264 141.155 51.0988 140.802C51.5769 140.449 51.816 139.98 51.816 139.393C51.816 138.733 51.594 138.212 51.15 137.831C50.7061 137.449 50.1198 137.259 49.3912 137.259C48.6399 137.259 48.0451 137.469 47.6068 137.891C47.1742 138.312 46.9579 138.892 46.9579 139.632H45.1393C45.1393 138.864 45.3186 138.184 45.6772 137.592C46.0358 136.994 46.5339 136.527 47.1714 136.192C47.8089 135.856 48.5517 135.688 49.3998 135.688C50.208 135.688 50.9309 135.841 51.5684 136.149C52.2059 136.451 52.7068 136.872 53.0711 137.412C53.4411 137.948 53.626 138.559 53.626 139.248C53.626 139.92 53.4154 140.503 52.9942 140.998C52.573 141.488 52.0067 141.829 51.2952 142.023V142.049C52.1319 142.179 52.795 142.521 53.2845 143.073C53.774 143.625 54.0188 144.277 54.0188 145.028C54.0188 145.768 53.8224 146.423 53.4297 146.992C53.0369 147.561 52.4962 148.008 51.8075 148.333C51.1244 148.657 50.3446 148.819 49.4681 148.819ZM59.4603 148.794C58.6122 148.794 57.8552 148.626 57.1892 148.29C56.5289 147.948 55.9996 147.482 55.6012 146.89C55.2084 146.292 54.995 145.612 54.9608 144.849H56.8135C56.8705 145.532 57.1437 146.096 57.6332 146.54C58.1284 146.978 58.7403 147.197 59.4688 147.197C60.2373 147.197 60.8577 146.938 61.3301 146.42C61.8082 145.902 62.0473 145.239 62.0473 144.431C62.0473 143.628 61.8168 142.968 61.3557 142.45C60.8947 141.926 60.2942 141.664 59.5542 141.664C58.9053 141.664 58.3475 141.798 57.8808 142.066C57.414 142.327 57.0896 142.709 56.9075 143.21H55.123L55.5414 135.893H63.1487V137.515H57.2404L56.9587 141.263H56.9758C57.7214 140.472 58.6748 140.076 59.836 140.076C60.6101 140.076 61.2988 140.264 61.9022 140.64C62.5112 141.01 62.9893 141.522 63.3365 142.177C63.6894 142.826 63.8659 143.565 63.8659 144.397C63.8659 145.256 63.6809 146.016 63.3109 146.676C62.9466 147.336 62.4344 147.854 61.7741 148.23C61.1138 148.606 60.3426 148.794 59.4603 148.794ZM69.666 148.819C68.6813 148.819 67.8303 148.552 67.1132 148.017C66.4017 147.482 65.8524 146.725 65.4653 145.746C65.0783 144.761 64.8847 143.6 64.8847 142.262C64.8847 140.919 65.0783 139.755 65.4653 138.77C65.8524 137.785 66.4017 137.025 67.1132 136.49C67.8303 135.955 68.6813 135.688 69.666 135.688C70.645 135.688 71.4903 135.955 72.2018 136.49C72.919 137.025 73.4711 137.785 73.8581 138.77C74.2452 139.755 74.4387 140.919 74.4387 142.262C74.4387 143.6 74.2452 144.761 73.8581 145.746C73.4711 146.725 72.919 147.482 72.2018 148.017C71.4903 148.552 70.645 148.819 69.666 148.819ZM69.666 147.205C70.5881 147.205 71.3138 146.767 71.8432 145.891C72.3782 145.008 72.6457 143.799 72.6457 142.262C72.6457 140.72 72.3782 139.507 71.8432 138.625C71.3138 137.743 70.5881 137.301 69.666 137.301C68.7382 137.301 68.0068 137.743 67.4717 138.625C66.9424 139.507 66.6777 140.72 66.6777 142.262C66.6777 143.799 66.9424 145.008 67.4717 145.891C68.0068 146.767 68.7382 147.205 69.666 147.205ZM74.7489 151.099L75.4576 146.736H77.3018L76.0382 151.099H74.7489ZM82.9226 148.819C81.9379 148.819 81.0869 148.552 80.3697 148.017C79.6582 147.482 79.109 146.725 78.7219 145.746C78.3349 144.761 78.1413 143.6 78.1413 142.262C78.1413 140.919 78.3349 139.755 78.7219 138.77C79.109 137.785 79.6582 137.025 80.3697 136.49C81.0869 135.955 81.9379 135.688 82.9226 135.688C83.9016 135.688 84.7469 135.955 85.4584 136.49C86.1755 137.025 86.7277 137.785 87.1147 138.77C87.5018 139.755 87.6953 140.919 87.6953 142.262C87.6953 143.6 87.5018 144.761 87.1147 145.746C86.7277 146.725 86.1755 147.482 85.4584 148.017C84.7469 148.552 83.9016 148.819 82.9226 148.819ZM82.9226 147.205C83.8447 147.205 84.5704 146.767 85.0998 145.891C85.6348 145.008 85.9023 143.799 85.9023 142.262C85.9023 140.72 85.6348 139.507 85.0998 138.625C84.5704 137.743 83.8447 137.301 82.9226 137.301C81.9948 137.301 81.2634 137.743 80.7283 138.625C80.199 139.507 79.9343 140.72 79.9343 142.262C79.9343 143.799 80.199 145.008 80.7283 145.891C81.2634 146.767 81.9948 147.205 82.9226 147.205ZM93.5039 148.819C92.5192 148.819 91.6683 148.552 90.9511 148.017C90.2396 147.482 89.6903 146.725 89.3033 145.746C88.9162 144.761 88.7227 143.6 88.7227 142.262C88.7227 140.919 88.9162 139.755 89.3033 138.77C89.6903 137.785 90.2396 137.025 90.9511 136.49C91.6683 135.955 92.5192 135.688 93.5039 135.688C94.483 135.688 95.3282 135.955 96.0397 136.49C96.7569 137.025 97.309 137.785 97.6961 138.77C98.0831 139.755 98.2767 140.919 98.2767 142.262C98.2767 143.6 98.0831 144.761 97.6961 145.746C97.309 146.725 96.7569 147.482 96.0397 148.017C95.3282 148.552 94.483 148.819 93.5039 148.819ZM93.5039 147.205C94.426 147.205 95.1518 146.767 95.6811 145.891C96.2162 145.008 96.4837 143.799 96.4837 142.262C96.4837 140.72 96.2162 139.507 95.6811 138.625C95.1518 137.743 94.426 137.301 93.5039 137.301C92.5762 137.301 91.8447 137.743 91.3097 138.625C90.7803 139.507 90.5157 140.72 90.5157 142.262C90.5157 143.799 90.7803 145.008 91.3097 145.891C91.8447 146.767 92.5762 147.205 93.5039 147.205ZM104.085 148.819C103.101 148.819 102.25 148.552 101.532 148.017C100.821 147.482 100.272 146.725 99.8846 145.746C99.4976 144.761 99.3041 143.6 99.3041 142.262C99.3041 140.919 99.4976 139.755 99.8846 138.77C100.272 137.785 100.821 137.025 101.532 136.49C102.25 135.955 103.101 135.688 104.085 135.688C105.064 135.688 105.91 135.955 106.621 136.49C107.338 137.025 107.89 137.785 108.277 138.77C108.664 139.755 108.858 140.919 108.858 142.262C108.858 143.6 108.664 144.761 108.277 145.746C107.89 146.725 107.338 147.482 106.621 148.017C105.91 148.552 105.064 148.819 104.085 148.819ZM104.085 147.205C105.007 147.205 105.733 146.767 106.262 145.891C106.798 145.008 107.065 143.799 107.065 142.262C107.065 140.72 106.798 139.507 106.262 138.625C105.733 137.743 105.007 137.301 104.085 137.301C103.158 137.301 102.426 137.743 101.891 138.625C101.362 139.507 101.097 140.72 101.097 142.262C101.097 143.799 101.362 145.008 101.891 145.891C102.426 146.767 103.158 147.205 104.085 147.205ZM110.705 148.759C110.375 148.759 110.093 148.646 109.86 148.418C109.632 148.185 109.518 147.9 109.518 147.564C109.518 147.234 109.632 146.952 109.86 146.719C110.093 146.485 110.375 146.369 110.705 146.369C111.041 146.369 111.323 146.485 111.55 146.719C111.784 146.952 111.9 147.234 111.9 147.564C111.9 147.9 111.784 148.185 111.55 148.418C111.323 148.646 111.041 148.759 110.705 148.759ZM117.342 148.819C116.357 148.819 115.506 148.552 114.789 148.017C114.078 147.482 113.528 146.725 113.141 145.746C112.754 144.761 112.561 143.6 112.561 142.262C112.561 140.919 112.754 139.755 113.141 138.77C113.528 137.785 114.078 137.025 114.789 136.49C115.506 135.955 116.357 135.688 117.342 135.688C118.321 135.688 119.166 135.955 119.878 136.49C120.595 137.025 121.147 137.785 121.534 138.77C121.921 139.755 122.115 140.919 122.115 142.262C122.115 143.6 121.921 144.761 121.534 145.746C121.147 146.725 120.595 147.482 119.878 148.017C119.166 148.552 118.321 148.819 117.342 148.819ZM117.342 147.205C118.264 147.205 118.99 146.767 119.519 145.891C120.054 145.008 120.322 143.799 120.322 142.262C120.322 140.72 120.054 139.507 119.519 138.625C118.99 137.743 118.264 137.301 117.342 137.301C116.414 137.301 115.683 137.743 115.148 138.625C114.618 139.507 114.354 140.72 114.354 142.262C114.354 143.799 114.618 145.008 115.148 145.891C115.683 146.767 116.414 147.205 117.342 147.205ZM127.923 148.819C126.939 148.819 126.088 148.552 125.37 148.017C124.659 147.482 124.11 146.725 123.723 145.746C123.336 144.761 123.142 143.6 123.142 142.262C123.142 140.919 123.336 139.755 123.723 138.77C124.11 137.785 124.659 137.025 125.37 136.49C126.088 135.955 126.939 135.688 127.923 135.688C128.902 135.688 129.748 135.955 130.459 136.49C131.176 137.025 131.728 137.785 132.115 138.77C132.502 139.755 132.696 140.919 132.696 142.262C132.696 143.6 132.502 144.761 132.115 145.746C131.728 146.725 131.176 147.482 130.459 148.017C129.748 148.552 128.902 148.819 127.923 148.819ZM127.923 147.205C128.845 147.205 129.571 146.767 130.1 145.891C130.635 145.008 130.903 143.799 130.903 142.262C130.903 140.72 130.635 139.507 130.1 138.625C129.571 137.743 128.845 137.301 127.923 137.301C126.995 137.301 126.264 137.743 125.729 138.625C125.2 139.507 124.935 140.72 124.935 142.262C124.935 143.799 125.2 145.008 125.729 145.891C126.264 146.767 126.995 147.205 127.923 147.205Z" fill="#212329"/>
</g>
<g filter="url(#filter3_d_15_12120)">
<rect x="10" y="178.629" width="204" height="74.3143" rx="8.74286" fill="white" shape-rendering="crispEdges"/>
<rect x="10.3643" y="178.993" width="203.271" height="73.5857" rx="8.37857" stroke="#E4E7EC" stroke-width="0.728571" shape-rendering="crispEdges"/>
<path d="M24.9771 197.351V196.225H30.8957V197.351H28.6029V203.643H27.2699V197.351H24.9771ZM33.5375 203.752C32.9942 203.752 32.5233 203.632 32.1249 203.393C31.7265 203.154 31.4174 202.82 31.1976 202.39C30.9803 201.96 30.8716 201.458 30.8716 200.883C30.8716 200.308 30.9803 199.805 31.1976 199.373C31.4174 198.94 31.7265 198.605 32.1249 198.366C32.5233 198.127 32.9942 198.007 33.5375 198.007C34.0809 198.007 34.5517 198.127 34.9502 198.366C35.3486 198.605 35.6565 198.94 35.8738 199.373C36.0936 199.805 36.2034 200.308 36.2034 200.883C36.2034 201.458 36.0936 201.96 35.8738 202.39C35.6565 202.82 35.3486 203.154 34.9502 203.393C34.5517 203.632 34.0809 203.752 33.5375 203.752ZM33.5448 202.701C33.8394 202.701 34.0857 202.62 34.2837 202.459C34.4817 202.294 34.629 202.075 34.7256 201.799C34.8246 201.524 34.8741 201.217 34.8741 200.879C34.8741 200.539 34.8246 200.231 34.7256 199.956C34.629 199.678 34.4817 199.457 34.2837 199.293C34.0857 199.129 33.8394 199.047 33.5448 199.047C33.2429 199.047 32.9918 199.129 32.7914 199.293C32.5934 199.457 32.4449 199.678 32.3458 199.956C32.2493 200.231 32.201 200.539 32.201 200.879C32.201 201.217 32.2493 201.524 32.3458 201.799C32.4449 202.075 32.5934 202.294 32.7914 202.459C32.9918 202.62 33.2429 202.701 33.5448 202.701ZM40.0334 198.079V199.094H36.835V198.079H40.0334ZM37.6246 196.746H38.9358V201.97C38.9358 202.146 38.9624 202.281 39.0155 202.375C39.0711 202.467 39.1435 202.53 39.2329 202.564C39.3222 202.597 39.4212 202.614 39.5299 202.614C39.612 202.614 39.6868 202.608 39.7544 202.596C39.8245 202.584 39.8776 202.573 39.9138 202.564L40.1348 203.589C40.0647 203.613 39.9645 203.639 39.8341 203.668C39.7061 203.697 39.5492 203.714 39.3633 203.719C39.0348 203.729 38.739 203.679 38.4758 203.571C38.2126 203.46 38.0037 203.288 37.8492 203.056C37.6971 202.824 37.6222 202.535 37.6246 202.187V196.746ZM42.6698 203.755C42.3172 203.755 41.9997 203.693 41.7171 203.567C41.437 203.439 41.2149 203.251 41.0506 203.002C40.8889 202.753 40.808 202.447 40.808 202.082C40.808 201.768 40.8659 201.508 40.9818 201.303C41.0977 201.098 41.2559 200.934 41.4563 200.811C41.6568 200.687 41.8825 200.594 42.1337 200.532C42.3872 200.466 42.6492 200.419 42.9197 200.39C43.2457 200.357 43.5101 200.326 43.7129 200.3C43.9158 200.271 44.0631 200.227 44.1548 200.169C44.249 200.109 44.2961 200.016 44.2961 199.891V199.869C44.2961 199.596 44.2152 199.385 44.0534 199.235C43.8916 199.085 43.6586 199.01 43.3543 199.01C43.0332 199.01 42.7784 199.08 42.5901 199.22C42.4041 199.36 42.2786 199.526 42.2134 199.717L40.9891 199.543C41.0857 199.205 41.245 198.922 41.4672 198.695C41.6894 198.466 41.961 198.294 42.2822 198.181C42.6033 198.065 42.9583 198.007 43.3471 198.007C43.6151 198.007 43.882 198.038 44.1476 198.101C44.4132 198.164 44.6559 198.268 44.8756 198.413C45.0954 198.555 45.2717 198.75 45.4045 198.996C45.5397 199.242 45.6073 199.55 45.6073 199.919V203.643H44.3468V202.879H44.3033C44.2237 203.033 44.1114 203.178 43.9665 203.313C43.824 203.446 43.6441 203.554 43.4268 203.636C43.2119 203.716 42.9595 203.755 42.6698 203.755ZM43.0102 202.792C43.2734 202.792 43.5016 202.74 43.6948 202.636C43.888 202.53 44.0365 202.39 44.1404 202.216C44.2466 202.042 44.2997 201.853 44.2997 201.647V200.992C44.2587 201.025 44.1886 201.057 44.0896 201.086C43.993 201.115 43.8844 201.14 43.7636 201.162C43.6429 201.184 43.5234 201.203 43.4051 201.22C43.2867 201.237 43.1841 201.251 43.0972 201.263C42.9016 201.29 42.7265 201.333 42.572 201.394C42.4174 201.454 42.2955 201.539 42.2061 201.647C42.1168 201.754 42.0721 201.891 42.0721 202.06C42.0721 202.302 42.1602 202.484 42.3365 202.607C42.5128 202.73 42.7374 202.792 43.0102 202.792ZM48.1758 196.225V203.643H46.8646V196.225H48.1758ZM51.9318 203.643V198.079H53.2431V203.643H51.9318ZM52.5911 197.29C52.3834 197.29 52.2047 197.221 52.055 197.083C51.9053 196.943 51.8304 196.775 51.8304 196.58C51.8304 196.382 51.9053 196.214 52.055 196.076C52.2047 195.936 52.3834 195.866 52.5911 195.866C52.8012 195.866 52.9799 195.936 53.1272 196.076C53.2769 196.214 53.3517 196.382 53.3517 196.58C53.3517 196.775 53.2769 196.943 53.1272 197.083C52.9799 197.221 52.8012 197.29 52.5911 197.29ZM55.8414 200.383V203.643H54.5302V198.079H55.7835V199.025H55.8487C55.9767 198.713 56.1807 198.466 56.4608 198.282C56.7433 198.099 57.0923 198.007 57.5076 198.007C57.8916 198.007 58.226 198.089 58.511 198.253C58.7983 198.417 59.0205 198.655 59.1774 198.967C59.3368 199.278 59.4153 199.656 59.4129 200.101V203.643H58.1017V200.303C58.1017 199.932 58.0051 199.641 57.8119 199.43C57.6211 199.22 57.3567 199.115 57.0186 199.115C56.7892 199.115 56.5852 199.166 56.4065 199.267C56.2302 199.367 56.0914 199.51 55.9899 199.699C55.8909 199.887 55.8414 200.115 55.8414 200.383ZM63.4628 198.079V199.094H60.2645V198.079H63.4628ZM61.0541 196.746H62.3653V201.97C62.3653 202.146 62.3919 202.281 62.445 202.375C62.5005 202.467 62.573 202.53 62.6623 202.564C62.7517 202.597 62.8507 202.614 62.9594 202.614C63.0415 202.614 63.1163 202.608 63.1839 202.596C63.254 202.584 63.3071 202.573 63.3433 202.564L63.5643 203.589C63.4942 203.613 63.394 203.639 63.2636 203.668C63.1356 203.697 62.9787 203.714 62.7927 203.719C62.4643 203.729 62.1685 203.679 61.9053 203.571C61.6421 203.46 61.4332 203.288 61.2787 203.056C61.1265 202.824 61.0517 202.535 61.0541 202.187V196.746ZM66.9015 203.752C66.3437 203.752 65.862 203.636 65.4563 203.404C65.053 203.17 64.7427 202.839 64.5254 202.412C64.3081 201.982 64.1994 201.476 64.1994 200.894C64.1994 200.322 64.3081 199.819 64.5254 199.387C64.7451 198.952 65.0518 198.614 65.4454 198.373C65.839 198.129 66.3015 198.007 66.8327 198.007C67.1756 198.007 67.4992 198.063 67.8035 198.174C68.1101 198.282 68.3806 198.451 68.6148 198.681C68.8515 198.91 69.0374 199.202 69.1726 199.557C69.3079 199.91 69.3755 200.33 69.3755 200.818V201.22H64.8152V200.336H68.1186C68.1162 200.085 68.0618 199.862 67.9556 199.666C67.8493 199.468 67.7008 199.312 67.5101 199.199C67.3217 199.085 67.102 199.028 66.8508 199.028C66.5828 199.028 66.3474 199.094 66.1445 199.224C65.9417 199.352 65.7835 199.521 65.67 199.731C65.5589 199.939 65.5022 200.167 65.4998 200.416V201.187C65.4998 201.511 65.5589 201.789 65.6773 202.02C65.7956 202.25 65.961 202.426 66.1735 202.549C66.386 202.67 66.6347 202.73 66.9197 202.73C67.1104 202.73 67.2831 202.704 67.4376 202.651C67.5922 202.595 67.7262 202.514 67.8397 202.408C67.9532 202.302 68.0389 202.17 68.0969 202.013L69.3211 202.151C69.2439 202.474 69.0966 202.757 68.8792 202.998C68.6643 203.237 68.389 203.423 68.0534 203.556C67.7177 203.687 67.3338 203.752 66.9015 203.752ZM70.4236 203.643V198.079H71.6949V199.007H71.7529C71.8543 198.686 72.0282 198.438 72.2745 198.264C72.5232 198.088 72.8069 198 73.1257 198C73.1981 198 73.279 198.003 73.3684 198.011C73.4601 198.015 73.5362 198.024 73.5966 198.036V199.242C73.541 199.223 73.4529 199.206 73.3322 199.191C73.2138 199.175 73.0991 199.166 72.988 199.166C72.749 199.166 72.5341 199.218 72.3433 199.322C72.155 199.423 72.0064 199.565 71.8978 199.746C71.7891 199.927 71.7348 200.136 71.7348 200.372V203.643H70.4236ZM76.6405 203.752C76.0827 203.752 75.6009 203.636 75.1952 203.404C74.792 203.17 74.4817 202.839 74.2643 202.412C74.047 201.982 73.9383 201.476 73.9383 200.894C73.9383 200.322 74.047 199.819 74.2643 199.387C74.4841 198.952 74.7908 198.614 75.1844 198.373C75.578 198.129 76.0404 198.007 76.5716 198.007C76.9145 198.007 77.2381 198.063 77.5424 198.174C77.8491 198.282 78.1195 198.451 78.3537 198.681C78.5904 198.91 78.7763 199.202 78.9116 199.557C79.0468 199.91 79.1144 200.33 79.1144 200.818V201.22H74.5541V200.336H77.8575C77.8551 200.085 77.8008 199.862 77.6945 199.666C77.5883 199.468 77.4398 199.312 77.249 199.199C77.0606 199.085 76.8409 199.028 76.5898 199.028C76.3217 199.028 76.0863 199.094 75.8834 199.224C75.6806 199.352 75.5224 199.521 75.4089 199.731C75.2979 199.939 75.2411 200.167 75.2387 200.416V201.187C75.2387 201.511 75.2979 201.789 75.4162 202.02C75.5345 202.25 75.6999 202.426 75.9124 202.549C76.1249 202.67 76.3736 202.73 76.6586 202.73C76.8493 202.73 77.022 202.704 77.1765 202.651C77.3311 202.595 77.4651 202.514 77.5786 202.408C77.6921 202.302 77.7778 202.17 77.8358 202.013L79.0601 202.151C78.9828 202.474 78.8355 202.757 78.6182 202.998C78.4033 203.237 78.128 203.423 77.7923 203.556C77.4567 203.687 77.0727 203.752 76.6405 203.752ZM84.5598 199.55L83.3645 199.68C83.3307 199.56 83.2715 199.446 83.187 199.34C83.1049 199.234 82.9938 199.148 82.8538 199.083C82.7137 199.018 82.5422 198.985 82.3394 198.985C82.0665 198.985 81.8371 199.044 81.6512 199.162C81.4677 199.281 81.3771 199.434 81.3795 199.622C81.3771 199.784 81.4363 199.916 81.557 200.017C81.6802 200.119 81.883 200.202 82.1655 200.267L83.1146 200.47C83.641 200.584 84.0322 200.763 84.2881 201.01C84.5465 201.256 84.6769 201.578 84.6793 201.977C84.6769 202.327 84.5743 202.636 84.3714 202.904C84.171 203.17 83.8921 203.377 83.5347 203.527C83.1773 203.677 82.7668 203.752 82.3032 203.752C81.6222 203.752 81.0741 203.609 80.6587 203.324C80.2434 203.037 79.9959 202.637 79.9162 202.125L81.1948 202.002C81.2528 202.253 81.3759 202.443 81.5643 202.571C81.7526 202.699 81.9977 202.763 82.2996 202.763C82.6111 202.763 82.861 202.699 83.0494 202.571C83.2401 202.443 83.3355 202.285 83.3355 202.096C83.3355 201.937 83.2739 201.805 83.1508 201.702C83.03 201.598 82.8417 201.518 82.5857 201.463L81.6367 201.263C81.103 201.152 80.7082 200.965 80.4523 200.702C80.1963 200.436 80.0695 200.101 80.0719 199.695C80.0695 199.352 80.1625 199.055 80.3508 198.804C80.5416 198.55 80.806 198.355 81.1441 198.217C81.4846 198.077 81.877 198.007 82.3213 198.007C82.9733 198.007 83.4864 198.146 83.8607 198.424C84.2374 198.701 84.4704 199.077 84.5598 199.55ZM88.4775 198.079V199.094H85.2792V198.079H88.4775ZM86.0688 196.746H87.38V201.97C87.38 202.146 87.4066 202.281 87.4597 202.375C87.5152 202.467 87.5877 202.53 87.677 202.564C87.7664 202.597 87.8654 202.614 87.9741 202.614C88.0562 202.614 88.131 202.608 88.1986 202.596C88.2687 202.584 88.3218 202.573 88.358 202.564L88.579 203.589C88.5089 203.613 88.4087 203.639 88.2783 203.668C88.1503 203.697 87.9934 203.714 87.8074 203.719C87.479 203.729 87.1832 203.679 86.92 203.571C86.6568 203.46 86.4479 203.288 86.2934 203.056C86.1412 202.824 86.0664 202.535 86.0688 202.187V196.746ZM94.4449 203.752C93.8871 203.752 93.4053 203.636 92.9996 203.404C92.5964 203.17 92.2861 202.839 92.0688 202.412C91.8514 201.982 91.7428 201.476 91.7428 200.894C91.7428 200.322 91.8514 199.819 92.0688 199.387C92.2885 198.952 92.5952 198.614 92.9888 198.373C93.3824 198.129 93.8448 198.007 94.3761 198.007C94.719 198.007 95.0425 198.063 95.3468 198.174C95.6535 198.282 95.9239 198.451 96.1582 198.681C96.3948 198.91 96.5808 199.202 96.716 199.557C96.8512 199.91 96.9188 200.33 96.9188 200.818V201.22H92.3585V200.336H95.6619C95.6595 200.085 95.6052 199.862 95.4989 199.666C95.3927 199.468 95.2442 199.312 95.0534 199.199C94.8651 199.085 94.6453 199.028 94.3942 199.028C94.1261 199.028 93.8907 199.094 93.6879 199.224C93.485 199.352 93.3268 199.521 93.2134 199.731C93.1023 199.939 93.0455 200.167 93.0431 200.416V201.187C93.0431 201.511 93.1023 201.789 93.2206 202.02C93.3389 202.25 93.5043 202.426 93.7168 202.549C93.9293 202.67 94.1781 202.73 94.463 202.73C94.6538 202.73 94.8264 202.704 94.981 202.651C95.1355 202.595 95.2695 202.514 95.383 202.408C95.4965 202.302 95.5822 202.17 95.6402 202.013L96.8645 202.151C96.7872 202.474 96.6399 202.757 96.4226 202.998C96.2077 203.237 95.9324 203.423 95.5967 203.556C95.2611 203.687 94.8771 203.752 94.4449 203.752ZM99.5679 203.755C99.2153 203.755 98.8978 203.693 98.6153 203.567C98.3352 203.439 98.113 203.251 97.9488 203.002C97.787 202.753 97.7061 202.447 97.7061 202.082C97.7061 201.768 97.7641 201.508 97.88 201.303C97.9959 201.098 98.1541 200.934 98.3545 200.811C98.5549 200.687 98.7807 200.594 99.0318 200.532C99.2854 200.466 99.5474 200.419 99.8178 200.39C100.144 200.357 100.408 200.326 100.611 200.3C100.814 200.271 100.961 200.227 101.053 200.169C101.147 200.109 101.194 200.016 101.194 199.891V199.869C101.194 199.596 101.113 199.385 100.952 199.235C100.79 199.085 100.557 199.01 100.252 199.01C99.9313 199.01 99.6766 199.08 99.4882 199.22C99.3023 199.36 99.1767 199.526 99.1115 199.717L97.8872 199.543C97.9838 199.205 98.1432 198.922 98.3653 198.695C98.5875 198.466 98.8592 198.294 99.1803 198.181C99.5015 198.065 99.8565 198.007 100.245 198.007C100.513 198.007 100.78 198.038 101.046 198.101C101.311 198.164 101.554 198.268 101.774 198.413C101.994 198.555 102.17 198.75 102.303 198.996C102.438 199.242 102.505 199.55 102.505 199.919V203.643H101.245V202.879H101.201C101.122 203.033 101.01 203.178 100.865 203.313C100.722 203.446 100.542 203.554 100.325 203.636C100.11 203.716 99.8577 203.755 99.5679 203.755ZM99.9084 202.792C100.172 202.792 100.4 202.74 100.593 202.636C100.786 202.53 100.935 202.39 101.039 202.216C101.145 202.042 101.198 201.853 101.198 201.647V200.992C101.157 201.025 101.087 201.057 100.988 201.086C100.891 201.115 100.783 201.14 100.662 201.162C100.541 201.184 100.422 201.203 100.303 201.22C100.185 201.237 100.082 201.251 99.9953 201.263C99.7997 201.29 99.6247 201.333 99.4701 201.394C99.3156 201.454 99.1936 201.539 99.1043 201.647C99.0149 201.754 98.9702 201.891 98.9702 202.06C98.9702 202.302 99.0584 202.484 99.2347 202.607C99.4109 202.73 99.6355 202.792 99.9084 202.792ZM103.763 203.643V198.079H105.034V199.007H105.092C105.193 198.686 105.367 198.438 105.614 198.264C105.862 198.088 106.146 198 106.465 198C106.537 198 106.618 198.003 106.708 198.011C106.799 198.015 106.875 198.024 106.936 198.036V199.242C106.88 199.223 106.792 199.206 106.671 199.191C106.553 199.175 106.438 199.166 106.327 199.166C106.088 199.166 105.873 199.218 105.682 199.322C105.494 199.423 105.346 199.565 105.237 199.746C105.128 199.927 105.074 200.136 105.074 200.372V203.643H103.763ZM109.057 200.383V203.643H107.746V198.079H108.999V199.025H109.064C109.192 198.713 109.396 198.466 109.676 198.282C109.959 198.099 110.308 198.007 110.723 198.007C111.107 198.007 111.441 198.089 111.726 198.253C112.014 198.417 112.236 198.655 112.393 198.967C112.552 199.278 112.631 199.656 112.628 200.101V203.643H111.317V200.303C111.317 199.932 111.221 199.641 111.027 199.43C110.837 199.22 110.572 199.115 110.234 199.115C110.005 199.115 109.801 199.166 109.622 199.267C109.446 199.367 109.307 199.51 109.205 199.699C109.106 199.887 109.057 200.115 109.057 200.383ZM116.363 203.752C115.805 203.752 115.324 203.636 114.918 203.404C114.515 203.17 114.204 202.839 113.987 202.412C113.77 201.982 113.661 201.476 113.661 200.894C113.661 200.322 113.77 199.819 113.987 199.387C114.207 198.952 114.513 198.614 114.907 198.373C115.301 198.129 115.763 198.007 116.294 198.007C116.637 198.007 116.961 198.063 117.265 198.174C117.572 198.282 117.842 198.451 118.076 198.681C118.313 198.91 118.499 199.202 118.634 199.557C118.769 199.91 118.837 200.33 118.837 200.818V201.22H114.277V200.336H117.58C117.578 200.085 117.523 199.862 117.417 199.666C117.311 199.468 117.162 199.312 116.972 199.199C116.783 199.085 116.564 199.028 116.312 199.028C116.044 199.028 115.809 199.094 115.606 199.224C115.403 199.352 115.245 199.521 115.132 199.731C115.021 199.939 114.964 200.167 114.961 200.416V201.187C114.961 201.511 115.021 201.789 115.139 202.02C115.257 202.25 115.423 202.426 115.635 202.549C115.848 202.67 116.096 202.73 116.381 202.73C116.572 202.73 116.745 202.704 116.899 202.651C117.054 202.595 117.188 202.514 117.301 202.408C117.415 202.302 117.501 202.17 117.558 202.013L118.783 202.151C118.705 202.474 118.558 202.757 118.341 202.998C118.126 203.237 117.851 203.423 117.515 203.556C117.179 203.687 116.795 203.752 116.363 203.752ZM121.95 203.741C121.513 203.741 121.122 203.629 120.776 203.404C120.431 203.179 120.158 202.853 119.958 202.426C119.757 201.999 119.657 201.479 119.657 200.868C119.657 200.25 119.758 199.729 119.961 199.304C120.167 198.876 120.443 198.554 120.791 198.337C121.138 198.117 121.526 198.007 121.953 198.007C122.279 198.007 122.547 198.063 122.758 198.174C122.968 198.282 123.134 198.414 123.257 198.568C123.381 198.721 123.476 198.864 123.544 198.999H123.598V196.225H124.913V203.643H123.623V202.767H123.544C123.476 202.902 123.378 203.045 123.25 203.198C123.122 203.347 122.953 203.475 122.743 203.581C122.533 203.688 122.269 203.741 121.95 203.741ZM122.316 202.665C122.593 202.665 122.83 202.59 123.026 202.441C123.221 202.288 123.37 202.077 123.471 201.807C123.573 201.536 123.623 201.221 123.623 200.861C123.623 200.501 123.573 200.189 123.471 199.923C123.372 199.657 123.225 199.451 123.029 199.304C122.836 199.156 122.598 199.083 122.316 199.083C122.023 199.083 121.78 199.159 121.584 199.311C121.388 199.463 121.241 199.673 121.142 199.941C121.043 200.209 120.994 200.516 120.994 200.861C120.994 201.209 121.043 201.519 121.142 201.792C121.244 202.063 121.392 202.276 121.588 202.433C121.786 202.588 122.028 202.665 122.316 202.665Z" fill="#576072"/>
<path d="M29.9162 233.134C28.977 233.134 28.163 232.949 27.4743 232.579C26.7913 232.209 26.2619 231.702 25.8863 231.059C25.5106 230.416 25.3228 229.684 25.3228 228.865H27.1926C27.1926 229.713 27.4288 230.373 27.9012 230.845C28.3793 231.318 29.0396 231.554 29.882 231.554C30.6903 231.554 31.3448 231.349 31.8457 230.939C32.3523 230.53 32.6056 229.98 32.6056 229.292C32.6056 228.66 32.3353 228.153 31.7945 227.772C31.2595 227.385 30.5537 227.191 29.6771 227.191H28.6184V225.646H29.6771C30.4512 225.646 31.0745 225.469 31.5469 225.116C32.025 224.764 32.2641 224.294 32.2641 223.708C32.2641 223.047 32.0421 222.527 31.5981 222.145C31.1542 221.764 30.5679 221.573 29.8393 221.573C29.088 221.573 28.4932 221.784 28.0549 222.205C27.6223 222.626 27.406 223.207 27.406 223.947H25.5874C25.5874 223.178 25.7667 222.498 26.1253 221.906C26.4839 221.309 26.982 220.842 27.6195 220.506C28.257 220.17 28.9998 220.002 29.8479 220.002C30.6561 220.002 31.379 220.156 32.0165 220.463C32.654 220.765 33.1549 221.186 33.5192 221.727C33.8892 222.262 34.0741 222.874 34.0741 223.563C34.0741 224.234 33.8635 224.818 33.4423 225.313C33.0211 225.802 32.4548 226.144 31.7433 226.337V226.363C32.58 226.494 33.2431 226.835 33.7326 227.388C34.2221 227.94 34.4669 228.591 34.4669 229.343C34.4669 230.083 34.2705 230.737 33.8778 231.307C33.485 231.876 32.9443 232.323 32.2556 232.647C31.5725 232.971 30.7927 233.134 29.9162 233.134Z" fill="#212329"/>
<path d="M40.9861 226.72C40.9861 225.812 41.1056 224.976 41.3446 224.213C41.5837 223.45 41.9326 222.746 42.3915 222.101H43.3839C43.2052 222.34 43.0386 222.634 42.8841 222.982C42.7295 223.329 42.5943 223.711 42.4784 224.126C42.3625 224.539 42.2719 224.968 42.2067 225.412C42.1415 225.854 42.1089 226.29 42.1089 226.72C42.1089 227.294 42.1657 227.876 42.2792 228.466C42.3927 229.055 42.546 229.602 42.7392 230.106C42.9324 230.611 43.1473 231.023 43.3839 231.341H42.3915C41.9326 230.697 41.5837 229.993 41.3446 229.23C41.1056 228.467 40.9861 227.63 40.9861 226.72ZM49.4922 230.429H44.4211V229.465H49.4922V230.429ZM47.9709 227.524H44.3958V226.56H47.9709V227.524ZM46.2141 225.206L46.33 228.331C46.3445 228.643 46.3047 228.922 46.2105 229.168C46.1163 229.412 45.9461 229.606 45.6998 229.751L44.7725 229.465C44.9029 229.458 45.0031 229.392 45.0731 229.266C45.1432 229.14 45.1902 228.993 45.2144 228.824C45.2385 228.653 45.2482 228.498 45.2434 228.36L45.1383 225.206C45.119 224.698 45.2132 224.275 45.4209 223.934C45.6309 223.594 45.9098 223.338 46.2576 223.166C46.6053 222.995 46.9796 222.909 47.3804 222.909C47.7378 222.909 48.059 222.968 48.3439 223.087C48.6313 223.205 48.8728 223.367 49.0684 223.572C49.2664 223.775 49.4076 224.007 49.4922 224.267C49.5767 224.528 49.5936 224.802 49.5429 225.09L48.4961 224.923C48.5202 224.686 48.4828 224.49 48.3838 224.333C48.2848 224.176 48.1483 224.057 47.9745 223.978C47.8006 223.898 47.6159 223.858 47.4203 223.858C47.215 223.858 47.0194 223.906 46.8335 224.003C46.65 224.1 46.5003 224.247 46.3844 224.445C46.2709 224.643 46.2141 224.896 46.2141 225.206ZM53.7776 223.011V230.429H52.6547V224.133H52.6112L50.8364 225.292V224.22L52.6873 223.011H53.7776ZM56.7182 229.415L56.6639 229.809C56.6277 230.099 56.5661 230.401 56.4792 230.715C56.3946 231.031 56.3065 231.325 56.2147 231.595C56.1254 231.866 56.0517 232.08 55.9938 232.24H55.2259C55.2573 232.09 55.3007 231.887 55.3563 231.631C55.4118 231.378 55.4662 231.094 55.5193 230.78C55.5724 230.466 55.6123 230.146 55.6388 229.82L55.675 229.415H56.7182ZM60.501 230.53C60.0471 230.53 59.639 230.443 59.2767 230.269C58.9169 230.093 58.6296 229.852 58.4147 229.545C58.1998 229.238 58.0851 228.888 58.0706 228.494H59.1572C59.1838 228.813 59.325 229.075 59.581 229.28C59.837 229.486 60.1436 229.588 60.501 229.588C60.786 229.588 61.0383 229.523 61.2581 229.393C61.4802 229.26 61.6541 229.078 61.7797 228.846C61.9076 228.614 61.9716 228.35 61.9716 228.053C61.9716 227.751 61.9064 227.481 61.776 227.245C61.6456 227.008 61.4657 226.822 61.2363 226.687C61.0093 226.552 60.7485 226.483 60.4539 226.481C60.2294 226.481 60.0036 226.519 59.7766 226.596C59.5496 226.674 59.3661 226.775 59.226 226.901L58.201 226.749L58.6175 223.011H62.6961V223.97H59.5484L59.313 226.046H59.3564C59.5013 225.906 59.6933 225.789 59.9324 225.695C60.1738 225.6 60.4322 225.553 60.7075 225.553C61.1591 225.553 61.5611 225.661 61.9137 225.876C62.2686 226.091 62.5476 226.384 62.7504 226.756C62.9557 227.125 63.0571 227.55 63.0547 228.031C63.0571 228.511 62.9484 228.94 62.7287 229.317C62.5113 229.693 62.2095 229.99 61.8231 230.208C61.4392 230.423 60.9985 230.53 60.501 230.53ZM66.8991 230.552C66.3267 230.549 65.8378 230.399 65.4321 230.099C65.0264 229.8 64.7161 229.364 64.5012 228.791C64.2863 228.219 64.1788 227.53 64.1788 226.723C64.1788 225.919 64.2863 225.232 64.5012 224.662C64.7185 224.092 65.03 223.658 65.4357 223.358C65.8438 223.059 66.3316 222.909 66.8991 222.909C67.4665 222.909 67.9531 223.06 68.3588 223.362C68.7645 223.661 69.0748 224.096 69.2897 224.666C69.507 225.233 69.6157 225.919 69.6157 226.723C69.6157 227.532 69.5082 228.223 69.2933 228.795C69.0784 229.365 68.7681 229.801 68.3624 230.103C67.9567 230.402 67.4689 230.552 66.8991 230.552ZM66.8991 229.585C67.4013 229.585 67.7937 229.34 68.0763 228.849C68.3612 228.359 68.5037 227.651 68.5037 226.723C68.5037 226.107 68.4385 225.587 68.3081 225.162C68.1801 224.735 67.9954 224.411 67.7539 224.191C67.5148 223.969 67.2299 223.858 66.8991 223.858C66.3992 223.858 66.0068 224.104 65.7218 224.597C65.4369 225.09 65.2932 225.798 65.2908 226.723C65.2908 227.341 65.3548 227.864 65.4828 228.292C65.6132 228.717 65.7979 229.039 66.037 229.259C66.276 229.476 66.5634 229.585 66.8991 229.585ZM73.422 230.552C72.8497 230.549 72.3607 230.399 71.9551 230.099C71.5494 229.8 71.2391 229.364 71.0242 228.791C70.8092 228.219 70.7018 227.53 70.7018 226.723C70.7018 225.919 70.8092 225.232 71.0242 224.662C71.2415 224.092 71.553 223.658 71.9587 223.358C72.3668 223.059 72.8546 222.909 73.422 222.909C73.9895 222.909 74.4761 223.06 74.8818 223.362C75.2874 223.661 75.5977 224.096 75.8127 224.666C76.03 225.233 76.1386 225.919 76.1386 226.723C76.1386 227.532 76.0312 228.223 75.8163 228.795C75.6014 229.365 75.2911 229.801 74.8854 230.103C74.4797 230.402 73.9919 230.552 73.422 230.552ZM73.422 229.585C73.9243 229.585 74.3167 229.34 74.5992 228.849C74.8842 228.359 75.0266 227.651 75.0266 226.723C75.0266 226.107 74.9614 225.587 74.8311 225.162C74.7031 224.735 74.5183 224.411 74.2769 224.191C74.0378 223.969 73.7529 223.858 73.422 223.858C72.9222 223.858 72.5298 224.104 72.2448 224.597C71.9599 225.09 71.8162 225.798 71.8138 226.723C71.8138 227.341 71.8778 227.864 72.0058 228.292C72.1362 228.717 72.3209 229.039 72.56 229.259C72.799 229.476 73.0864 229.585 73.422 229.585ZM78.517 229.415L78.4626 229.809C78.4264 230.099 78.3648 230.401 78.2779 230.715C78.1934 231.031 78.1053 231.325 78.0135 231.595C77.9241 231.866 77.8505 232.08 77.7925 232.24H77.0246C77.056 232.09 77.0995 231.887 77.155 231.631C77.2106 231.378 77.2649 231.094 77.318 230.78C77.3712 230.466 77.411 230.146 77.4376 229.82L77.4738 229.415H78.517ZM82.2844 230.552C81.7121 230.549 81.2231 230.399 80.8174 230.099C80.4117 229.8 80.1014 229.364 79.8865 228.791C79.6716 228.219 79.5642 227.53 79.5642 226.723C79.5642 225.919 79.6716 225.232 79.8865 224.662C80.1039 224.092 80.4154 223.658 80.821 223.358C81.2291 223.059 81.7169 222.909 82.2844 222.909C82.8519 222.909 83.3384 223.06 83.7441 223.362C84.1498 223.661 84.4601 224.096 84.675 224.666C84.8924 225.233 85.001 225.919 85.001 226.723C85.001 227.532 84.8936 228.223 84.6786 228.795C84.4637 229.365 84.1534 229.801 83.7477 230.103C83.3421 230.402 82.8543 230.552 82.2844 230.552ZM82.2844 229.585C82.7867 229.585 83.1791 229.34 83.4616 228.849C83.7465 228.359 83.889 227.651 83.889 226.723C83.889 226.107 83.8238 225.587 83.6934 225.162C83.5654 224.735 83.3807 224.411 83.1392 224.191C82.9002 223.969 82.6152 223.858 82.2844 223.858C81.7845 223.858 81.3921 224.104 81.1072 224.597C80.8223 225.09 80.6786 225.798 80.6762 226.723C80.6762 227.341 80.7401 227.864 80.8681 228.292C80.9985 228.717 81.1833 229.039 81.4223 229.259C81.6614 229.476 81.9487 229.585 82.2844 229.585ZM88.8074 230.552C88.2351 230.549 87.7461 230.399 87.3404 230.099C86.9347 229.8 86.6244 229.364 86.4095 228.791C86.1946 228.219 86.0871 227.53 86.0871 226.723C86.0871 225.919 86.1946 225.232 86.4095 224.662C86.6268 224.092 86.9383 223.658 87.344 223.358C87.7521 223.059 88.2399 222.909 88.8074 222.909C89.3748 222.909 89.8614 223.06 90.2671 223.362C90.6728 223.661 90.9831 224.096 91.198 224.666C91.4153 225.233 91.524 225.919 91.524 226.723C91.524 227.532 91.4165 228.223 91.2016 228.795C90.9867 229.365 90.6764 229.801 90.2707 230.103C89.865 230.402 89.3773 230.552 88.8074 230.552ZM88.8074 229.585C89.3096 229.585 89.702 229.34 89.9846 228.849C90.2695 228.359 90.412 227.651 90.412 226.723C90.412 226.107 90.3468 225.587 90.2164 225.162C90.0884 224.735 89.9037 224.411 89.6622 224.191C89.4231 223.969 89.1382 223.858 88.8074 223.858C88.3075 223.858 87.9151 224.104 87.6302 224.597C87.3452 225.09 87.2016 225.798 87.1991 226.723C87.1991 227.341 87.2631 227.864 87.3911 228.292C87.5215 228.717 87.7062 229.039 87.9453 229.259C88.1844 229.476 88.4717 229.585 88.8074 229.585ZM95.3304 230.552C94.7581 230.549 94.2691 230.399 93.8634 230.099C93.4577 229.8 93.1474 229.364 92.9325 228.791C92.7176 228.219 92.6101 227.53 92.6101 226.723C92.6101 225.919 92.7176 225.232 92.9325 224.662C93.1498 224.092 93.4613 223.658 93.867 223.358C94.2751 223.059 94.7629 222.909 95.3304 222.909C95.8978 222.909 96.3844 223.06 96.7901 223.362C97.1958 223.661 97.5061 224.096 97.721 224.666C97.9383 225.233 98.047 225.919 98.047 226.723C98.047 227.532 97.9395 228.223 97.7246 228.795C97.5097 229.365 97.1994 229.801 96.7937 230.103C96.388 230.402 95.9002 230.552 95.3304 230.552ZM95.3304 229.585C95.8326 229.585 96.225 229.34 96.5076 228.849C96.7925 228.359 96.935 227.651 96.935 226.723C96.935 226.107 96.8698 225.587 96.7394 225.162C96.6114 224.735 96.4267 224.411 96.1852 224.191C95.9461 223.969 95.6612 223.858 95.3304 223.858C94.8305 223.858 94.4381 224.104 94.1532 224.597C93.8682 225.09 93.7245 225.798 93.7221 226.723C93.7221 227.341 93.7861 227.864 93.9141 228.292C94.0445 228.717 94.2292 229.039 94.4683 229.259C94.7073 229.476 94.9947 229.585 95.3304 229.585ZM99.7298 230.498C99.5318 230.498 99.3616 230.428 99.2191 230.287C99.0766 230.145 99.0054 229.974 99.0054 229.773C99.0054 229.575 99.0766 229.406 99.2191 229.266C99.3616 229.124 99.5318 229.052 99.7298 229.052C99.9279 229.052 100.098 229.124 100.241 229.266C100.383 229.406 100.454 229.575 100.454 229.773C100.454 229.906 100.42 230.028 100.353 230.139C100.288 230.248 100.201 230.335 100.092 230.4C99.9834 230.465 99.8627 230.498 99.7298 230.498ZM104.143 230.552C103.571 230.549 103.082 230.399 102.676 230.099C102.27 229.8 101.96 229.364 101.745 228.791C101.53 228.219 101.423 227.53 101.423 226.723C101.423 225.919 101.53 225.232 101.745 224.662C101.962 224.092 102.274 223.658 102.68 223.358C103.088 223.059 103.575 222.909 104.143 222.909C104.71 222.909 105.197 223.06 105.603 223.362C106.008 223.661 106.319 224.096 106.534 224.666C106.751 225.233 106.86 225.919 106.86 226.723C106.86 227.532 106.752 228.223 106.537 228.795C106.322 229.365 106.012 229.801 105.606 230.103C105.201 230.402 104.713 230.552 104.143 230.552ZM104.143 229.585C104.645 229.585 105.038 229.34 105.32 228.849C105.605 228.359 105.748 227.651 105.748 226.723C105.748 226.107 105.682 225.587 105.552 225.162C105.424 224.735 105.239 224.411 104.998 224.191C104.759 223.969 104.474 223.858 104.143 223.858C103.643 223.858 103.251 224.104 102.966 224.597C102.681 225.09 102.537 225.798 102.535 226.723C102.535 227.341 102.599 227.864 102.727 228.292C102.857 228.717 103.042 229.039 103.281 229.259C103.52 229.476 103.807 229.585 104.143 229.585ZM110.666 230.552C110.094 230.549 109.605 230.399 109.199 230.099C108.793 229.8 108.483 229.364 108.268 228.791C108.053 228.219 107.946 227.53 107.946 226.723C107.946 225.919 108.053 225.232 108.268 224.662C108.485 224.092 108.797 223.658 109.203 223.358C109.611 223.059 110.098 222.909 110.666 222.909C111.233 222.909 111.72 223.06 112.126 223.362C112.531 223.661 112.842 224.096 113.057 224.666C113.274 225.233 113.383 225.919 113.383 226.723C113.383 227.532 113.275 228.223 113.06 228.795C112.845 229.365 112.535 229.801 112.129 230.103C111.724 230.402 111.236 230.552 110.666 230.552ZM110.666 229.585C111.168 229.585 111.561 229.34 111.843 228.849C112.128 228.359 112.271 227.651 112.271 226.723C112.271 226.107 112.205 225.587 112.075 225.162C111.947 224.735 111.762 224.411 111.521 224.191C111.282 223.969 110.997 223.858 110.666 223.858C110.166 223.858 109.774 224.104 109.489 224.597C109.204 225.09 109.06 225.798 109.058 226.723C109.058 227.341 109.122 227.864 109.25 228.292C109.38 228.717 109.565 229.039 109.804 229.259C110.043 229.476 110.33 229.585 110.666 229.585ZM116.704 226.72C116.704 227.63 116.584 228.467 116.345 229.23C116.106 229.993 115.757 230.697 115.298 231.341H114.306C114.484 231.102 114.651 230.809 114.805 230.461C114.96 230.114 115.095 229.733 115.211 229.32C115.327 228.905 115.418 228.475 115.483 228.031C115.548 227.587 115.581 227.149 115.581 226.72C115.581 226.147 115.524 225.567 115.41 224.977C115.297 224.388 115.144 223.841 114.95 223.337C114.757 222.832 114.542 222.42 114.306 222.101H115.298C115.757 222.746 116.106 223.45 116.345 224.213C116.584 224.976 116.704 225.812 116.704 226.72Z" fill="#576072"/>
</g>
</g>
<defs>
<clipPath id="bgblur_0_15_12120_clip_path" transform="translate(20 20)"><rect width="224" height="262.943" rx="10"/>
</clipPath><filter id="filter1_d_15_12120" x="5.62857" y="8.54286" width="212.743" height="83.0571" filterUnits="userSpaceOnUse" color-interpolation-filters="sRGB">
<feFlood flood-opacity="0" result="BackgroundImageFix"/>
<feColorMatrix in="SourceAlpha" type="matrix" values="0 0 0 0 0 0 0 0 0 0 0 0 0 0 0 0 0 0 127 0" result="hardAlpha"/>
<feMorphology radius="1.45714" operator="erode" in="SourceAlpha" result="effect1_dropShadow_15_12120"/>
<feOffset dy="2.91429"/>
<feGaussianBlur stdDeviation="2.91429"/>
<feComposite in2="hardAlpha" operator="out"/>
<feColorMatrix type="matrix" values="0 0 0 0 0.0666667 0 0 0 0 0.0941176 0 0 0 0 0.152941 0 0 0 0.04 0"/>
<feBlend mode="normal" in2="BackgroundImageFix" result="effect1_dropShadow_15_12120"/>
<feBlend mode="normal" in="SourceGraphic" in2="effect1_dropShadow_15_12120" result="shape"/>
</filter>
<filter id="filter2_d_15_12120" x="5.62857" y="92.8571" width="212.743" height="83.0571" filterUnits="userSpaceOnUse" color-interpolation-filters="sRGB">
<feFlood flood-opacity="0" result="BackgroundImageFix"/>
<feColorMatrix in="SourceAlpha" type="matrix" values="0 0 0 0 0 0 0 0 0 0 0 0 0 0 0 0 0 0 127 0" result="hardAlpha"/>
<feMorphology radius="1.45714" operator="erode" in="SourceAlpha" result="effect1_dropShadow_15_12120"/>
<feOffset dy="2.91429"/>
<feGaussianBlur stdDeviation="2.91429"/>
<feComposite in2="hardAlpha" operator="out"/>
<feColorMatrix type="matrix" values="0 0 0 0 0.0666667 0 0 0 0 0.0941176 0 0 0 0 0.152941 0 0 0 0.04 0"/>
<feBlend mode="normal" in2="BackgroundImageFix" result="effect1_dropShadow_15_12120"/>
<feBlend mode="normal" in="SourceGraphic" in2="effect1_dropShadow_15_12120" result="shape"/>
</filter>
<filter id="filter3_d_15_12120" x="5.62857" y="177.172" width="212.743" height="83.0571" filterUnits="userSpaceOnUse" color-interpolation-filters="sRGB">
<feFlood flood-opacity="0" result="BackgroundImageFix"/>
<feColorMatrix in="SourceAlpha" type="matrix" values="0 0 0 0 0 0 0 0 0 0 0 0 0 0 0 0 0 0 127 0" result="hardAlpha"/>
<feMorphology radius="1.45714" operator="erode" in="SourceAlpha" result="effect1_dropShadow_15_12120"/>
<feOffset dy="2.91429"/>
<feGaussianBlur stdDeviation="2.91429"/>
<feComposite in2="hardAlpha" operator="out"/>
<feColorMatrix type="matrix" values="0 0 0 0 0.0666667 0 0 0 0 0.0941176 0 0 0 0 0.152941 0 0 0 0.04 0"/>
<feBlend mode="normal" in2="BackgroundImageFix" result="effect1_dropShadow_15_12120"/>
<feBlend mode="normal" in="SourceGraphic" in2="effect1_dropShadow_15_12120" result="shape"/>
</filter>
</defs>
</svg>
