<svg width="280" height="102" viewBox="0 0 280 102" fill="none" xmlns="http://www.w3.org/2000/svg">
<rect x="0.5" y="0.5" width="279" height="101" rx="11.5" fill="white"/>
<rect x="0.5" y="0.5" width="279" height="101" rx="11.5" stroke="#E4E7EC"/>
<path d="M20.5568 26.3643V24.8182H28.6804V26.3643H25.5334V35H23.7038V26.3643H20.5568ZM32.3064 35.1491C31.5607 35.1491 30.9144 34.9851 30.3675 34.657C29.8207 34.3288 29.3964 33.8698 29.0948 33.2798C28.7965 32.6899 28.6474 32.0005 28.6474 31.2116C28.6474 30.4228 28.7965 29.7318 29.0948 29.1385C29.3964 28.5452 29.8207 28.0845 30.3675 27.7564C30.9144 27.4283 31.5607 27.2642 32.3064 27.2642C33.0522 27.2642 33.6985 27.4283 34.2454 27.7564C34.7922 28.0845 35.2148 28.5452 35.5131 29.1385C35.8147 29.7318 35.9655 30.4228 35.9655 31.2116C35.9655 32.0005 35.8147 32.6899 35.5131 33.2798C35.2148 33.8698 34.7922 34.3288 34.2454 34.657C33.6985 34.9851 33.0522 35.1491 32.3064 35.1491ZM32.3164 33.7074C32.7207 33.7074 33.0588 33.5964 33.3306 33.3743C33.6024 33.1489 33.8046 32.8473 33.9371 32.4695C34.073 32.0916 34.141 31.6707 34.141 31.2067C34.141 30.7393 34.073 30.3168 33.9371 29.9389C33.8046 29.5578 33.6024 29.2545 33.3306 29.0291C33.0588 28.8037 32.7207 28.6911 32.3164 28.6911C31.9021 28.6911 31.5574 28.8037 31.2823 29.0291C31.0105 29.2545 30.8067 29.5578 30.6708 29.9389C30.5382 30.3168 30.4719 30.7393 30.4719 31.2067C30.4719 31.6707 30.5382 32.0916 30.6708 32.4695C30.8067 32.8473 31.0105 33.1489 31.2823 33.3743C31.5574 33.5964 31.9021 33.7074 32.3164 33.7074ZM41.2223 27.3636V28.7557H36.8324V27.3636H41.2223ZM37.9162 25.5341H39.7159V32.7031C39.7159 32.9451 39.7523 33.1307 39.8253 33.2599C39.9015 33.3859 40.0009 33.4721 40.1235 33.5185C40.2462 33.5649 40.3821 33.5881 40.5312 33.5881C40.6439 33.5881 40.7467 33.5798 40.8395 33.5632C40.9356 33.5466 41.0085 33.5317 41.0582 33.5185L41.3615 34.9254C41.2654 34.9586 41.1278 34.995 40.9488 35.0348C40.7732 35.0746 40.5577 35.0978 40.3025 35.1044C39.8518 35.1177 39.4458 35.0497 39.0845 34.9006C38.7232 34.7481 38.4365 34.5128 38.2244 34.1946C38.0156 33.8764 37.9128 33.4787 37.9162 33.0014V25.5341ZM44.8409 35.1541C44.357 35.1541 43.9211 35.0679 43.5333 34.8956C43.1489 34.7199 42.8439 34.4614 42.6186 34.12C42.3965 33.7786 42.2855 33.3577 42.2855 32.8572C42.2855 32.4264 42.365 32.0701 42.5241 31.7884C42.6832 31.5066 42.9003 31.2812 43.1754 31.1122C43.4505 30.9432 43.7604 30.8156 44.1051 30.7294C44.4531 30.6399 44.8127 30.5753 45.1839 30.5355C45.6313 30.4891 45.9943 30.4477 46.2727 30.4112C46.5511 30.3714 46.7533 30.3118 46.8792 30.2322C47.0085 30.1494 47.0731 30.0218 47.0731 29.8494V29.8196C47.0731 29.4451 46.9621 29.1551 46.74 28.9496C46.5179 28.7441 46.1981 28.6413 45.7805 28.6413C45.3397 28.6413 44.99 28.7375 44.7315 28.9297C44.4763 29.1219 44.3039 29.349 44.2144 29.6108L42.534 29.3722C42.6666 28.9081 42.8854 28.5204 43.1903 28.2088C43.4952 27.8939 43.8681 27.6586 44.3089 27.5028C44.7497 27.3438 45.2369 27.2642 45.7705 27.2642C46.1384 27.2642 46.5047 27.3073 46.8693 27.3935C47.2339 27.4796 47.567 27.6222 47.8686 27.821C48.1702 28.0166 48.4121 28.2834 48.5944 28.6214C48.78 28.9595 48.8728 29.3821 48.8728 29.8892V35H47.1427V33.951H47.083C46.9737 34.1631 46.8196 34.362 46.6207 34.5476C46.4251 34.7299 46.1782 34.8774 45.8799 34.9901C45.5849 35.0994 45.2386 35.1541 44.8409 35.1541ZM45.3082 33.8317C45.6695 33.8317 45.9827 33.7604 46.2478 33.6179C46.513 33.4721 46.7168 33.2798 46.8593 33.0412C47.0052 32.8026 47.0781 32.5424 47.0781 32.2607V31.3608C47.0217 31.4072 46.9256 31.4503 46.7897 31.4901C46.6571 31.5298 46.508 31.5646 46.3423 31.5945C46.1766 31.6243 46.0125 31.6508 45.8501 31.674C45.6877 31.6972 45.5468 31.7171 45.4275 31.7337C45.159 31.7701 44.9187 31.8298 44.7066 31.9126C44.4945 31.9955 44.3271 32.1115 44.2045 32.2607C44.0819 32.4065 44.0205 32.5954 44.0205 32.8274C44.0205 33.1589 44.1415 33.4091 44.3835 33.5781C44.6254 33.7472 44.9337 33.8317 45.3082 33.8317ZM52.3982 24.8182V35H50.5985V24.8182H52.3982ZM57.5535 35V27.3636H59.3532V35H57.5535ZM58.4584 26.2798C58.1733 26.2798 57.9281 26.1854 57.7226 25.9964C57.5171 25.8042 57.4143 25.5739 57.4143 25.3054C57.4143 25.0336 57.5171 24.8033 57.7226 24.6143C57.9281 24.4221 58.1733 24.326 58.4584 24.326C58.7467 24.326 58.992 24.4221 59.1942 24.6143C59.3996 24.8033 59.5024 25.0336 59.5024 25.3054C59.5024 25.5739 59.3996 25.8042 59.1942 25.9964C58.992 26.1854 58.7467 26.2798 58.4584 26.2798ZM62.9196 30.5256V35H61.1199V27.3636H62.8401V28.6612H62.9296C63.1052 28.2337 63.3853 27.8939 63.7698 27.642C64.1576 27.3902 64.6365 27.2642 65.2066 27.2642C65.7336 27.2642 66.1926 27.3769 66.5837 27.6023C66.9781 27.8277 67.283 28.1541 67.4985 28.5817C67.7172 29.0092 67.8249 29.5279 67.8216 30.1378V35H66.0219V30.4162C66.0219 29.9058 65.8893 29.5064 65.6242 29.218C65.3623 28.9297 64.9994 28.7855 64.5354 28.7855C64.2205 28.7855 63.9405 28.8551 63.6952 28.9943C63.4533 29.1302 63.2627 29.3274 63.1235 29.5859C62.9876 29.8445 62.9196 30.1577 62.9196 30.5256ZM73.3804 27.3636V28.7557H68.9905V27.3636H73.3804ZM70.0743 25.5341H71.874V32.7031C71.874 32.9451 71.9104 33.1307 71.9834 33.2599C72.0596 33.3859 72.159 33.4721 72.2817 33.5185C72.4043 33.5649 72.5402 33.5881 72.6893 33.5881C72.802 33.5881 72.9048 33.5798 72.9976 33.5632C73.0937 33.5466 73.1666 33.5317 73.2163 33.5185L73.5196 34.9254C73.4235 34.9586 73.2859 34.995 73.1069 35.0348C72.9313 35.0746 72.7158 35.0978 72.4606 35.1044C72.0099 35.1177 71.6039 35.0497 71.2426 34.9006C70.8813 34.7481 70.5946 34.5128 70.3825 34.1946C70.1737 33.8764 70.071 33.4787 70.0743 33.0014V25.5341ZM78.1002 35.1491C77.3346 35.1491 76.6733 34.9901 76.1165 34.6719C75.563 34.3504 75.1371 33.8963 74.8388 33.3097C74.5405 32.7197 74.3914 32.0253 74.3914 31.2266C74.3914 30.4411 74.5405 29.7517 74.8388 29.1584C75.1404 28.5618 75.5614 28.0978 76.1016 27.7663C76.6418 27.4316 77.2766 27.2642 78.0057 27.2642C78.4764 27.2642 78.9205 27.3404 79.3381 27.4929C79.759 27.642 80.1302 27.8741 80.4517 28.1889C80.7766 28.5038 81.0318 28.9048 81.2174 29.392C81.403 29.8759 81.4958 30.4527 81.4958 31.1222V31.674H75.2365V30.4609H79.7706C79.7673 30.1162 79.6927 29.8097 79.5469 29.5412C79.4011 29.2694 79.1972 29.0556 78.9354 28.8999C78.6769 28.7441 78.3753 28.6662 78.0306 28.6662C77.6627 28.6662 77.3395 28.7557 77.0611 28.9347C76.7827 29.1103 76.5656 29.3423 76.4098 29.6307C76.2574 29.9157 76.1795 30.2289 76.1762 30.5703V31.6293C76.1762 32.0734 76.2574 32.4545 76.4198 32.7727C76.5822 33.0876 76.8092 33.3295 77.1009 33.4986C77.3926 33.6643 77.7339 33.7472 78.125 33.7472C78.3869 33.7472 78.6239 33.7107 78.836 33.6378C79.0481 33.5616 79.232 33.4505 79.3878 33.3047C79.5436 33.1589 79.6613 32.9782 79.7408 32.7628L81.4212 32.9517C81.3151 33.3958 81.113 33.7836 80.8147 34.1151C80.5197 34.4432 80.1418 34.6984 79.6811 34.8807C79.2204 35.0597 78.6935 35.1491 78.1002 35.1491ZM82.9343 35V27.3636H84.6794V28.6364H84.7589C84.8981 28.1955 85.1367 27.8558 85.4748 27.6172C85.8162 27.3752 86.2056 27.2543 86.6431 27.2543C86.7426 27.2543 86.8536 27.2592 86.9762 27.2692C87.1022 27.2758 87.2066 27.2874 87.2894 27.304V28.9595C87.2132 28.933 87.0922 28.9098 86.9265 28.8899C86.7641 28.8667 86.6067 28.8551 86.4542 28.8551C86.1261 28.8551 85.8311 28.9264 85.5693 29.0689C85.3107 29.2081 85.1069 29.402 84.9578 29.6506C84.8086 29.8991 84.734 30.1858 84.734 30.5107V35H82.9343ZM91.4673 35.1491C90.7017 35.1491 90.0405 34.9901 89.4837 34.6719C88.9302 34.3504 88.5043 33.8963 88.206 33.3097C87.9077 32.7197 87.7585 32.0253 87.7585 31.2266C87.7585 30.4411 87.9077 29.7517 88.206 29.1584C88.5076 28.5618 88.9285 28.0978 89.4688 27.7663C90.009 27.4316 90.6437 27.2642 91.3729 27.2642C91.8435 27.2642 92.2876 27.3404 92.7053 27.4929C93.1262 27.642 93.4974 27.8741 93.8189 28.1889C94.1437 28.5038 94.3989 28.9048 94.5845 29.392C94.7701 29.8759 94.8629 30.4527 94.8629 31.1222V31.674H88.6037V30.4609H93.1378C93.1345 30.1162 93.0599 29.8097 92.9141 29.5412C92.7682 29.2694 92.5644 29.0556 92.3026 28.8999C92.044 28.7441 91.7424 28.6662 91.3977 28.6662C91.0298 28.6662 90.7067 28.7557 90.4283 28.9347C90.1499 29.1103 89.9328 29.3423 89.777 29.6307C89.6245 29.9157 89.5466 30.2289 89.5433 30.5703V31.6293C89.5433 32.0734 89.6245 32.4545 89.7869 32.7727C89.9493 33.0876 90.1764 33.3295 90.468 33.4986C90.7597 33.6643 91.1011 33.7472 91.4922 33.7472C91.754 33.7472 91.991 33.7107 92.2031 33.6378C92.4152 33.5616 92.5992 33.4505 92.755 33.3047C92.9108 33.1589 93.0284 32.9782 93.108 32.7628L94.7884 32.9517C94.6823 33.3958 94.4801 33.7836 94.1818 34.1151C93.8868 34.4432 93.509 34.6984 93.0483 34.8807C92.5876 35.0597 92.0606 35.1491 91.4673 35.1491ZM102.337 29.3821L100.696 29.5611C100.65 29.3954 100.569 29.2396 100.453 29.0938C100.34 28.9479 100.188 28.8303 99.9954 28.7408C99.8031 28.6513 99.5678 28.6065 99.2894 28.6065C98.9149 28.6065 98.6 28.6877 98.3448 28.8501C98.0929 29.0125 97.9686 29.223 97.9719 29.4815C97.9686 29.7036 98.0498 29.8842 98.2155 30.0234C98.3846 30.1626 98.663 30.277 99.0508 30.3665L100.353 30.6449C101.076 30.8007 101.613 31.0476 101.964 31.3857C102.319 31.7237 102.498 32.1662 102.501 32.7131C102.498 33.1937 102.357 33.6179 102.078 33.9858C101.803 34.3504 101.421 34.6354 100.93 34.8409C100.439 35.0464 99.8761 35.1491 99.2397 35.1491C98.305 35.1491 97.5527 34.9536 96.9826 34.5625C96.4125 34.1681 96.0728 33.6196 95.9634 32.9169L97.7184 32.7479C97.7979 33.0926 97.967 33.3527 98.2255 33.5284C98.484 33.7041 98.8204 33.7919 99.2347 33.7919C99.6623 33.7919 100.005 33.7041 100.264 33.5284C100.526 33.3527 100.657 33.1357 100.657 32.8771C100.657 32.6584 100.572 32.4777 100.403 32.3352C100.237 32.1927 99.9788 32.0833 99.6275 32.0071L98.3249 31.7337C97.5924 31.5812 97.0505 31.3243 96.6992 30.9631C96.3479 30.5985 96.1739 30.1378 96.1772 29.581C96.1739 29.1103 96.3015 28.7027 96.56 28.358C96.8218 28.0099 97.1848 27.7415 97.6488 27.5526C98.1161 27.3603 98.6547 27.2642 99.2645 27.2642C100.159 27.2642 100.864 27.4548 101.377 27.8359C101.895 28.2171 102.214 28.7325 102.337 29.3821ZM107.714 27.3636V28.7557H103.324V27.3636H107.714ZM104.408 25.5341H106.208V32.7031C106.208 32.9451 106.244 33.1307 106.317 33.2599C106.393 33.3859 106.493 33.4721 106.616 33.5185C106.738 33.5649 106.874 33.5881 107.023 33.5881C107.136 33.5881 107.239 33.5798 107.331 33.5632C107.428 33.5466 107.501 33.5317 107.55 33.5185L107.853 34.9254C107.757 34.9586 107.62 34.995 107.441 35.0348C107.265 35.0746 107.05 35.0978 106.795 35.1044C106.344 35.1177 105.938 35.0497 105.576 34.9006C105.215 34.7481 104.929 34.5128 104.716 34.1946C104.508 33.8764 104.405 33.4787 104.408 33.0014V25.5341ZM115.905 35.1491C115.139 35.1491 114.478 34.9901 113.921 34.6719C113.368 34.3504 112.942 33.8963 112.643 33.3097C112.345 32.7197 112.196 32.0253 112.196 31.2266C112.196 30.4411 112.345 29.7517 112.643 29.1584C112.945 28.5618 113.366 28.0978 113.906 27.7663C114.446 27.4316 115.081 27.2642 115.81 27.2642C116.281 27.2642 116.725 27.3404 117.143 27.4929C117.564 27.642 117.935 27.8741 118.256 28.1889C118.581 28.5038 118.836 28.9048 119.022 29.392C119.208 29.8759 119.3 30.4527 119.3 31.1222V31.674H113.041V30.4609H117.575C117.572 30.1162 117.497 29.8097 117.352 29.5412C117.206 29.2694 117.002 29.0556 116.74 28.8999C116.481 28.7441 116.18 28.6662 115.835 28.6662C115.467 28.6662 115.144 28.7557 114.866 28.9347C114.587 29.1103 114.37 29.3423 114.214 29.6307C114.062 29.9157 113.984 30.2289 113.981 30.5703V31.6293C113.981 32.0734 114.062 32.4545 114.224 32.7727C114.387 33.0876 114.614 33.3295 114.905 33.4986C115.197 33.6643 115.539 33.7472 115.93 33.7472C116.191 33.7472 116.428 33.7107 116.641 33.6378C116.853 33.5616 117.037 33.4505 117.192 33.3047C117.348 33.1589 117.466 32.9782 117.545 32.7628L119.226 32.9517C119.12 33.3958 118.918 33.7836 118.619 34.1151C118.324 34.4432 117.946 34.6984 117.486 34.8807C117.025 35.0597 116.498 35.1491 115.905 35.1491ZM122.936 35.1541C122.452 35.1541 122.017 35.0679 121.629 34.8956C121.244 34.7199 120.939 34.4614 120.714 34.12C120.492 33.7786 120.381 33.3577 120.381 32.8572C120.381 32.4264 120.461 32.0701 120.62 31.7884C120.779 31.5066 120.996 31.2812 121.271 31.1122C121.546 30.9432 121.856 30.8156 122.201 30.7294C122.549 30.6399 122.908 30.5753 123.279 30.5355C123.727 30.4891 124.09 30.4477 124.368 30.4112C124.647 30.3714 124.849 30.3118 124.975 30.2322C125.104 30.1494 125.169 30.0218 125.169 29.8494V29.8196C125.169 29.4451 125.058 29.1551 124.836 28.9496C124.613 28.7441 124.294 28.6413 123.876 28.6413C123.435 28.6413 123.086 28.7375 122.827 28.9297C122.572 29.1219 122.399 29.349 122.31 29.6108L120.63 29.3722C120.762 28.9081 120.981 28.5204 121.286 28.2088C121.591 27.8939 121.964 27.6586 122.404 27.5028C122.845 27.3438 123.332 27.2642 123.866 27.2642C124.234 27.2642 124.6 27.3073 124.965 27.3935C125.329 27.4796 125.662 27.6222 125.964 27.821C126.266 28.0166 126.508 28.2834 126.69 28.6214C126.876 28.9595 126.968 29.3821 126.968 29.8892V35H125.238V33.951H125.179C125.069 34.1631 124.915 34.362 124.716 34.5476C124.521 34.7299 124.274 34.8774 123.975 34.9901C123.68 35.0994 123.334 35.1541 122.936 35.1541ZM123.404 33.8317C123.765 33.8317 124.078 33.7604 124.343 33.6179C124.608 33.4721 124.812 33.2798 124.955 33.0412C125.101 32.8026 125.174 32.5424 125.174 32.2607V31.3608C125.117 31.4072 125.021 31.4503 124.885 31.4901C124.753 31.5298 124.604 31.5646 124.438 31.5945C124.272 31.6243 124.108 31.6508 123.946 31.674C123.783 31.6972 123.642 31.7171 123.523 31.7337C123.255 31.7701 123.014 31.8298 122.802 31.9126C122.59 31.9955 122.423 32.1115 122.3 32.2607C122.177 32.4065 122.116 32.5954 122.116 32.8274C122.116 33.1589 122.237 33.4091 122.479 33.5781C122.721 33.7472 123.029 33.8317 123.404 33.8317ZM128.694 35V27.3636H130.439V28.6364H130.519C130.658 28.1955 130.896 27.8558 131.234 27.6172C131.576 27.3752 131.965 27.2543 132.403 27.2543C132.502 27.2543 132.613 27.2592 132.736 27.2692C132.862 27.2758 132.966 27.2874 133.049 27.304V28.9595C132.973 28.933 132.852 28.9098 132.686 28.8899C132.524 28.8667 132.366 28.8551 132.214 28.8551C131.886 28.8551 131.591 28.9264 131.329 29.0689C131.07 29.2081 130.867 29.402 130.717 29.6506C130.568 29.8991 130.494 30.1858 130.494 30.5107V35H128.694ZM135.96 30.5256V35H134.161V27.3636H135.881V28.6612H135.97C136.146 28.2337 136.426 27.8939 136.811 27.642C137.198 27.3902 137.677 27.2642 138.247 27.2642C138.774 27.2642 139.233 27.3769 139.625 27.6023C140.019 27.8277 140.324 28.1541 140.539 28.5817C140.758 29.0092 140.866 29.5279 140.862 30.1378V35H139.063V30.4162C139.063 29.9058 138.93 29.5064 138.665 29.218C138.403 28.9297 138.04 28.7855 137.576 28.7855C137.261 28.7855 136.981 28.8551 136.736 28.9943C136.494 29.1302 136.304 29.3274 136.164 29.5859C136.028 29.8445 135.96 30.1577 135.96 30.5256ZM145.989 35.1491C145.223 35.1491 144.562 34.9901 144.005 34.6719C143.452 34.3504 143.026 33.8963 142.727 33.3097C142.429 32.7197 142.28 32.0253 142.28 31.2266C142.28 30.4411 142.429 29.7517 142.727 29.1584C143.029 28.5618 143.45 28.0978 143.99 27.7663C144.53 27.4316 145.165 27.2642 145.894 27.2642C146.365 27.2642 146.809 27.3404 147.227 27.4929C147.648 27.642 148.019 27.8741 148.34 28.1889C148.665 28.5038 148.92 28.9048 149.106 29.392C149.291 29.8759 149.384 30.4527 149.384 31.1222V31.674H143.125V30.4609H147.659C147.656 30.1162 147.581 29.8097 147.435 29.5412C147.29 29.2694 147.086 29.0556 146.824 28.8999C146.565 28.7441 146.264 28.6662 145.919 28.6662C145.551 28.6662 145.228 28.7557 144.95 28.9347C144.671 29.1103 144.454 29.3423 144.298 29.6307C144.146 29.9157 144.068 30.2289 144.065 30.5703V31.6293C144.065 32.0734 144.146 32.4545 144.308 32.7727C144.471 33.0876 144.698 33.3295 144.989 33.4986C145.281 33.6643 145.622 33.7472 146.014 33.7472C146.275 33.7472 146.512 33.7107 146.724 33.6378C146.937 33.5616 147.121 33.4505 147.276 33.3047C147.432 33.1589 147.55 32.9782 147.629 32.7628L149.31 32.9517C149.204 33.3958 149.001 33.7836 148.703 34.1151C148.408 34.4432 148.03 34.6984 147.57 34.8807C147.109 35.0597 146.582 35.1491 145.989 35.1491ZM153.657 35.1342C153.057 35.1342 152.52 34.9801 152.046 34.6719C151.572 34.3636 151.197 33.9162 150.922 33.3295C150.647 32.7429 150.51 32.0303 150.51 31.1918C150.51 30.3433 150.649 29.6274 150.927 29.044C151.209 28.4574 151.588 28.0149 152.066 27.7166C152.543 27.415 153.075 27.2642 153.662 27.2642C154.109 27.2642 154.477 27.3404 154.765 27.4929C155.054 27.642 155.282 27.8227 155.451 28.0348C155.62 28.2436 155.751 28.4408 155.844 28.6264H155.919V24.8182H157.723V35H155.954V33.7969H155.844C155.751 33.9825 155.617 34.1797 155.441 34.3885C155.266 34.594 155.034 34.7696 154.745 34.9155C154.457 35.0613 154.094 35.1342 153.657 35.1342ZM154.159 33.6577C154.54 33.6577 154.865 33.5549 155.133 33.3494C155.402 33.1406 155.606 32.8506 155.745 32.4794C155.884 32.1082 155.954 31.6757 155.954 31.1818C155.954 30.688 155.884 30.2588 155.745 29.8942C155.609 29.5296 155.407 29.2462 155.138 29.044C154.873 28.8419 154.547 28.7408 154.159 28.7408C153.758 28.7408 153.423 28.8452 153.155 29.054C152.886 29.2628 152.684 29.5511 152.548 29.919C152.412 30.2869 152.344 30.7079 152.344 31.1818C152.344 31.6591 152.412 32.085 152.548 32.4595C152.687 32.8307 152.891 33.1241 153.159 33.3395C153.431 33.5516 153.764 33.6577 154.159 33.6577Z" fill="#576072"/>
<path d="M27.3359 75.2812C26.0469 75.2812 24.9297 75.0273 23.9844 74.5195C23.0469 74.0117 22.3203 73.3164 21.8047 72.4336C21.2891 71.5508 21.0312 70.5469 21.0312 69.4219H23.5977C23.5977 70.5859 23.9219 71.4922 24.5703 72.1406C25.2266 72.7891 26.1328 73.1133 27.2891 73.1133C28.3984 73.1133 29.2969 72.832 29.9844 72.2695C30.6797 71.707 31.0273 70.9531 31.0273 70.0078C31.0273 69.1406 30.6562 68.4453 29.9141 67.9219C29.1797 67.3906 28.2109 67.125 27.0078 67.125H25.5547V65.0039H27.0078C28.0703 65.0039 28.9258 64.7617 29.5742 64.2773C30.2305 63.793 30.5586 63.1484 30.5586 62.3438C30.5586 61.4375 30.2539 60.7227 29.6445 60.1992C29.0352 59.6758 28.2305 59.4141 27.2305 59.4141C26.1992 59.4141 25.3828 59.7031 24.7812 60.2812C24.1875 60.8594 23.8906 61.6562 23.8906 62.6719H21.3945C21.3945 61.6172 21.6406 60.6836 22.1328 59.8711C22.625 59.0508 23.3086 58.4102 24.1836 57.9492C25.0586 57.4883 26.0781 57.2578 27.2422 57.2578C28.3516 57.2578 29.3438 57.4688 30.2188 57.8906C31.0938 58.3047 31.7812 58.8828 32.2812 59.625C32.7891 60.3594 33.043 61.1992 33.043 62.1445C33.043 63.0664 32.7539 63.8672 32.1758 64.5469C31.5977 65.2188 30.8203 65.6875 29.8438 65.9531V65.9883C30.9922 66.168 31.9023 66.6367 32.5742 67.3945C33.2461 68.1523 33.582 69.0469 33.582 70.0781C33.582 71.0938 33.3125 71.9922 32.7734 72.7734C32.2344 73.5547 31.4922 74.168 30.5469 74.6133C29.6094 75.0586 28.5391 75.2812 27.3359 75.2812Z" fill="#212329"/>
<path d="M42.4318 65.9091C42.4318 64.6629 42.5959 63.5161 42.924 62.4688C43.2521 61.4214 43.7311 60.4553 44.3608 59.5703H45.723C45.4777 59.8984 45.2491 60.3011 45.0369 60.7784C44.8248 61.2557 44.6392 61.7794 44.4801 62.3494C44.321 62.9162 44.1967 63.5045 44.1072 64.1143C44.0178 64.7209 43.973 65.3191 43.973 65.9091C43.973 66.6979 44.0509 67.4967 44.2067 68.3054C44.3625 69.1141 44.5729 69.8648 44.8381 70.5575C45.1032 71.2502 45.3982 71.8153 45.723 72.2528H44.3608C43.7311 71.3679 43.2521 70.4018 42.924 69.3544C42.5959 68.3071 42.4318 67.1586 42.4318 65.9091ZM54.1069 71H47.1466V69.6776H54.1069V71ZM52.0188 67.0128H47.1118V65.6903H52.0188V67.0128ZM49.6076 63.831L49.7667 68.1214C49.7866 68.549 49.7319 68.9318 49.6026 69.2699C49.4734 69.6046 49.2397 69.8714 48.9016 70.0703L47.6289 69.6776C47.8079 69.6676 47.9454 69.5765 48.0415 69.4041C48.1377 69.2318 48.2023 69.0296 48.2354 68.7976C48.2686 68.5623 48.2818 68.3501 48.2752 68.1612L48.131 63.831C48.1045 63.1349 48.2338 62.5533 48.5188 62.0859C48.8072 61.6186 49.19 61.2673 49.6672 61.032C50.1445 60.7966 50.6582 60.679 51.2084 60.679C51.699 60.679 52.1398 60.7602 52.5309 60.9226C52.9253 61.085 53.2567 61.3071 53.5252 61.5888C53.797 61.8672 53.9909 62.1854 54.1069 62.5433C54.2229 62.9013 54.2461 63.2775 54.1765 63.6719L52.7397 63.4432C52.7728 63.1184 52.7215 62.8482 52.5856 62.6328C52.4497 62.4174 52.2624 62.255 52.0238 62.1456C51.7851 62.0362 51.5316 61.9815 51.2631 61.9815C50.9814 61.9815 50.7129 62.0478 50.4577 62.1804C50.2058 62.313 50.0003 62.5152 49.8412 62.7869C49.6855 63.0587 49.6076 63.4067 49.6076 63.831ZM59.9888 60.8182V71H58.4476V62.3594H58.3879L55.9519 63.9503V62.4787L58.4923 60.8182H59.9888ZM64.025 69.608L63.9504 70.1499C63.9007 70.5476 63.8162 70.9619 63.6969 71.3928C63.5809 71.8269 63.4599 72.2296 63.3339 72.6009C63.2113 72.9721 63.1102 73.267 63.0307 73.4858H61.9767C62.0198 73.2803 62.0794 73.0019 62.1557 72.6506C62.2319 72.3026 62.3065 71.9131 62.3794 71.4822C62.4523 71.0514 62.507 70.6122 62.5435 70.1648L62.5932 69.608H64.025ZM69.2171 71.1392C68.594 71.1392 68.0339 71.0199 67.5367 70.7812C67.0428 70.5393 66.6484 70.2079 66.3535 69.7869C66.0585 69.366 65.901 68.8854 65.8812 68.3452H67.3726C67.4091 68.7827 67.603 69.1423 67.9543 69.424C68.3056 69.7057 68.7266 69.8466 69.2171 69.8466C69.6082 69.8466 69.9545 69.7571 70.2562 69.5781C70.5611 69.3958 70.7997 69.1456 70.9721 68.8274C71.1477 68.5092 71.2356 68.1463 71.2356 67.7386C71.2356 67.3243 71.1461 66.9548 70.9671 66.63C70.7881 66.3052 70.5412 66.05 70.2263 65.8643C69.9148 65.6787 69.5568 65.5843 69.1525 65.581C68.8442 65.581 68.5343 65.634 68.2228 65.7401C67.9112 65.8461 67.6593 65.9853 67.4671 66.1577L66.0601 65.9489L66.6319 60.8182H72.2299V62.1357H67.9096L67.5864 64.9844H67.6461C67.8449 64.7921 68.1084 64.6314 68.4365 64.5021C68.768 64.3729 69.1226 64.3082 69.5005 64.3082C70.1203 64.3082 70.6721 64.4557 71.156 64.7507C71.6432 65.0457 72.026 65.4484 72.3044 65.9588C72.5862 66.4659 72.7254 67.0492 72.7221 67.7088C72.7254 68.3684 72.5762 68.9567 72.2746 69.4737C71.9763 69.9908 71.562 70.3984 71.0317 70.6967C70.5047 70.9917 69.8999 71.1392 69.2171 71.1392ZM77.9987 71.169C77.2132 71.1657 76.542 70.9586 75.9852 70.5476C75.4284 70.1366 75.0025 69.5384 74.7075 68.7528C74.4125 67.9673 74.265 67.0211 74.265 65.9141C74.265 64.8104 74.4125 63.8674 74.7075 63.0852C75.0058 62.303 75.4333 61.7064 75.9902 61.2955C76.5503 60.8845 77.2198 60.679 77.9987 60.679C78.7776 60.679 79.4454 60.8861 80.0022 61.3004C80.5591 61.7114 80.985 62.308 81.2799 63.0902C81.5782 63.8691 81.7274 64.8104 81.7274 65.9141C81.7274 67.0244 81.5799 67.9723 81.2849 68.7578C80.9899 69.54 80.564 70.1383 80.0072 70.5526C79.4504 70.9635 78.7809 71.169 77.9987 71.169ZM77.9987 69.8416C78.6881 69.8416 79.2267 69.5052 79.6144 68.8324C80.0055 68.1596 80.2011 67.1868 80.2011 65.9141C80.2011 65.0689 80.1116 64.3546 79.9326 63.7713C79.757 63.1847 79.5034 62.7405 79.172 62.4389C78.8439 62.134 78.4528 61.9815 77.9987 61.9815C77.3126 61.9815 76.774 62.3196 76.3829 62.9957C75.9918 63.6719 75.7946 64.6446 75.7913 65.9141C75.7913 66.7625 75.8791 67.4801 76.0548 68.0668C76.2338 68.6501 76.4873 69.0926 76.8154 69.3942C77.1436 69.6925 77.538 69.8416 77.9987 69.8416ZM86.9518 71.169C86.1663 71.1657 85.4951 70.9586 84.9383 70.5476C84.3815 70.1366 83.9556 69.5384 83.6606 68.7528C83.3656 67.9673 83.2181 67.0211 83.2181 65.9141C83.2181 64.8104 83.3656 63.8674 83.6606 63.0852C83.9589 62.303 84.3864 61.7064 84.9433 61.2955C85.5034 60.8845 86.1729 60.679 86.9518 60.679C87.7307 60.679 88.3985 60.8861 88.9553 61.3004C89.5122 61.7114 89.9381 62.308 90.233 63.0902C90.5313 63.8691 90.6805 64.8104 90.6805 65.9141C90.6805 67.0244 90.533 67.9723 90.238 68.7578C89.943 69.54 89.5171 70.1383 88.9603 70.5526C88.4035 70.9635 87.734 71.169 86.9518 71.169ZM86.9518 69.8416C87.6412 69.8416 88.1798 69.5052 88.5676 68.8324C88.9587 68.1596 89.1542 67.1868 89.1542 65.9141C89.1542 65.0689 89.0647 64.3546 88.8857 63.7713C88.7101 63.1847 88.4565 62.7405 88.1251 62.4389C87.797 62.134 87.4059 61.9815 86.9518 61.9815C86.2657 61.9815 85.7271 62.3196 85.336 62.9957C84.9449 63.6719 84.7477 64.6446 84.7444 65.9141C84.7444 66.7625 84.8322 67.4801 85.0079 68.0668C85.1869 68.6501 85.4404 69.0926 85.7685 69.3942C86.0967 69.6925 86.4911 69.8416 86.9518 69.8416ZM93.9448 69.608L93.8703 70.1499C93.8206 70.5476 93.736 70.9619 93.6167 71.3928C93.5007 71.8269 93.3797 72.2296 93.2538 72.6009C93.1312 72.9721 93.0301 73.267 92.9505 73.4858H91.8966C91.9396 73.2803 91.9993 73.0019 92.0755 72.6506C92.1518 72.3026 92.2263 71.9131 92.2993 71.4822C92.3722 71.0514 92.4269 70.6122 92.4633 70.1648L92.513 69.608H93.9448ZM99.1158 71.169C98.3303 71.1657 97.6591 70.9586 97.1023 70.5476C96.5455 70.1366 96.1196 69.5384 95.8246 68.7528C95.5296 67.9673 95.3822 67.0211 95.3822 65.9141C95.3822 64.8104 95.5296 63.8674 95.8246 63.0852C96.1229 62.303 96.5505 61.7064 97.1073 61.2955C97.6674 60.8845 98.3369 60.679 99.1158 60.679C99.8947 60.679 100.563 60.8861 101.119 61.3004C101.676 61.7114 102.102 62.308 102.397 63.0902C102.695 63.8691 102.845 64.8104 102.845 65.9141C102.845 67.0244 102.697 67.9723 102.402 68.7578C102.107 69.54 101.681 70.1383 101.124 70.5526C100.568 70.9635 99.898 71.169 99.1158 71.169ZM99.1158 69.8416C99.8052 69.8416 100.344 69.5052 100.732 68.8324C101.123 68.1596 101.318 67.1868 101.318 65.9141C101.318 65.0689 101.229 64.3546 101.05 63.7713C100.874 63.1847 100.621 62.7405 100.289 62.4389C99.961 62.134 99.5699 61.9815 99.1158 61.9815C98.4297 61.9815 97.8912 62.3196 97.5001 62.9957C97.109 63.6719 96.9117 64.6446 96.9084 65.9141C96.9084 66.7625 96.9963 67.4801 97.1719 68.0668C97.3509 68.6501 97.6045 69.0926 97.9326 69.3942C98.2607 69.6925 98.6551 69.8416 99.1158 69.8416ZM108.069 71.169C107.283 71.1657 106.612 70.9586 106.055 70.5476C105.499 70.1366 105.073 69.5384 104.778 68.7528C104.483 67.9673 104.335 67.0211 104.335 65.9141C104.335 64.8104 104.483 63.8674 104.778 63.0852C105.076 62.303 105.504 61.7064 106.06 61.2955C106.621 60.8845 107.29 60.679 108.069 60.679C108.848 60.679 109.516 60.8861 110.072 61.3004C110.629 61.7114 111.055 62.308 111.35 63.0902C111.648 63.8691 111.798 64.8104 111.798 65.9141C111.798 67.0244 111.65 67.9723 111.355 68.7578C111.06 69.54 110.634 70.1383 110.077 70.5526C109.521 70.9635 108.851 71.169 108.069 71.169ZM108.069 69.8416C108.758 69.8416 109.297 69.5052 109.685 68.8324C110.076 68.1596 110.271 67.1868 110.271 65.9141C110.271 65.0689 110.182 64.3546 110.003 63.7713C109.827 63.1847 109.574 62.7405 109.242 62.4389C108.914 62.134 108.523 61.9815 108.069 61.9815C107.383 61.9815 106.844 62.3196 106.453 62.9957C106.062 63.6719 105.865 64.6446 105.862 65.9141C105.862 66.7625 105.949 67.4801 106.125 68.0668C106.304 68.6501 106.558 69.0926 106.886 69.3942C107.214 69.6925 107.608 69.8416 108.069 69.8416ZM117.022 71.169C116.237 71.1657 115.565 70.9586 115.009 70.5476C114.452 70.1366 114.026 69.5384 113.731 68.7528C113.436 67.9673 113.288 67.0211 113.288 65.9141C113.288 64.8104 113.436 63.8674 113.731 63.0852C114.029 62.303 114.457 61.7064 115.014 61.2955C115.574 60.8845 116.243 60.679 117.022 60.679C117.801 60.679 118.469 60.8861 119.026 61.3004C119.582 61.7114 120.008 62.308 120.303 63.0902C120.602 63.8691 120.751 64.8104 120.751 65.9141C120.751 67.0244 120.603 67.9723 120.308 68.7578C120.013 69.54 119.587 70.1383 119.031 70.5526C118.474 70.9635 117.804 71.169 117.022 71.169ZM117.022 69.8416C117.711 69.8416 118.25 69.5052 118.638 68.8324C119.029 68.1596 119.224 67.1868 119.224 65.9141C119.224 65.0689 119.135 64.3546 118.956 63.7713C118.78 63.1847 118.527 62.7405 118.195 62.4389C117.867 62.134 117.476 61.9815 117.022 61.9815C116.336 61.9815 115.797 62.3196 115.406 62.9957C115.015 63.6719 114.818 64.6446 114.815 65.9141C114.815 66.7625 114.902 67.4801 115.078 68.0668C115.257 68.6501 115.511 69.0926 115.839 69.3942C116.167 69.6925 116.561 69.8416 117.022 69.8416ZM123.061 71.0945C122.789 71.0945 122.555 70.9983 122.36 70.8061C122.164 70.6106 122.066 70.3752 122.066 70.1001C122.066 69.8284 122.164 69.5964 122.36 69.4041C122.555 69.2086 122.789 69.1108 123.061 69.1108C123.332 69.1108 123.566 69.2086 123.762 69.4041C123.957 69.5964 124.055 69.8284 124.055 70.1001C124.055 70.2824 124.008 70.4498 123.916 70.6023C123.826 70.7514 123.707 70.8707 123.558 70.9602C123.409 71.0497 123.243 71.0945 123.061 71.0945ZM129.118 71.169C128.332 71.1657 127.661 70.9586 127.104 70.5476C126.547 70.1366 126.121 69.5384 125.827 68.7528C125.532 67.9673 125.384 67.0211 125.384 65.9141C125.384 64.8104 125.532 63.8674 125.827 63.0852C126.125 62.303 126.552 61.7064 127.109 61.2955C127.669 60.8845 128.339 60.679 129.118 60.679C129.897 60.679 130.564 60.8861 131.121 61.3004C131.678 61.7114 132.104 62.308 132.399 63.0902C132.697 63.8691 132.846 64.8104 132.846 65.9141C132.846 67.0244 132.699 67.9723 132.404 68.7578C132.109 69.54 131.683 70.1383 131.126 70.5526C130.569 70.9635 129.9 71.169 129.118 71.169ZM129.118 69.8416C129.807 69.8416 130.346 69.5052 130.733 68.8324C131.125 68.1596 131.32 67.1868 131.32 65.9141C131.32 65.0689 131.231 64.3546 131.052 63.7713C130.876 63.1847 130.622 62.7405 130.291 62.4389C129.963 62.134 129.572 61.9815 129.118 61.9815C128.432 61.9815 127.893 62.3196 127.502 62.9957C127.111 63.6719 126.914 64.6446 126.91 65.9141C126.91 66.7625 126.998 67.4801 127.174 68.0668C127.353 68.6501 127.606 69.0926 127.934 69.3942C128.263 69.6925 128.657 69.8416 129.118 69.8416ZM138.071 71.169C137.285 71.1657 136.614 70.9586 136.057 70.5476C135.501 70.1366 135.075 69.5384 134.78 68.7528C134.485 67.9673 134.337 67.0211 134.337 65.9141C134.337 64.8104 134.485 63.8674 134.78 63.0852C135.078 62.303 135.505 61.7064 136.062 61.2955C136.622 60.8845 137.292 60.679 138.071 60.679C138.85 60.679 139.518 60.8861 140.074 61.3004C140.631 61.7114 141.057 62.308 141.352 63.0902C141.65 63.8691 141.8 64.8104 141.8 65.9141C141.8 67.0244 141.652 67.9723 141.357 68.7578C141.062 69.54 140.636 70.1383 140.079 70.5526C139.523 70.9635 138.853 71.169 138.071 71.169ZM138.071 69.8416C138.76 69.8416 139.299 69.5052 139.687 68.8324C140.078 68.1596 140.273 67.1868 140.273 65.9141C140.273 65.0689 140.184 64.3546 140.005 63.7713C139.829 63.1847 139.576 62.7405 139.244 62.4389C138.916 62.134 138.525 61.9815 138.071 61.9815C137.385 61.9815 136.846 62.3196 136.455 62.9957C136.064 63.6719 135.867 64.6446 135.863 65.9141C135.863 66.7625 135.951 67.4801 136.127 68.0668C136.306 68.6501 136.559 69.0926 136.888 69.3942C137.216 69.6925 137.61 69.8416 138.071 69.8416ZM146.358 65.9091C146.358 67.1586 146.194 68.3071 145.866 69.3544C145.537 70.4018 145.058 71.3679 144.429 72.2528H143.067C143.312 71.9247 143.54 71.522 143.753 71.0447C143.965 70.5675 144.15 70.0455 144.309 69.4787C144.469 68.9086 144.593 68.3187 144.682 67.7088C144.772 67.099 144.817 66.4991 144.817 65.9091C144.817 65.1236 144.739 64.3265 144.583 63.5178C144.427 62.709 144.217 61.9583 143.951 61.2656C143.686 60.5729 143.391 60.0078 143.067 59.5703H144.429C145.058 60.4553 145.537 61.4214 145.866 62.4688C146.194 63.5161 146.358 64.6629 146.358 65.9091Z" fill="#576072"/>
</svg>
