<svg width="319" height="120" viewBox="0 0 319 120" fill="none" xmlns="http://www.w3.org/2000/svg">
<path d="M12 0.5H307C313.351 0.5 318.5 5.64873 318.5 12V108C318.5 114.351 313.351 119.5 307 119.5H12C5.64873 119.5 0.5 114.351 0.5 108V12L0.514648 11.4082C0.822652 5.33195 5.8472 0.5 12 0.5Z" stroke="#E4E7EC"/>
<g clip-path="url(#clip0_3_5452)">
<rect width="319" height="120" rx="8" fill="white"/>
<g clip-path="url(#clip1_3_5452)">
<mask id="path-4-inside-1_3_5452" fill="white">
<path d="M0 0H319V120H0V0Z"/>
</mask>
<mask id="path-6-inside-2_3_5452" fill="white">
<path d="M0 0H32V120H0V0Z"/>
</mask>
<path d="M0 0H32V120H0V0Z" fill="#F6F7F9"/>
<path d="M32 0H31V120H32H33V0H32Z" fill="#E4E7EC" mask="url(#path-6-inside-2_3_5452)"/>
<path d="M12.6187 19.9067C13.2743 19.4698 14.0191 19.156 14.8195 19M10 23.8454C10.1559 23.029 10.4735 22.2707 10.9193 21.6044M12.6187 30.0933C13.2743 30.5302 14.0191 30.844 14.8195 31M10 26.1546C10.1559 26.971 10.4735 27.7293 10.9193 28.3956M17.1805 19C17.9809 19.156 18.7257 19.4698 19.3813 19.9067M21.0807 21.6044C21.5265 22.2707 21.8441 23.029 22 23.8454M17.1805 31C17.9809 30.844 18.7257 30.5302 19.3813 30.0933M21.0807 28.3956C21.5265 27.7293 21.8441 26.971 22 26.1546" stroke="#B4BAC5" stroke-width="1.5" stroke-linecap="round" stroke-linejoin="round"/>
<mask id="path-9-inside-3_3_5452" fill="white">
<path d="M32 0H319V120H32V0Z"/>
</mask>
<path d="M319 120V119H32V120V121H319V120Z" fill="#E4E7EC" mask="url(#path-9-inside-3_3_5452)"/>
<path d="M53.5753 24.1293H52.0241C51.9645 23.7978 51.8535 23.5062 51.6911 23.2543C51.5286 23.0024 51.3298 22.7886 51.0945 22.6129C50.8591 22.4373 50.5956 22.3047 50.304 22.2152C50.0156 22.1257 49.709 22.081 49.3842 22.081C48.7976 22.081 48.2723 22.2285 47.8082 22.5234C47.3475 22.8184 46.983 23.2509 46.7145 23.821C46.4493 24.3911 46.3168 25.0871 46.3168 25.9091C46.3168 26.7377 46.4493 27.437 46.7145 28.0071C46.983 28.5772 47.3492 29.008 47.8132 29.2997C48.2772 29.5914 48.7992 29.7372 49.3793 29.7372C49.7008 29.7372 50.0057 29.6941 50.294 29.608C50.5857 29.5185 50.8492 29.3875 51.0845 29.2152C51.3198 29.0429 51.5187 28.8324 51.6811 28.5838C51.8468 28.3319 51.9612 28.0436 52.0241 27.7188L53.5753 27.7237C53.4924 28.2242 53.3317 28.6849 53.093 29.1058C52.8577 29.5234 52.5545 29.8847 52.1832 30.1896C51.8153 30.4912 51.3944 30.7249 50.9205 30.8906C50.4465 31.0563 49.9295 31.1392 49.3693 31.1392C48.4877 31.1392 47.7022 30.9304 47.0128 30.5128C46.3234 30.0919 45.7798 29.4903 45.3821 28.7081C44.9877 27.9259 44.7905 26.9929 44.7905 25.9091C44.7905 24.822 44.9893 23.889 45.3871 23.1101C45.7848 22.3279 46.3284 21.728 47.0178 21.3104C47.7071 20.8894 48.491 20.679 49.3693 20.679C49.9096 20.679 50.4134 20.7569 50.8807 20.9126C51.3513 21.0651 51.7739 21.2905 52.1484 21.5888C52.523 21.8838 52.8329 22.245 53.0781 22.6726C53.3234 23.0968 53.4891 23.5824 53.5753 24.1293ZM58.4268 31.1541C57.7109 31.1541 57.0862 30.9901 56.5525 30.6619C56.0189 30.3338 55.6046 29.8748 55.3096 29.2848C55.0147 28.6948 54.8672 28.0054 54.8672 27.2166C54.8672 26.4245 55.0147 25.7318 55.3096 25.1385C55.6046 24.5452 56.0189 24.0845 56.5525 23.7564C57.0862 23.4283 57.7109 23.2642 58.4268 23.2642C59.1427 23.2642 59.7675 23.4283 60.3011 23.7564C60.8347 24.0845 61.249 24.5452 61.544 25.1385C61.839 25.7318 61.9865 26.4245 61.9865 27.2166C61.9865 28.0054 61.839 28.6948 61.544 29.2848C61.249 29.8748 60.8347 30.3338 60.3011 30.6619C59.7675 30.9901 59.1427 31.1541 58.4268 31.1541ZM58.4318 29.9062C58.8958 29.9062 59.2803 29.7836 59.5852 29.5384C59.8901 29.2931 60.1155 28.9666 60.2613 28.5589C60.4105 28.1513 60.4851 27.7022 60.4851 27.2116C60.4851 26.7244 60.4105 26.277 60.2613 25.8693C60.1155 25.4583 59.8901 25.1286 59.5852 24.88C59.2803 24.6314 58.8958 24.5071 58.4318 24.5071C57.9645 24.5071 57.5767 24.6314 57.2685 24.88C56.9635 25.1286 56.7365 25.4583 56.5873 25.8693C56.4415 26.277 56.3686 26.7244 56.3686 27.2116C56.3686 27.7022 56.4415 28.1513 56.5873 28.5589C56.7365 28.9666 56.9635 29.2931 57.2685 29.5384C57.5767 29.7836 57.9645 29.9062 58.4318 29.9062ZM65.0483 26.4659V31H63.5618V23.3636H64.9886V24.6065H65.0831C65.2587 24.2022 65.5338 23.8774 65.9084 23.6321C66.2862 23.3868 66.7618 23.2642 67.3352 23.2642C67.8556 23.2642 68.3113 23.3736 68.7024 23.5923C69.0935 23.8078 69.3967 24.1293 69.6122 24.5568C69.8276 24.9844 69.9353 25.513 69.9353 26.1428V31H68.4488V26.3217C68.4488 25.7682 68.3047 25.3357 68.0163 25.0241C67.728 24.7093 67.3319 24.5518 66.8281 24.5518C66.4834 24.5518 66.1768 24.6264 65.9084 24.7756C65.6432 24.9247 65.4327 25.1435 65.277 25.4318C65.1245 25.7169 65.0483 26.0616 65.0483 26.4659ZM75.4792 23.3636V24.5568H71.1638V23.3636H75.4792ZM72.3471 31V22.4787C72.3471 22.0014 72.4515 21.6053 72.6603 21.2905C72.8691 20.9723 73.1458 20.7353 73.4905 20.5795C73.8352 20.4205 74.2098 20.3409 74.6141 20.3409C74.9124 20.3409 75.1676 20.3658 75.3797 20.4155C75.5919 20.4619 75.7493 20.505 75.852 20.5447L75.504 21.7479C75.4344 21.728 75.3449 21.7048 75.2356 21.6783C75.1262 21.6484 74.9936 21.6335 74.8378 21.6335C74.4766 21.6335 74.2181 21.723 74.0623 21.902C73.9098 22.081 73.8336 22.3395 73.8336 22.6776V31H72.3471ZM76.9289 31V23.3636H78.4154V31H76.9289ZM77.6796 22.1854C77.4211 22.1854 77.199 22.0992 77.0134 21.9268C76.8311 21.7512 76.74 21.5424 76.74 21.3004C76.74 21.0552 76.8311 20.8464 77.0134 20.674C77.199 20.4983 77.4211 20.4105 77.6796 20.4105C77.9381 20.4105 78.1586 20.4983 78.3408 20.674C78.5265 20.8464 78.6193 21.0552 78.6193 21.3004C78.6193 21.5424 78.5265 21.7512 78.3408 21.9268C78.1586 22.0992 77.9381 22.1854 77.6796 22.1854ZM80.3312 31V23.3636H81.768V24.5767H81.8476C81.9868 24.1657 82.232 23.8426 82.5834 23.6072C82.938 23.3686 83.3391 23.2493 83.7865 23.2493C83.8793 23.2493 83.9887 23.2526 84.1146 23.2592C84.2439 23.2659 84.345 23.2741 84.4179 23.2841V24.706C84.3582 24.6894 84.2522 24.6712 84.0997 24.6513C83.9472 24.6281 83.7948 24.6165 83.6423 24.6165C83.291 24.6165 82.9778 24.6911 82.7027 24.8402C82.4309 24.986 82.2155 25.1899 82.0564 25.4517C81.8973 25.7102 81.8178 26.0052 81.8178 26.3366V31H80.3312ZM85.6203 31V23.3636H87.0471V24.6065H87.1416C87.3007 24.1856 87.5609 23.8575 87.9221 23.6222C88.2834 23.3835 88.7159 23.2642 89.2197 23.2642C89.7301 23.2642 90.1577 23.3835 90.5024 23.6222C90.8504 23.8608 91.1073 24.1889 91.273 24.6065H91.3525C91.5348 24.1989 91.8248 23.8741 92.2226 23.6321C92.6203 23.3868 93.0942 23.2642 93.6444 23.2642C94.3371 23.2642 94.9022 23.4813 95.3397 23.9155C95.7806 24.3497 96.001 25.0043 96.001 25.8793V31H94.5145V26.0185C94.5145 25.5014 94.3736 25.1269 94.0919 24.8949C93.8102 24.6629 93.4737 24.5469 93.0826 24.5469C92.5987 24.5469 92.2226 24.696 91.9541 24.9943C91.6856 25.2893 91.5514 25.6688 91.5514 26.1328V31H90.0699V25.924C90.0699 25.5097 89.9406 25.1766 89.6821 24.9247C89.4236 24.6728 89.0871 24.5469 88.6728 24.5469C88.3911 24.5469 88.1309 24.6214 87.8923 24.7706C87.657 24.9164 87.4664 25.1203 87.3206 25.3821C87.1781 25.6439 87.1068 25.9472 87.1068 26.2919V31H85.6203ZM105.095 23.3636V24.5568H100.924V23.3636H105.095ZM102.042 21.5341H103.529V28.7578C103.529 29.0462 103.572 29.2633 103.658 29.4091C103.744 29.5516 103.855 29.6494 103.991 29.7024C104.131 29.7521 104.281 29.777 104.444 29.777C104.563 29.777 104.667 29.7687 104.757 29.7521C104.846 29.7356 104.916 29.7223 104.966 29.7124L105.234 30.9403C105.148 30.9735 105.025 31.0066 104.866 31.0398C104.707 31.0762 104.508 31.0961 104.27 31.0994C103.879 31.1061 103.514 31.0365 103.176 30.8906C102.838 30.7448 102.565 30.5194 102.356 30.2145C102.147 29.9096 102.042 29.5268 102.042 29.0661V21.5341ZM108.306 26.4659V31H106.819V20.8182H108.286V24.6065H108.381C108.56 24.1955 108.833 23.8691 109.201 23.6271C109.569 23.3852 110.049 23.2642 110.643 23.2642C111.166 23.2642 111.624 23.3719 112.015 23.5874C112.409 23.8028 112.714 24.1243 112.93 24.5518C113.148 24.9761 113.258 25.5064 113.258 26.1428V31H111.771V26.3217C111.771 25.7616 111.627 25.3274 111.339 25.0192C111.05 24.7076 110.649 24.5518 110.136 24.5518C109.784 24.5518 109.469 24.6264 109.191 24.7756C108.916 24.9247 108.699 25.1435 108.54 25.4318C108.384 25.7169 108.306 26.0616 108.306 26.4659ZM117.38 31.169C116.896 31.169 116.458 31.0795 116.067 30.9006C115.676 30.7183 115.366 30.4548 115.137 30.1101C114.912 29.7654 114.799 29.3428 114.799 28.8423C114.799 28.4115 114.882 28.0568 115.048 27.7784C115.214 27.5 115.437 27.2796 115.719 27.1172C116.001 26.9548 116.316 26.8321 116.664 26.7493C117.012 26.6664 117.366 26.6035 117.728 26.5604C118.185 26.5073 118.556 26.4643 118.841 26.4311C119.126 26.3946 119.333 26.3366 119.463 26.2571C119.592 26.1776 119.657 26.0483 119.657 25.8693V25.8345C119.657 25.4003 119.534 25.0639 119.289 24.8253C119.047 24.5866 118.686 24.4673 118.205 24.4673C117.704 24.4673 117.31 24.5784 117.022 24.8004C116.737 25.0192 116.539 25.2628 116.43 25.5312L115.033 25.2131C115.199 24.7491 115.441 24.3745 115.759 24.0895C116.08 23.8011 116.45 23.5923 116.868 23.4631C117.285 23.3305 117.724 23.2642 118.185 23.2642C118.49 23.2642 118.813 23.3007 119.154 23.3736C119.499 23.4432 119.821 23.5724 120.119 23.7614C120.421 23.9503 120.668 24.2204 120.86 24.5717C121.052 24.9197 121.148 25.3722 121.148 25.929V31H119.696V29.956H119.637C119.541 30.1482 119.396 30.3371 119.204 30.5227C119.012 30.7083 118.765 30.8625 118.463 30.9851C118.162 31.1077 117.801 31.169 117.38 31.169ZM117.703 29.9759C118.114 29.9759 118.465 29.8946 118.757 29.7322C119.052 29.5698 119.275 29.3577 119.428 29.0959C119.584 28.8307 119.662 28.5473 119.662 28.2457V27.2614C119.609 27.3144 119.506 27.3641 119.353 27.4105C119.204 27.4536 119.034 27.4917 118.841 27.5249C118.649 27.5547 118.462 27.5829 118.279 27.6094C118.097 27.6326 117.945 27.6525 117.822 27.669C117.534 27.7055 117.27 27.7668 117.032 27.853C116.796 27.9392 116.607 28.0634 116.465 28.2259C116.326 28.3849 116.256 28.5971 116.256 28.8622C116.256 29.2301 116.392 29.5085 116.664 29.6974C116.936 29.883 117.282 29.9759 117.703 29.9759ZM126.609 23.3636V24.5568H122.438V23.3636H126.609ZM123.556 21.5341H125.043V28.7578C125.043 29.0462 125.086 29.2633 125.172 29.4091C125.258 29.5516 125.369 29.6494 125.505 29.7024C125.644 29.7521 125.795 29.777 125.957 29.777C126.077 29.777 126.181 29.7687 126.271 29.7521C126.36 29.7356 126.43 29.7223 126.479 29.7124L126.748 30.9403C126.662 30.9735 126.539 31.0066 126.38 31.0398C126.221 31.0762 126.022 31.0961 125.783 31.0994C125.392 31.1061 125.028 31.0365 124.69 30.8906C124.352 30.7448 124.078 30.5194 123.869 30.2145C123.661 29.9096 123.556 29.5268 123.556 29.0661V21.5341ZM135.355 23.3636V24.5568H131.184V23.3636H135.355ZM132.302 21.5341H133.789V28.7578C133.789 29.0462 133.832 29.2633 133.918 29.4091C134.004 29.5516 134.115 29.6494 134.251 29.7024C134.39 29.7521 134.541 29.777 134.703 29.777C134.823 29.777 134.927 29.7687 135.017 29.7521C135.106 29.7356 135.176 29.7223 135.225 29.7124L135.494 30.9403C135.408 30.9735 135.285 31.0066 135.126 31.0398C134.967 31.0762 134.768 31.0961 134.529 31.0994C134.138 31.1061 133.774 31.0365 133.436 30.8906C133.098 30.7448 132.824 30.5194 132.615 30.2145C132.407 29.9096 132.302 29.5268 132.302 29.0661V21.5341ZM138.566 26.4659V31H137.079V20.8182H138.546V24.6065H138.64C138.819 24.1955 139.093 23.8691 139.461 23.6271C139.828 23.3852 140.309 23.2642 140.902 23.2642C141.426 23.2642 141.883 23.3719 142.274 23.5874C142.669 23.8028 142.974 24.1243 143.189 24.5518C143.408 24.9761 143.517 25.5064 143.517 26.1428V31H142.031V26.3217C142.031 25.7616 141.887 25.3274 141.598 25.0192C141.31 24.7076 140.909 24.5518 140.395 24.5518C140.044 24.5518 139.729 24.6264 139.451 24.7756C139.176 24.9247 138.958 25.1435 138.799 25.4318C138.644 25.7169 138.566 26.0616 138.566 26.4659ZM148.708 31.1541C147.956 31.1541 147.308 30.9934 146.764 30.6719C146.224 30.3471 145.806 29.8913 145.511 29.3047C145.22 28.7147 145.074 28.0237 145.074 27.2315C145.074 26.4493 145.22 25.7599 145.511 25.1634C145.806 24.5668 146.217 24.1011 146.744 23.7663C147.275 23.4316 147.895 23.2642 148.604 23.2642C149.035 23.2642 149.452 23.3355 149.857 23.478C150.261 23.6205 150.624 23.8442 150.945 24.1491C151.267 24.4541 151.52 24.8501 151.706 25.3374C151.892 25.8213 151.984 26.4096 151.984 27.1023V27.6293H145.914V26.5156H150.528C150.528 26.1245 150.448 25.7782 150.289 25.4766C150.13 25.1716 149.906 24.9313 149.618 24.7557C149.333 24.58 148.998 24.4922 148.614 24.4922C148.196 24.4922 147.832 24.5949 147.52 24.8004C147.212 25.0026 146.973 25.2678 146.804 25.5959C146.638 25.9207 146.556 26.2737 146.556 26.6548V27.5249C146.556 28.0353 146.645 28.4695 146.824 28.8274C147.006 29.1854 147.26 29.4588 147.585 29.6477C147.909 29.8333 148.289 29.9261 148.723 29.9261C149.005 29.9261 149.262 29.8864 149.494 29.8068C149.726 29.724 149.926 29.6013 150.095 29.4389C150.264 29.2765 150.394 29.076 150.483 28.8374L151.89 29.0909C151.777 29.5052 151.575 29.8681 151.283 30.1797C150.995 30.4879 150.632 30.7282 150.195 30.9006C149.761 31.0696 149.265 31.1541 148.708 31.1541ZM157.171 33.8636V23.3636H158.623V24.6016H158.747C158.833 24.4425 158.957 24.2585 159.12 24.0497C159.282 23.8409 159.508 23.6586 159.796 23.5028C160.084 23.3438 160.465 23.2642 160.939 23.2642C161.556 23.2642 162.106 23.42 162.59 23.7315C163.074 24.0431 163.453 24.4922 163.728 25.0788C164.007 25.6655 164.146 26.3714 164.146 27.1967C164.146 28.022 164.008 28.7296 163.733 29.3196C163.458 29.9062 163.08 30.3587 162.6 30.6768C162.119 30.9917 161.571 31.1491 160.954 31.1491C160.49 31.1491 160.111 31.0713 159.816 30.9155C159.524 30.7597 159.295 30.5774 159.13 30.3686C158.964 30.1598 158.836 29.9742 158.747 29.8118H158.657V33.8636H157.171ZM158.628 27.1818C158.628 27.7187 158.705 28.1894 158.861 28.5938C159.017 28.9981 159.242 29.3146 159.537 29.5433C159.832 29.7687 160.194 29.8814 160.621 29.8814C161.065 29.8814 161.437 29.7637 161.735 29.5284C162.033 29.2898 162.258 28.9666 162.411 28.5589C162.567 28.1513 162.645 27.6922 162.645 27.1818C162.645 26.678 162.568 26.2256 162.416 25.8246C162.267 25.4235 162.041 25.107 161.74 24.875C161.441 24.643 161.069 24.527 160.621 24.527C160.19 24.527 159.826 24.638 159.527 24.8601C159.232 25.0821 159.009 25.392 158.856 25.7898C158.704 26.1875 158.628 26.6515 158.628 27.1818ZM170.565 27.8331V23.3636H172.056V31H170.595V29.6776H170.515C170.34 30.0852 170.058 30.425 169.67 30.6967C169.286 30.9652 168.807 31.0994 168.233 31.0994C167.743 31.0994 167.308 30.9917 166.931 30.7763C166.556 30.5575 166.261 30.2344 166.046 29.8068C165.834 29.3793 165.728 28.8506 165.728 28.2209V23.3636H167.214V28.0419C167.214 28.5623 167.358 28.9766 167.647 29.2848C167.935 29.593 168.309 29.7472 168.77 29.7472C169.049 29.7472 169.325 29.6776 169.6 29.5384C169.879 29.3991 170.109 29.1887 170.291 28.907C170.477 28.6252 170.568 28.2673 170.565 27.8331ZM173.97 31V23.3636H175.406V24.5767H175.486C175.625 24.1657 175.871 23.8426 176.222 23.6072C176.576 23.3686 176.978 23.2493 177.425 23.2493C177.518 23.2493 177.627 23.2526 177.753 23.2592C177.882 23.2659 177.983 23.2741 178.056 23.2841V24.706C177.997 24.6894 177.891 24.6712 177.738 24.6513C177.586 24.6281 177.433 24.6165 177.281 24.6165C176.929 24.6165 176.616 24.6911 176.341 24.8402C176.069 24.986 175.854 25.1899 175.695 25.4517C175.536 25.7102 175.456 26.0052 175.456 26.3366V31H173.97ZM182.202 31.1541C181.463 31.1541 180.826 30.9867 180.293 30.652C179.763 30.3139 179.355 29.8482 179.07 29.255C178.785 28.6617 178.642 27.9822 178.642 27.2166C178.642 26.4411 178.788 25.7566 179.08 25.1634C179.371 24.5668 179.782 24.1011 180.313 23.7663C180.843 23.4316 181.468 23.2642 182.187 23.2642C182.767 23.2642 183.284 23.3719 183.738 23.5874C184.192 23.7995 184.558 24.0978 184.837 24.4822C185.119 24.8667 185.286 25.3158 185.339 25.8295H183.892C183.813 25.4716 183.63 25.1634 183.345 24.9048C183.064 24.6463 182.686 24.517 182.212 24.517C181.798 24.517 181.435 24.6264 181.123 24.8452C180.815 25.0606 180.575 25.3688 180.402 25.7699C180.23 26.1676 180.144 26.6383 180.144 27.1818C180.144 27.7386 180.228 28.2192 180.397 28.6236C180.566 29.0279 180.805 29.3411 181.113 29.5632C181.425 29.7853 181.791 29.8963 182.212 29.8963C182.494 29.8963 182.749 29.8449 182.978 29.7422C183.21 29.6361 183.403 29.4853 183.559 29.2898C183.718 29.0942 183.829 28.8589 183.892 28.5838H185.339C185.286 29.0777 185.125 29.5185 184.857 29.9062C184.588 30.294 184.229 30.599 183.778 30.821C183.33 31.0431 182.805 31.1541 182.202 31.1541ZM188.331 26.4659V31H186.845V20.8182H188.311V24.6065H188.406C188.585 24.1955 188.858 23.8691 189.226 23.6271C189.594 23.3852 190.075 23.2642 190.668 23.2642C191.191 23.2642 191.649 23.3719 192.04 23.5874C192.434 23.8028 192.739 24.1243 192.955 24.5518C193.173 24.9761 193.283 25.5064 193.283 26.1428V31H191.796V26.3217C191.796 25.7616 191.652 25.3274 191.364 25.0192C191.075 24.7076 190.674 24.5518 190.161 24.5518C189.809 24.5518 189.495 24.6264 189.216 24.7756C188.941 24.9247 188.724 25.1435 188.565 25.4318C188.409 25.7169 188.331 26.0616 188.331 26.4659ZM197.405 31.169C196.921 31.169 196.483 31.0795 196.092 30.9006C195.701 30.7183 195.391 30.4548 195.163 30.1101C194.937 29.7654 194.825 29.3428 194.825 28.8423C194.825 28.4115 194.907 28.0568 195.073 27.7784C195.239 27.5 195.463 27.2796 195.744 27.1172C196.026 26.9548 196.341 26.8321 196.689 26.7493C197.037 26.6664 197.392 26.6035 197.753 26.5604C198.21 26.5073 198.581 26.4643 198.866 26.4311C199.152 26.3946 199.359 26.3366 199.488 26.2571C199.617 26.1776 199.682 26.0483 199.682 25.8693V25.8345C199.682 25.4003 199.559 25.0639 199.314 24.8253C199.072 24.5866 198.711 24.4673 198.23 24.4673C197.73 24.4673 197.335 24.5784 197.047 24.8004C196.762 25.0192 196.565 25.2628 196.455 25.5312L195.058 25.2131C195.224 24.7491 195.466 24.3745 195.784 24.0895C196.106 23.8011 196.475 23.5923 196.893 23.4631C197.31 23.3305 197.75 23.2642 198.21 23.2642C198.515 23.2642 198.838 23.3007 199.18 23.3736C199.524 23.4432 199.846 23.5724 200.144 23.7614C200.446 23.9503 200.693 24.2204 200.885 24.5717C201.077 24.9197 201.173 25.3722 201.173 25.929V31H199.722V29.956H199.662C199.566 30.1482 199.422 30.3371 199.229 30.5227C199.037 30.7083 198.79 30.8625 198.489 30.9851C198.187 31.1077 197.826 31.169 197.405 31.169ZM197.728 29.9759C198.139 29.9759 198.49 29.8946 198.782 29.7322C199.077 29.5698 199.301 29.3577 199.453 29.0959C199.609 28.8307 199.687 28.5473 199.687 28.2457V27.2614C199.634 27.3144 199.531 27.3641 199.379 27.4105C199.229 27.4536 199.059 27.4917 198.866 27.5249C198.674 27.5547 198.487 27.5829 198.305 27.6094C198.122 27.6326 197.97 27.6525 197.847 27.669C197.559 27.7055 197.295 27.7668 197.057 27.853C196.822 27.9392 196.633 28.0634 196.49 28.2259C196.351 28.3849 196.281 28.5971 196.281 28.8622C196.281 29.2301 196.417 29.5085 196.689 29.6974C196.961 29.883 197.307 29.9759 197.728 29.9759ZM208.792 25.228L207.444 25.4666C207.388 25.2943 207.298 25.1302 207.176 24.9744C207.056 24.8187 206.894 24.6911 206.689 24.5916C206.483 24.4922 206.226 24.4425 205.918 24.4425C205.497 24.4425 205.146 24.5369 204.864 24.7259C204.582 24.9115 204.441 25.1518 204.441 25.4467C204.441 25.7019 204.536 25.9074 204.725 26.0632C204.914 26.219 205.219 26.3466 205.64 26.446L206.853 26.7244C207.555 26.8868 208.079 27.1371 208.424 27.4751C208.768 27.8132 208.941 28.2524 208.941 28.7926C208.941 29.25 208.808 29.6577 208.543 30.0156C208.281 30.3703 207.915 30.6487 207.444 30.8509C206.977 31.053 206.435 31.1541 205.819 31.1541C204.963 31.1541 204.266 30.9718 203.725 30.6072C203.185 30.2393 202.854 29.7173 202.731 29.0412L204.168 28.8224C204.257 29.197 204.441 29.4804 204.72 29.6726C204.998 29.8615 205.361 29.956 205.809 29.956C206.296 29.956 206.685 29.8549 206.977 29.6527C207.269 29.4472 207.414 29.197 207.414 28.902C207.414 28.6634 207.325 28.4628 207.146 28.3004C206.97 28.138 206.7 28.0154 206.336 27.9325L205.043 27.6491C204.33 27.4867 203.803 27.2282 203.462 26.8736C203.124 26.5189 202.955 26.0698 202.955 25.5263C202.955 25.0755 203.081 24.6811 203.333 24.343C203.585 24.005 203.933 23.7415 204.377 23.5526C204.821 23.3603 205.33 23.2642 205.903 23.2642C206.728 23.2642 207.378 23.4432 207.852 23.8011C208.326 24.1558 208.639 24.6314 208.792 25.228ZM213.782 31.1541C213.03 31.1541 212.382 30.9934 211.838 30.6719C211.298 30.3471 210.881 29.8913 210.586 29.3047C210.294 28.7147 210.148 28.0237 210.148 27.2315C210.148 26.4493 210.294 25.7599 210.586 25.1634C210.881 24.5668 211.292 24.1011 211.819 23.7663C212.349 23.4316 212.969 23.2642 213.678 23.2642C214.109 23.2642 214.526 23.3355 214.931 23.478C215.335 23.6205 215.698 23.8442 216.02 24.1491C216.341 24.4541 216.595 24.8501 216.78 25.3374C216.966 25.8213 217.059 26.4096 217.059 27.1023V27.6293H210.988V26.5156H215.602C215.602 26.1245 215.522 25.7782 215.363 25.4766C215.204 25.1716 214.98 24.9313 214.692 24.7557C214.407 24.58 214.072 24.4922 213.688 24.4922C213.27 24.4922 212.906 24.5949 212.594 24.8004C212.286 25.0026 212.047 25.2678 211.878 25.5959C211.712 25.9207 211.63 26.2737 211.63 26.6548V27.5249C211.63 28.0353 211.719 28.4695 211.898 28.8274C212.08 29.1854 212.334 29.4588 212.659 29.6477C212.984 29.8333 213.363 29.9261 213.797 29.9261C214.079 29.9261 214.336 29.8864 214.568 29.8068C214.8 29.724 215 29.6013 215.169 29.4389C215.338 29.2765 215.468 29.076 215.557 28.8374L216.964 29.0909C216.851 29.5052 216.649 29.8681 216.358 30.1797C216.069 30.4879 215.706 30.7282 215.269 30.9006C214.835 31.0696 214.339 31.1541 213.782 31.1541ZM222.245 33.8636V23.3636H223.697V24.6016H223.821C223.907 24.4425 224.031 24.2585 224.194 24.0497C224.356 23.8409 224.582 23.6586 224.87 23.5028C225.158 23.3438 225.539 23.2642 226.013 23.2642C226.63 23.2642 227.18 23.42 227.664 23.7315C228.148 24.0431 228.527 24.4922 228.803 25.0788C229.081 25.6655 229.22 26.3714 229.22 27.1967C229.22 28.022 229.083 28.7296 228.807 29.3196C228.532 29.9062 228.155 30.3587 227.674 30.6768C227.193 30.9917 226.645 31.1491 226.028 31.1491C225.564 31.1491 225.185 31.0713 224.89 30.9155C224.598 30.7597 224.369 30.5774 224.204 30.3686C224.038 30.1598 223.91 29.9742 223.821 29.8118H223.731V33.8636H222.245ZM223.702 27.1818C223.702 27.7187 223.78 28.1894 223.935 28.5938C224.091 28.9981 224.316 29.3146 224.611 29.5433C224.906 29.7687 225.268 29.8814 225.695 29.8814C226.139 29.8814 226.511 29.7637 226.809 29.5284C227.107 29.2898 227.333 28.9666 227.485 28.5589C227.641 28.1513 227.719 27.6922 227.719 27.1818C227.719 26.678 227.642 26.2256 227.49 25.8246C227.341 25.4235 227.115 25.107 226.814 24.875C226.516 24.643 226.143 24.527 225.695 24.527C225.264 24.527 224.9 24.638 224.602 24.8601C224.307 25.0821 224.083 25.392 223.93 25.7898C223.778 26.1875 223.702 26.6515 223.702 27.1818ZM230.802 31V23.3636H232.238V24.5767H232.318C232.457 24.1657 232.702 23.8426 233.054 23.6072C233.408 23.3686 233.809 23.2493 234.257 23.2493C234.35 23.2493 234.459 23.2526 234.585 23.2592C234.714 23.2659 234.815 23.2741 234.888 23.2841V24.706C234.829 24.6894 234.723 24.6712 234.57 24.6513C234.418 24.6281 234.265 24.6165 234.113 24.6165C233.761 24.6165 233.448 24.6911 233.173 24.8402C232.901 24.986 232.686 25.1899 232.527 25.4517C232.368 25.7102 232.288 26.0052 232.288 26.3366V31H230.802ZM236.091 31V23.3636H237.577V31H236.091ZM236.841 22.1854C236.583 22.1854 236.361 22.0992 236.175 21.9268C235.993 21.7512 235.902 21.5424 235.902 21.3004C235.902 21.0552 235.993 20.8464 236.175 20.674C236.361 20.4983 236.583 20.4105 236.841 20.4105C237.1 20.4105 237.32 20.4983 237.503 20.674C237.688 20.8464 237.781 21.0552 237.781 21.3004C237.781 21.5424 237.688 21.7512 237.503 21.9268C237.32 22.0992 237.1 22.1854 236.841 22.1854ZM242.71 31.1541C241.97 31.1541 241.334 30.9867 240.801 30.652C240.27 30.3139 239.863 29.8482 239.577 29.255C239.292 28.6617 239.15 27.9822 239.15 27.2166C239.15 26.4411 239.296 25.7566 239.587 25.1634C239.879 24.5668 240.29 24.1011 240.82 23.7663C241.351 23.4316 241.975 23.2642 242.695 23.2642C243.275 23.2642 243.792 23.3719 244.246 23.5874C244.7 23.7995 245.066 24.0978 245.345 24.4822C245.626 24.8667 245.794 25.3158 245.847 25.8295H244.4C244.32 25.4716 244.138 25.1634 243.853 24.9048C243.571 24.6463 243.193 24.517 242.72 24.517C242.305 24.517 241.942 24.6264 241.631 24.8452C241.323 25.0606 241.082 25.3688 240.91 25.7699C240.738 26.1676 240.651 26.6383 240.651 27.1818C240.651 27.7386 240.736 28.2192 240.905 28.6236C241.074 29.0279 241.313 29.3411 241.621 29.5632C241.932 29.7853 242.299 29.8963 242.72 29.8963C243.001 29.8963 243.256 29.8449 243.485 29.7422C243.717 29.6361 243.911 29.4853 244.067 29.2898C244.226 29.0942 244.337 28.8589 244.4 28.5838H245.847C245.794 29.0777 245.633 29.5185 245.364 29.9062C245.096 30.294 244.736 30.599 244.286 30.821C243.838 31.0431 243.313 31.1541 242.71 31.1541ZM250.644 31.1541C249.891 31.1541 249.243 30.9934 248.7 30.6719C248.159 30.3471 247.742 29.8913 247.447 29.3047C247.155 28.7147 247.009 28.0237 247.009 27.2315C247.009 26.4493 247.155 25.7599 247.447 25.1634C247.742 24.5668 248.153 24.1011 248.68 23.7663C249.21 23.4316 249.83 23.2642 250.539 23.2642C250.97 23.2642 251.388 23.3355 251.792 23.478C252.196 23.6205 252.559 23.8442 252.881 24.1491C253.202 24.4541 253.456 24.8501 253.641 25.3374C253.827 25.8213 253.92 26.4096 253.92 27.1023V27.6293H247.849V26.5156H252.463C252.463 26.1245 252.384 25.7782 252.224 25.4766C252.065 25.1716 251.842 24.9313 251.553 24.7557C251.268 24.58 250.934 24.4922 250.549 24.4922C250.131 24.4922 249.767 24.5949 249.455 24.8004C249.147 25.0026 248.908 25.2678 248.739 25.5959C248.574 25.9207 248.491 26.2737 248.491 26.6548V27.5249C248.491 28.0353 248.58 28.4695 248.759 28.8274C248.942 29.1854 249.195 29.4588 249.52 29.6477C249.845 29.8333 250.224 29.9261 250.658 29.9261C250.94 29.9261 251.197 29.8864 251.429 29.8068C251.661 29.724 251.862 29.6013 252.031 29.4389C252.2 29.2765 252.329 29.076 252.418 28.8374L253.825 29.0909C253.713 29.5052 253.51 29.8681 253.219 30.1797C252.93 30.4879 252.568 30.7282 252.13 30.9006C251.696 31.0696 251.2 31.1541 250.644 31.1541ZM259.106 31V23.3636H260.593V31H259.106ZM259.857 22.1854C259.598 22.1854 259.376 22.0992 259.191 21.9268C259.008 21.7512 258.917 21.5424 258.917 21.3004C258.917 21.0552 259.008 20.8464 259.191 20.674C259.376 20.4983 259.598 20.4105 259.857 20.4105C260.115 20.4105 260.336 20.4983 260.518 20.674C260.704 20.8464 260.797 21.0552 260.797 21.3004C260.797 21.5424 260.704 21.7512 260.518 21.9268C260.336 22.0992 260.115 22.1854 259.857 22.1854ZM268.231 25.228L266.884 25.4666C266.827 25.2943 266.738 25.1302 266.615 24.9744C266.496 24.8187 266.333 24.6911 266.128 24.5916C265.922 24.4922 265.665 24.4425 265.357 24.4425C264.936 24.4425 264.585 24.5369 264.303 24.7259C264.022 24.9115 263.881 25.1518 263.881 25.4467C263.881 25.7019 263.975 25.9074 264.164 26.0632C264.353 26.219 264.658 26.3466 265.079 26.446L266.292 26.7244C266.995 26.8868 267.518 27.1371 267.863 27.4751C268.208 27.8132 268.38 28.2524 268.38 28.7926C268.38 29.25 268.247 29.6577 267.982 30.0156C267.72 30.3703 267.354 30.6487 266.884 30.8509C266.416 31.053 265.874 31.1541 265.258 31.1541C264.403 31.1541 263.705 30.9718 263.165 30.6072C262.625 30.2393 262.293 29.7173 262.17 29.0412L263.607 28.8224C263.697 29.197 263.881 29.4804 264.159 29.6726C264.438 29.8615 264.8 29.956 265.248 29.956C265.735 29.956 266.125 29.8549 266.416 29.6527C266.708 29.4472 266.854 29.197 266.854 28.902C266.854 28.6634 266.764 28.4628 266.585 28.3004C266.41 28.138 266.139 28.0154 265.775 27.9325L264.482 27.6491C263.77 27.4867 263.243 27.2282 262.901 26.8736C262.563 26.5189 262.394 26.0698 262.394 25.5263C262.394 25.0755 262.52 24.6811 262.772 24.343C263.024 24.005 263.372 23.7415 263.816 23.5526C264.26 23.3603 264.769 23.2642 265.342 23.2642C266.168 23.2642 266.817 23.4432 267.291 23.8011C267.765 24.1558 268.078 24.6314 268.231 25.228ZM51.8999 51H44.9396V49.6776H51.8999V51ZM49.8118 47.0128H44.9048V45.6903H49.8118V47.0128ZM47.4006 43.831L47.5597 48.1214C47.5795 48.549 47.5249 48.9318 47.3956 49.2699C47.2663 49.6046 47.0327 49.8714 46.6946 50.0703L45.4219 49.6776C45.6009 49.6676 45.7384 49.5765 45.8345 49.4041C45.9306 49.2318 45.9953 49.0296 46.0284 48.7976C46.0616 48.5623 46.0748 48.3501 46.0682 48.1612L45.924 43.831C45.8975 43.1349 46.0268 42.5533 46.3118 42.0859C46.6001 41.6186 46.983 41.2673 47.4602 41.032C47.9375 40.7966 48.4512 40.679 49.0014 40.679C49.492 40.679 49.9328 40.7602 50.3239 40.9226C50.7183 41.085 51.0497 41.3071 51.3182 41.5888C51.59 41.8672 51.7839 42.1854 51.8999 42.5433C52.0159 42.9013 52.0391 43.2775 51.9695 43.6719L50.5327 43.4432C50.5658 43.1184 50.5144 42.8482 50.3786 42.6328C50.2427 42.4174 50.0554 42.255 49.8168 42.1456C49.5781 42.0362 49.3246 41.9815 49.0561 41.9815C48.7744 41.9815 48.5059 42.0478 48.2507 42.1804C47.9988 42.313 47.7933 42.5152 47.6342 42.7869C47.4785 43.0587 47.4006 43.4067 47.4006 43.831ZM57.2796 51.1392C56.6565 51.1392 56.0964 51.0199 55.5992 50.7812C55.1054 50.5393 54.711 50.2079 54.416 49.7869C54.121 49.366 53.9636 48.8854 53.9437 48.3452H55.4352C55.4716 48.7827 55.6655 49.1423 56.0169 49.424C56.3682 49.7057 56.7891 49.8466 57.2796 49.8466C57.6707 49.8466 58.0171 49.7571 58.3187 49.5781C58.6236 49.3958 58.8623 49.1456 59.0346 48.8274C59.2103 48.5092 59.2981 48.1463 59.2981 47.7386C59.2981 47.3243 59.2086 46.9548 59.0296 46.63C58.8507 46.3052 58.6037 46.05 58.2889 45.8643C57.9773 45.6787 57.6194 45.5843 57.215 45.581C56.9068 45.581 56.5969 45.634 56.2853 45.7401C55.9738 45.8461 55.7219 45.9853 55.5296 46.1577L54.1227 45.9489L54.6944 40.8182H60.2924V42.1357H55.9721L55.649 44.9844H55.7086C55.9075 44.7921 56.171 44.6314 56.4991 44.5021C56.8305 44.3729 57.1852 44.3082 57.563 44.3082C58.1828 44.3082 58.7347 44.4557 59.2186 44.7507C59.7058 45.0457 60.0886 45.4484 60.367 45.9588C60.6487 46.4659 60.7879 47.0492 60.7846 47.7088C60.7879 48.3684 60.6388 48.9567 60.3372 49.4737C60.0389 49.9908 59.6246 50.3984 59.0943 50.6967C58.5673 50.9917 57.9624 51.1392 57.2796 51.1392ZM66.0612 51.169C65.2757 51.1657 64.6046 50.9586 64.0477 50.5476C63.4909 50.1366 63.065 49.5384 62.77 48.7528C62.4751 47.9673 62.3276 47.0211 62.3276 45.9141C62.3276 44.8104 62.4751 43.8674 62.77 43.0852C63.0683 42.303 63.4959 41.7064 64.0527 41.2955C64.6128 40.8845 65.2823 40.679 66.0612 40.679C66.8401 40.679 67.508 40.8861 68.0648 41.3004C68.6216 41.7114 69.0475 42.308 69.3425 43.0902C69.6408 43.8691 69.7899 44.8104 69.7899 45.9141C69.7899 47.0244 69.6424 47.9723 69.3474 48.7578C69.0525 49.54 68.6266 50.1383 68.0697 50.5526C67.5129 50.9635 66.8434 51.169 66.0612 51.169ZM66.0612 49.8416C66.7506 49.8416 67.2892 49.5052 67.677 48.8324C68.0681 48.1596 68.2636 47.1868 68.2636 45.9141C68.2636 45.0689 68.1742 44.3546 67.9952 43.7713C67.8195 43.1847 67.566 42.7405 67.2345 42.4389C66.9064 42.134 66.5153 41.9815 66.0612 41.9815C65.3751 41.9815 64.8366 42.3196 64.4455 42.9957C64.0544 43.6719 63.8572 44.6446 63.8538 45.9141C63.8538 46.7625 63.9417 47.4801 64.1173 48.0668C64.2963 48.6501 64.5499 49.0926 64.878 49.3942C65.2061 49.6925 65.6005 49.8416 66.0612 49.8416ZM75.0143 51.169C74.2288 51.1657 73.5577 50.9586 73.0008 50.5476C72.444 50.1366 72.0181 49.5384 71.7231 48.7528C71.4282 47.9673 71.2807 47.0211 71.2807 45.9141C71.2807 44.8104 71.4282 43.8674 71.7231 43.0852C72.0214 42.303 72.449 41.7064 73.0058 41.2955C73.5659 40.8845 74.2355 40.679 75.0143 40.679C75.7932 40.679 76.4611 40.8861 77.0179 41.3004C77.5747 41.7114 78.0006 42.308 78.2956 43.0902C78.5939 43.8691 78.743 44.8104 78.743 45.9141C78.743 47.0244 78.5955 47.9723 78.3006 48.7578C78.0056 49.54 77.5797 50.1383 77.0229 50.5526C76.466 50.9635 75.7965 51.169 75.0143 51.169ZM75.0143 49.8416C75.7037 49.8416 76.2423 49.5052 76.6301 48.8324C77.0212 48.1596 77.2167 47.1868 77.2167 45.9141C77.2167 45.0689 77.1273 44.3546 76.9483 43.7713C76.7726 43.1847 76.5191 42.7405 76.1876 42.4389C75.8595 42.134 75.4684 41.9815 75.0143 41.9815C74.3283 41.9815 73.7897 42.3196 73.3986 42.9957C73.0075 43.6719 72.8103 44.6446 72.8069 45.9141C72.8069 46.7625 72.8948 47.4801 73.0704 48.0668C73.2494 48.6501 73.503 49.0926 73.8311 49.3942C74.1592 49.6925 74.5536 49.8416 75.0143 49.8416ZM82.0074 49.608L81.9328 50.1499C81.8831 50.5476 81.7986 50.9619 81.6793 51.3928C81.5633 51.8269 81.4423 52.2296 81.3163 52.6009C81.1937 52.9721 81.0926 53.267 81.0131 53.4858H79.9591C80.0022 53.2803 80.0618 53.0019 80.1381 52.6506C80.2143 52.3026 80.2889 51.9131 80.3618 51.4822C80.4347 51.0514 80.4894 50.6122 80.5259 50.1648L80.5756 49.608H82.0074ZM87.1784 51.169C86.3929 51.1657 85.7217 50.9586 85.1649 50.5476C84.6081 50.1366 84.1822 49.5384 83.8872 48.7528C83.5922 47.9673 83.4447 47.0211 83.4447 45.9141C83.4447 44.8104 83.5922 43.8674 83.8872 43.0852C84.1855 42.303 84.613 41.7064 85.1698 41.2955C85.73 40.8845 86.3995 40.679 87.1784 40.679C87.9573 40.679 88.6251 40.8861 89.1819 41.3004C89.7387 41.7114 90.1646 42.308 90.4596 43.0902C90.7579 43.8691 90.9071 44.8104 90.9071 45.9141C90.9071 47.0244 90.7596 47.9723 90.4646 48.7578C90.1696 49.54 89.7437 50.1383 89.1869 50.5526C88.6301 50.9635 87.9606 51.169 87.1784 51.169ZM87.1784 49.8416C87.8678 49.8416 88.4064 49.5052 88.7941 48.8324C89.1852 48.1596 89.3808 47.1868 89.3808 45.9141C89.3808 45.0689 89.2913 44.3546 89.1123 43.7713C88.9367 43.1847 88.6831 42.7405 88.3517 42.4389C88.0235 42.134 87.6324 41.9815 87.1784 41.9815C86.4923 41.9815 85.9537 42.3196 85.5626 42.9957C85.1715 43.6719 84.9743 44.6446 84.971 45.9141C84.971 46.7625 85.0588 47.4801 85.2345 48.0668C85.4135 48.6501 85.667 49.0926 85.9951 49.3942C86.3233 49.6925 86.7177 49.8416 87.1784 49.8416ZM96.1315 51.169C95.346 51.1657 94.6748 50.9586 94.118 50.5476C93.5612 50.1366 93.1353 49.5384 92.8403 48.7528C92.5453 47.9673 92.3978 47.0211 92.3978 45.9141C92.3978 44.8104 92.5453 43.8674 92.8403 43.0852C93.1386 42.303 93.5661 41.7064 94.123 41.2955C94.6831 40.8845 95.3526 40.679 96.1315 40.679C96.9104 40.679 97.5782 40.8861 98.135 41.3004C98.6918 41.7114 99.1177 42.308 99.4127 43.0902C99.711 43.8691 99.8602 44.8104 99.8602 45.9141C99.8602 47.0244 99.7127 47.9723 99.4177 48.7578C99.1227 49.54 98.6968 50.1383 98.14 50.5526C97.5832 50.9635 96.9137 51.169 96.1315 51.169ZM96.1315 49.8416C96.8209 49.8416 97.3595 49.5052 97.7472 48.8324C98.1383 48.1596 98.3339 47.1868 98.3339 45.9141C98.3339 45.0689 98.2444 44.3546 98.0654 43.7713C97.8898 43.1847 97.6362 42.7405 97.3048 42.4389C96.9766 42.134 96.5855 41.9815 96.1315 41.9815C95.4454 41.9815 94.9068 42.3196 94.5157 42.9957C94.1246 43.6719 93.9274 44.6446 93.9241 45.9141C93.9241 46.7625 94.0119 47.4801 94.1876 48.0668C94.3666 48.6501 94.6201 49.0926 94.9482 49.3942C95.2764 49.6925 95.6708 49.8416 96.1315 49.8416ZM105.085 51.169C104.299 51.1657 103.628 50.9586 103.071 50.5476C102.514 50.1366 102.088 49.5384 101.793 48.7528C101.498 47.9673 101.351 47.0211 101.351 45.9141C101.351 44.8104 101.498 43.8674 101.793 43.0852C102.092 42.303 102.519 41.7064 103.076 41.2955C103.636 40.8845 104.306 40.679 105.085 40.679C105.863 40.679 106.531 40.8861 107.088 41.3004C107.645 41.7114 108.071 42.308 108.366 43.0902C108.664 43.8691 108.813 44.8104 108.813 45.9141C108.813 47.0244 108.666 47.9723 108.371 48.7578C108.076 49.54 107.65 50.1383 107.093 50.5526C106.536 50.9635 105.867 51.169 105.085 51.169ZM105.085 49.8416C105.774 49.8416 106.313 49.5052 106.7 48.8324C107.091 48.1596 107.287 47.1868 107.287 45.9141C107.287 45.0689 107.198 44.3546 107.019 43.7713C106.843 43.1847 106.589 42.7405 106.258 42.4389C105.93 42.134 105.539 41.9815 105.085 41.9815C104.399 41.9815 103.86 42.3196 103.469 42.9957C103.078 43.6719 102.881 44.6446 102.877 45.9141C102.877 46.7625 102.965 47.4801 103.141 48.0668C103.32 48.6501 103.573 49.0926 103.901 49.3942C104.229 49.6925 104.624 49.8416 105.085 49.8416Z" fill="#212329"/>
<rect x="44.5" y="72.5" width="126.5" height="31" rx="5.5" fill="white"/>
<rect x="44.5" y="72.5" width="126.5" height="31" rx="5.5" stroke="#EDEEF1"/>
<rect x="54.5" y="80.5" width="15" height="15" rx="7.5" stroke="#B4BAC5"/>
<path d="M78.3331 82.8182H80.0781L82.7379 87.4467H82.8473L85.5071 82.8182H87.2521L83.5582 89.0028V93H82.027V89.0028L78.3331 82.8182ZM90.5327 93.1541C89.7803 93.1541 89.1323 92.9934 88.5888 92.6719C88.0485 92.3471 87.6309 91.8913 87.3359 91.3047C87.0443 90.7147 86.8984 90.0237 86.8984 89.2315C86.8984 88.4493 87.0443 87.7599 87.3359 87.1634C87.6309 86.5668 88.0419 86.1011 88.5689 85.7663C89.0992 85.4316 89.719 85.2642 90.4283 85.2642C90.8591 85.2642 91.2767 85.3355 91.6811 85.478C92.0854 85.6205 92.4484 85.8442 92.7699 86.1491C93.0914 86.4541 93.3449 86.8501 93.5305 87.3374C93.7161 87.8213 93.8089 88.4096 93.8089 89.1023V89.6293H87.7386V88.5156H92.3523C92.3523 88.1245 92.2727 87.7782 92.1136 87.4766C91.9545 87.1716 91.7308 86.9313 91.4425 86.7557C91.1574 86.58 90.8227 86.4922 90.4382 86.4922C90.0206 86.4922 89.656 86.5949 89.3444 86.8004C89.0362 87.0026 88.7976 87.2678 88.6285 87.5959C88.4628 87.9207 88.38 88.2737 88.38 88.6548V89.5249C88.38 90.0353 88.4694 90.4695 88.6484 90.8274C88.8307 91.1854 89.0843 91.4588 89.4091 91.6477C89.7339 91.8333 90.1134 91.9261 90.5476 91.9261C90.8293 91.9261 91.0862 91.8864 91.3182 91.8068C91.5502 91.724 91.7507 91.6013 91.9197 91.4389C92.0888 91.2765 92.218 91.076 92.3075 90.8374L93.7145 91.0909C93.6018 91.5052 93.3996 91.8681 93.1079 92.1797C92.8196 92.4879 92.4567 92.7282 92.0192 92.9006C91.585 93.0696 91.0895 93.1541 90.5327 93.1541ZM101.097 87.228L99.7493 87.4666C99.6929 87.2943 99.6034 87.1302 99.4808 86.9744C99.3615 86.8187 99.1991 86.6911 98.9936 86.5916C98.7881 86.4922 98.5312 86.4425 98.223 86.4425C97.8021 86.4425 97.4507 86.5369 97.169 86.7259C96.8873 86.9115 96.7464 87.1518 96.7464 87.4467C96.7464 87.7019 96.8409 87.9074 97.0298 88.0632C97.2187 88.219 97.5236 88.3466 97.9446 88.446L99.1576 88.7244C99.8603 88.8868 100.384 89.1371 100.729 89.4751C101.073 89.8132 101.246 90.2524 101.246 90.7926C101.246 91.25 101.113 91.6577 100.848 92.0156C100.586 92.3703 100.22 92.6487 99.7493 92.8509C99.2819 93.053 98.74 93.1541 98.1235 93.1541C97.2684 93.1541 96.5708 92.9718 96.0305 92.6072C95.4903 92.2393 95.1588 91.7173 95.0362 91.0412L96.473 90.8224C96.5625 91.197 96.7464 91.4804 97.0248 91.6726C97.3032 91.8615 97.6662 91.956 98.1136 91.956C98.6008 91.956 98.9903 91.8549 99.2819 91.6527C99.5736 91.4472 99.7194 91.197 99.7194 90.902C99.7194 90.6634 99.6299 90.4628 99.451 90.3004C99.2753 90.138 99.0052 90.0154 98.6406 89.9325L97.348 89.6491C96.6354 89.4867 96.1084 89.2282 95.767 88.8736C95.4289 88.5189 95.2599 88.0698 95.2599 87.5263C95.2599 87.0755 95.3859 86.6811 95.6378 86.343C95.8896 86.005 96.2377 85.7415 96.6818 85.5526C97.1259 85.3603 97.6347 85.2642 98.2081 85.2642C99.0334 85.2642 99.683 85.4432 100.157 85.8011C100.631 86.1558 100.944 86.6314 101.097 87.228Z" fill="#576072"/>
<rect x="180" y="72.5" width="126.5" height="31" rx="5.5" fill="white"/>
<rect x="180" y="72.5" width="126.5" height="31" rx="5.5" stroke="#EDEEF1"/>
<rect x="190" y="80.5" width="15" height="15" rx="7.5" stroke="#B4BAC5"/>
<path d="M222.837 82.8182V93H221.425L216.249 85.5327H216.155V93H214.619V82.8182H216.04L221.221 90.2955H221.315V82.8182H222.837ZM228.091 93.1541C227.375 93.1541 226.75 92.9901 226.217 92.6619C225.683 92.3338 225.269 91.8748 224.974 91.2848C224.679 90.6948 224.531 90.0054 224.531 89.2166C224.531 88.4245 224.679 87.7318 224.974 87.1385C225.269 86.5452 225.683 86.0845 226.217 85.7564C226.75 85.4283 227.375 85.2642 228.091 85.2642C228.807 85.2642 229.432 85.4283 229.965 85.7564C230.499 86.0845 230.913 86.5452 231.208 87.1385C231.503 87.7318 231.651 88.4245 231.651 89.2166C231.651 90.0054 231.503 90.6948 231.208 91.2848C230.913 91.8748 230.499 92.3338 229.965 92.6619C229.432 92.9901 228.807 93.1541 228.091 93.1541ZM228.096 91.9062C228.56 91.9062 228.944 91.7836 229.249 91.5384C229.554 91.2931 229.78 90.9666 229.925 90.5589C230.075 90.1513 230.149 89.7022 230.149 89.2116C230.149 88.7244 230.075 88.277 229.925 87.8693C229.78 87.4583 229.554 87.1286 229.249 86.88C228.944 86.6314 228.56 86.5071 228.096 86.5071C227.629 86.5071 227.241 86.6314 226.933 86.88C226.628 87.1286 226.401 87.4583 226.251 87.8693C226.106 88.277 226.033 88.7244 226.033 89.2116C226.033 89.7022 226.106 90.1513 226.251 90.5589C226.401 90.9666 226.628 91.2931 226.933 91.5384C227.241 91.7836 227.629 91.9062 228.096 91.9062Z" fill="#576072"/>
</g>
<path d="M319 120V119H0V120V121H319V120Z" fill="#E4E7EC" mask="url(#path-4-inside-1_3_5452)"/>
</g>
<rect x="0.5" y="0.5" width="318" height="119" rx="7.5" stroke="#E4E7EC"/>
<defs>
<clipPath id="clip0_3_5452">
<rect width="319" height="120" rx="8" fill="white"/>
</clipPath>
<clipPath id="clip1_3_5452">
<path d="M0 0H319V120H0V0Z" fill="white"/>
</clipPath>
</defs>
</svg>
