<svg width="280" height="102" viewBox="0 0 280 102" fill="none" xmlns="http://www.w3.org/2000/svg">
<rect x="0.5" y="0.5" width="279" height="101" rx="11.5" fill="white"/>
<rect x="0.5" y="0.5" width="279" height="101" rx="11.5" stroke="#E4E7EC"/>
<path d="M20.5568 26.3643V24.8182H28.6804V26.3643H25.5334V35H23.7038V26.3643H20.5568ZM32.3064 35.1491C31.5607 35.1491 30.9144 34.9851 30.3675 34.657C29.8207 34.3288 29.3964 33.8698 29.0948 33.2798C28.7965 32.6899 28.6474 32.0005 28.6474 31.2116C28.6474 30.4228 28.7965 29.7318 29.0948 29.1385C29.3964 28.5452 29.8207 28.0845 30.3675 27.7564C30.9144 27.4283 31.5607 27.2642 32.3064 27.2642C33.0522 27.2642 33.6985 27.4283 34.2454 27.7564C34.7922 28.0845 35.2148 28.5452 35.5131 29.1385C35.8147 29.7318 35.9655 30.4228 35.9655 31.2116C35.9655 32.0005 35.8147 32.6899 35.5131 33.2798C35.2148 33.8698 34.7922 34.3288 34.2454 34.657C33.6985 34.9851 33.0522 35.1491 32.3064 35.1491ZM32.3164 33.7074C32.7207 33.7074 33.0588 33.5964 33.3306 33.3743C33.6024 33.1489 33.8046 32.8473 33.9371 32.4695C34.073 32.0916 34.141 31.6707 34.141 31.2067C34.141 30.7393 34.073 30.3168 33.9371 29.9389C33.8046 29.5578 33.6024 29.2545 33.3306 29.0291C33.0588 28.8037 32.7207 28.6911 32.3164 28.6911C31.9021 28.6911 31.5574 28.8037 31.2823 29.0291C31.0105 29.2545 30.8067 29.5578 30.6708 29.9389C30.5382 30.3168 30.4719 30.7393 30.4719 31.2067C30.4719 31.6707 30.5382 32.0916 30.6708 32.4695C30.8067 32.8473 31.0105 33.1489 31.2823 33.3743C31.5574 33.5964 31.9021 33.7074 32.3164 33.7074ZM41.2223 27.3636V28.7557H36.8324V27.3636H41.2223ZM37.9162 25.5341H39.7159V32.7031C39.7159 32.9451 39.7523 33.1307 39.8253 33.2599C39.9015 33.3859 40.0009 33.4721 40.1235 33.5185C40.2462 33.5649 40.3821 33.5881 40.5312 33.5881C40.6439 33.5881 40.7467 33.5798 40.8395 33.5632C40.9356 33.5466 41.0085 33.5317 41.0582 33.5185L41.3615 34.9254C41.2654 34.9586 41.1278 34.995 40.9488 35.0348C40.7732 35.0746 40.5577 35.0978 40.3025 35.1044C39.8518 35.1177 39.4458 35.0497 39.0845 34.9006C38.7232 34.7481 38.4365 34.5128 38.2244 34.1946C38.0156 33.8764 37.9128 33.4787 37.9162 33.0014V25.5341ZM44.8409 35.1541C44.357 35.1541 43.9211 35.0679 43.5333 34.8956C43.1489 34.7199 42.8439 34.4614 42.6186 34.12C42.3965 33.7786 42.2855 33.3577 42.2855 32.8572C42.2855 32.4264 42.365 32.0701 42.5241 31.7884C42.6832 31.5066 42.9003 31.2812 43.1754 31.1122C43.4505 30.9432 43.7604 30.8156 44.1051 30.7294C44.4531 30.6399 44.8127 30.5753 45.1839 30.5355C45.6313 30.4891 45.9943 30.4477 46.2727 30.4112C46.5511 30.3714 46.7533 30.3118 46.8792 30.2322C47.0085 30.1494 47.0731 30.0218 47.0731 29.8494V29.8196C47.0731 29.4451 46.9621 29.1551 46.74 28.9496C46.5179 28.7441 46.1981 28.6413 45.7805 28.6413C45.3397 28.6413 44.99 28.7375 44.7315 28.9297C44.4763 29.1219 44.3039 29.349 44.2144 29.6108L42.534 29.3722C42.6666 28.9081 42.8854 28.5204 43.1903 28.2088C43.4952 27.8939 43.8681 27.6586 44.3089 27.5028C44.7497 27.3438 45.2369 27.2642 45.7705 27.2642C46.1384 27.2642 46.5047 27.3073 46.8693 27.3935C47.2339 27.4796 47.567 27.6222 47.8686 27.821C48.1702 28.0166 48.4121 28.2834 48.5944 28.6214C48.78 28.9595 48.8728 29.3821 48.8728 29.8892V35H47.1427V33.951H47.083C46.9737 34.1631 46.8196 34.362 46.6207 34.5476C46.4251 34.7299 46.1782 34.8774 45.8799 34.9901C45.5849 35.0994 45.2386 35.1541 44.8409 35.1541ZM45.3082 33.8317C45.6695 33.8317 45.9827 33.7604 46.2478 33.6179C46.513 33.4721 46.7168 33.2798 46.8593 33.0412C47.0052 32.8026 47.0781 32.5424 47.0781 32.2607V31.3608C47.0217 31.4072 46.9256 31.4503 46.7897 31.4901C46.6571 31.5298 46.508 31.5646 46.3423 31.5945C46.1766 31.6243 46.0125 31.6508 45.8501 31.674C45.6877 31.6972 45.5468 31.7171 45.4275 31.7337C45.159 31.7701 44.9187 31.8298 44.7066 31.9126C44.4945 31.9955 44.3271 32.1115 44.2045 32.2607C44.0819 32.4065 44.0205 32.5954 44.0205 32.8274C44.0205 33.1589 44.1415 33.4091 44.3835 33.5781C44.6254 33.7472 44.9337 33.8317 45.3082 33.8317ZM52.3982 24.8182V35H50.5985V24.8182H52.3982ZM57.5535 35V27.3636H59.3532V35H57.5535ZM58.4584 26.2798C58.1733 26.2798 57.9281 26.1854 57.7226 25.9964C57.5171 25.8042 57.4143 25.5739 57.4143 25.3054C57.4143 25.0336 57.5171 24.8033 57.7226 24.6143C57.9281 24.4221 58.1733 24.326 58.4584 24.326C58.7467 24.326 58.992 24.4221 59.1942 24.6143C59.3996 24.8033 59.5024 25.0336 59.5024 25.3054C59.5024 25.5739 59.3996 25.8042 59.1942 25.9964C58.992 26.1854 58.7467 26.2798 58.4584 26.2798ZM62.9196 30.5256V35H61.1199V27.3636H62.8401V28.6612H62.9296C63.1052 28.2337 63.3853 27.8939 63.7698 27.642C64.1576 27.3902 64.6365 27.2642 65.2066 27.2642C65.7336 27.2642 66.1926 27.3769 66.5837 27.6023C66.9781 27.8277 67.283 28.1541 67.4985 28.5817C67.7172 29.0092 67.8249 29.5279 67.8216 30.1378V35H66.0219V30.4162C66.0219 29.9058 65.8893 29.5064 65.6242 29.218C65.3623 28.9297 64.9994 28.7855 64.5354 28.7855C64.2205 28.7855 63.9405 28.8551 63.6952 28.9943C63.4533 29.1302 63.2627 29.3274 63.1235 29.5859C62.9876 29.8445 62.9196 30.1577 62.9196 30.5256ZM76.1148 27.3636L73.3953 35H71.4067L68.6872 27.3636H70.6062L72.3612 33.0362H72.4407L74.2007 27.3636H76.1148ZM80.3971 35.1491C79.6314 35.1491 78.9702 34.9901 78.4134 34.6719C77.8599 34.3504 77.434 33.8963 77.1357 33.3097C76.8374 32.7197 76.6882 32.0253 76.6882 31.2266C76.6882 30.4411 76.8374 29.7517 77.1357 29.1584C77.4373 28.5618 77.8582 28.0978 78.3985 27.7663C78.9387 27.4316 79.5734 27.2642 80.3026 27.2642C80.7732 27.2642 81.2174 27.3404 81.635 27.4929C82.0559 27.642 82.4271 27.8741 82.7486 28.1889C83.0734 28.5038 83.3286 28.9048 83.5142 29.392C83.6998 29.8759 83.7927 30.4527 83.7927 31.1222V31.674H77.5334V30.4609H82.0675C82.0642 30.1162 81.9896 29.8097 81.8438 29.5412C81.698 29.2694 81.4941 29.0556 81.2323 28.8999C80.9738 28.7441 80.6721 28.6662 80.3275 28.6662C79.9596 28.6662 79.6364 28.7557 79.358 28.9347C79.0796 29.1103 78.8625 29.3423 78.7067 29.6307C78.5543 29.9157 78.4764 30.2289 78.473 30.5703V31.6293C78.473 32.0734 78.5543 32.4545 78.7167 32.7727C78.8791 33.0876 79.1061 33.3295 79.3978 33.4986C79.6894 33.6643 80.0308 33.7472 80.4219 33.7472C80.6837 33.7472 80.9207 33.7107 81.1328 33.6378C81.345 33.5616 81.5289 33.4505 81.6847 33.3047C81.8405 33.1589 81.9581 32.9782 82.0377 32.7628L83.7181 32.9517C83.612 33.3958 83.4098 33.7836 83.1115 34.1151C82.8166 34.4432 82.4387 34.6984 81.978 34.8807C81.5173 35.0597 80.9903 35.1491 80.3971 35.1491ZM91.2667 29.3821L89.6261 29.5611C89.5797 29.3954 89.4985 29.2396 89.3825 29.0938C89.2698 28.9479 89.1173 28.8303 88.9251 28.7408C88.7329 28.6513 88.4975 28.6065 88.2191 28.6065C87.8446 28.6065 87.5297 28.6877 87.2745 28.8501C87.0226 29.0125 86.8983 29.223 86.9017 29.4815C86.8983 29.7036 86.9795 29.8842 87.1453 30.0234C87.3143 30.1626 87.5927 30.277 87.9805 30.3665L89.2831 30.6449C90.0056 30.8007 90.5425 31.0476 90.8938 31.3857C91.2485 31.7237 91.4275 32.1662 91.4308 32.7131C91.4275 33.1937 91.2866 33.6179 91.0082 33.9858C90.7331 34.3504 90.3503 34.6354 89.8598 34.8409C89.3692 35.0464 88.8058 35.1491 88.1694 35.1491C87.2348 35.1491 86.4824 34.9536 85.9123 34.5625C85.3422 34.1681 85.0025 33.6196 84.8931 32.9169L86.6481 32.7479C86.7277 33.0926 86.8967 33.3527 87.1552 33.5284C87.4137 33.7041 87.7501 33.7919 88.1644 33.7919C88.592 33.7919 88.935 33.7041 89.1936 33.5284C89.4554 33.3527 89.5863 33.1357 89.5863 32.8771C89.5863 32.6584 89.5018 32.4777 89.3328 32.3352C89.167 32.1927 88.9085 32.0833 88.5572 32.0071L87.2546 31.7337C86.5222 31.5812 85.9803 31.3243 85.6289 30.9631C85.2776 30.5985 85.1036 30.1378 85.1069 29.581C85.1036 29.1103 85.2312 28.7027 85.4897 28.358C85.7516 28.0099 86.1145 27.7415 86.5785 27.5526C87.0458 27.3603 87.5844 27.2642 88.1943 27.2642C89.0892 27.2642 89.7935 27.4548 90.3072 27.8359C90.8242 28.2171 91.1441 28.7325 91.2667 29.3821ZM96.644 27.3636V28.7557H92.2541V27.3636H96.644ZM93.3379 25.5341H95.1376V32.7031C95.1376 32.9451 95.1741 33.1307 95.247 33.2599C95.3232 33.3859 95.4226 33.4721 95.5453 33.5185C95.6679 33.5649 95.8038 33.5881 95.9529 33.5881C96.0656 33.5881 96.1684 33.5798 96.2612 33.5632C96.3573 33.5466 96.4302 33.5317 96.4799 33.5185L96.7832 34.9254C96.6871 34.9586 96.5495 34.995 96.3706 35.0348C96.1949 35.0746 95.9795 35.0978 95.7243 35.1044C95.2735 35.1177 94.8675 35.0497 94.5062 34.9006C94.1449 34.7481 93.8583 34.5128 93.6461 34.1946C93.4373 33.8764 93.3346 33.4787 93.3379 33.0014V25.5341ZM101.364 35.1491C100.598 35.1491 99.937 34.9901 99.3801 34.6719C98.8266 34.3504 98.4007 33.8963 98.1024 33.3097C97.8041 32.7197 97.655 32.0253 97.655 31.2266C97.655 30.4411 97.8041 29.7517 98.1024 29.1584C98.404 28.5618 98.825 28.0978 99.3652 27.7663C99.9055 27.4316 100.54 27.2642 101.269 27.2642C101.74 27.2642 102.184 27.3404 102.602 27.4929C103.023 27.642 103.394 27.8741 103.715 28.1889C104.04 28.5038 104.295 28.9048 104.481 29.392C104.667 29.8759 104.759 30.4527 104.759 31.1222V31.674H98.5002V30.4609H103.034C103.031 30.1162 102.956 29.8097 102.811 29.5412C102.665 29.2694 102.461 29.0556 102.199 28.8999C101.941 28.7441 101.639 28.6662 101.294 28.6662C100.926 28.6662 100.603 28.7557 100.325 28.9347C100.046 29.1103 99.8292 29.3423 99.6735 29.6307C99.521 29.9157 99.4431 30.2289 99.4398 30.5703V31.6293C99.4398 32.0734 99.521 32.4545 99.6834 32.7727C99.8458 33.0876 100.073 33.3295 100.365 33.4986C100.656 33.6643 100.998 33.7472 101.389 33.7472C101.65 33.7472 101.887 33.7107 102.1 33.6378C102.312 33.5616 102.496 33.4505 102.651 33.3047C102.807 33.1589 102.925 32.9782 103.004 32.7628L104.685 32.9517C104.579 33.3958 104.377 33.7836 104.078 34.1151C103.783 34.4432 103.405 34.6984 102.945 34.8807C102.484 35.0597 101.957 35.1491 101.364 35.1491ZM109.032 35.1342C108.432 35.1342 107.895 34.9801 107.421 34.6719C106.947 34.3636 106.572 33.9162 106.297 33.3295C106.022 32.7429 105.885 32.0303 105.885 31.1918C105.885 30.3433 106.024 29.6274 106.302 29.044C106.584 28.4574 106.964 28.0149 107.441 27.7166C107.918 27.415 108.45 27.2642 109.037 27.2642C109.484 27.2642 109.852 27.3404 110.14 27.4929C110.429 27.642 110.657 27.8227 110.826 28.0348C110.996 28.2436 111.126 28.4408 111.219 28.6264H111.294V24.8182H113.099V35H111.329V33.7969H111.219C111.126 33.9825 110.992 34.1797 110.817 34.3885C110.641 34.594 110.409 34.7696 110.121 34.9155C109.832 35.0613 109.469 35.1342 109.032 35.1342ZM109.534 33.6577C109.915 33.6577 110.24 33.5549 110.508 33.3494C110.777 33.1406 110.981 32.8506 111.12 32.4794C111.259 32.1082 111.329 31.6757 111.329 31.1818C111.329 30.688 111.259 30.2588 111.12 29.8942C110.984 29.5296 110.782 29.2462 110.513 29.044C110.248 28.8419 109.922 28.7408 109.534 28.7408C109.133 28.7408 108.798 28.8452 108.53 29.054C108.261 29.2628 108.059 29.5511 107.923 29.919C107.787 30.2869 107.719 30.7079 107.719 31.1818C107.719 31.6591 107.787 32.085 107.923 32.4595C108.062 32.8307 108.266 33.1241 108.535 33.3395C108.806 33.5516 109.139 33.6577 109.534 33.6577Z" fill="#576072"/>
<path d="M20.8789 75V72.7734C21.5039 72.7734 21.9922 72.6055 22.3438 72.2695C22.7031 71.9258 22.8672 71.3633 22.8359 70.582L22.6836 67.3477H20.8789V65.2969H22.5898L22.4727 62.8359C22.418 61.7266 22.625 60.7578 23.0938 59.9297C23.5625 59.0938 24.2188 58.4453 25.0625 57.9844C25.9062 57.5234 26.875 57.293 27.9688 57.293C29 57.293 29.9141 57.5273 30.7109 57.9961C31.5156 58.457 32.1406 59.1016 32.5859 59.9297C33.0391 60.75 33.2656 61.7031 33.2656 62.7891H30.8398C30.8398 61.7578 30.582 60.957 30.0664 60.3867C29.5508 59.8164 28.8555 59.5312 27.9805 59.5312C27.0273 59.5312 26.2734 59.8164 25.7188 60.3867C25.1719 60.9492 24.9219 61.7383 24.9688 62.7539L25.0742 65.2969H29.832V67.3477H25.1562L25.2852 70.3828C25.3086 71 25.2188 71.5 25.0156 71.8828C24.8203 72.2578 24.5469 72.5547 24.1953 72.7734H30.0195C30.6133 72.7734 30.9102 72.4766 30.9102 71.8828V71.168H33.2891V71.7539C33.2891 73.918 32.207 75 30.043 75H20.8789ZM41.0273 57.5391V75H38.5078V60.0938H38.4961L34.2305 62.8828V60.3984L38.5781 57.5391H41.0273ZM42.7539 78.4102L43.7266 72.4219H46.2578L44.5234 78.4102H42.7539ZM54.1719 75.2812C52.8828 75.2812 51.7656 75.0273 50.8203 74.5195C49.8828 74.0117 49.1562 73.3164 48.6406 72.4336C48.125 71.5508 47.8672 70.5469 47.8672 69.4219H50.4336C50.4336 70.5859 50.7578 71.4922 51.4062 72.1406C52.0625 72.7891 52.9688 73.1133 54.125 73.1133C55.2344 73.1133 56.1328 72.832 56.8203 72.2695C57.5156 71.707 57.8633 70.9531 57.8633 70.0078C57.8633 69.1406 57.4922 68.4453 56.75 67.9219C56.0156 67.3906 55.0469 67.125 53.8438 67.125H52.3906V65.0039H53.8438C54.9062 65.0039 55.7617 64.7617 56.4102 64.2773C57.0664 63.793 57.3945 63.1484 57.3945 62.3438C57.3945 61.4375 57.0898 60.7227 56.4805 60.1992C55.8711 59.6758 55.0664 59.4141 54.0664 59.4141C53.0352 59.4141 52.2188 59.7031 51.6172 60.2812C51.0234 60.8594 50.7266 61.6562 50.7266 62.6719H48.2305C48.2305 61.6172 48.4766 60.6836 48.9688 59.8711C49.4609 59.0508 50.1445 58.4102 51.0195 57.9492C51.8945 57.4883 52.9141 57.2578 54.0781 57.2578C55.1875 57.2578 56.1797 57.4688 57.0547 57.8906C57.9297 58.3047 58.6172 58.8828 59.1172 59.625C59.625 60.3594 59.8789 61.1992 59.8789 62.1445C59.8789 63.0664 59.5898 63.8672 59.0117 64.5469C58.4336 65.2188 57.6562 65.6875 56.6797 65.9531V65.9883C57.8281 66.168 58.7383 66.6367 59.4102 67.3945C60.082 68.1523 60.418 69.0469 60.418 70.0781C60.418 71.0938 60.1484 71.9922 59.6094 72.7734C59.0703 73.5547 58.3281 74.168 57.3828 74.6133C56.4453 75.0586 55.375 75.2812 54.1719 75.2812ZM67.8867 75.2461C66.7227 75.2461 65.6836 75.0156 64.7695 74.5547C63.8633 74.0859 63.1367 73.4453 62.5898 72.6328C62.0508 71.8125 61.7578 70.8789 61.7109 69.832H64.2539C64.332 70.7695 64.707 71.543 65.3789 72.1523C66.0586 72.7539 66.8984 73.0547 67.8984 73.0547C68.9531 73.0547 69.8047 72.6992 70.4531 71.9883C71.1094 71.2773 71.4375 70.3672 71.4375 69.2578C71.4375 68.1562 71.1211 67.25 70.4883 66.5391C69.8555 65.8203 69.0312 65.4609 68.0156 65.4609C67.125 65.4609 66.3594 65.6445 65.7188 66.0117C65.0781 66.3711 64.6328 66.8945 64.3828 67.582H61.9336L62.5078 57.5391H72.9492V59.7656H64.8398L64.4531 64.9102H64.4766C65.5 63.8242 66.8086 63.2812 68.4023 63.2812C69.4648 63.2812 70.4102 63.5391 71.2383 64.0547C72.0742 64.5625 72.7305 65.2656 73.207 66.1641C73.6914 67.0547 73.9336 68.0703 73.9336 69.2109C73.9336 70.3906 73.6797 71.4336 73.1719 72.3398C72.6719 73.2461 71.9688 73.957 71.0625 74.4727C70.1562 74.9883 69.0977 75.2461 67.8867 75.2461ZM81.8945 75.2812C80.543 75.2812 79.375 74.9141 78.3906 74.1797C77.4141 73.4453 76.6602 72.4062 76.1289 71.0625C75.5977 69.7109 75.332 68.1172 75.332 66.2812C75.332 64.4375 75.5977 62.8398 76.1289 61.4883C76.6602 60.1367 77.4141 59.0938 78.3906 58.3594C79.375 57.625 80.543 57.2578 81.8945 57.2578C83.2383 57.2578 84.3984 57.625 85.375 58.3594C86.3594 59.0938 87.1172 60.1367 87.6484 61.4883C88.1797 62.8398 88.4453 64.4375 88.4453 66.2812C88.4453 68.1172 88.1797 69.7109 87.6484 71.0625C87.1172 72.4062 86.3594 73.4453 85.375 74.1797C84.3984 74.9141 83.2383 75.2812 81.8945 75.2812ZM81.8945 73.0664C83.1602 73.0664 84.1562 72.4648 84.8828 71.2617C85.6172 70.0508 85.9844 68.3906 85.9844 66.2812C85.9844 64.1641 85.6172 62.5 84.8828 61.2891C84.1562 60.0781 83.1602 59.4727 81.8945 59.4727C80.6211 59.4727 79.6172 60.0781 78.8828 61.2891C78.1562 62.5 77.793 64.1641 77.793 66.2812C77.793 68.3906 78.1562 70.0508 78.8828 71.2617C79.6172 72.4648 80.6211 73.0664 81.8945 73.0664ZM88.8711 78.4102L89.8438 72.4219H92.375L90.6406 78.4102H88.8711ZM100.09 75.2812C98.7383 75.2812 97.5703 74.9141 96.5859 74.1797C95.6094 73.4453 94.8555 72.4062 94.3242 71.0625C93.793 69.7109 93.5273 68.1172 93.5273 66.2812C93.5273 64.4375 93.793 62.8398 94.3242 61.4883C94.8555 60.1367 95.6094 59.0938 96.5859 58.3594C97.5703 57.625 98.7383 57.2578 100.09 57.2578C101.434 57.2578 102.594 57.625 103.57 58.3594C104.555 59.0938 105.312 60.1367 105.844 61.4883C106.375 62.8398 106.641 64.4375 106.641 66.2812C106.641 68.1172 106.375 69.7109 105.844 71.0625C105.312 72.4062 104.555 73.4453 103.57 74.1797C102.594 74.9141 101.434 75.2812 100.09 75.2812ZM100.09 73.0664C101.355 73.0664 102.352 72.4648 103.078 71.2617C103.812 70.0508 104.18 68.3906 104.18 66.2812C104.18 64.1641 103.812 62.5 103.078 61.2891C102.352 60.0781 101.355 59.4727 100.09 59.4727C98.8164 59.4727 97.8125 60.0781 97.0781 61.2891C96.3516 62.5 95.9883 64.1641 95.9883 66.2812C95.9883 68.3906 96.3516 70.0508 97.0781 71.2617C97.8125 72.4648 98.8164 73.0664 100.09 73.0664ZM114.613 75.2812C113.262 75.2812 112.094 74.9141 111.109 74.1797C110.133 73.4453 109.379 72.4062 108.848 71.0625C108.316 69.7109 108.051 68.1172 108.051 66.2812C108.051 64.4375 108.316 62.8398 108.848 61.4883C109.379 60.1367 110.133 59.0938 111.109 58.3594C112.094 57.625 113.262 57.2578 114.613 57.2578C115.957 57.2578 117.117 57.625 118.094 58.3594C119.078 59.0938 119.836 60.1367 120.367 61.4883C120.898 62.8398 121.164 64.4375 121.164 66.2812C121.164 68.1172 120.898 69.7109 120.367 71.0625C119.836 72.4062 119.078 73.4453 118.094 74.1797C117.117 74.9141 115.957 75.2812 114.613 75.2812ZM114.613 73.0664C115.879 73.0664 116.875 72.4648 117.602 71.2617C118.336 70.0508 118.703 68.3906 118.703 66.2812C118.703 64.1641 118.336 62.5 117.602 61.2891C116.875 60.0781 115.879 59.4727 114.613 59.4727C113.34 59.4727 112.336 60.0781 111.602 61.2891C110.875 62.5 110.512 64.1641 110.512 66.2812C110.512 68.3906 110.875 70.0508 111.602 71.2617C112.336 72.4648 113.34 73.0664 114.613 73.0664ZM129.137 75.2812C127.785 75.2812 126.617 74.9141 125.633 74.1797C124.656 73.4453 123.902 72.4062 123.371 71.0625C122.84 69.7109 122.574 68.1172 122.574 66.2812C122.574 64.4375 122.84 62.8398 123.371 61.4883C123.902 60.1367 124.656 59.0938 125.633 58.3594C126.617 57.625 127.785 57.2578 129.137 57.2578C130.48 57.2578 131.641 57.625 132.617 58.3594C133.602 59.0938 134.359 60.1367 134.891 61.4883C135.422 62.8398 135.688 64.4375 135.688 66.2812C135.688 68.1172 135.422 69.7109 134.891 71.0625C134.359 72.4062 133.602 73.4453 132.617 74.1797C131.641 74.9141 130.48 75.2812 129.137 75.2812ZM129.137 73.0664C130.402 73.0664 131.398 72.4648 132.125 71.2617C132.859 70.0508 133.227 68.3906 133.227 66.2812C133.227 64.1641 132.859 62.5 132.125 61.2891C131.398 60.0781 130.402 59.4727 129.137 59.4727C127.863 59.4727 126.859 60.0781 126.125 61.2891C125.398 62.5 125.035 64.1641 125.035 66.2812C125.035 68.3906 125.398 70.0508 126.125 71.2617C126.859 72.4648 127.863 73.0664 129.137 73.0664ZM138.223 75.1992C137.77 75.1992 137.383 75.043 137.062 74.7305C136.75 74.4102 136.594 74.0195 136.594 73.5586C136.594 73.1055 136.75 72.7188 137.062 72.3984C137.383 72.0781 137.77 71.918 138.223 71.918C138.684 71.918 139.07 72.0781 139.383 72.3984C139.703 72.7188 139.863 73.1055 139.863 73.5586C139.863 74.0195 139.703 74.4102 139.383 74.7305C139.07 75.043 138.684 75.1992 138.223 75.1992ZM147.332 75.2812C145.98 75.2812 144.812 74.9141 143.828 74.1797C142.852 73.4453 142.098 72.4062 141.566 71.0625C141.035 69.7109 140.77 68.1172 140.77 66.2812C140.77 64.4375 141.035 62.8398 141.566 61.4883C142.098 60.1367 142.852 59.0938 143.828 58.3594C144.812 57.625 145.98 57.2578 147.332 57.2578C148.676 57.2578 149.836 57.625 150.812 58.3594C151.797 59.0938 152.555 60.1367 153.086 61.4883C153.617 62.8398 153.883 64.4375 153.883 66.2812C153.883 68.1172 153.617 69.7109 153.086 71.0625C152.555 72.4062 151.797 73.4453 150.812 74.1797C149.836 74.9141 148.676 75.2812 147.332 75.2812ZM147.332 73.0664C148.598 73.0664 149.594 72.4648 150.32 71.2617C151.055 70.0508 151.422 68.3906 151.422 66.2812C151.422 64.1641 151.055 62.5 150.32 61.2891C149.594 60.0781 148.598 59.4727 147.332 59.4727C146.059 59.4727 145.055 60.0781 144.32 61.2891C143.594 62.5 143.23 64.1641 143.23 66.2812C143.23 68.3906 143.594 70.0508 144.32 71.2617C145.055 72.4648 146.059 73.0664 147.332 73.0664ZM161.855 75.2812C160.504 75.2812 159.336 74.9141 158.352 74.1797C157.375 73.4453 156.621 72.4062 156.09 71.0625C155.559 69.7109 155.293 68.1172 155.293 66.2812C155.293 64.4375 155.559 62.8398 156.09 61.4883C156.621 60.1367 157.375 59.0938 158.352 58.3594C159.336 57.625 160.504 57.2578 161.855 57.2578C163.199 57.2578 164.359 57.625 165.336 58.3594C166.32 59.0938 167.078 60.1367 167.609 61.4883C168.141 62.8398 168.406 64.4375 168.406 66.2812C168.406 68.1172 168.141 69.7109 167.609 71.0625C167.078 72.4062 166.32 73.4453 165.336 74.1797C164.359 74.9141 163.199 75.2812 161.855 75.2812ZM161.855 73.0664C163.121 73.0664 164.117 72.4648 164.844 71.2617C165.578 70.0508 165.945 68.3906 165.945 66.2812C165.945 64.1641 165.578 62.5 164.844 61.2891C164.117 60.0781 163.121 59.4727 161.855 59.4727C160.582 59.4727 159.578 60.0781 158.844 61.2891C158.117 62.5 157.754 64.1641 157.754 66.2812C157.754 68.3906 158.117 70.0508 158.844 71.2617C159.578 72.4648 160.582 73.0664 161.855 73.0664Z" fill="#212329"/>
</svg>
