<svg width="280" height="102" viewBox="0 0 280 102" fill="none" xmlns="http://www.w3.org/2000/svg">
<rect x="0.5" y="0.5" width="279" height="101" rx="11.5" fill="white"/>
<rect x="0.5" y="0.5" width="279" height="101" rx="11.5" stroke="#E4E7EC"/>
<path d="M22.3118 35H20.343L23.9276 24.8182H26.2045L29.794 35H27.8253L25.1058 26.9062H25.0263L22.3118 35ZM22.3764 31.0078H27.7457V32.4893H22.3764V31.0078ZM34.0701 35.1491C33.3078 35.1491 32.6532 34.9818 32.1063 34.647C31.5628 34.3123 31.1435 33.8499 30.8485 33.2599C30.5569 32.6667 30.411 31.9839 30.411 31.2116C30.411 30.4361 30.5602 29.7517 30.8585 29.1584C31.1568 28.5618 31.5777 28.0978 32.1213 27.7663C32.6681 27.4316 33.3144 27.2642 34.0602 27.2642C34.68 27.2642 35.2285 27.3786 35.7058 27.6072C36.1864 27.8326 36.5692 28.1525 36.8542 28.5668C37.1392 28.9777 37.3017 29.4583 37.3414 30.0085H35.6213C35.5517 29.6406 35.3859 29.334 35.1241 29.0888C34.8656 28.8402 34.5192 28.7159 34.085 28.7159C33.7171 28.7159 33.394 28.8153 33.1156 29.0142C32.8372 29.2098 32.6201 29.4915 32.4643 29.8594C32.3118 30.2273 32.2356 30.6681 32.2356 31.1818C32.2356 31.7022 32.3118 32.1496 32.4643 32.5241C32.6168 32.8954 32.8305 33.1821 33.1056 33.3842C33.384 33.5831 33.7105 33.6825 34.085 33.6825C34.3502 33.6825 34.5872 33.6328 34.796 33.5334C35.0081 33.4306 35.1854 33.2831 35.3279 33.0909C35.4705 32.8987 35.5682 32.665 35.6213 32.3899H37.3414C37.2983 32.9302 37.1392 33.4091 36.8642 33.8267C36.5891 34.241 36.2145 34.5658 35.7406 34.8011C35.2666 35.0331 34.7098 35.1491 34.0701 35.1491ZM42.5484 27.3636V28.7557H38.1585V27.3636H42.5484ZM39.2423 25.5341H41.0421V32.7031C41.0421 32.9451 41.0785 33.1307 41.1514 33.2599C41.2277 33.3859 41.3271 33.4721 41.4497 33.5185C41.5724 33.5649 41.7082 33.5881 41.8574 33.5881C41.9701 33.5881 42.0728 33.5798 42.1656 33.5632C42.2617 33.5466 42.3347 33.5317 42.3844 33.5185L42.6876 34.9254C42.5915 34.9586 42.454 34.995 42.275 35.0348C42.0993 35.0746 41.8839 35.0978 41.6287 35.1044C41.1779 35.1177 40.7719 35.0497 40.4107 34.9006C40.0494 34.7481 39.7627 34.5128 39.5506 34.1946C39.3418 33.8764 39.239 33.4787 39.2423 33.0014V25.5341ZM43.9696 35V27.3636H45.7693V35H43.9696ZM44.8744 26.2798C44.5894 26.2798 44.3441 26.1854 44.1386 25.9964C43.9331 25.8042 43.8304 25.5739 43.8304 25.3054C43.8304 25.0336 43.9331 24.8033 44.1386 24.6143C44.3441 24.4221 44.5894 24.326 44.8744 24.326C45.1628 24.326 45.408 24.4221 45.6102 24.6143C45.8157 24.8033 45.9185 25.0336 45.9185 25.3054C45.9185 25.5739 45.8157 25.8042 45.6102 25.9964C45.408 26.1854 45.1628 26.2798 44.8744 26.2798ZM54.357 27.3636L51.6375 35H49.6489L46.9294 27.3636H48.8485L50.6035 33.0362H50.683L52.4429 27.3636H54.357ZM58.6393 35.1491C57.8737 35.1491 57.2125 34.9901 56.6556 34.6719C56.1021 34.3504 55.6762 33.8963 55.3779 33.3097C55.0796 32.7197 54.9305 32.0253 54.9305 31.2266C54.9305 30.4411 55.0796 29.7517 55.3779 29.1584C55.6796 28.5618 56.1005 28.0978 56.6407 27.7663C57.181 27.4316 57.8157 27.2642 58.5448 27.2642C59.0155 27.2642 59.4596 27.3404 59.8772 27.4929C60.2982 27.642 60.6694 27.8741 60.9909 28.1889C61.3157 28.5038 61.5709 28.9048 61.7565 29.392C61.9421 29.8759 62.0349 30.4527 62.0349 31.1222V31.674H55.7757V30.4609H60.3098C60.3064 30.1162 60.2319 29.8097 60.086 29.5412C59.9402 29.2694 59.7364 29.0556 59.4745 28.8999C59.216 28.7441 58.9144 28.6662 58.5697 28.6662C58.2018 28.6662 57.8787 28.7557 57.6002 28.9347C57.3218 29.1103 57.1047 29.3423 56.949 29.6307C56.7965 29.9157 56.7186 30.2289 56.7153 30.5703V31.6293C56.7153 32.0734 56.7965 32.4545 56.9589 32.7727C57.1213 33.0876 57.3483 33.3295 57.64 33.4986C57.9317 33.6643 58.2731 33.7472 58.6642 33.7472C58.926 33.7472 59.163 33.7107 59.3751 33.6378C59.5872 33.5616 59.7712 33.4505 59.9269 33.3047C60.0827 33.1589 60.2004 32.9782 60.2799 32.7628L61.9603 32.9517C61.8543 33.3958 61.6521 33.7836 61.3538 34.1151C61.0588 34.4432 60.681 34.6984 60.2203 34.8807C59.7596 35.0597 59.2326 35.1491 58.6393 35.1491ZM68.6618 24.8182V35H66.8621V24.8182H68.6618ZM73.7595 35.1491C73.0137 35.1491 72.3674 34.9851 71.8205 34.657C71.2737 34.3288 70.8494 33.8698 70.5478 33.2798C70.2495 32.6899 70.1004 32.0005 70.1004 31.2116C70.1004 30.4228 70.2495 29.7318 70.5478 29.1385C70.8494 28.5452 71.2737 28.0845 71.8205 27.7564C72.3674 27.4283 73.0137 27.2642 73.7595 27.2642C74.5052 27.2642 75.1515 27.4283 75.6984 27.7564C76.2453 28.0845 76.6678 28.5452 76.9661 29.1385C77.2677 29.7318 77.4186 30.4228 77.4186 31.2116C77.4186 32.0005 77.2677 32.6899 76.9661 33.2798C76.6678 33.8698 76.2453 34.3288 75.6984 34.657C75.1515 34.9851 74.5052 35.1491 73.7595 35.1491ZM73.7694 33.7074C74.1738 33.7074 74.5118 33.5964 74.7836 33.3743C75.0554 33.1489 75.2576 32.8473 75.3901 32.4695C75.526 32.0916 75.594 31.6707 75.594 31.2067C75.594 30.7393 75.526 30.3168 75.3901 29.9389C75.2576 29.5578 75.0554 29.2545 74.7836 29.0291C74.5118 28.8037 74.1738 28.6911 73.7694 28.6911C73.3551 28.6911 73.0104 28.8037 72.7353 29.0291C72.4635 29.2545 72.2597 29.5578 72.1238 29.9389C71.9912 30.3168 71.9249 30.7393 71.9249 31.2067C71.9249 31.6707 71.9912 32.0916 72.1238 32.4695C72.2597 32.8473 72.4635 33.1489 72.7353 33.3743C73.0104 33.5964 73.3551 33.7074 73.7694 33.7074ZM81.0595 35.1541C80.5756 35.1541 80.1398 35.0679 79.752 34.8956C79.3675 34.7199 79.0626 34.4614 78.8372 34.12C78.6152 33.7786 78.5041 33.3577 78.5041 32.8572C78.5041 32.4264 78.5837 32.0701 78.7428 31.7884C78.9018 31.5066 79.1189 31.2812 79.394 31.1122C79.6691 30.9432 79.979 30.8156 80.3237 30.7294C80.6717 30.6399 81.0313 30.5753 81.4026 30.5355C81.85 30.4891 82.2129 30.4477 82.4913 30.4112C82.7697 30.3714 82.9719 30.3118 83.0979 30.2322C83.2271 30.1494 83.2918 30.0218 83.2918 29.8494V29.8196C83.2918 29.4451 83.1807 29.1551 82.9587 28.9496C82.7366 28.7441 82.4168 28.6413 81.9991 28.6413C81.5583 28.6413 81.2087 28.7375 80.9501 28.9297C80.6949 29.1219 80.5226 29.349 80.4331 29.6108L78.7527 29.3722C78.8853 28.9081 79.104 28.5204 79.4089 28.2088C79.7139 27.8939 80.0867 27.6586 80.5276 27.5028C80.9684 27.3438 81.4556 27.2642 81.9892 27.2642C82.3571 27.2642 82.7233 27.3073 83.0879 27.3935C83.4525 27.4796 83.7856 27.6222 84.0872 27.821C84.3888 28.0166 84.6308 28.2834 84.8131 28.6214C84.9987 28.9595 85.0915 29.3821 85.0915 29.8892V35H83.3614V33.951H83.3017C83.1923 34.1631 83.0382 34.362 82.8393 34.5476C82.6438 34.7299 82.3969 34.8774 82.0986 34.9901C81.8036 35.0994 81.4572 35.1541 81.0595 35.1541ZM81.5268 33.8317C81.8881 33.8317 82.2013 33.7604 82.4665 33.6179C82.7316 33.4721 82.9355 33.2798 83.078 33.0412C83.2238 32.8026 83.2967 32.5424 83.2967 32.2607V31.3608C83.2404 31.4072 83.1443 31.4503 83.0084 31.4901C82.8758 31.5298 82.7267 31.5646 82.5609 31.5945C82.3952 31.6243 82.2312 31.6508 82.0688 31.674C81.9063 31.6972 81.7655 31.7171 81.6462 31.7337C81.3777 31.7701 81.1374 31.8298 80.9253 31.9126C80.7132 31.9955 80.5458 32.1115 80.4232 32.2607C80.3005 32.4065 80.2392 32.5954 80.2392 32.8274C80.2392 33.1589 80.3602 33.4091 80.6021 33.5781C80.8441 33.7472 81.1523 33.8317 81.5268 33.8317ZM88.6169 30.5256V35H86.8171V27.3636H88.5373V28.6612H88.6268C88.8025 28.2337 89.0825 27.8939 89.467 27.642C89.8548 27.3902 90.3337 27.2642 90.9038 27.2642C91.4308 27.2642 91.8898 27.3769 92.2809 27.6023C92.6753 27.8277 92.9803 28.1541 93.1957 28.5817C93.4144 29.0092 93.5222 29.5279 93.5188 30.1378V35H91.7191V30.4162C91.7191 29.9058 91.5866 29.5064 91.3214 29.218C91.0596 28.9297 90.6966 28.7855 90.2326 28.7855C89.9178 28.7855 89.6377 28.8551 89.3924 28.9943C89.1505 29.1302 88.9599 29.3274 88.8207 29.5859C88.6848 29.8445 88.6169 30.1577 88.6169 30.5256ZM101.3 29.3821L99.6593 29.5611C99.6129 29.3954 99.5317 29.2396 99.4157 29.0938C99.303 28.9479 99.1505 28.8303 98.9583 28.7408C98.766 28.6513 98.5307 28.6065 98.2523 28.6065C97.8778 28.6065 97.5629 28.6877 97.3077 28.8501C97.0558 29.0125 96.9315 29.223 96.9348 29.4815C96.9315 29.7036 97.0127 29.8842 97.1784 30.0234C97.3475 30.1626 97.6259 30.277 98.0137 30.3665L99.3162 30.6449C100.039 30.8007 100.576 31.0476 100.927 31.3857C101.282 31.7237 101.461 32.1662 101.464 32.7131C101.461 33.1937 101.32 33.6179 101.041 33.9858C100.766 34.3504 100.383 34.6354 99.8929 34.8409C99.4024 35.0464 98.839 35.1491 98.2026 35.1491C97.2679 35.1491 96.5156 34.9536 95.9455 34.5625C95.3754 34.1681 95.0357 33.6196 94.9263 32.9169L96.6813 32.7479C96.7608 33.0926 96.9299 33.3527 97.1884 33.5284C97.4469 33.7041 97.7833 33.7919 98.1976 33.7919C98.6252 33.7919 98.9682 33.7041 99.2267 33.5284C99.4886 33.3527 99.6195 33.1357 99.6195 32.8771C99.6195 32.6584 99.535 32.4777 99.3659 32.3352C99.2002 32.1927 98.9417 32.0833 98.5904 32.0071L97.2878 31.7337C96.5553 31.5812 96.0134 31.3243 95.6621 30.9631C95.3108 30.5985 95.1368 30.1378 95.1401 29.581C95.1368 29.1103 95.2644 28.7027 95.5229 28.358C95.7847 28.0099 96.1477 27.7415 96.6117 27.5526C97.079 27.3603 97.6176 27.2642 98.2275 27.2642C99.1223 27.2642 99.8266 27.4548 100.34 27.8359C100.857 28.2171 101.177 28.7325 101.3 29.3821Z" fill="#576072"/>
<path d="M27.3359 75.2812C26.0469 75.2812 24.9297 75.0273 23.9844 74.5195C23.0469 74.0117 22.3203 73.3164 21.8047 72.4336C21.2891 71.5508 21.0312 70.5469 21.0312 69.4219H23.5977C23.5977 70.5859 23.9219 71.4922 24.5703 72.1406C25.2266 72.7891 26.1328 73.1133 27.2891 73.1133C28.3984 73.1133 29.2969 72.832 29.9844 72.2695C30.6797 71.707 31.0273 70.9531 31.0273 70.0078C31.0273 69.1406 30.6562 68.4453 29.9141 67.9219C29.1797 67.3906 28.2109 67.125 27.0078 67.125H25.5547V65.0039H27.0078C28.0703 65.0039 28.9258 64.7617 29.5742 64.2773C30.2305 63.793 30.5586 63.1484 30.5586 62.3438C30.5586 61.4375 30.2539 60.7227 29.6445 60.1992C29.0352 59.6758 28.2305 59.4141 27.2305 59.4141C26.1992 59.4141 25.3828 59.7031 24.7812 60.2812C24.1875 60.8594 23.8906 61.6562 23.8906 62.6719H21.3945C21.3945 61.6172 21.6406 60.6836 22.1328 59.8711C22.625 59.0508 23.3086 58.4102 24.1836 57.9492C25.0586 57.4883 26.0781 57.2578 27.2422 57.2578C28.3516 57.2578 29.3438 57.4688 30.2188 57.8906C31.0938 58.3047 31.7812 58.8828 32.2812 59.625C32.7891 60.3594 33.043 61.1992 33.043 62.1445C33.043 63.0664 32.7539 63.8672 32.1758 64.5469C31.5977 65.2188 30.8203 65.6875 29.8438 65.9531V65.9883C30.9922 66.168 31.9023 66.6367 32.5742 67.3945C33.2461 68.1523 33.582 69.0469 33.582 70.0781C33.582 71.0938 33.3125 71.9922 32.7734 72.7734C32.2344 73.5547 31.4922 74.168 30.5469 74.6133C29.6094 75.0586 28.5391 75.2812 27.3359 75.2812Z" fill="#212329"/>
<path d="M42.4318 65.9091C42.4318 64.6629 42.5959 63.5161 42.924 62.4688C43.2521 61.4214 43.7311 60.4553 44.3608 59.5703H45.723C45.4777 59.8984 45.2491 60.3011 45.0369 60.7784C44.8248 61.2557 44.6392 61.7794 44.4801 62.3494C44.321 62.9162 44.1967 63.5045 44.1072 64.1143C44.0178 64.7209 43.973 65.3191 43.973 65.9091C43.973 66.6979 44.0509 67.4967 44.2067 68.3054C44.3625 69.1141 44.5729 69.8648 44.8381 70.5575C45.1032 71.2502 45.3982 71.8153 45.723 72.2528H44.3608C43.7311 71.3679 43.2521 70.4018 42.924 69.3544C42.5959 68.3071 42.4318 67.1586 42.4318 65.9091ZM54.1069 71H47.1466V69.6776H54.1069V71ZM52.0188 67.0128H47.1118V65.6903H52.0188V67.0128ZM49.6076 63.831L49.7667 68.1214C49.7866 68.549 49.7319 68.9318 49.6026 69.2699C49.4734 69.6046 49.2397 69.8714 48.9016 70.0703L47.6289 69.6776C47.8079 69.6676 47.9454 69.5765 48.0415 69.4041C48.1377 69.2318 48.2023 69.0296 48.2354 68.7976C48.2686 68.5623 48.2818 68.3501 48.2752 68.1612L48.131 63.831C48.1045 63.1349 48.2338 62.5533 48.5188 62.0859C48.8072 61.6186 49.19 61.2673 49.6672 61.032C50.1445 60.7966 50.6582 60.679 51.2084 60.679C51.699 60.679 52.1398 60.7602 52.5309 60.9226C52.9253 61.085 53.2567 61.3071 53.5252 61.5888C53.797 61.8672 53.9909 62.1854 54.1069 62.5433C54.2229 62.9013 54.2461 63.2775 54.1765 63.6719L52.7397 63.4432C52.7728 63.1184 52.7215 62.8482 52.5856 62.6328C52.4497 62.4174 52.2624 62.255 52.0238 62.1456C51.7851 62.0362 51.5316 61.9815 51.2631 61.9815C50.9814 61.9815 50.7129 62.0478 50.4577 62.1804C50.2058 62.313 50.0003 62.5152 49.8412 62.7869C49.6855 63.0587 49.6076 63.4067 49.6076 63.831ZM59.9888 60.8182V71H58.4476V62.3594H58.3879L55.9519 63.9503V62.4787L58.4923 60.8182H59.9888ZM64.025 69.608L63.9504 70.1499C63.9007 70.5476 63.8162 70.9619 63.6969 71.3928C63.5809 71.8269 63.4599 72.2296 63.3339 72.6009C63.2113 72.9721 63.1102 73.267 63.0307 73.4858H61.9767C62.0198 73.2803 62.0794 73.0019 62.1557 72.6506C62.2319 72.3026 62.3065 71.9131 62.3794 71.4822C62.4523 71.0514 62.507 70.6122 62.5435 70.1648L62.5932 69.608H64.025ZM69.2171 71.1392C68.594 71.1392 68.0339 71.0199 67.5367 70.7812C67.0428 70.5393 66.6484 70.2079 66.3535 69.7869C66.0585 69.366 65.901 68.8854 65.8812 68.3452H67.3726C67.4091 68.7827 67.603 69.1423 67.9543 69.424C68.3056 69.7057 68.7266 69.8466 69.2171 69.8466C69.6082 69.8466 69.9545 69.7571 70.2562 69.5781C70.5611 69.3958 70.7997 69.1456 70.9721 68.8274C71.1477 68.5092 71.2356 68.1463 71.2356 67.7386C71.2356 67.3243 71.1461 66.9548 70.9671 66.63C70.7881 66.3052 70.5412 66.05 70.2263 65.8643C69.9148 65.6787 69.5568 65.5843 69.1525 65.581C68.8442 65.581 68.5343 65.634 68.2228 65.7401C67.9112 65.8461 67.6593 65.9853 67.4671 66.1577L66.0601 65.9489L66.6319 60.8182H72.2299V62.1357H67.9096L67.5864 64.9844H67.6461C67.8449 64.7921 68.1084 64.6314 68.4365 64.5021C68.768 64.3729 69.1226 64.3082 69.5005 64.3082C70.1203 64.3082 70.6721 64.4557 71.156 64.7507C71.6432 65.0457 72.026 65.4484 72.3044 65.9588C72.5862 66.4659 72.7254 67.0492 72.7221 67.7088C72.7254 68.3684 72.5762 68.9567 72.2746 69.4737C71.9763 69.9908 71.562 70.3984 71.0317 70.6967C70.5047 70.9917 69.8999 71.1392 69.2171 71.1392ZM77.9987 71.169C77.2132 71.1657 76.542 70.9586 75.9852 70.5476C75.4284 70.1366 75.0025 69.5384 74.7075 68.7528C74.4125 67.9673 74.265 67.0211 74.265 65.9141C74.265 64.8104 74.4125 63.8674 74.7075 63.0852C75.0058 62.303 75.4333 61.7064 75.9902 61.2955C76.5503 60.8845 77.2198 60.679 77.9987 60.679C78.7776 60.679 79.4454 60.8861 80.0022 61.3004C80.5591 61.7114 80.985 62.308 81.2799 63.0902C81.5782 63.8691 81.7274 64.8104 81.7274 65.9141C81.7274 67.0244 81.5799 67.9723 81.2849 68.7578C80.9899 69.54 80.564 70.1383 80.0072 70.5526C79.4504 70.9635 78.7809 71.169 77.9987 71.169ZM77.9987 69.8416C78.6881 69.8416 79.2267 69.5052 79.6144 68.8324C80.0055 68.1596 80.2011 67.1868 80.2011 65.9141C80.2011 65.0689 80.1116 64.3546 79.9326 63.7713C79.757 63.1847 79.5034 62.7405 79.172 62.4389C78.8439 62.134 78.4528 61.9815 77.9987 61.9815C77.3126 61.9815 76.774 62.3196 76.3829 62.9957C75.9918 63.6719 75.7946 64.6446 75.7913 65.9141C75.7913 66.7625 75.8791 67.4801 76.0548 68.0668C76.2338 68.6501 76.4873 69.0926 76.8154 69.3942C77.1436 69.6925 77.538 69.8416 77.9987 69.8416ZM86.9518 71.169C86.1663 71.1657 85.4951 70.9586 84.9383 70.5476C84.3815 70.1366 83.9556 69.5384 83.6606 68.7528C83.3656 67.9673 83.2181 67.0211 83.2181 65.9141C83.2181 64.8104 83.3656 63.8674 83.6606 63.0852C83.9589 62.303 84.3864 61.7064 84.9433 61.2955C85.5034 60.8845 86.1729 60.679 86.9518 60.679C87.7307 60.679 88.3985 60.8861 88.9553 61.3004C89.5122 61.7114 89.9381 62.308 90.233 63.0902C90.5313 63.8691 90.6805 64.8104 90.6805 65.9141C90.6805 67.0244 90.533 67.9723 90.238 68.7578C89.943 69.54 89.5171 70.1383 88.9603 70.5526C88.4035 70.9635 87.734 71.169 86.9518 71.169ZM86.9518 69.8416C87.6412 69.8416 88.1798 69.5052 88.5676 68.8324C88.9587 68.1596 89.1542 67.1868 89.1542 65.9141C89.1542 65.0689 89.0647 64.3546 88.8857 63.7713C88.7101 63.1847 88.4565 62.7405 88.1251 62.4389C87.797 62.134 87.4059 61.9815 86.9518 61.9815C86.2657 61.9815 85.7271 62.3196 85.336 62.9957C84.9449 63.6719 84.7477 64.6446 84.7444 65.9141C84.7444 66.7625 84.8322 67.4801 85.0079 68.0668C85.1869 68.6501 85.4404 69.0926 85.7685 69.3942C86.0967 69.6925 86.4911 69.8416 86.9518 69.8416ZM93.9448 69.608L93.8703 70.1499C93.8206 70.5476 93.736 70.9619 93.6167 71.3928C93.5007 71.8269 93.3797 72.2296 93.2538 72.6009C93.1312 72.9721 93.0301 73.267 92.9505 73.4858H91.8966C91.9396 73.2803 91.9993 73.0019 92.0755 72.6506C92.1518 72.3026 92.2263 71.9131 92.2993 71.4822C92.3722 71.0514 92.4269 70.6122 92.4633 70.1648L92.513 69.608H93.9448ZM99.1158 71.169C98.3303 71.1657 97.6591 70.9586 97.1023 70.5476C96.5455 70.1366 96.1196 69.5384 95.8246 68.7528C95.5296 67.9673 95.3822 67.0211 95.3822 65.9141C95.3822 64.8104 95.5296 63.8674 95.8246 63.0852C96.1229 62.303 96.5505 61.7064 97.1073 61.2955C97.6674 60.8845 98.3369 60.679 99.1158 60.679C99.8947 60.679 100.563 60.8861 101.119 61.3004C101.676 61.7114 102.102 62.308 102.397 63.0902C102.695 63.8691 102.845 64.8104 102.845 65.9141C102.845 67.0244 102.697 67.9723 102.402 68.7578C102.107 69.54 101.681 70.1383 101.124 70.5526C100.568 70.9635 99.898 71.169 99.1158 71.169ZM99.1158 69.8416C99.8052 69.8416 100.344 69.5052 100.732 68.8324C101.123 68.1596 101.318 67.1868 101.318 65.9141C101.318 65.0689 101.229 64.3546 101.05 63.7713C100.874 63.1847 100.621 62.7405 100.289 62.4389C99.961 62.134 99.5699 61.9815 99.1158 61.9815C98.4297 61.9815 97.8912 62.3196 97.5001 62.9957C97.109 63.6719 96.9117 64.6446 96.9084 65.9141C96.9084 66.7625 96.9963 67.4801 97.1719 68.0668C97.3509 68.6501 97.6045 69.0926 97.9326 69.3942C98.2607 69.6925 98.6551 69.8416 99.1158 69.8416ZM108.069 71.169C107.283 71.1657 106.612 70.9586 106.055 70.5476C105.499 70.1366 105.073 69.5384 104.778 68.7528C104.483 67.9673 104.335 67.0211 104.335 65.9141C104.335 64.8104 104.483 63.8674 104.778 63.0852C105.076 62.303 105.504 61.7064 106.06 61.2955C106.621 60.8845 107.29 60.679 108.069 60.679C108.848 60.679 109.516 60.8861 110.072 61.3004C110.629 61.7114 111.055 62.308 111.35 63.0902C111.648 63.8691 111.798 64.8104 111.798 65.9141C111.798 67.0244 111.65 67.9723 111.355 68.7578C111.06 69.54 110.634 70.1383 110.077 70.5526C109.521 70.9635 108.851 71.169 108.069 71.169ZM108.069 69.8416C108.758 69.8416 109.297 69.5052 109.685 68.8324C110.076 68.1596 110.271 67.1868 110.271 65.9141C110.271 65.0689 110.182 64.3546 110.003 63.7713C109.827 63.1847 109.574 62.7405 109.242 62.4389C108.914 62.134 108.523 61.9815 108.069 61.9815C107.383 61.9815 106.844 62.3196 106.453 62.9957C106.062 63.6719 105.865 64.6446 105.862 65.9141C105.862 66.7625 105.949 67.4801 106.125 68.0668C106.304 68.6501 106.558 69.0926 106.886 69.3942C107.214 69.6925 107.608 69.8416 108.069 69.8416ZM117.022 71.169C116.237 71.1657 115.565 70.9586 115.009 70.5476C114.452 70.1366 114.026 69.5384 113.731 68.7528C113.436 67.9673 113.288 67.0211 113.288 65.9141C113.288 64.8104 113.436 63.8674 113.731 63.0852C114.029 62.303 114.457 61.7064 115.014 61.2955C115.574 60.8845 116.243 60.679 117.022 60.679C117.801 60.679 118.469 60.8861 119.026 61.3004C119.582 61.7114 120.008 62.308 120.303 63.0902C120.602 63.8691 120.751 64.8104 120.751 65.9141C120.751 67.0244 120.603 67.9723 120.308 68.7578C120.013 69.54 119.587 70.1383 119.031 70.5526C118.474 70.9635 117.804 71.169 117.022 71.169ZM117.022 69.8416C117.711 69.8416 118.25 69.5052 118.638 68.8324C119.029 68.1596 119.224 67.1868 119.224 65.9141C119.224 65.0689 119.135 64.3546 118.956 63.7713C118.78 63.1847 118.527 62.7405 118.195 62.4389C117.867 62.134 117.476 61.9815 117.022 61.9815C116.336 61.9815 115.797 62.3196 115.406 62.9957C115.015 63.6719 114.818 64.6446 114.815 65.9141C114.815 66.7625 114.902 67.4801 115.078 68.0668C115.257 68.6501 115.511 69.0926 115.839 69.3942C116.167 69.6925 116.561 69.8416 117.022 69.8416ZM123.061 71.0945C122.789 71.0945 122.555 70.9983 122.36 70.8061C122.164 70.6106 122.066 70.3752 122.066 70.1001C122.066 69.8284 122.164 69.5964 122.36 69.4041C122.555 69.2086 122.789 69.1108 123.061 69.1108C123.332 69.1108 123.566 69.2086 123.762 69.4041C123.957 69.5964 124.055 69.8284 124.055 70.1001C124.055 70.2824 124.008 70.4498 123.916 70.6023C123.826 70.7514 123.707 70.8707 123.558 70.9602C123.409 71.0497 123.243 71.0945 123.061 71.0945ZM129.118 71.169C128.332 71.1657 127.661 70.9586 127.104 70.5476C126.547 70.1366 126.121 69.5384 125.827 68.7528C125.532 67.9673 125.384 67.0211 125.384 65.9141C125.384 64.8104 125.532 63.8674 125.827 63.0852C126.125 62.303 126.552 61.7064 127.109 61.2955C127.669 60.8845 128.339 60.679 129.118 60.679C129.897 60.679 130.564 60.8861 131.121 61.3004C131.678 61.7114 132.104 62.308 132.399 63.0902C132.697 63.8691 132.846 64.8104 132.846 65.9141C132.846 67.0244 132.699 67.9723 132.404 68.7578C132.109 69.54 131.683 70.1383 131.126 70.5526C130.569 70.9635 129.9 71.169 129.118 71.169ZM129.118 69.8416C129.807 69.8416 130.346 69.5052 130.733 68.8324C131.125 68.1596 131.32 67.1868 131.32 65.9141C131.32 65.0689 131.231 64.3546 131.052 63.7713C130.876 63.1847 130.622 62.7405 130.291 62.4389C129.963 62.134 129.572 61.9815 129.118 61.9815C128.432 61.9815 127.893 62.3196 127.502 62.9957C127.111 63.6719 126.914 64.6446 126.91 65.9141C126.91 66.7625 126.998 67.4801 127.174 68.0668C127.353 68.6501 127.606 69.0926 127.934 69.3942C128.263 69.6925 128.657 69.8416 129.118 69.8416ZM138.071 71.169C137.285 71.1657 136.614 70.9586 136.057 70.5476C135.501 70.1366 135.075 69.5384 134.78 68.7528C134.485 67.9673 134.337 67.0211 134.337 65.9141C134.337 64.8104 134.485 63.8674 134.78 63.0852C135.078 62.303 135.505 61.7064 136.062 61.2955C136.622 60.8845 137.292 60.679 138.071 60.679C138.85 60.679 139.518 60.8861 140.074 61.3004C140.631 61.7114 141.057 62.308 141.352 63.0902C141.65 63.8691 141.8 64.8104 141.8 65.9141C141.8 67.0244 141.652 67.9723 141.357 68.7578C141.062 69.54 140.636 70.1383 140.079 70.5526C139.523 70.9635 138.853 71.169 138.071 71.169ZM138.071 69.8416C138.76 69.8416 139.299 69.5052 139.687 68.8324C140.078 68.1596 140.273 67.1868 140.273 65.9141C140.273 65.0689 140.184 64.3546 140.005 63.7713C139.829 63.1847 139.576 62.7405 139.244 62.4389C138.916 62.134 138.525 61.9815 138.071 61.9815C137.385 61.9815 136.846 62.3196 136.455 62.9957C136.064 63.6719 135.867 64.6446 135.863 65.9141C135.863 66.7625 135.951 67.4801 136.127 68.0668C136.306 68.6501 136.559 69.0926 136.888 69.3942C137.216 69.6925 137.61 69.8416 138.071 69.8416ZM146.358 65.9091C146.358 67.1586 146.194 68.3071 145.866 69.3544C145.537 70.4018 145.058 71.3679 144.429 72.2528H143.067C143.312 71.9247 143.54 71.522 143.753 71.0447C143.965 70.5675 144.15 70.0455 144.309 69.4787C144.469 68.9086 144.593 68.3187 144.682 67.7088C144.772 67.099 144.817 66.4991 144.817 65.9091C144.817 65.1236 144.739 64.3265 144.583 63.5178C144.427 62.709 144.217 61.9583 143.951 61.2656C143.686 60.5729 143.391 60.0078 143.067 59.5703H144.429C145.058 60.4553 145.537 61.4214 145.866 62.4688C146.194 63.5161 146.358 64.6629 146.358 65.9091Z" fill="#576072"/>
</svg>
