<svg width="280" height="102" viewBox="0 0 280 102" fill="none" xmlns="http://www.w3.org/2000/svg">
<rect x="0.5" y="0.5" width="279" height="101" rx="11.5" fill="white"/>
<rect x="0.5" y="0.5" width="279" height="101" rx="11.5" stroke="#E4E7EC"/>
<path d="M21.0043 35V24.8182H22.8487V33.4538H27.3331V35H21.0043ZM32.1014 35.1491C31.3556 35.1491 30.7093 34.9851 30.1624 34.657C29.6156 34.3288 29.1913 33.8698 28.8897 33.2798C28.5914 32.6899 28.4423 32.0005 28.4423 31.2116C28.4423 30.4228 28.5914 29.7318 28.8897 29.1385C29.1913 28.5452 29.6156 28.0845 30.1624 27.7564C30.7093 27.4283 31.3556 27.2642 32.1014 27.2642C32.8471 27.2642 33.4934 27.4283 34.0403 27.7564C34.5872 28.0845 35.0098 28.5452 35.308 29.1385C35.6097 29.7318 35.7605 30.4228 35.7605 31.2116C35.7605 32.0005 35.6097 32.6899 35.308 33.2798C35.0098 33.8698 34.5872 34.3288 34.0403 34.657C33.4934 34.9851 32.8471 35.1491 32.1014 35.1491ZM32.1113 33.7074C32.5157 33.7074 32.8537 33.5964 33.1255 33.3743C33.3973 33.1489 33.5995 32.8473 33.7321 32.4695C33.8679 32.0916 33.9359 31.6707 33.9359 31.2067C33.9359 30.7393 33.8679 30.3168 33.7321 29.9389C33.5995 29.5578 33.3973 29.2545 33.1255 29.0291C32.8537 28.8037 32.5157 28.6911 32.1113 28.6911C31.697 28.6911 31.3523 28.8037 31.0772 29.0291C30.8054 29.2545 30.6016 29.5578 30.4657 29.9389C30.3331 30.3168 30.2669 30.7393 30.2669 31.2067C30.2669 31.6707 30.3331 32.0916 30.4657 32.4695C30.6016 32.8473 30.8054 33.1489 31.0772 33.3743C31.3523 33.5964 31.697 33.7074 32.1113 33.7074ZM39.4014 35.1541C38.9175 35.1541 38.4817 35.0679 38.0939 34.8956C37.7094 34.7199 37.4045 34.4614 37.1791 34.12C36.9571 33.7786 36.846 33.3577 36.846 32.8572C36.846 32.4264 36.9256 32.0701 37.0847 31.7884C37.2438 31.5066 37.4608 31.2812 37.7359 31.1122C38.011 30.9432 38.3209 30.8156 38.6656 30.7294C39.0136 30.6399 39.3733 30.5753 39.7445 30.5355C40.1919 30.4891 40.5548 30.4477 40.8332 30.4112C41.1117 30.3714 41.3138 30.3118 41.4398 30.2322C41.569 30.1494 41.6337 30.0218 41.6337 29.8494V29.8196C41.6337 29.4451 41.5226 29.1551 41.3006 28.9496C41.0785 28.7441 40.7587 28.6413 40.3411 28.6413C39.9002 28.6413 39.5506 28.7375 39.2921 28.9297C39.0368 29.1219 38.8645 29.349 38.775 29.6108L37.0946 29.3722C37.2272 28.9081 37.4459 28.5204 37.7509 28.2088C38.0558 27.8939 38.4287 27.6586 38.8695 27.5028C39.3103 27.3438 39.7975 27.2642 40.3311 27.2642C40.699 27.2642 41.0653 27.3073 41.4298 27.3935C41.7944 27.4796 42.1275 27.6222 42.4291 27.821C42.7307 28.0166 42.9727 28.2834 43.155 28.6214C43.3406 28.9595 43.4334 29.3821 43.4334 29.8892V35H41.7033V33.951H41.6436C41.5342 34.1631 41.3801 34.362 41.1813 34.5476C40.9857 34.7299 40.7388 34.8774 40.4405 34.9901C40.1455 35.0994 39.7992 35.1541 39.4014 35.1541ZM39.8688 33.8317C40.23 33.8317 40.5432 33.7604 40.8084 33.6179C41.0735 33.4721 41.2774 33.2798 41.4199 33.0412C41.5657 32.8026 41.6386 32.5424 41.6386 32.2607V31.3608C41.5823 31.4072 41.4862 31.4503 41.3503 31.4901C41.2177 31.5298 41.0686 31.5646 40.9028 31.5945C40.7371 31.6243 40.5731 31.6508 40.4107 31.674C40.2483 31.6972 40.1074 31.7171 39.9881 31.7337C39.7196 31.7701 39.4793 31.8298 39.2672 31.9126C39.0551 31.9955 38.8877 32.1115 38.7651 32.2607C38.6424 32.4065 38.5811 32.5954 38.5811 32.8274C38.5811 33.1589 38.7021 33.4091 38.944 33.5781C39.186 33.7472 39.4942 33.8317 39.8688 33.8317ZM46.9588 30.5256V35H45.159V27.3636H46.8792V28.6612H46.9687C47.1444 28.2337 47.4244 27.8939 47.8089 27.642C48.1967 27.3902 48.6756 27.2642 49.2457 27.2642C49.7727 27.2642 50.2317 27.3769 50.6228 27.6023C51.0172 27.8277 51.3222 28.1541 51.5376 28.5817C51.7563 29.0092 51.8641 29.5279 51.8607 30.1378V35H50.061V30.4162C50.061 29.9058 49.9285 29.5064 49.6633 29.218C49.4015 28.9297 49.0385 28.7855 48.5745 28.7855C48.2597 28.7855 47.9796 28.8551 47.7343 28.9943C47.4924 29.1302 47.3018 29.3274 47.1626 29.5859C47.0267 29.8445 46.9588 30.1577 46.9588 30.5256ZM59.6418 29.3821L58.0012 29.5611C57.9548 29.3954 57.8736 29.2396 57.7576 29.0938C57.6449 28.9479 57.4924 28.8303 57.3002 28.7408C57.108 28.6513 56.8726 28.6065 56.5942 28.6065C56.2197 28.6065 55.9048 28.6877 55.6496 28.8501C55.3977 29.0125 55.2734 29.223 55.2768 29.4815C55.2734 29.7036 55.3546 29.8842 55.5204 30.0234C55.6894 30.1626 55.9678 30.277 56.3556 30.3665L57.6581 30.6449C58.3807 30.8007 58.9176 31.0476 59.2689 31.3857C59.6236 31.7237 59.8026 32.1662 59.8059 32.7131C59.8026 33.1937 59.6617 33.6179 59.3833 33.9858C59.1082 34.3504 58.7254 34.6354 58.2348 34.8409C57.7443 35.0464 57.1809 35.1491 56.5445 35.1491C55.6098 35.1491 54.8575 34.9536 54.2874 34.5625C53.7173 34.1681 53.3776 33.6196 53.2682 32.9169L55.0232 32.7479C55.1027 33.0926 55.2718 33.3527 55.5303 33.5284C55.7888 33.7041 56.1252 33.7919 56.5395 33.7919C56.9671 33.7919 57.3101 33.7041 57.5687 33.5284C57.8305 33.3527 57.9614 33.1357 57.9614 32.8771C57.9614 32.6584 57.8769 32.4777 57.7079 32.3352C57.5421 32.1927 57.2836 32.0833 56.9323 32.0071L55.6297 31.7337C54.8973 31.5812 54.3553 31.3243 54.004 30.9631C53.6527 30.5985 53.4787 30.1378 53.482 29.581C53.4787 29.1103 53.6063 28.7027 53.8648 28.358C54.1267 28.0099 54.4896 27.7415 54.9536 27.5526C55.4209 27.3603 55.9595 27.2642 56.5694 27.2642C57.4643 27.2642 58.1686 27.4548 58.6823 27.8359C59.1993 28.2171 59.5192 28.7325 59.6418 29.3821ZM68.4624 27.3636V28.7557H63.9482V27.3636H68.4624ZM65.0768 35V26.6428C65.0768 26.129 65.1828 25.7015 65.395 25.3601C65.6104 25.0187 65.8988 24.7635 66.26 24.5945C66.6213 24.4254 67.0223 24.3409 67.4632 24.3409C67.7747 24.3409 68.0515 24.3658 68.2934 24.4155C68.5354 24.4652 68.7143 24.5099 68.8303 24.5497L68.4724 25.9418C68.3962 25.9186 68.3 25.8954 68.184 25.8722C68.068 25.8456 67.9388 25.8324 67.7962 25.8324C67.4615 25.8324 67.2245 25.9136 67.0853 26.076C66.9494 26.2351 66.8815 26.4638 66.8815 26.7621V35H65.0768ZM74.6551 31.7884V27.3636H76.4548V35H74.7098V33.6428H74.6302C74.4579 34.0703 74.1745 34.42 73.7801 34.6918C73.389 34.9635 72.9067 35.0994 72.3333 35.0994C71.8329 35.0994 71.3904 34.9884 71.0059 34.7663C70.6248 34.541 70.3265 34.2145 70.111 33.7869C69.8956 33.3561 69.7879 32.8357 69.7879 32.2259V27.3636H71.5876V31.9474C71.5876 32.4313 71.7202 32.8158 71.9853 33.1009C72.2505 33.3859 72.5985 33.5284 73.0294 33.5284C73.2945 33.5284 73.5514 33.4638 73.8 33.3345C74.0485 33.2053 74.2524 33.013 74.4115 32.7578C74.5739 32.4993 74.6551 32.1761 74.6551 31.7884ZM80.0212 30.5256V35H78.2215V27.3636H79.9416V28.6612H80.0311C80.2068 28.2337 80.4869 27.8939 80.8713 27.642C81.2591 27.3902 81.738 27.2642 82.3081 27.2642C82.8351 27.2642 83.2941 27.3769 83.6852 27.6023C84.0797 27.8277 84.3846 28.1541 84.6 28.5817C84.8188 29.0092 84.9265 29.5279 84.9232 30.1378V35H83.1235V30.4162C83.1235 29.9058 82.9909 29.5064 82.7257 29.218C82.4639 28.9297 82.101 28.7855 81.6369 28.7855C81.3221 28.7855 81.042 28.8551 80.7967 28.9943C80.5548 29.1302 80.3642 29.3274 80.225 29.5859C80.0891 29.8445 80.0212 30.1577 80.0212 30.5256ZM89.5025 35.1342C88.9026 35.1342 88.3657 34.9801 87.8917 34.6719C87.4178 34.3636 87.0432 33.9162 86.7682 33.3295C86.4931 32.7429 86.3555 32.0303 86.3555 31.1918C86.3555 30.3433 86.4947 29.6274 86.7731 29.044C87.0548 28.4574 87.4343 28.0149 87.9116 27.7166C88.3889 27.415 88.9209 27.2642 89.5075 27.2642C89.9549 27.2642 90.3228 27.3404 90.6112 27.4929C90.8995 27.642 91.1282 27.8227 91.2973 28.0348C91.4663 28.2436 91.5972 28.4408 91.69 28.6264H91.7646V24.8182H93.5693V35H91.7994V33.7969H91.69C91.5972 33.9825 91.463 34.1797 91.2873 34.3885C91.1117 34.594 90.8797 34.7696 90.5913 34.9155C90.303 35.0613 89.94 35.1342 89.5025 35.1342ZM90.0047 33.6577C90.3858 33.6577 90.7106 33.5549 90.9791 33.3494C91.2476 33.1406 91.4514 32.8506 91.5906 32.4794C91.7298 32.1082 91.7994 31.6757 91.7994 31.1818C91.7994 30.688 91.7298 30.2588 91.5906 29.8942C91.4547 29.5296 91.2525 29.2462 90.9841 29.044C90.7189 28.8419 90.3924 28.7408 90.0047 28.7408C89.6036 28.7408 89.2689 28.8452 89.0004 29.054C88.7319 29.2628 88.5298 29.5511 88.3939 29.919C88.258 30.2869 88.19 30.7079 88.19 31.1818C88.19 31.6591 88.258 32.085 88.3939 32.4595C88.5331 32.8307 88.7369 33.1241 89.0054 33.3395C89.2771 33.5516 89.6102 33.6577 90.0047 33.6577ZM98.7838 35.1491C98.0181 35.1491 97.3569 34.9901 96.8001 34.6719C96.2466 34.3504 95.8207 33.8963 95.5224 33.3097C95.2241 32.7197 95.075 32.0253 95.075 31.2266C95.075 30.4411 95.2241 29.7517 95.5224 29.1584C95.824 28.5618 96.2449 28.0978 96.7852 27.7663C97.3254 27.4316 97.9601 27.2642 98.6893 27.2642C99.1599 27.2642 99.6041 27.3404 100.022 27.4929C100.443 27.642 100.814 27.8741 101.135 28.1889C101.46 28.5038 101.715 28.9048 101.901 29.392C102.087 29.8759 102.179 30.4527 102.179 31.1222V31.674H95.9201V30.4609H100.454C100.451 30.1162 100.376 29.8097 100.23 29.5412C100.085 29.2694 99.8808 29.0556 99.619 28.8999C99.3605 28.7441 99.0589 28.6662 98.7142 28.6662C98.3463 28.6662 98.0231 28.7557 97.7447 28.9347C97.4663 29.1103 97.2492 29.3423 97.0934 29.6307C96.941 29.9157 96.8631 30.2289 96.8598 30.5703V31.6293C96.8598 32.0734 96.941 32.4545 97.1034 32.7727C97.2658 33.0876 97.4928 33.3295 97.7845 33.4986C98.0761 33.6643 98.4175 33.7472 98.8086 33.7472C99.0705 33.7472 99.3074 33.7107 99.5196 33.6378C99.7317 33.5616 99.9156 33.4505 100.071 33.3047C100.227 33.1589 100.345 32.9782 100.424 32.7628L102.105 32.9517C101.999 33.3958 101.797 33.7836 101.498 34.1151C101.203 34.4432 100.825 34.6984 100.365 34.8807C99.904 35.0597 99.377 35.1491 98.7838 35.1491ZM106.452 35.1342C105.852 35.1342 105.315 34.9801 104.841 34.6719C104.367 34.3636 103.992 33.9162 103.717 33.3295C103.442 32.7429 103.305 32.0303 103.305 31.1918C103.305 30.3433 103.444 29.6274 103.722 29.044C104.004 28.4574 104.384 28.0149 104.861 27.7166C105.338 27.415 105.87 27.2642 106.457 27.2642C106.904 27.2642 107.272 27.3404 107.56 27.4929C107.849 27.642 108.077 27.8227 108.246 28.0348C108.415 28.2436 108.546 28.4408 108.639 28.6264H108.714V24.8182H110.518V35H108.749V33.7969H108.639C108.546 33.9825 108.412 34.1797 108.237 34.3885C108.061 34.594 107.829 34.7696 107.54 34.9155C107.252 35.0613 106.889 35.1342 106.452 35.1342ZM106.954 33.6577C107.335 33.6577 107.66 33.5549 107.928 33.3494C108.197 33.1406 108.401 32.8506 108.54 32.4794C108.679 32.1082 108.749 31.6757 108.749 31.1818C108.749 30.688 108.679 30.2588 108.54 29.8942C108.404 29.5296 108.202 29.2462 107.933 29.044C107.668 28.8419 107.342 28.7408 106.954 28.7408C106.553 28.7408 106.218 28.8452 105.95 29.054C105.681 29.2628 105.479 29.5511 105.343 29.919C105.207 30.2869 105.139 30.7079 105.139 31.1818C105.139 31.6591 105.207 32.085 105.343 32.4595C105.482 32.8307 105.686 33.1241 105.955 33.3395C106.226 33.5516 106.559 33.6577 106.954 33.6577Z" fill="#576072"/>
<path d="M27.3242 57.5391V75H24.8047V60.0938H24.793L20.5273 62.8828V60.3984L24.875 57.5391H27.3242ZM35.4492 75.2461C34.2852 75.2461 33.2461 75.0156 32.332 74.5547C31.4258 74.0859 30.6992 73.4453 30.1523 72.6328C29.6133 71.8125 29.3203 70.8789 29.2734 69.832H31.8164C31.8945 70.7695 32.2695 71.543 32.9414 72.1523C33.6211 72.7539 34.4609 73.0547 35.4609 73.0547C36.5156 73.0547 37.3672 72.6992 38.0156 71.9883C38.6719 71.2773 39 70.3672 39 69.2578C39 68.1562 38.6836 67.25 38.0508 66.5391C37.418 65.8203 36.5938 65.4609 35.5781 65.4609C34.6875 65.4609 33.9219 65.6445 33.2812 66.0117C32.6406 66.3711 32.1953 66.8945 31.9453 67.582H29.4961L30.0703 57.5391H40.5117V59.7656H32.4023L32.0156 64.9102H32.0391C33.0625 63.8242 34.3711 63.2812 35.9648 63.2812C37.0273 63.2812 37.9727 63.5391 38.8008 64.0547C39.6367 64.5625 40.293 65.2656 40.7695 66.1641C41.2539 67.0547 41.4961 68.0703 41.4961 69.2109C41.4961 70.3906 41.2422 71.4336 40.7344 72.3398C40.2344 73.2461 39.5312 73.957 38.625 74.4727C37.7188 74.9883 36.6602 75.2461 35.4492 75.2461Z" fill="#212329"/>
</svg>
