<svg width="280" height="102" viewBox="0 0 280 102" fill="none" xmlns="http://www.w3.org/2000/svg">
<rect x="0.5" y="0.5" width="279" height="101" rx="11.5" fill="white"/>
<rect x="0.5" y="0.5" width="279" height="101" rx="11.5" stroke="#E4E7EC"/>
<path d="M29.3714 24.8182V35H27.7308L22.9332 28.0646H22.8487V35H21.0043V24.8182H22.6548L27.4474 31.7585H27.5369V24.8182H29.3714ZM34.5984 35.1491C33.8327 35.1491 33.1715 34.9901 32.6147 34.6719C32.0612 34.3504 31.6353 33.8963 31.337 33.3097C31.0387 32.7197 30.8895 32.0253 30.8895 31.2266C30.8895 30.4411 31.0387 29.7517 31.337 29.1584C31.6386 28.5618 32.0595 28.0978 32.5998 27.7663C33.14 27.4316 33.7747 27.2642 34.5039 27.2642C34.9745 27.2642 35.4187 27.3404 35.8363 27.4929C36.2572 27.642 36.6284 27.8741 36.9499 28.1889C37.2747 28.5038 37.5299 28.9048 37.7155 29.392C37.9011 29.8759 37.9939 30.4527 37.9939 31.1222V31.674H31.7347V30.4609H36.2688C36.2655 30.1162 36.1909 29.8097 36.0451 29.5412C35.8993 29.2694 35.6954 29.0556 35.4336 28.8999C35.1751 28.7441 34.8734 28.6662 34.5287 28.6662C34.1609 28.6662 33.8377 28.7557 33.5593 28.9347C33.2809 29.1103 33.0638 29.3423 32.908 29.6307C32.7555 29.9157 32.6777 30.2289 32.6743 30.5703V31.6293C32.6743 32.0734 32.7555 32.4545 32.918 32.7727C33.0804 33.0876 33.3074 33.3295 33.5991 33.4986C33.8907 33.6643 34.2321 33.7472 34.6232 33.7472C34.885 33.7472 35.122 33.7107 35.3341 33.6378C35.5463 33.5616 35.7302 33.4505 35.886 33.3047C36.0418 33.1589 36.1594 32.9782 36.239 32.7628L37.9194 32.9517C37.8133 33.3958 37.6111 33.7836 37.3128 34.1151C37.0179 34.4432 36.64 34.6984 36.1793 34.8807C35.7186 35.0597 35.1916 35.1491 34.5984 35.1491ZM40.74 27.3636L42.2812 30.1825L43.8473 27.3636H45.7514L43.4495 31.1818L45.7912 35H43.897L42.2812 32.2507L40.6804 35H38.7713L41.098 31.1818L38.8309 27.3636H40.74ZM50.8726 27.3636V28.7557H46.4827V27.3636H50.8726ZM47.5665 25.5341H49.3663V32.7031C49.3663 32.9451 49.4027 33.1307 49.4756 33.2599C49.5519 33.3859 49.6513 33.4721 49.7739 33.5185C49.8966 33.5649 50.0324 33.5881 50.1816 33.5881C50.2943 33.5881 50.397 33.5798 50.4898 33.5632C50.5859 33.5466 50.6589 33.5317 50.7086 33.5185L51.0118 34.9254C50.9157 34.9586 50.7782 34.995 50.5992 35.0348C50.4235 35.0746 50.2081 35.0978 49.9529 35.1044C49.5021 35.1177 49.0961 35.0497 48.7349 34.9006C48.3736 34.7481 48.0869 34.5128 47.8748 34.1946C47.666 33.8764 47.5632 33.4787 47.5665 33.0014V25.5341ZM55.6825 37.8636V27.3636H57.4523V28.6264H57.5567C57.6495 28.4408 57.7805 28.2436 57.9495 28.0348C58.1185 27.8227 58.3472 27.642 58.6356 27.4929C58.9239 27.3404 59.2918 27.2642 59.7393 27.2642C60.3292 27.2642 60.8612 27.415 61.3352 27.7166C61.8124 28.0149 62.1903 28.4574 62.4687 29.044C62.7504 29.6274 62.8913 30.3433 62.8913 31.1918C62.8913 32.0303 62.7537 32.7429 62.4786 33.3295C62.2035 33.9162 61.829 34.3636 61.355 34.6719C60.8811 34.9801 60.3441 35.1342 59.7442 35.1342C59.3067 35.1342 58.9438 35.0613 58.6555 34.9155C58.3671 34.7696 58.1351 34.594 57.9594 34.3885C57.7871 34.1797 57.6529 33.9825 57.5567 33.7969H57.4822V37.8636H55.6825ZM57.4474 31.1818C57.4474 31.6757 57.517 32.1082 57.6562 32.4794C57.7987 32.8506 58.0025 33.1406 58.2677 33.3494C58.5361 33.5549 58.861 33.6577 59.2421 33.6577C59.6398 33.6577 59.9729 33.5516 60.2414 33.3395C60.5099 33.1241 60.712 32.8307 60.8479 32.4595C60.9871 32.085 61.0567 31.6591 61.0567 31.1818C61.0567 30.7079 60.9888 30.2869 60.8529 29.919C60.717 29.5511 60.5148 29.2628 60.2464 29.054C59.9779 28.8452 59.6432 28.7408 59.2421 28.7408C58.8576 28.7408 58.5312 28.8419 58.2627 29.044C57.9942 29.2462 57.7904 29.5296 57.6512 29.8942C57.5153 30.2588 57.4474 30.688 57.4474 31.1818ZM66.5459 35.1541C66.062 35.1541 65.6261 35.0679 65.2384 34.8956C64.8539 34.7199 64.549 34.4614 64.3236 34.12C64.1015 33.7786 63.9905 33.3577 63.9905 32.8572C63.9905 32.4264 64.07 32.0701 64.2291 31.7884C64.3882 31.5066 64.6053 31.2812 64.8804 31.1122C65.1555 30.9432 65.4654 30.8156 65.8101 30.7294C66.1581 30.6399 66.5177 30.5753 66.8889 30.5355C67.3364 30.4891 67.6993 30.4477 67.9777 30.4112C68.2561 30.3714 68.4583 30.3118 68.5842 30.2322C68.7135 30.1494 68.7781 30.0218 68.7781 29.8494V29.8196C68.7781 29.4451 68.6671 29.1551 68.445 28.9496C68.223 28.7441 67.9031 28.6413 67.4855 28.6413C67.0447 28.6413 66.695 28.7375 66.4365 28.9297C66.1813 29.1219 66.009 29.349 65.9195 29.6108L64.2391 29.3722C64.3716 28.9081 64.5904 28.5204 64.8953 28.2088C65.2002 27.8939 65.5731 27.6586 66.0139 27.5028C66.4547 27.3438 66.942 27.2642 67.4756 27.2642C67.8435 27.2642 68.2097 27.3073 68.5743 27.3935C68.9389 27.4796 69.272 27.6222 69.5736 27.821C69.8752 28.0166 70.1172 28.2834 70.2994 28.6214C70.485 28.9595 70.5779 29.3821 70.5779 29.8892V35H68.8477V33.951H68.7881C68.6787 34.1631 68.5246 34.362 68.3257 34.5476C68.1302 34.7299 67.8832 34.8774 67.585 34.9901C67.29 35.0994 66.9436 35.1541 66.5459 35.1541ZM67.0132 33.8317C67.3745 33.8317 67.6877 33.7604 67.9529 33.6179C68.218 33.4721 68.4218 33.2798 68.5644 33.0412C68.7102 32.8026 68.7831 32.5424 68.7831 32.2607V31.3608C68.7268 31.4072 68.6306 31.4503 68.4948 31.4901C68.3622 31.5298 68.213 31.5646 68.0473 31.5945C67.8816 31.6243 67.7175 31.6508 67.5551 31.674C67.3927 31.6972 67.2519 31.7171 67.1325 31.7337C66.8641 31.7701 66.6238 31.8298 66.4117 31.9126C66.1995 31.9955 66.0322 32.1115 65.9095 32.2607C65.7869 32.4065 65.7256 32.5954 65.7256 32.8274C65.7256 33.1589 65.8466 33.4091 66.0885 33.5781C66.3305 33.7472 66.6387 33.8317 67.0132 33.8317ZM73.1487 37.8636C72.9034 37.8636 72.6764 37.8438 72.4676 37.804C72.2621 37.7675 72.098 37.7244 71.9754 37.6747L72.393 36.2727C72.6548 36.349 72.8885 36.3854 73.094 36.3821C73.2995 36.3788 73.4801 36.3142 73.6359 36.1882C73.795 36.0656 73.9292 35.8601 74.0386 35.5717L74.1927 35.1591L71.4235 27.3636H73.3326L75.0926 33.1307H75.1721L76.937 27.3636H78.8511L75.7936 35.9247C75.651 36.3291 75.4621 36.6754 75.2268 36.9638C74.9915 37.2554 74.7031 37.4775 74.3618 37.63C74.0237 37.7857 73.6193 37.8636 73.1487 37.8636ZM80.0125 35V27.3636H81.7327V28.6612H81.8221C81.9812 28.2237 82.2447 27.8823 82.6126 27.6371C82.9805 27.3885 83.4197 27.2642 83.9301 27.2642C84.4471 27.2642 84.883 27.3902 85.2376 27.642C85.5956 27.8906 85.8475 28.2304 85.9933 28.6612H86.0729C86.2419 28.237 86.5269 27.8989 86.928 27.647C87.3323 27.3918 87.8112 27.2642 88.3648 27.2642C89.0674 27.2642 89.6408 27.4863 90.0849 27.9304C90.5291 28.3745 90.7511 29.0225 90.7511 29.8743V35H88.9464V30.1527C88.9464 29.6787 88.8205 29.3324 88.5686 29.1136C88.3167 28.8916 88.0085 28.7805 87.6439 28.7805C87.2097 28.7805 86.87 28.9164 86.6247 29.1882C86.3827 29.4567 86.2618 29.8063 86.2618 30.2372V35H84.4969V30.0781C84.4969 29.6837 84.3775 29.3688 84.1389 29.1335C83.9036 28.8982 83.5953 28.7805 83.2142 28.7805C82.9557 28.7805 82.7203 28.8468 82.5082 28.9794C82.2961 29.1087 82.1271 29.2926 82.0011 29.5312C81.8752 29.7666 81.8122 30.0417 81.8122 30.3565V35H80.0125ZM95.8736 35.1491C95.108 35.1491 94.4468 34.9901 93.89 34.6719C93.3365 34.3504 92.9106 33.8963 92.6123 33.3097C92.314 32.7197 92.1648 32.0253 92.1648 31.2266C92.1648 30.4411 92.314 29.7517 92.6123 29.1584C92.9139 28.5618 93.3348 28.0978 93.875 27.7663C94.4153 27.4316 95.05 27.2642 95.7792 27.2642C96.2498 27.2642 96.6939 27.3404 97.1115 27.4929C97.5325 27.642 97.9037 27.8741 98.2252 28.1889C98.55 28.5038 98.8052 28.9048 98.9908 29.392C99.1764 29.8759 99.2692 30.4527 99.2692 31.1222V31.674H93.01V30.4609H97.5441C97.5408 30.1162 97.4662 29.8097 97.3204 29.5412C97.1745 29.2694 96.9707 29.0556 96.7088 28.8999C96.4503 28.7441 96.1487 28.6662 95.804 28.6662C95.4361 28.6662 95.113 28.7557 94.8346 28.9347C94.5561 29.1103 94.3391 29.3423 94.1833 29.6307C94.0308 29.9157 93.9529 30.2289 93.9496 30.5703V31.6293C93.9496 32.0734 94.0308 32.4545 94.1932 32.7727C94.3556 33.0876 94.5827 33.3295 94.8743 33.4986C95.166 33.6643 95.5074 33.7472 95.8985 33.7472C96.1603 33.7472 96.3973 33.7107 96.6094 33.6378C96.8215 33.5616 97.0055 33.4505 97.1613 33.3047C97.317 33.1589 97.4347 32.9782 97.5142 32.7628L99.1946 32.9517C99.0886 33.3958 98.8864 33.7836 98.5881 34.1151C98.2931 34.4432 97.9153 34.6984 97.4546 34.8807C96.9939 35.0597 96.4669 35.1491 95.8736 35.1491ZM102.507 30.5256V35H100.708V27.3636H102.428V28.6612H102.517C102.693 28.2337 102.973 27.8939 103.358 27.642C103.745 27.3902 104.224 27.2642 104.794 27.2642C105.321 27.2642 105.78 27.3769 106.172 27.6023C106.566 27.8277 106.871 28.1541 107.086 28.5817C107.305 29.0092 107.413 29.5279 107.409 30.1378V35H105.61V30.4162C105.61 29.9058 105.477 29.5064 105.212 29.218C104.95 28.9297 104.587 28.7855 104.123 28.7855C103.808 28.7855 103.528 28.8551 103.283 28.9943C103.041 29.1302 102.851 29.3274 102.711 29.5859C102.575 29.8445 102.507 30.1577 102.507 30.5256ZM112.968 27.3636V28.7557H108.578V27.3636H112.968ZM109.662 25.5341H111.462V32.7031C111.462 32.9451 111.498 33.1307 111.571 33.2599C111.647 33.3859 111.747 33.4721 111.869 33.5185C111.992 33.5649 112.128 33.5881 112.277 33.5881C112.39 33.5881 112.493 33.5798 112.585 33.5632C112.682 33.5466 112.754 33.5317 112.804 33.5185L113.107 34.9254C113.011 34.9586 112.874 34.995 112.695 35.0348C112.519 35.0746 112.304 35.0978 112.048 35.1044C111.598 35.1177 111.192 35.0497 110.83 34.9006C110.469 34.7481 110.182 34.5128 109.97 34.1946C109.762 33.8764 109.659 33.4787 109.662 33.0014V25.5341Z" fill="#576072"/>
<path d="M20.8789 75V72.7734C21.5039 72.7734 21.9922 72.6055 22.3438 72.2695C22.7031 71.9258 22.8672 71.3633 22.8359 70.582L22.6836 67.3477H20.8789V65.2969H22.5898L22.4727 62.8359C22.418 61.7266 22.625 60.7578 23.0938 59.9297C23.5625 59.0938 24.2188 58.4453 25.0625 57.9844C25.9062 57.5234 26.875 57.293 27.9688 57.293C29 57.293 29.9141 57.5273 30.7109 57.9961C31.5156 58.457 32.1406 59.1016 32.5859 59.9297C33.0391 60.75 33.2656 61.7031 33.2656 62.7891H30.8398C30.8398 61.7578 30.582 60.957 30.0664 60.3867C29.5508 59.8164 28.8555 59.5312 27.9805 59.5312C27.0273 59.5312 26.2734 59.8164 25.7188 60.3867C25.1719 60.9492 24.9219 61.7383 24.9688 62.7539L25.0742 65.2969H29.832V67.3477H25.1562L25.2852 70.3828C25.3086 71 25.2188 71.5 25.0156 71.8828C24.8203 72.2578 24.5469 72.5547 24.1953 72.7734H30.0195C30.6133 72.7734 30.9102 72.4766 30.9102 71.8828V71.168H33.2891V71.7539C33.2891 73.918 32.207 75 30.043 75H20.8789ZM41.0391 75.2812C39.75 75.2812 38.6328 75.0273 37.6875 74.5195C36.75 74.0117 36.0234 73.3164 35.5078 72.4336C34.9922 71.5508 34.7344 70.5469 34.7344 69.4219H37.3008C37.3008 70.5859 37.625 71.4922 38.2734 72.1406C38.9297 72.7891 39.8359 73.1133 40.9922 73.1133C42.1016 73.1133 43 72.832 43.6875 72.2695C44.3828 71.707 44.7305 70.9531 44.7305 70.0078C44.7305 69.1406 44.3594 68.4453 43.6172 67.9219C42.8828 67.3906 41.9141 67.125 40.7109 67.125H39.2578V65.0039H40.7109C41.7734 65.0039 42.6289 64.7617 43.2773 64.2773C43.9336 63.793 44.2617 63.1484 44.2617 62.3438C44.2617 61.4375 43.957 60.7227 43.3477 60.1992C42.7383 59.6758 41.9336 59.4141 40.9336 59.4141C39.9023 59.4141 39.0859 59.7031 38.4844 60.2812C37.8906 60.8594 37.5938 61.6562 37.5938 62.6719H35.0977C35.0977 61.6172 35.3438 60.6836 35.8359 59.8711C36.3281 59.0508 37.0117 58.4102 37.8867 57.9492C38.7617 57.4883 39.7812 57.2578 40.9453 57.2578C42.0547 57.2578 43.0469 57.4688 43.9219 57.8906C44.7969 58.3047 45.4844 58.8828 45.9844 59.625C46.4922 60.3594 46.7461 61.1992 46.7461 62.1445C46.7461 63.0664 46.457 63.8672 45.8789 64.5469C45.3008 65.2188 44.5234 65.6875 43.5469 65.9531V65.9883C44.6953 66.168 45.6055 66.6367 46.2773 67.3945C46.9492 68.1523 47.2852 69.0469 47.2852 70.0781C47.2852 71.0938 47.0156 71.9922 46.4766 72.7734C45.9375 73.5547 45.1953 74.168 44.25 74.6133C43.3125 75.0586 42.2422 75.2812 41.0391 75.2812ZM47.8633 78.4102L48.8359 72.4219H51.3672L49.6328 78.4102H47.8633ZM58.8594 75.2812C56.8438 75.2812 55.2812 74.5508 54.1719 73.0898C53.0703 71.6289 52.5195 69.5703 52.5195 66.9141C52.5195 64.9688 52.7578 63.2734 53.2344 61.8281C53.7109 60.3828 54.4336 59.2617 55.4023 58.4648C56.3789 57.6602 57.6094 57.2578 59.0938 57.2578C60.1562 57.2578 61.0898 57.4609 61.8945 57.8672C62.707 58.2656 63.3594 58.8242 63.8516 59.543C64.3438 60.2617 64.6406 61.0898 64.7422 62.0273H62.2461C62.0977 61.2383 61.7578 60.6094 61.2266 60.1406C60.7031 59.6719 60.0156 59.4375 59.1641 59.4375C58.2188 59.4375 57.4336 59.707 56.8086 60.2461C56.1914 60.7852 55.7305 61.5273 55.4258 62.4727C55.1211 63.418 54.9688 64.5078 54.9688 65.7422H54.9922C55.3984 65.0703 55.9844 64.543 56.75 64.1602C57.5234 63.7695 58.375 63.5742 59.3047 63.5742C60.375 63.5742 61.332 63.8281 62.1758 64.3359C63.0195 64.8359 63.6836 65.5234 64.168 66.3984C64.6602 67.2734 64.9062 68.2656 64.9062 69.375C64.9062 70.5391 64.6484 71.5664 64.1328 72.457C63.6172 73.3398 62.9023 74.0312 61.9883 74.5312C61.082 75.0312 60.0391 75.2812 58.8594 75.2812ZM58.8477 73.0898C59.5117 73.0898 60.1094 72.9258 60.6406 72.5977C61.1797 72.2617 61.6055 71.8164 61.918 71.2617C62.2383 70.6992 62.3984 70.0703 62.3984 69.375C62.3984 68.6875 62.2461 68.0703 61.9414 67.5234C61.6367 66.9688 61.2188 66.5312 60.6875 66.2109C60.1641 65.8828 59.5703 65.7188 58.9062 65.7188C58.2422 65.7188 57.6367 65.8828 57.0898 66.2109C56.5508 66.5391 56.1211 66.9805 55.8008 67.5352C55.4805 68.0898 55.3203 68.7109 55.3203 69.3984C55.3203 70.0781 55.4766 70.6992 55.7891 71.2617C56.1094 71.8164 56.5352 72.2617 57.0664 72.5977C57.6055 72.9258 58.1992 73.0898 58.8477 73.0898ZM72.8789 75.2812C71.5273 75.2812 70.3594 74.9141 69.375 74.1797C68.3984 73.4453 67.6445 72.4062 67.1133 71.0625C66.582 69.7109 66.3164 68.1172 66.3164 66.2812C66.3164 64.4375 66.582 62.8398 67.1133 61.4883C67.6445 60.1367 68.3984 59.0938 69.375 58.3594C70.3594 57.625 71.5273 57.2578 72.8789 57.2578C74.2227 57.2578 75.3828 57.625 76.3594 58.3594C77.3438 59.0938 78.1016 60.1367 78.6328 61.4883C79.1641 62.8398 79.4297 64.4375 79.4297 66.2812C79.4297 68.1172 79.1641 69.7109 78.6328 71.0625C78.1016 72.4062 77.3438 73.4453 76.3594 74.1797C75.3828 74.9141 74.2227 75.2812 72.8789 75.2812ZM72.8789 73.0664C74.1445 73.0664 75.1406 72.4648 75.8672 71.2617C76.6016 70.0508 76.9688 68.3906 76.9688 66.2812C76.9688 64.1641 76.6016 62.5 75.8672 61.2891C75.1406 60.0781 74.1445 59.4727 72.8789 59.4727C71.6055 59.4727 70.6016 60.0781 69.8672 61.2891C69.1406 62.5 68.7773 64.1641 68.7773 66.2812C68.7773 68.3906 69.1406 70.0508 69.8672 71.2617C70.6016 72.4648 71.6055 73.0664 72.8789 73.0664ZM87.4023 75.2812C86.0508 75.2812 84.8828 74.9141 83.8984 74.1797C82.9219 73.4453 82.168 72.4062 81.6367 71.0625C81.1055 69.7109 80.8398 68.1172 80.8398 66.2812C80.8398 64.4375 81.1055 62.8398 81.6367 61.4883C82.168 60.1367 82.9219 59.0938 83.8984 58.3594C84.8828 57.625 86.0508 57.2578 87.4023 57.2578C88.7461 57.2578 89.9062 57.625 90.8828 58.3594C91.8672 59.0938 92.625 60.1367 93.1562 61.4883C93.6875 62.8398 93.9531 64.4375 93.9531 66.2812C93.9531 68.1172 93.6875 69.7109 93.1562 71.0625C92.625 72.4062 91.8672 73.4453 90.8828 74.1797C89.9062 74.9141 88.7461 75.2812 87.4023 75.2812ZM87.4023 73.0664C88.668 73.0664 89.6641 72.4648 90.3906 71.2617C91.125 70.0508 91.4922 68.3906 91.4922 66.2812C91.4922 64.1641 91.125 62.5 90.3906 61.2891C89.6641 60.0781 88.668 59.4727 87.4023 59.4727C86.1289 59.4727 85.125 60.0781 84.3906 61.2891C83.6641 62.5 83.3008 64.1641 83.3008 66.2812C83.3008 68.3906 83.6641 70.0508 84.3906 71.2617C85.125 72.4648 86.1289 73.0664 87.4023 73.0664ZM96.4883 75.1992C96.0352 75.1992 95.6484 75.043 95.3281 74.7305C95.0156 74.4102 94.8594 74.0195 94.8594 73.5586C94.8594 73.1055 95.0156 72.7188 95.3281 72.3984C95.6484 72.0781 96.0352 71.918 96.4883 71.918C96.9492 71.918 97.3359 72.0781 97.6484 72.3984C97.9688 72.7188 98.1289 73.1055 98.1289 73.5586C98.1289 74.0195 97.9688 74.4102 97.6484 74.7305C97.3359 75.043 96.9492 75.1992 96.4883 75.1992ZM105.598 75.2812C104.246 75.2812 103.078 74.9141 102.094 74.1797C101.117 73.4453 100.363 72.4062 99.832 71.0625C99.3008 69.7109 99.0352 68.1172 99.0352 66.2812C99.0352 64.4375 99.3008 62.8398 99.832 61.4883C100.363 60.1367 101.117 59.0938 102.094 58.3594C103.078 57.625 104.246 57.2578 105.598 57.2578C106.941 57.2578 108.102 57.625 109.078 58.3594C110.062 59.0938 110.82 60.1367 111.352 61.4883C111.883 62.8398 112.148 64.4375 112.148 66.2812C112.148 68.1172 111.883 69.7109 111.352 71.0625C110.82 72.4062 110.062 73.4453 109.078 74.1797C108.102 74.9141 106.941 75.2812 105.598 75.2812ZM105.598 73.0664C106.863 73.0664 107.859 72.4648 108.586 71.2617C109.32 70.0508 109.688 68.3906 109.688 66.2812C109.688 64.1641 109.32 62.5 108.586 61.2891C107.859 60.0781 106.863 59.4727 105.598 59.4727C104.324 59.4727 103.32 60.0781 102.586 61.2891C101.859 62.5 101.496 64.1641 101.496 66.2812C101.496 68.3906 101.859 70.0508 102.586 71.2617C103.32 72.4648 104.324 73.0664 105.598 73.0664ZM120.121 75.2812C118.77 75.2812 117.602 74.9141 116.617 74.1797C115.641 73.4453 114.887 72.4062 114.355 71.0625C113.824 69.7109 113.559 68.1172 113.559 66.2812C113.559 64.4375 113.824 62.8398 114.355 61.4883C114.887 60.1367 115.641 59.0938 116.617 58.3594C117.602 57.625 118.77 57.2578 120.121 57.2578C121.465 57.2578 122.625 57.625 123.602 58.3594C124.586 59.0938 125.344 60.1367 125.875 61.4883C126.406 62.8398 126.672 64.4375 126.672 66.2812C126.672 68.1172 126.406 69.7109 125.875 71.0625C125.344 72.4062 124.586 73.4453 123.602 74.1797C122.625 74.9141 121.465 75.2812 120.121 75.2812ZM120.121 73.0664C121.387 73.0664 122.383 72.4648 123.109 71.2617C123.844 70.0508 124.211 68.3906 124.211 66.2812C124.211 64.1641 123.844 62.5 123.109 61.2891C122.383 60.0781 121.387 59.4727 120.121 59.4727C118.848 59.4727 117.844 60.0781 117.109 61.2891C116.383 62.5 116.02 64.1641 116.02 66.2812C116.02 68.3906 116.383 70.0508 117.109 71.2617C117.844 72.4648 118.848 73.0664 120.121 73.0664Z" fill="#212329"/>
<path d="M144 56.5H182C187.247 56.5 191.5 60.7533 191.5 66C191.5 71.2467 187.247 75.5 182 75.5H144C138.753 75.5 134.5 71.2467 134.5 66C134.5 60.7533 138.753 56.5 144 56.5Z" fill="#F6F7F9"/>
<path d="M144 56.5H182C187.247 56.5 191.5 60.7533 191.5 66C191.5 71.2467 187.247 75.5 182 75.5H144C138.753 75.5 134.5 71.2467 134.5 66C134.5 60.7533 138.753 56.5 144 56.5Z" stroke="#E4E7EC"/>
<path d="M146.165 70.1449C145.492 70.142 144.916 69.9645 144.439 69.6122C143.962 69.2599 143.597 68.7472 143.344 68.0739C143.091 67.4006 142.965 66.5895 142.965 65.6406C142.965 64.6946 143.091 63.8864 143.344 63.2159C143.6 62.5455 143.966 62.0341 144.443 61.6818C144.923 61.3295 145.497 61.1534 146.165 61.1534C146.833 61.1534 147.405 61.331 147.882 61.6861C148.36 62.0384 148.725 62.5497 148.977 63.2202C149.233 63.8878 149.361 64.6946 149.361 65.6406C149.361 66.5923 149.235 67.4048 148.982 68.0781C148.729 68.7486 148.364 69.2614 147.887 69.6165C147.409 69.9688 146.835 70.1449 146.165 70.1449ZM146.165 69.0071C146.756 69.0071 147.218 68.7188 147.55 68.142C147.885 67.5653 148.053 66.7315 148.053 65.6406C148.053 64.9162 147.976 64.304 147.823 63.804C147.672 63.3011 147.455 62.9205 147.171 62.6619C146.889 62.4006 146.554 62.2699 146.165 62.2699C145.577 62.2699 145.115 62.5597 144.78 63.1392C144.445 63.7187 144.276 64.5526 144.273 65.6406C144.273 66.3679 144.348 66.983 144.499 67.4858C144.652 67.9858 144.869 68.3651 145.151 68.6236C145.432 68.8793 145.77 69.0071 146.165 69.0071ZM153.911 70.1193C153.326 70.1193 152.803 70.0185 152.343 69.8168C151.885 69.6151 151.523 69.3352 151.256 68.9773C150.992 68.6165 150.85 68.1989 150.83 67.7244H152.168C152.185 67.983 152.272 68.2074 152.428 68.3977C152.587 68.5852 152.795 68.7301 153.05 68.8324C153.306 68.9347 153.59 68.9858 153.903 68.9858C154.246 68.9858 154.55 68.9261 154.814 68.8068C155.081 68.6875 155.29 68.5213 155.441 68.3082C155.591 68.0923 155.667 67.8438 155.667 67.5625C155.667 67.2699 155.591 67.0128 155.441 66.7912C155.293 66.5668 155.076 66.3906 154.789 66.2628C154.505 66.1349 154.161 66.071 153.758 66.071H153.02V64.9972H153.758C154.081 64.9972 154.366 64.9389 154.61 64.8224C154.857 64.706 155.05 64.544 155.189 64.3366C155.329 64.1264 155.398 63.8807 155.398 63.5994C155.398 63.3295 155.337 63.0952 155.215 62.8963C155.096 62.6946 154.925 62.5369 154.704 62.4233C154.485 62.3097 154.226 62.2528 153.928 62.2528C153.644 62.2528 153.378 62.3054 153.131 62.4105C152.887 62.5128 152.688 62.6605 152.535 62.8537C152.381 63.044 152.299 63.2727 152.287 63.5398H151.013C151.028 63.0682 151.167 62.6534 151.431 62.2955C151.698 61.9375 152.05 61.6577 152.488 61.456C152.925 61.2543 153.411 61.1534 153.945 61.1534C154.505 61.1534 154.988 61.2628 155.394 61.4815C155.803 61.6974 156.118 61.9858 156.34 62.3466C156.564 62.7074 156.675 63.1023 156.672 63.5312C156.675 64.0199 156.539 64.4347 156.263 64.7756C155.991 65.1165 155.627 65.3452 155.172 65.4616V65.5298C155.752 65.6179 156.201 65.848 156.519 66.2202C156.84 66.5923 156.999 67.054 156.996 67.6051C156.999 68.0852 156.866 68.5156 156.596 68.8963C156.329 69.277 155.964 69.5767 155.501 69.7955C155.037 70.0114 154.508 70.1193 153.911 70.1193ZM168.946 61.2727V70H167.736L163.3 63.5994H163.219V70H161.902V61.2727H163.121L167.561 67.6818H167.642V61.2727H168.946ZM173.522 70.1321C172.908 70.1321 172.373 69.9915 171.915 69.7102C171.458 69.429 171.103 69.0355 170.85 68.5298C170.597 68.0241 170.471 67.4332 170.471 66.7571C170.471 66.0781 170.597 65.4844 170.85 64.9759C171.103 64.4673 171.458 64.0724 171.915 63.7912C172.373 63.5099 172.908 63.3693 173.522 63.3693C174.135 63.3693 174.671 63.5099 175.128 63.7912C175.586 64.0724 175.941 64.4673 176.194 64.9759C176.447 65.4844 176.573 66.0781 176.573 66.7571C176.573 67.4332 176.447 68.0241 176.194 68.5298C175.941 69.0355 175.586 69.429 175.128 69.7102C174.671 69.9915 174.135 70.1321 173.522 70.1321ZM173.526 69.0625C173.924 69.0625 174.253 68.9574 174.515 68.7472C174.776 68.5369 174.969 68.2571 175.094 67.9077C175.222 67.5582 175.286 67.1733 175.286 66.7528C175.286 66.3352 175.222 65.9517 175.094 65.6023C174.969 65.25 174.776 64.9673 174.515 64.7543C174.253 64.5412 173.924 64.4347 173.526 64.4347C173.126 64.4347 172.793 64.5412 172.529 64.7543C172.268 64.9673 172.073 65.25 171.945 65.6023C171.82 65.9517 171.758 66.3352 171.758 66.7528C171.758 67.1733 171.82 67.5582 171.945 67.9077C172.073 68.2571 172.268 68.5369 172.529 68.7472C172.793 68.9574 173.126 69.0625 173.526 69.0625ZM183.372 63.4545L180.998 70H179.635L177.257 63.4545H178.625L180.282 68.4915H180.351L182.004 63.4545H183.372Z" fill="#474D5D"/>
</svg>
