<svg width="319" height="120" viewBox="0 0 319 120" fill="none" xmlns="http://www.w3.org/2000/svg">
<path d="M12 0.5H307C313.351 0.5 318.5 5.64873 318.5 12V108C318.5 114.351 313.351 119.5 307 119.5H12C5.64873 119.5 0.5 114.351 0.5 108V12L0.514648 11.4082C0.822652 5.33195 5.8472 0.5 12 0.5Z" stroke="#E4E7EC"/>
<g clip-path="url(#clip0_3_5438)">
<rect width="319" height="120" rx="8" fill="white"/>
<g clip-path="url(#clip1_3_5438)">
<mask id="path-4-inside-1_3_5438" fill="white">
<path d="M0 0H319V120H0V0Z"/>
</mask>
<mask id="path-6-inside-2_3_5438" fill="white">
<path d="M0 0H32V120H0V0Z"/>
</mask>
<path d="M0 0H32V120H0V0Z" fill="#E8FBE5"/>
<path d="M32 0H31V120H32H33V0H32Z" fill="#E4E7EC" mask="url(#path-6-inside-2_3_5438)"/>
<path d="M16.0001 31.4C12.4651 31.4 9.6001 28.535 9.6001 25C9.6001 21.465 12.4651 18.6 16.0001 18.6C19.5351 18.6 22.4001 21.465 22.4001 25C22.4001 28.535 19.5351 31.4 16.0001 31.4ZM18.9501 22.2425C18.6826 22.0475 18.3076 22.1075 18.1126 22.375L15.1276 26.48L13.8251 25.1775C13.5901 24.9425 13.2101 24.9425 12.9776 25.1775C12.7451 25.4125 12.7426 25.7925 12.9776 26.025L14.7776 27.825C14.9026 27.95 15.0726 28.0125 15.2476 28C15.4226 27.9875 15.5826 27.8975 15.6851 27.755L19.0826 23.08C19.2776 22.8125 19.2176 22.4375 18.9501 22.2425Z" fill="#2A9919"/>
<mask id="path-9-inside-3_3_5438" fill="white">
<path d="M32 0H319V120H32V0Z"/>
</mask>
<path d="M319 120V119H32V120V121H319V120Z" fill="#E4E7EC" mask="url(#path-9-inside-3_3_5438)"/>
<path d="M47.1122 31L44.2884 20.8182H45.9041L47.8878 28.7031H47.9822L50.0455 20.8182H51.6463L53.7095 28.7081H53.804L55.7827 20.8182H57.4034L54.5746 31H53.0284L50.8857 23.3736H50.8061L48.6634 31H47.1122ZM58.6008 31V23.3636H60.0873V31H58.6008ZM59.3515 22.1854C59.093 22.1854 58.871 22.0992 58.6854 21.9268C58.5031 21.7512 58.4119 21.5424 58.4119 21.3004C58.4119 21.0552 58.5031 20.8464 58.6854 20.674C58.871 20.4983 59.093 20.4105 59.3515 20.4105C59.6101 20.4105 59.8305 20.4983 60.0128 20.674C60.1984 20.8464 60.2912 21.0552 60.2912 21.3004C60.2912 21.5424 60.1984 21.7512 60.0128 21.9268C59.8305 22.0992 59.6101 22.1854 59.3515 22.1854ZM63.4897 20.8182V31H62.0032V20.8182H63.4897ZM66.892 20.8182V31H65.4055V20.8182H66.892ZM75.6455 31.1541C74.9064 31.1541 74.27 30.9867 73.7364 30.652C73.2061 30.3139 72.7985 29.8482 72.5134 29.255C72.2284 28.6617 72.0859 27.9822 72.0859 27.2166C72.0859 26.4411 72.2317 25.7566 72.5234 25.1634C72.815 24.5668 73.226 24.1011 73.7563 23.7663C74.2866 23.4316 74.9114 23.2642 75.6306 23.2642C76.2106 23.2642 76.7277 23.3719 77.1817 23.5874C77.6358 23.7995 78.0021 24.0978 78.2805 24.4822C78.5622 24.8667 78.7296 25.3158 78.7826 25.8295H77.3359C77.2563 25.4716 77.074 25.1634 76.789 24.9048C76.5073 24.6463 76.1294 24.517 75.6555 24.517C75.2412 24.517 74.8782 24.6264 74.5667 24.8452C74.2584 25.0606 74.0182 25.3688 73.8458 25.7699C73.6735 26.1676 73.5873 26.6383 73.5873 27.1818C73.5873 27.7386 73.6718 28.2192 73.8408 28.6236C74.0099 29.0279 74.2485 29.3411 74.5567 29.5632C74.8683 29.7853 75.2345 29.8963 75.6555 29.8963C75.9372 29.8963 76.1924 29.8449 76.4211 29.7422C76.6531 29.6361 76.847 29.4853 77.0028 29.2898C77.1619 29.0942 77.2729 28.8589 77.3359 28.5838H78.7826C78.7296 29.0777 78.5688 29.5185 78.3003 29.9062C78.0319 30.294 77.6723 30.599 77.2215 30.821C76.7741 31.0431 76.2487 31.1541 75.6455 31.1541ZM83.5049 31.1541C82.789 31.1541 82.1642 30.9901 81.6306 30.6619C81.097 30.3338 80.6827 29.8748 80.3877 29.2848C80.0927 28.6948 79.9452 28.0054 79.9452 27.2166C79.9452 26.4245 80.0927 25.7318 80.3877 25.1385C80.6827 24.5452 81.097 24.0845 81.6306 23.7564C82.1642 23.4283 82.789 23.2642 83.5049 23.2642C84.2208 23.2642 84.8455 23.4283 85.3792 23.7564C85.9128 24.0845 86.3271 24.5452 86.6221 25.1385C86.917 25.7318 87.0645 26.4245 87.0645 27.2166C87.0645 28.0054 86.917 28.6948 86.6221 29.2848C86.3271 29.8748 85.9128 30.3338 85.3792 30.6619C84.8455 30.9901 84.2208 31.1541 83.5049 31.1541ZM83.5098 29.9062C83.9739 29.9062 84.3583 29.7836 84.6633 29.5384C84.9682 29.2931 85.1936 28.9666 85.3394 28.5589C85.4885 28.1513 85.5631 27.7022 85.5631 27.2116C85.5631 26.7244 85.4885 26.277 85.3394 25.8693C85.1936 25.4583 84.9682 25.1286 84.6633 24.88C84.3583 24.6314 83.9739 24.5071 83.5098 24.5071C83.0425 24.5071 82.6547 24.6314 82.3465 24.88C82.0416 25.1286 81.8145 25.4583 81.6654 25.8693C81.5196 26.277 81.4466 26.7244 81.4466 27.2116C81.4466 27.7022 81.5196 28.1513 81.6654 28.5589C81.8145 28.9666 82.0416 29.2931 82.3465 29.5384C82.6547 29.7836 83.0425 29.9062 83.5098 29.9062ZM88.6398 31V23.3636H90.0667V24.6065H90.1611C90.3202 24.1856 90.5804 23.8575 90.9417 23.6222C91.3029 23.3835 91.7354 23.2642 92.2392 23.2642C92.7497 23.2642 93.1772 23.3835 93.5219 23.6222C93.8699 23.8608 94.1268 24.1889 94.2925 24.6065H94.372C94.5543 24.1989 94.8443 23.8741 95.2421 23.6321C95.6398 23.3868 96.1138 23.2642 96.664 23.2642C97.3567 23.2642 97.9218 23.4813 98.3593 23.9155C98.8001 24.3497 99.0205 25.0043 99.0205 25.8793V31H97.534V26.0185C97.534 25.5014 97.3931 25.1269 97.1114 24.8949C96.8297 24.6629 96.4933 24.5469 96.1022 24.5469C95.6183 24.5469 95.2421 24.696 94.9736 24.9943C94.7051 25.2893 94.5709 25.6688 94.5709 26.1328V31H93.0894V25.924C93.0894 25.5097 92.9601 25.1766 92.7016 24.9247C92.4431 24.6728 92.1067 24.5469 91.6924 24.5469C91.4106 24.5469 91.1505 24.6214 90.9118 24.7706C90.6765 24.9164 90.4859 25.1203 90.3401 25.3821C90.1976 25.6439 90.1263 25.9472 90.1263 26.2919V31H88.6398ZM100.929 33.8636V23.3636H102.381V24.6016H102.505C102.591 24.4425 102.715 24.2585 102.878 24.0497C103.04 23.8409 103.265 23.6586 103.554 23.5028C103.842 23.3438 104.223 23.2642 104.697 23.2642C105.314 23.2642 105.864 23.42 106.348 23.7315C106.832 24.0431 107.211 24.4922 107.486 25.0788C107.765 25.6655 107.904 26.3714 107.904 27.1967C107.904 28.022 107.766 28.7296 107.491 29.3196C107.216 29.9062 106.838 30.3587 106.358 30.6768C105.877 30.9917 105.329 31.1491 104.712 31.1491C104.248 31.1491 103.869 31.0713 103.574 30.9155C103.282 30.7597 103.053 30.5774 102.888 30.3686C102.722 30.1598 102.594 29.9742 102.505 29.8118H102.415V33.8636H100.929ZM102.386 27.1818C102.386 27.7187 102.463 28.1894 102.619 28.5938C102.775 28.9981 103 29.3146 103.295 29.5433C103.59 29.7687 103.952 29.8814 104.379 29.8814C104.823 29.8814 105.194 29.7637 105.493 29.5284C105.791 29.2898 106.016 28.9666 106.169 28.5589C106.325 28.1513 106.403 27.6922 106.403 27.1818C106.403 26.678 106.326 26.2256 106.174 25.8246C106.025 25.4235 105.799 25.107 105.498 24.875C105.199 24.643 104.827 24.527 104.379 24.527C103.948 24.527 103.584 24.638 103.285 24.8601C102.99 25.0821 102.767 25.392 102.614 25.7898C102.462 26.1875 102.386 26.6515 102.386 27.1818ZM110.972 20.8182V31H109.485V20.8182H110.972ZM116.179 31.1541C115.427 31.1541 114.779 30.9934 114.235 30.6719C113.695 30.3471 113.277 29.8913 112.982 29.3047C112.691 28.7147 112.545 28.0237 112.545 27.2315C112.545 26.4493 112.691 25.7599 112.982 25.1634C113.277 24.5668 113.688 24.1011 114.215 23.7663C114.746 23.4316 115.365 23.2642 116.075 23.2642C116.505 23.2642 116.923 23.3355 117.327 23.478C117.732 23.6205 118.095 23.8442 118.416 24.1491C118.738 24.4541 118.991 24.8501 119.177 25.3374C119.362 25.8213 119.455 26.4096 119.455 27.1023V27.6293H113.385V26.5156H117.999C117.999 26.1245 117.919 25.7782 117.76 25.4766C117.601 25.1716 117.377 24.9313 117.089 24.7557C116.804 24.58 116.469 24.4922 116.085 24.4922C115.667 24.4922 115.302 24.5949 114.991 24.8004C114.683 25.0026 114.444 25.2678 114.275 25.5959C114.109 25.9207 114.026 26.2737 114.026 26.6548V27.5249C114.026 28.0353 114.116 28.4695 114.295 28.8274C114.477 29.1854 114.731 29.4588 115.055 29.6477C115.38 29.8333 115.76 29.9261 116.194 29.9261C116.476 29.9261 116.733 29.8864 116.965 29.8068C117.197 29.724 117.397 29.6013 117.566 29.4389C117.735 29.2765 117.864 29.076 117.954 28.8374L119.361 29.0909C119.248 29.5052 119.046 29.8681 118.754 30.1797C118.466 30.4879 118.103 30.7282 117.666 30.9006C117.231 31.0696 116.736 31.1541 116.179 31.1541ZM124.585 23.3636V24.5568H120.414V23.3636H124.585ZM121.533 21.5341H123.019V28.7578C123.019 29.0462 123.062 29.2633 123.148 29.4091C123.235 29.5516 123.346 29.6494 123.482 29.7024C123.621 29.7521 123.772 29.777 123.934 29.777C124.053 29.777 124.158 29.7687 124.247 29.7521C124.337 29.7356 124.406 29.7223 124.456 29.7124L124.724 30.9403C124.638 30.9735 124.516 31.0066 124.357 31.0398C124.197 31.0762 123.999 31.0961 123.76 31.0994C123.369 31.1061 123.004 31.0365 122.666 30.8906C122.328 30.7448 122.055 30.5194 121.846 30.2145C121.637 29.9096 121.533 29.5268 121.533 29.0661V21.5341ZM126.146 31V23.3636H127.632V31H126.146ZM126.896 22.1854C126.638 22.1854 126.416 22.0992 126.23 21.9268C126.048 21.7512 125.957 21.5424 125.957 21.3004C125.957 21.0552 126.048 20.8464 126.23 20.674C126.416 20.4983 126.638 20.4105 126.896 20.4105C127.155 20.4105 127.375 20.4983 127.558 20.674C127.743 20.8464 127.836 21.0552 127.836 21.3004C127.836 21.5424 127.743 21.7512 127.558 21.9268C127.375 22.0992 127.155 22.1854 126.896 22.1854ZM132.765 31.1541C132.049 31.1541 131.424 30.9901 130.89 30.6619C130.357 30.3338 129.942 29.8748 129.647 29.2848C129.352 28.6948 129.205 28.0054 129.205 27.2166C129.205 26.4245 129.352 25.7318 129.647 25.1385C129.942 24.5452 130.357 24.0845 130.89 23.7564C131.424 23.4283 132.049 23.2642 132.765 23.2642C133.48 23.2642 134.105 23.4283 134.639 23.7564C135.172 24.0845 135.587 24.5452 135.882 25.1385C136.177 25.7318 136.324 26.4245 136.324 27.2166C136.324 28.0054 136.177 28.6948 135.882 29.2848C135.587 29.8748 135.172 30.3338 134.639 30.6619C134.105 30.9901 133.48 31.1541 132.765 31.1541ZM132.77 29.9062C133.234 29.9062 133.618 29.7836 133.923 29.5384C134.228 29.2931 134.453 28.9666 134.599 28.5589C134.748 28.1513 134.823 27.7022 134.823 27.2116C134.823 26.7244 134.748 26.277 134.599 25.8693C134.453 25.4583 134.228 25.1286 133.923 24.88C133.618 24.6314 133.234 24.5071 132.77 24.5071C132.302 24.5071 131.914 24.6314 131.606 24.88C131.301 25.1286 131.074 25.4583 130.925 25.8693C130.779 26.277 130.706 26.7244 130.706 27.2116C130.706 27.7022 130.779 28.1513 130.925 28.5589C131.074 28.9666 131.301 29.2931 131.606 29.5384C131.914 29.7836 132.302 29.9062 132.77 29.9062ZM139.386 26.4659V31H137.899V23.3636H139.326V24.6065H139.421C139.596 24.2022 139.872 23.8774 140.246 23.6321C140.624 23.3868 141.1 23.2642 141.673 23.2642C142.193 23.2642 142.649 23.3736 143.04 23.5923C143.431 23.8078 143.734 24.1293 143.95 24.5568C144.165 24.9844 144.273 25.513 144.273 26.1428V31H142.787V26.3217C142.787 25.7682 142.642 25.3357 142.354 25.0241C142.066 24.7093 141.67 24.5518 141.166 24.5518C140.821 24.5518 140.515 24.6264 140.246 24.7756C139.981 24.9247 139.77 25.1435 139.615 25.4318C139.462 25.7169 139.386 26.0616 139.386 26.4659ZM149.804 33.8636V23.3636H151.255V24.6016H151.38C151.466 24.4425 151.59 24.2585 151.753 24.0497C151.915 23.8409 152.14 23.6586 152.429 23.5028C152.717 23.3438 153.098 23.2642 153.572 23.2642C154.189 23.2642 154.739 23.42 155.223 23.7315C155.707 24.0431 156.086 24.4922 156.361 25.0788C156.64 25.6655 156.779 26.3714 156.779 27.1967C156.779 28.022 156.641 28.7296 156.366 29.3196C156.091 29.9062 155.713 30.3587 155.233 30.6768C154.752 30.9917 154.204 31.1491 153.587 31.1491C153.123 31.1491 152.744 31.0713 152.449 30.9155C152.157 30.7597 151.928 30.5774 151.763 30.3686C151.597 30.1598 151.469 29.9742 151.38 29.8118H151.29V33.8636H149.804ZM151.26 27.1818C151.26 27.7187 151.338 28.1894 151.494 28.5938C151.65 28.9981 151.875 29.3146 152.17 29.5433C152.465 29.7687 152.826 29.8814 153.254 29.8814C153.698 29.8814 154.069 29.7637 154.368 29.5284C154.666 29.2898 154.891 28.9666 155.044 28.5589C155.2 28.1513 155.277 27.6922 155.277 27.1818C155.277 26.678 155.201 26.2256 155.049 25.8246C154.9 25.4235 154.674 25.107 154.373 24.875C154.074 24.643 153.701 24.527 153.254 24.527C152.823 24.527 152.459 24.638 152.16 24.8601C151.865 25.0821 151.642 25.392 151.489 25.7898C151.337 26.1875 151.26 26.6515 151.26 27.1818ZM158.36 31V23.3636H159.797V24.5767H159.877C160.016 24.1657 160.261 23.8426 160.612 23.6072C160.967 23.3686 161.368 23.2493 161.816 23.2493C161.908 23.2493 162.018 23.2526 162.144 23.2592C162.273 23.2659 162.374 23.2741 162.447 23.2841V24.706C162.387 24.6894 162.281 24.6712 162.129 24.6513C161.976 24.6281 161.824 24.6165 161.671 24.6165C161.32 24.6165 161.007 24.6911 160.732 24.8402C160.46 24.986 160.245 25.1899 160.085 25.4517C159.926 25.7102 159.847 26.0052 159.847 26.3366V31H158.36ZM166.593 31.1541C165.877 31.1541 165.252 30.9901 164.718 30.6619C164.185 30.3338 163.77 29.8748 163.475 29.2848C163.18 28.6948 163.033 28.0054 163.033 27.2166C163.033 26.4245 163.18 25.7318 163.475 25.1385C163.77 24.5452 164.185 24.0845 164.718 23.7564C165.252 23.4283 165.877 23.2642 166.593 23.2642C167.308 23.2642 167.933 23.4283 168.467 23.7564C169 24.0845 169.415 24.5452 169.71 25.1385C170.005 25.7318 170.152 26.4245 170.152 27.2166C170.152 28.0054 170.005 28.6948 169.71 29.2848C169.415 29.8748 169 30.3338 168.467 30.6619C167.933 30.9901 167.308 31.1541 166.593 31.1541ZM166.598 29.9062C167.062 29.9062 167.446 29.7836 167.751 29.5384C168.056 29.2931 168.281 28.9666 168.427 28.5589C168.576 28.1513 168.651 27.7022 168.651 27.2116C168.651 26.7244 168.576 26.277 168.427 25.8693C168.281 25.4583 168.056 25.1286 167.751 24.88C167.446 24.6314 167.062 24.5071 166.598 24.5071C166.13 24.5071 165.742 24.6314 165.434 24.88C165.129 25.1286 164.902 25.4583 164.753 25.8693C164.607 26.277 164.534 26.7244 164.534 27.2116C164.534 27.7022 164.607 28.1513 164.753 28.5589C164.902 28.9666 165.129 29.2931 165.434 29.5384C165.742 29.7836 166.13 29.9062 166.598 29.9062ZM174.944 31.1541C174.205 31.1541 173.569 30.9867 173.035 30.652C172.505 30.3139 172.097 29.8482 171.812 29.255C171.527 28.6617 171.384 27.9822 171.384 27.2166C171.384 26.4411 171.53 25.7566 171.822 25.1634C172.114 24.5668 172.525 24.1011 173.055 23.7663C173.585 23.4316 174.21 23.2642 174.929 23.2642C175.509 23.2642 176.026 23.3719 176.48 23.5874C176.934 23.7995 177.301 24.0978 177.579 24.4822C177.861 24.8667 178.028 25.3158 178.081 25.8295H176.634C176.555 25.4716 176.373 25.1634 176.088 24.9048C175.806 24.6463 175.428 24.517 174.954 24.517C174.54 24.517 174.177 24.6264 173.865 24.8452C173.557 25.0606 173.317 25.3688 173.144 25.7699C172.972 26.1676 172.886 26.6383 172.886 27.1818C172.886 27.7386 172.97 28.2192 173.139 28.6236C173.308 29.0279 173.547 29.3411 173.855 29.5632C174.167 29.7853 174.533 29.8963 174.954 29.8963C175.236 29.8963 175.491 29.8449 175.72 29.7422C175.952 29.6361 176.146 29.4853 176.301 29.2898C176.46 29.0942 176.571 28.8589 176.634 28.5838H178.081C178.028 29.0777 177.867 29.5185 177.599 29.9062C177.33 30.294 176.971 30.599 176.52 30.821C176.073 31.0431 175.547 31.1541 174.944 31.1541ZM182.878 31.1541C182.126 31.1541 181.478 30.9934 180.934 30.6719C180.394 30.3471 179.976 29.8913 179.681 29.3047C179.39 28.7147 179.244 28.0237 179.244 27.2315C179.244 26.4493 179.39 25.7599 179.681 25.1634C179.976 24.5668 180.387 24.1011 180.914 23.7663C181.445 23.4316 182.064 23.2642 182.774 23.2642C183.205 23.2642 183.622 23.3355 184.027 23.478C184.431 23.6205 184.794 23.8442 185.115 24.1491C185.437 24.4541 185.69 24.8501 185.876 25.3374C186.062 25.8213 186.154 26.4096 186.154 27.1023V27.6293H180.084V26.5156H184.698C184.698 26.1245 184.618 25.7782 184.459 25.4766C184.3 25.1716 184.076 24.9313 183.788 24.7557C183.503 24.58 183.168 24.4922 182.784 24.4922C182.366 24.4922 182.001 24.5949 181.69 24.8004C181.382 25.0026 181.143 25.2678 180.974 25.5959C180.808 25.9207 180.725 26.2737 180.725 26.6548V27.5249C180.725 28.0353 180.815 28.4695 180.994 28.8274C181.176 29.1854 181.43 29.4588 181.754 29.6477C182.079 29.8333 182.459 29.9261 182.893 29.9261C183.175 29.9261 183.432 29.8864 183.664 29.8068C183.896 29.724 184.096 29.6013 184.265 29.4389C184.434 29.2765 184.563 29.076 184.653 28.8374L186.06 29.0909C185.947 29.5052 185.745 29.8681 185.453 30.1797C185.165 30.4879 184.802 30.7282 184.365 30.9006C183.93 31.0696 183.435 31.1541 182.878 31.1541ZM191.011 31.1541C190.258 31.1541 189.611 30.9934 189.067 30.6719C188.527 30.3471 188.109 29.8913 187.814 29.3047C187.522 28.7147 187.377 28.0237 187.377 27.2315C187.377 26.4493 187.522 25.7599 187.814 25.1634C188.109 24.5668 188.52 24.1011 189.047 23.7663C189.577 23.4316 190.197 23.2642 190.906 23.2642C191.337 23.2642 191.755 23.3355 192.159 23.478C192.564 23.6205 192.927 23.8442 193.248 24.1491C193.57 24.4541 193.823 24.8501 194.009 25.3374C194.194 25.8213 194.287 26.4096 194.287 27.1023V27.6293H188.217V26.5156H192.83C192.83 26.1245 192.751 25.7782 192.592 25.4766C192.433 25.1716 192.209 24.9313 191.921 24.7557C191.636 24.58 191.301 24.4922 190.916 24.4922C190.499 24.4922 190.134 24.5949 189.823 24.8004C189.514 25.0026 189.276 25.2678 189.107 25.5959C188.941 25.9207 188.858 26.2737 188.858 26.6548V27.5249C188.858 28.0353 188.948 28.4695 189.127 28.8274C189.309 29.1854 189.562 29.4588 189.887 29.6477C190.212 29.8333 190.592 29.9261 191.026 29.9261C191.307 29.9261 191.564 29.8864 191.796 29.8068C192.028 29.724 192.229 29.6013 192.398 29.4389C192.567 29.2765 192.696 29.076 192.786 28.8374L194.193 29.0909C194.08 29.5052 193.878 29.8681 193.586 30.1797C193.298 30.4879 192.935 30.7282 192.497 30.9006C192.063 31.0696 191.568 31.1541 191.011 31.1541ZM198.711 31.1491C198.095 31.1491 197.544 30.9917 197.061 30.6768C196.58 30.3587 196.202 29.9062 195.927 29.3196C195.655 28.7296 195.519 28.022 195.519 27.1967C195.519 26.3714 195.657 25.6655 195.932 25.0788C196.21 24.4922 196.592 24.0431 197.075 23.7315C197.559 23.42 198.108 23.2642 198.721 23.2642C199.195 23.2642 199.576 23.3438 199.865 23.5028C200.156 23.6586 200.382 23.8409 200.541 24.0497C200.703 24.2585 200.829 24.4425 200.919 24.6016H201.008V20.8182H202.495V31H201.043V29.8118H200.919C200.829 29.9742 200.7 30.1598 200.531 30.3686C200.365 30.5774 200.136 30.7597 199.845 30.9155C199.553 31.0713 199.175 31.1491 198.711 31.1491ZM199.039 29.8814C199.467 29.8814 199.828 29.7687 200.123 29.5433C200.421 29.3146 200.647 28.9981 200.799 28.5938C200.955 28.1894 201.033 27.7187 201.033 27.1818C201.033 26.6515 200.957 26.1875 200.804 25.7898C200.652 25.392 200.428 25.0821 200.133 24.8601C199.838 24.638 199.473 24.527 199.039 24.527C198.592 24.527 198.219 24.643 197.921 24.875C197.622 25.107 197.397 25.4235 197.245 25.8246C197.095 26.2256 197.021 26.678 197.021 27.1818C197.021 27.6922 197.097 28.1513 197.249 28.5589C197.402 28.9666 197.627 29.2898 197.926 29.5284C198.227 29.7637 198.598 29.8814 199.039 29.8814ZM209.809 31L207.562 23.3636H209.098L210.594 28.9716H210.669L212.17 23.3636H213.706L215.198 28.9467H215.273L216.759 23.3636H218.295L216.053 31H214.537L212.986 25.4865H212.871L211.32 31H209.809ZM219.622 31V23.3636H221.108V31H219.622ZM220.373 22.1854C220.114 22.1854 219.892 22.0992 219.706 21.9268C219.524 21.7512 219.433 21.5424 219.433 21.3004C219.433 21.0552 219.524 20.8464 219.706 20.674C219.892 20.4983 220.114 20.4105 220.373 20.4105C220.631 20.4105 220.852 20.4983 221.034 20.674C221.219 20.8464 221.312 21.0552 221.312 21.3004C221.312 21.5424 221.219 21.7512 221.034 21.9268C220.852 22.0992 220.631 22.1854 220.373 22.1854ZM226.589 23.3636V24.5568H222.418V23.3636H226.589ZM223.536 21.5341H225.023V28.7578C225.023 29.0462 225.066 29.2633 225.152 29.4091C225.238 29.5516 225.349 29.6494 225.485 29.7024C225.624 29.7521 225.775 29.777 225.938 29.777C226.057 29.777 226.161 29.7687 226.251 29.7521C226.34 29.7356 226.41 29.7223 226.46 29.7124L226.728 30.9403C226.642 30.9735 226.519 31.0066 226.36 31.0398C226.201 31.0762 226.002 31.0961 225.764 31.0994C225.373 31.1061 225.008 31.0365 224.67 30.8906C224.332 30.7448 224.058 30.5194 223.85 30.2145C223.641 29.9096 223.536 29.5268 223.536 29.0661V21.5341ZM229.8 26.4659V31H228.313V20.8182H229.78V24.6065H229.874C230.053 24.1955 230.327 23.8691 230.695 23.6271C231.063 23.3852 231.543 23.2642 232.136 23.2642C232.66 23.2642 233.118 23.3719 233.509 23.5874C233.903 23.8028 234.208 24.1243 234.423 24.5518C234.642 24.9761 234.752 25.5064 234.752 26.1428V31H233.265V26.3217C233.265 25.7616 233.121 25.3274 232.832 25.0192C232.544 24.7076 232.143 24.5518 231.629 24.5518C231.278 24.5518 230.963 24.6264 230.685 24.7756C230.41 24.9247 230.193 25.1435 230.033 25.4318C229.878 25.7169 229.8 26.0616 229.8 26.4659ZM246.805 23.3636L244.036 31H242.445L239.671 23.3636H241.267L243.201 29.2401H243.28L245.209 23.3636H246.805ZM250.122 31.169C249.638 31.169 249.2 31.0795 248.809 30.9006C248.418 30.7183 248.108 30.4548 247.879 30.1101C247.654 29.7654 247.541 29.3428 247.541 28.8423C247.541 28.4115 247.624 28.0568 247.79 27.7784C247.956 27.5 248.179 27.2796 248.461 27.1172C248.743 26.9548 249.058 26.8321 249.406 26.7493C249.754 26.6664 250.108 26.6035 250.47 26.5604C250.927 26.5073 251.298 26.4643 251.583 26.4311C251.868 26.3946 252.075 26.3366 252.205 26.2571C252.334 26.1776 252.398 26.0483 252.398 25.8693V25.8345C252.398 25.4003 252.276 25.0639 252.031 24.8253C251.789 24.5866 251.427 24.4673 250.947 24.4673C250.446 24.4673 250.052 24.5784 249.764 24.8004C249.479 25.0192 249.281 25.2628 249.172 25.5312L247.775 25.2131C247.941 24.7491 248.183 24.3745 248.501 24.0895C248.822 23.8011 249.192 23.5923 249.609 23.4631C250.027 23.3305 250.466 23.2642 250.927 23.2642C251.232 23.2642 251.555 23.3007 251.896 23.3736C252.241 23.4432 252.563 23.5724 252.861 23.7614C253.162 23.9503 253.409 24.2204 253.602 24.5717C253.794 24.9197 253.89 25.3722 253.89 25.929V31H252.438V29.956H252.379C252.282 30.1482 252.138 30.3371 251.946 30.5227C251.754 30.7083 251.507 30.8625 251.205 30.9851C250.904 31.1077 250.542 31.169 250.122 31.169ZM250.445 29.9759C250.856 29.9759 251.207 29.8946 251.499 29.7322C251.794 29.5698 252.017 29.3577 252.17 29.0959C252.326 28.8307 252.403 28.5473 252.403 28.2457V27.2614C252.35 27.3144 252.248 27.3641 252.095 27.4105C251.946 27.4536 251.775 27.4917 251.583 27.5249C251.391 27.5547 251.204 27.5829 251.021 27.6094C250.839 27.6326 250.687 27.6525 250.564 27.669C250.276 27.7055 250.012 27.7668 249.773 27.853C249.538 27.9392 249.349 28.0634 249.207 28.2259C249.068 28.3849 248.998 28.5971 248.998 28.8622C248.998 29.2301 249.134 29.5085 249.406 29.6974C249.677 29.883 250.024 29.9759 250.445 29.9759ZM259.003 31.1541C258.263 31.1541 257.627 30.9867 257.093 30.652C256.563 30.3139 256.155 29.8482 255.87 29.255C255.585 28.6617 255.443 27.9822 255.443 27.2166C255.443 26.4411 255.589 25.7566 255.88 25.1634C256.172 24.5668 256.583 24.1011 257.113 23.7663C257.644 23.4316 258.268 23.2642 258.988 23.2642C259.568 23.2642 260.085 23.3719 260.539 23.5874C260.993 23.7995 261.359 24.0978 261.637 24.4822C261.919 24.8667 262.087 25.3158 262.14 25.8295H260.693C260.613 25.4716 260.431 25.1634 260.146 24.9048C259.864 24.6463 259.486 24.517 259.012 24.517C258.598 24.517 258.235 24.6264 257.924 24.8452C257.615 25.0606 257.375 25.3688 257.203 25.7699C257.03 26.1676 256.944 26.6383 256.944 27.1818C256.944 27.7386 257.029 28.2192 257.198 28.6236C257.367 29.0279 257.606 29.3411 257.914 29.5632C258.225 29.7853 258.592 29.8963 259.012 29.8963C259.294 29.8963 259.549 29.8449 259.778 29.7422C260.01 29.6361 260.204 29.4853 260.36 29.2898C260.519 29.0942 260.63 28.8589 260.693 28.5838H262.14C262.087 29.0777 261.926 29.5185 261.657 29.9062C261.389 30.294 261.029 30.599 260.579 30.821C260.131 31.0431 259.606 31.1541 259.003 31.1541ZM265.868 31.169C265.384 31.169 264.946 31.0795 264.555 30.9006C264.164 30.7183 263.854 30.4548 263.625 30.1101C263.4 29.7654 263.287 29.3428 263.287 28.8423C263.287 28.4115 263.37 28.0568 263.536 27.7784C263.702 27.5 263.925 27.2796 264.207 27.1172C264.489 26.9548 264.804 26.8321 265.152 26.7493C265.5 26.6664 265.854 26.6035 266.216 26.5604C266.673 26.5073 267.044 26.4643 267.329 26.4311C267.614 26.3946 267.821 26.3366 267.951 26.2571C268.08 26.1776 268.145 26.0483 268.145 25.8693V25.8345C268.145 25.4003 268.022 25.0639 267.777 24.8253C267.535 24.5866 267.173 24.4673 266.693 24.4673C266.192 24.4673 265.798 24.5784 265.51 24.8004C265.225 25.0192 265.027 25.2628 264.918 25.5312L263.521 25.2131C263.687 24.7491 263.929 24.3745 264.247 24.0895C264.568 23.8011 264.938 23.5923 265.355 23.4631C265.773 23.3305 266.212 23.2642 266.673 23.2642C266.978 23.2642 267.301 23.3007 267.642 23.3736C267.987 23.4432 268.309 23.5724 268.607 23.7614C268.909 23.9503 269.155 24.2204 269.348 24.5717C269.54 24.9197 269.636 25.3722 269.636 25.929V31H268.184V29.956H268.125C268.029 30.1482 267.884 30.3371 267.692 30.5227C267.5 30.7083 267.253 30.8625 266.951 30.9851C266.65 31.1077 266.288 31.169 265.868 31.169ZM266.191 29.9759C266.602 29.9759 266.953 29.8946 267.245 29.7322C267.54 29.5698 267.763 29.3577 267.916 29.0959C268.072 28.8307 268.15 28.5473 268.15 28.2457V27.2614C268.097 27.3144 267.994 27.3641 267.841 27.4105C267.692 27.4536 267.521 27.4917 267.329 27.5249C267.137 27.5547 266.95 27.5829 266.767 27.6094C266.585 27.6326 266.433 27.6525 266.31 27.669C266.022 27.7055 265.758 27.7668 265.52 27.853C265.284 27.9392 265.095 28.0634 264.953 28.2259C264.814 28.3849 264.744 28.5971 264.744 28.8622C264.744 29.2301 264.88 29.5085 265.152 29.6974C265.423 29.883 265.77 29.9759 266.191 29.9759ZM273.018 26.4659V31H271.532V23.3636H272.959V24.6065H273.053C273.229 24.2022 273.504 23.8774 273.879 23.6321C274.256 23.3868 274.732 23.2642 275.305 23.2642C275.826 23.2642 276.282 23.3736 276.673 23.5923C277.064 23.8078 277.367 24.1293 277.582 24.5568C277.798 24.9844 277.906 25.513 277.906 26.1428V31H276.419V26.3217C276.419 25.7682 276.275 25.3357 275.987 25.0241C275.698 24.7093 275.302 24.5518 274.798 24.5518C274.454 24.5518 274.147 24.6264 273.879 24.7756C273.613 24.9247 273.403 25.1435 273.247 25.4318C273.095 25.7169 273.018 26.0616 273.018 26.4659ZM283.38 23.3636V24.5568H279.209V23.3636H283.38ZM280.327 21.5341H281.814V28.7578C281.814 29.0462 281.857 29.2633 281.943 29.4091C282.029 29.5516 282.14 29.6494 282.276 29.7024C282.415 29.7521 282.566 29.777 282.729 29.777C282.848 29.777 282.952 29.7687 283.042 29.7521C283.131 29.7356 283.201 29.7223 283.251 29.7124L283.519 30.9403C283.433 30.9735 283.31 31.0066 283.151 31.0398C282.992 31.0762 282.793 31.0961 282.555 31.0994C282.163 31.1061 281.799 31.0365 281.461 30.8906C281.123 30.7448 280.849 30.5194 280.64 30.2145C280.432 29.9096 280.327 29.5268 280.327 29.0661V21.5341ZM44.9993 53.8636V43.3636H46.451V44.6016H46.5753C46.6615 44.4425 46.7857 44.2585 46.9482 44.0497C47.1106 43.8409 47.3359 43.6586 47.6243 43.5028C47.9126 43.3438 48.2938 43.2642 48.7678 43.2642C49.3842 43.2642 49.9344 43.42 50.4183 43.7315C50.9022 44.0431 51.2817 44.4922 51.5568 45.0788C51.8352 45.6655 51.9744 46.3714 51.9744 47.1967C51.9744 48.022 51.8369 48.7296 51.5618 49.3196C51.2867 49.9062 50.9089 50.3587 50.4283 50.6768C49.9477 50.9917 49.3991 51.1491 48.7827 51.1491C48.3187 51.1491 47.9392 51.0713 47.6442 50.9155C47.3525 50.7597 47.1238 50.5774 46.9581 50.3686C46.7924 50.1598 46.6648 49.9742 46.5753 49.8118H46.4858V53.8636H44.9993ZM46.456 47.1818C46.456 47.7187 46.5339 48.1894 46.6896 48.5938C46.8454 48.9981 47.0708 49.3146 47.3658 49.5433C47.6607 49.7687 48.022 49.8814 48.4496 49.8814C48.8937 49.8814 49.2649 49.7637 49.5632 49.5284C49.8615 49.2898 50.0869 48.9666 50.2393 48.5589C50.3951 48.1513 50.473 47.6922 50.473 47.1818C50.473 46.678 50.3968 46.2256 50.2443 45.8246C50.0952 45.4235 49.8698 45.107 49.5682 44.875C49.2699 44.643 48.897 44.527 48.4496 44.527C48.0187 44.527 47.6541 44.638 47.3558 44.8601C47.0608 45.0821 46.8371 45.392 46.6847 45.7898C46.5322 46.1875 46.456 46.6515 46.456 47.1818ZM56.7725 51.1541C56.0566 51.1541 55.4319 50.9901 54.8982 50.6619C54.3646 50.3338 53.9503 49.8748 53.6553 49.2848C53.3604 48.6948 53.2129 48.0054 53.2129 47.2166C53.2129 46.4245 53.3604 45.7318 53.6553 45.1385C53.9503 44.5452 54.3646 44.0845 54.8982 43.7564C55.4319 43.4283 56.0566 43.2642 56.7725 43.2642C57.4884 43.2642 58.1132 43.4283 58.6468 43.7564C59.1804 44.0845 59.5947 44.5452 59.8897 45.1385C60.1847 45.7318 60.3322 46.4245 60.3322 47.2166C60.3322 48.0054 60.1847 48.6948 59.8897 49.2848C59.5947 49.8748 59.1804 50.3338 58.6468 50.6619C58.1132 50.9901 57.4884 51.1541 56.7725 51.1541ZM56.7775 49.9062C57.2415 49.9062 57.626 49.7836 57.9309 49.5384C58.2358 49.2931 58.4612 48.9666 58.6071 48.5589C58.7562 48.1513 58.8308 47.7022 58.8308 47.2116C58.8308 46.7244 58.7562 46.277 58.6071 45.8693C58.4612 45.4583 58.2358 45.1286 57.9309 44.88C57.626 44.6314 57.2415 44.5071 56.7775 44.5071C56.3102 44.5071 55.9224 44.6314 55.6142 44.88C55.3092 45.1286 55.0822 45.4583 54.933 45.8693C54.7872 46.277 54.7143 46.7244 54.7143 47.2116C54.7143 47.7022 54.7872 48.1513 54.933 48.5589C55.0822 48.9666 55.3092 49.2931 55.6142 49.5384C55.9224 49.7836 56.3102 49.9062 56.7775 49.9062ZM67.6298 45.228L66.2825 45.4666C66.2261 45.2943 66.1366 45.1302 66.014 44.9744C65.8947 44.8187 65.7323 44.6911 65.5268 44.5916C65.3213 44.4922 65.0644 44.4425 64.7562 44.4425C64.3353 44.4425 63.9839 44.5369 63.7022 44.7259C63.4205 44.9115 63.2796 45.1518 63.2796 45.4467C63.2796 45.7019 63.3741 45.9074 63.563 46.0632C63.7519 46.219 64.0568 46.3466 64.4778 46.446L65.6908 46.7244C66.3935 46.8868 66.9172 47.1371 67.2619 47.4751C67.6066 47.8132 67.7789 48.2524 67.7789 48.7926C67.7789 49.25 67.6463 49.6577 67.3812 50.0156C67.1193 50.3703 66.7531 50.6487 66.2825 50.8509C65.8151 51.053 65.2732 51.1541 64.6568 51.1541C63.8016 51.1541 63.104 50.9718 62.5637 50.6072C62.0235 50.2393 61.692 49.7173 61.5694 49.0412L63.0062 48.8224C63.0957 49.197 63.2796 49.4804 63.558 49.6726C63.8364 49.8615 64.1994 49.956 64.6468 49.956C65.134 49.956 65.5235 49.8549 65.8151 49.6527C66.1068 49.4472 66.2526 49.197 66.2526 48.902C66.2526 48.6634 66.1631 48.4628 65.9842 48.3004C65.8085 48.138 65.5384 48.0154 65.1738 47.9325L63.8812 47.6491C63.1686 47.4867 62.6416 47.2282 62.3002 46.8736C61.9621 46.5189 61.7931 46.0698 61.7931 45.5263C61.7931 45.0755 61.9191 44.6811 62.171 44.343C62.4229 44.005 62.7709 43.7415 63.215 43.5526C63.6591 43.3603 64.1679 43.2642 64.7413 43.2642C65.5666 43.2642 66.2162 43.4432 66.6901 43.8011C67.1641 44.1558 67.4773 44.6314 67.6298 45.228ZM75.0516 45.228L73.7043 45.4666C73.648 45.2943 73.5585 45.1302 73.4359 44.9744C73.3165 44.8187 73.1541 44.6911 72.9486 44.5916C72.7431 44.4922 72.4863 44.4425 72.178 44.4425C71.7571 44.4425 71.4058 44.5369 71.1241 44.7259C70.8423 44.9115 70.7015 45.1518 70.7015 45.4467C70.7015 45.7019 70.7959 45.9074 70.9849 46.0632C71.1738 46.219 71.4787 46.3466 71.8996 46.446L73.1127 46.7244C73.8154 46.8868 74.339 47.1371 74.6837 47.4751C75.0284 47.8132 75.2008 48.2524 75.2008 48.7926C75.2008 49.25 75.0682 49.6577 74.803 50.0156C74.5412 50.3703 74.175 50.6487 73.7043 50.8509C73.237 51.053 72.6951 51.1541 72.0786 51.1541C71.2235 51.1541 70.5258 50.9718 69.9856 50.6072C69.4453 50.2393 69.1139 49.7173 68.9913 49.0412L70.428 48.8224C70.5175 49.197 70.7015 49.4804 70.9799 49.6726C71.2583 49.8615 71.6212 49.956 72.0687 49.956C72.5559 49.956 72.9453 49.8549 73.237 49.6527C73.5287 49.4472 73.6745 49.197 73.6745 48.902C73.6745 48.6634 73.585 48.4628 73.406 48.3004C73.2304 48.138 72.9602 48.0154 72.5957 47.9325L71.303 47.6491C70.5904 47.4867 70.0635 47.2282 69.7221 46.8736C69.384 46.5189 69.215 46.0698 69.215 45.5263C69.215 45.0755 69.3409 44.6811 69.5928 44.343C69.8447 44.005 70.1927 43.7415 70.6368 43.5526C71.081 43.3603 71.5897 43.2642 72.1631 43.2642C72.9884 43.2642 73.638 43.4432 74.112 43.8011C74.5859 44.1558 74.8992 44.6314 75.0516 45.228ZM80.0424 51.1541C79.29 51.1541 78.642 50.9934 78.0985 50.6719C77.5582 50.3471 77.1406 49.8913 76.8456 49.3047C76.554 48.7147 76.4081 48.0237 76.4081 47.2315C76.4081 46.4493 76.554 45.7599 76.8456 45.1634C77.1406 44.5668 77.5516 44.1011 78.0786 43.7663C78.6089 43.4316 79.2287 43.2642 79.938 43.2642C80.3688 43.2642 80.7865 43.3355 81.1908 43.478C81.5952 43.6205 81.9581 43.8442 82.2796 44.1491C82.6011 44.4541 82.8546 44.8501 83.0402 45.3374C83.2258 45.8213 83.3187 46.4096 83.3187 47.1023V47.6293H77.2483V46.5156H81.862C81.862 46.1245 81.7824 45.7782 81.6233 45.4766C81.4642 45.1716 81.2405 44.9313 80.9522 44.7557C80.6671 44.58 80.3324 44.4922 79.9479 44.4922C79.5303 44.4922 79.1657 44.5949 78.8542 44.8004C78.5459 45.0026 78.3073 45.2678 78.1383 45.5959C77.9725 45.9207 77.8897 46.2737 77.8897 46.6548V47.5249C77.8897 48.0353 77.9792 48.4695 78.1581 48.8274C78.3404 49.1854 78.594 49.4588 78.9188 49.6477C79.2436 49.8333 79.6231 49.9261 80.0573 49.9261C80.339 49.9261 80.5959 49.8864 80.8279 49.8068C81.0599 49.724 81.2604 49.6013 81.4294 49.4389C81.5985 49.2765 81.7277 49.076 81.8172 48.8374L83.2242 49.0909C83.1115 49.5052 82.9093 49.8681 82.6177 50.1797C82.3293 50.4879 81.9664 50.7282 81.5289 50.9006C81.0947 51.0696 80.5992 51.1541 80.0424 51.1541ZM90.6063 45.228L89.259 45.4666C89.2026 45.2943 89.1131 45.1302 88.9905 44.9744C88.8712 44.8187 88.7088 44.6911 88.5033 44.5916C88.2978 44.4922 88.0409 44.4425 87.7327 44.4425C87.3118 44.4425 86.9604 44.5369 86.6787 44.7259C86.397 44.9115 86.2561 45.1518 86.2561 45.4467C86.2561 45.7019 86.3506 45.9074 86.5395 46.0632C86.7284 46.219 87.0334 46.3466 87.4543 46.446L88.6674 46.7244C89.37 46.8868 89.8937 47.1371 90.2384 47.4751C90.5831 47.8132 90.7554 48.2524 90.7554 48.7926C90.7554 49.25 90.6229 49.6577 90.3577 50.0156C90.0959 50.3703 89.7296 50.6487 89.259 50.8509C88.7916 51.053 88.2497 51.1541 87.6333 51.1541C86.7782 51.1541 86.0805 50.9718 85.5402 50.6072C85 50.2393 84.6685 49.7173 84.5459 49.0412L85.9827 48.8224C86.0722 49.197 86.2561 49.4804 86.5345 49.6726C86.813 49.8615 87.1759 49.956 87.6233 49.956C88.1105 49.956 88.5 49.8549 88.7916 49.6527C89.0833 49.4472 89.2291 49.197 89.2291 48.902C89.2291 48.6634 89.1397 48.4628 88.9607 48.3004C88.785 48.138 88.5149 48.0154 88.1503 47.9325L86.8577 47.6491C86.1451 47.4867 85.6181 47.2282 85.2767 46.8736C84.9387 46.5189 84.7696 46.0698 84.7696 45.5263C84.7696 45.0755 84.8956 44.6811 85.1475 44.343C85.3994 44.005 85.7474 43.7415 86.1915 43.5526C86.6356 43.3603 87.1444 43.2642 87.7178 43.2642C88.5431 43.2642 89.1927 43.4432 89.6666 43.8011C90.1406 44.1558 90.4538 44.6314 90.6063 45.228ZM98.0281 45.228L96.6808 45.4666C96.6245 45.2943 96.535 45.1302 96.4124 44.9744C96.2931 44.8187 96.1306 44.6911 95.9252 44.5916C95.7197 44.4922 95.4628 44.4425 95.1546 44.4425C94.7336 44.4425 94.3823 44.5369 94.1006 44.7259C93.8189 44.9115 93.678 45.1518 93.678 45.4467C93.678 45.7019 93.7725 45.9074 93.9614 46.0632C94.1503 46.219 94.4552 46.3466 94.8761 46.446L96.0892 46.7244C96.7919 46.8868 97.3155 47.1371 97.6602 47.4751C98.0049 47.8132 98.1773 48.2524 98.1773 48.7926C98.1773 49.25 98.0447 49.6577 97.7796 50.0156C97.5177 50.3703 97.1515 50.6487 96.6808 50.8509C96.2135 51.053 95.6716 51.1541 95.0551 51.1541C94.2 51.1541 93.5023 50.9718 92.9621 50.6072C92.4218 50.2393 92.0904 49.7173 91.9678 49.0412L93.4046 48.8224C93.494 49.197 93.678 49.4804 93.9564 49.6726C94.2348 49.8615 94.5977 49.956 95.0452 49.956C95.5324 49.956 95.9218 49.8549 96.2135 49.6527C96.5052 49.4472 96.651 49.197 96.651 48.902C96.651 48.6634 96.5615 48.4628 96.3825 48.3004C96.2069 48.138 95.9368 48.0154 95.5722 47.9325L94.2796 47.6491C93.567 47.4867 93.04 47.2282 92.6986 46.8736C92.3605 46.5189 92.1915 46.0698 92.1915 45.5263C92.1915 45.0755 92.3174 44.6811 92.5693 44.343C92.8212 44.005 93.1692 43.7415 93.6134 43.5526C94.0575 43.3603 94.5663 43.2642 95.1396 43.2642C95.9649 43.2642 96.6145 43.4432 97.0885 43.8011C97.5625 44.1558 97.8757 44.6314 98.0281 45.228ZM99.7277 51V43.3636H101.214V51H99.7277ZM100.478 42.1854C100.22 42.1854 99.9978 42.0992 99.8122 41.9268C99.6299 41.7512 99.5388 41.5424 99.5388 41.3004C99.5388 41.0552 99.6299 40.8464 99.8122 40.674C99.9978 40.4983 100.22 40.4105 100.478 40.4105C100.737 40.4105 100.957 40.4983 101.14 40.674C101.325 40.8464 101.418 41.0552 101.418 41.3004C101.418 41.5424 101.325 41.7512 101.14 41.9268C100.957 42.0992 100.737 42.1854 100.478 42.1854ZM106.347 51.1541C105.631 51.1541 105.006 50.9901 104.472 50.6619C103.939 50.3338 103.524 49.8748 103.229 49.2848C102.934 48.6948 102.787 48.0054 102.787 47.2166C102.787 46.4245 102.934 45.7318 103.229 45.1385C103.524 44.5452 103.939 44.0845 104.472 43.7564C105.006 43.4283 105.631 43.2642 106.347 43.2642C107.063 43.2642 107.687 43.4283 108.221 43.7564C108.755 44.0845 109.169 44.5452 109.464 45.1385C109.759 45.7318 109.906 46.4245 109.906 47.2166C109.906 48.0054 109.759 48.6948 109.464 49.2848C109.169 49.8748 108.755 50.3338 108.221 50.6619C107.687 50.9901 107.063 51.1541 106.347 51.1541ZM106.352 49.9062C106.816 49.9062 107.2 49.7836 107.505 49.5384C107.81 49.2931 108.035 48.9666 108.181 48.5589C108.33 48.1513 108.405 47.7022 108.405 47.2116C108.405 46.7244 108.33 46.277 108.181 45.8693C108.035 45.4583 107.81 45.1286 107.505 44.88C107.2 44.6314 106.816 44.5071 106.352 44.5071C105.884 44.5071 105.497 44.6314 105.188 44.88C104.883 45.1286 104.656 45.4583 104.507 45.8693C104.361 46.277 104.288 46.7244 104.288 47.2116C104.288 47.7022 104.361 48.1513 104.507 48.5589C104.656 48.9666 104.883 49.2931 105.188 49.5384C105.497 49.7836 105.884 49.9062 106.352 49.9062ZM112.968 46.4659V51H111.482V43.3636H112.908V44.6065H113.003C113.179 44.2022 113.454 43.8774 113.828 43.6321C114.206 43.3868 114.682 43.2642 115.255 43.2642C115.775 43.2642 116.231 43.3736 116.622 43.5923C117.013 43.8078 117.317 44.1293 117.532 44.5568C117.747 44.9844 117.855 45.513 117.855 46.1428V51H116.369V46.3217C116.369 45.7682 116.224 45.3357 115.936 45.0241C115.648 44.7093 115.252 44.5518 114.748 44.5518C114.403 44.5518 114.097 44.6264 113.828 44.7756C113.563 44.9247 113.353 45.1435 113.197 45.4318C113.044 45.7169 112.968 46.0616 112.968 46.4659ZM121.39 48.0717V47.9773C121.397 47.3608 121.458 46.8703 121.574 46.5057C121.694 46.1411 121.863 45.8461 122.082 45.6207C122.3 45.3954 122.564 45.1899 122.872 45.0043C123.071 44.8783 123.25 44.7375 123.409 44.5817C123.568 44.4259 123.694 44.2469 123.787 44.0447C123.88 43.8426 123.926 43.6188 123.926 43.3736C123.926 43.0786 123.856 42.8234 123.717 42.608C123.578 42.3925 123.392 42.2268 123.16 42.1108C122.932 41.9915 122.676 41.9318 122.395 41.9318C122.14 41.9318 121.896 41.9848 121.664 42.0909C121.432 42.197 121.24 42.3627 121.087 42.5881C120.935 42.8101 120.847 43.0968 120.824 43.4482H119.312C119.336 42.8516 119.486 42.3478 119.765 41.9368C120.043 41.5225 120.411 41.2093 120.868 40.9972C121.329 40.785 121.838 40.679 122.395 40.679C123.005 40.679 123.538 40.7933 123.996 41.022C124.453 41.2474 124.808 41.5639 125.06 41.9716C125.315 42.3759 125.442 42.8482 125.442 43.3885C125.442 43.7597 125.384 44.0945 125.268 44.3928C125.152 44.6877 124.987 44.9512 124.771 45.1832C124.559 45.4152 124.304 45.6207 124.006 45.7997C123.724 45.9754 123.495 46.1577 123.319 46.3466C123.147 46.5355 123.021 46.7592 122.942 47.0178C122.862 47.2763 122.819 47.5961 122.812 47.9773V48.0717H121.39ZM122.141 51.0945C121.869 51.0945 121.636 50.9983 121.44 50.8061C121.245 50.6106 121.147 50.3752 121.147 50.1001C121.147 49.8284 121.245 49.5964 121.44 49.4041C121.636 49.2086 121.869 49.1108 122.141 49.1108C122.41 49.1108 122.642 49.2086 122.837 49.4041C123.036 49.5964 123.136 49.8284 123.136 50.1001C123.136 50.2824 123.089 50.4498 122.996 50.6023C122.907 50.7514 122.787 50.8707 122.638 50.9602C122.489 51.0497 122.323 51.0945 122.141 51.0945Z" fill="#212329"/>
<rect x="44.5" y="72.5" width="126.5" height="31" rx="5.5" fill="#EEF5FF"/>
<rect x="44.5" y="72.5" width="126.5" height="31" rx="5.5" stroke="#EDEEF1"/>
<rect x="54.5" y="80.5" width="15" height="15" rx="7.5" fill="#3772FF"/>
<rect x="54.5" y="80.5" width="15" height="15" rx="7.5" stroke="#3772FF"/>
<rect x="58.7998" y="84.8" width="6.4" height="6.4" rx="3.2" fill="white"/>
<path d="M78.3331 82.8182H80.0781L82.7379 87.4467H82.8473L85.5071 82.8182H87.2521L83.5582 89.0028V93H82.027V89.0028L78.3331 82.8182ZM90.5327 93.1541C89.7803 93.1541 89.1323 92.9934 88.5888 92.6719C88.0485 92.3471 87.6309 91.8913 87.3359 91.3047C87.0443 90.7147 86.8984 90.0237 86.8984 89.2315C86.8984 88.4493 87.0443 87.7599 87.3359 87.1634C87.6309 86.5668 88.0419 86.1011 88.5689 85.7663C89.0992 85.4316 89.719 85.2642 90.4283 85.2642C90.8591 85.2642 91.2767 85.3355 91.6811 85.478C92.0854 85.6205 92.4484 85.8442 92.7699 86.1491C93.0914 86.4541 93.3449 86.8501 93.5305 87.3374C93.7161 87.8213 93.8089 88.4096 93.8089 89.1023V89.6293H87.7386V88.5156H92.3523C92.3523 88.1245 92.2727 87.7782 92.1136 87.4766C91.9545 87.1716 91.7308 86.9313 91.4425 86.7557C91.1574 86.58 90.8227 86.4922 90.4382 86.4922C90.0206 86.4922 89.656 86.5949 89.3444 86.8004C89.0362 87.0026 88.7976 87.2678 88.6285 87.5959C88.4628 87.9207 88.38 88.2737 88.38 88.6548V89.5249C88.38 90.0353 88.4694 90.4695 88.6484 90.8274C88.8307 91.1854 89.0843 91.4588 89.4091 91.6477C89.7339 91.8333 90.1134 91.9261 90.5476 91.9261C90.8293 91.9261 91.0862 91.8864 91.3182 91.8068C91.5502 91.724 91.7507 91.6013 91.9197 91.4389C92.0888 91.2765 92.218 91.076 92.3075 90.8374L93.7145 91.0909C93.6018 91.5052 93.3996 91.8681 93.1079 92.1797C92.8196 92.4879 92.4567 92.7282 92.0192 92.9006C91.585 93.0696 91.0895 93.1541 90.5327 93.1541ZM101.097 87.228L99.7493 87.4666C99.6929 87.2943 99.6034 87.1302 99.4808 86.9744C99.3615 86.8187 99.1991 86.6911 98.9936 86.5916C98.7881 86.4922 98.5312 86.4425 98.223 86.4425C97.8021 86.4425 97.4507 86.5369 97.169 86.7259C96.8873 86.9115 96.7464 87.1518 96.7464 87.4467C96.7464 87.7019 96.8409 87.9074 97.0298 88.0632C97.2187 88.219 97.5236 88.3466 97.9446 88.446L99.1576 88.7244C99.8603 88.8868 100.384 89.1371 100.729 89.4751C101.073 89.8132 101.246 90.2524 101.246 90.7926C101.246 91.25 101.113 91.6577 100.848 92.0156C100.586 92.3703 100.22 92.6487 99.7493 92.8509C99.2819 93.053 98.74 93.1541 98.1235 93.1541C97.2684 93.1541 96.5708 92.9718 96.0305 92.6072C95.4903 92.2393 95.1588 91.7173 95.0362 91.0412L96.473 90.8224C96.5625 91.197 96.7464 91.4804 97.0248 91.6726C97.3032 91.8615 97.6662 91.956 98.1136 91.956C98.6008 91.956 98.9903 91.8549 99.2819 91.6527C99.5736 91.4472 99.7194 91.197 99.7194 90.902C99.7194 90.6634 99.6299 90.4628 99.451 90.3004C99.2753 90.138 99.0052 90.0154 98.6406 89.9325L97.348 89.6491C96.6354 89.4867 96.1084 89.2282 95.767 88.8736C95.4289 88.5189 95.2599 88.0698 95.2599 87.5263C95.2599 87.0755 95.3859 86.6811 95.6378 86.343C95.8896 86.005 96.2377 85.7415 96.6818 85.5526C97.1259 85.3603 97.6347 85.2642 98.2081 85.2642C99.0334 85.2642 99.683 85.4432 100.157 85.8011C100.631 86.1558 100.944 86.6314 101.097 87.228Z" fill="#212329"/>
<rect x="180" y="72.5" width="126.5" height="31" rx="5.5" fill="white"/>
<rect x="180" y="72.5" width="126.5" height="31" rx="5.5" stroke="#EDEEF1"/>
<rect x="190" y="80.5" width="15" height="15" rx="7.5" stroke="#B4BAC5"/>
<path d="M222.837 82.8182V93H221.425L216.249 85.5327H216.155V93H214.619V82.8182H216.04L221.221 90.2955H221.315V82.8182H222.837ZM228.091 93.1541C227.375 93.1541 226.75 92.9901 226.217 92.6619C225.683 92.3338 225.269 91.8748 224.974 91.2848C224.679 90.6948 224.531 90.0054 224.531 89.2166C224.531 88.4245 224.679 87.7318 224.974 87.1385C225.269 86.5452 225.683 86.0845 226.217 85.7564C226.75 85.4283 227.375 85.2642 228.091 85.2642C228.807 85.2642 229.432 85.4283 229.965 85.7564C230.499 86.0845 230.913 86.5452 231.208 87.1385C231.503 87.7318 231.651 88.4245 231.651 89.2166C231.651 90.0054 231.503 90.6948 231.208 91.2848C230.913 91.8748 230.499 92.3338 229.965 92.6619C229.432 92.9901 228.807 93.1541 228.091 93.1541ZM228.096 91.9062C228.56 91.9062 228.944 91.7836 229.249 91.5384C229.554 91.2931 229.78 90.9666 229.925 90.5589C230.075 90.1513 230.149 89.7022 230.149 89.2116C230.149 88.7244 230.075 88.277 229.925 87.8693C229.78 87.4583 229.554 87.1286 229.249 86.88C228.944 86.6314 228.56 86.5071 228.096 86.5071C227.629 86.5071 227.241 86.6314 226.933 86.88C226.628 87.1286 226.401 87.4583 226.251 87.8693C226.106 88.277 226.033 88.7244 226.033 89.2116C226.033 89.7022 226.106 90.1513 226.251 90.5589C226.401 90.9666 226.628 91.2931 226.933 91.5384C227.241 91.7836 227.629 91.9062 228.096 91.9062Z" fill="#576072"/>
</g>
<path d="M319 120V119H0V120V121H319V120Z" fill="#E4E7EC" mask="url(#path-4-inside-1_3_5438)"/>
</g>
<rect x="0.5" y="0.5" width="318" height="119" rx="7.5" stroke="#E4E7EC"/>
<defs>
<clipPath id="clip0_3_5438">
<rect width="319" height="120" rx="8" fill="white"/>
</clipPath>
<clipPath id="clip1_3_5438">
<path d="M0 0H319V120H0V0Z" fill="white"/>
</clipPath>
</defs>
</svg>
