<svg width="342" height="73" viewBox="0 0 342 73" fill="none" xmlns="http://www.w3.org/2000/svg">
<path d="M337.146 72.3536C337.342 72.5488 337.658 72.5488 337.854 72.3536L341.036 69.1716C341.231 68.9763 341.231 68.6597 341.036 68.4645C340.84 68.2692 340.524 68.2692 340.328 68.4645L337.5 71.2929L334.672 68.4645C334.476 68.2692 334.16 68.2692 333.964 68.4645C333.769 68.6597 333.769 68.9763 333.964 69.1716L337.146 72.3536ZM317.516 36.9969L317.516 37.4969L317.516 36.9969ZM20.4841 36.7607L20.4837 37.2607L20.4841 36.7607ZM0.500043 0L4.30644e-05 -5.86164e-07L4.06206e-05 2.09509L0.500041 2.09509L1.00004 2.09509L1.00004 5.86164e-07L0.500043 0ZM0.500036 6.28526L3.57032e-05 6.28526L3.07858e-05 10.4754H0.500031L1.00003 10.4754L1.00004 6.28526L0.500036 6.28526ZM0.500026 14.6656L2.58982e-05 14.6656L2.34246e-05 16.7607L0.500023 16.7607H1.00002L1.00003 14.6656H0.500026ZM0.500023 16.7607L2.34246e-05 16.7607C2.262e-05 17.4382 0.0329102 18.1083 0.0972033 18.7692L0.594854 18.7208L1.09251 18.6724C1.03134 18.0436 1.00002 17.4059 1.00002 16.7607H0.500023ZM1.35543 22.5655L0.876891 22.7104C1.26938 24.0066 1.78672 25.2484 2.41489 26.4219L2.85571 26.1859L3.29652 25.95C2.69909 24.8339 2.20715 23.653 1.83397 22.4206L1.35543 22.5655ZM5.0348 29.4434L4.64837 29.7607C5.49983 30.7977 6.45107 31.7497 7.48746 32.602L7.80504 32.2158L8.12263 31.8297C7.13652 31.0187 6.2314 30.1129 5.42124 29.1261L5.0348 29.4434ZM11.0608 34.3975L10.8245 34.8382C11.9974 35.4673 13.2389 35.9856 14.5347 36.3791L14.68 35.9007L14.8253 35.4223C13.5932 35.0481 12.4127 34.5552 11.2971 33.9569L11.0608 34.3975ZM18.5241 36.6643L18.4753 37.1619C19.1362 37.2268 19.8062 37.2602 20.4837 37.2607L20.4841 36.7607L20.4845 36.2607C19.8394 36.2602 19.2017 36.2284 18.5729 36.1667L18.5241 36.6643ZM20.4841 36.7607L20.4837 37.2607L22.4907 37.2623L22.4911 36.7623L22.4915 36.2623L20.4845 36.2607L20.4841 36.7607ZM26.505 36.7655L26.5046 37.2655L30.5186 37.2687L30.519 36.7687L30.5194 36.2687L26.5054 36.2655L26.505 36.7655ZM34.5329 36.7719L34.5325 37.2719L38.5465 37.2751L38.5469 36.7751L38.5473 36.2751L34.5333 36.2719L34.5329 36.7719ZM42.5608 36.7783L42.5604 37.2783L46.5744 37.2815L46.5748 36.7815L46.5751 36.2815L42.5612 36.2783L42.5608 36.7783ZM50.5887 36.7847L50.5883 37.2847L54.6022 37.2878L54.6026 36.7878L54.603 36.2878L50.5891 36.2847L50.5887 36.7847ZM58.6166 36.791L58.6162 37.291L62.6301 37.2942L62.6305 36.7942L62.6309 36.2942L58.617 36.291L58.6166 36.791ZM66.6445 36.7974L66.6441 37.2974L70.658 37.3006L70.6584 36.8006L70.6588 36.3006L66.6449 36.2974L66.6445 36.7974ZM74.6723 36.8038L74.672 37.3038L78.6859 37.307L78.6863 36.807L78.6867 36.307L74.6727 36.3038L74.6723 36.8038ZM82.7002 36.8102L82.6998 37.3102L86.7138 37.3134L86.7142 36.8134L86.7146 36.3134L82.7006 36.3102L82.7002 36.8102ZM90.7281 36.8166L90.7277 37.3166L94.7417 37.3198L94.7421 36.8198L94.7425 36.3198L90.7285 36.3166L90.7281 36.8166ZM98.756 36.823L98.7556 37.3229L102.77 37.3261L102.77 36.8261L102.77 36.3261L98.7564 36.323L98.756 36.823ZM106.784 36.8293L106.784 37.3293L110.797 37.3325L110.798 36.8325L110.798 36.3325L106.784 36.3293L106.784 36.8293ZM114.812 36.8357L114.811 37.3357L118.825 37.3389L118.826 36.8389L118.826 36.3389L114.812 36.3357L114.812 36.8357ZM122.84 36.8421L122.839 37.3421L126.853 37.3453L126.854 36.8453L126.854 36.3453L122.84 36.3421L122.84 36.8421ZM130.868 36.8485L130.867 37.3485L134.881 37.3517L134.882 36.8517L134.882 36.3517L130.868 36.3485L130.868 36.8485ZM138.895 36.8549L138.895 37.3549L142.909 37.3581L142.909 36.8581L142.91 36.3581L138.896 36.3549L138.895 36.8549ZM146.923 36.8612L146.923 37.3612L150.937 37.3644L150.937 36.8644L150.938 36.3644L146.924 36.3612L146.923 36.8612ZM154.951 36.8676L154.951 37.3676L158.965 37.3708L158.965 36.8708L158.966 36.3708L154.952 36.3676L154.951 36.8676ZM162.979 36.874L162.979 37.374L166.993 37.3772L166.993 36.8772L166.993 36.3772L162.98 36.374L162.979 36.874ZM171.007 36.8804L171.007 37.3804L175.021 37.3836L175.021 36.8836L175.021 36.3836L171.007 36.3804L171.007 36.8804ZM179.035 36.8868L179.035 37.3868L183.048 37.39L183.049 36.89L183.049 36.39L179.035 36.3868L179.035 36.8868ZM187.063 36.8932L187.062 37.3932L191.076 37.3964L191.077 36.8964L191.077 36.3964L187.063 36.3932L187.063 36.8932ZM195.091 36.8995L195.09 37.3995L199.104 37.4027L199.105 36.9027L199.105 36.4027L195.091 36.3995L195.091 36.8995ZM203.119 36.9059L203.118 37.4059L207.132 37.4091L207.133 36.9091L207.133 36.4091L203.119 36.4059L203.119 36.9059ZM211.146 36.9123L211.146 37.4123L215.16 37.4155L215.16 36.9155L215.161 36.4155L211.147 36.4123L211.146 36.9123ZM219.174 36.9187L219.174 37.4187L223.188 37.4219L223.188 36.9219L223.189 36.4219L219.175 36.4187L219.174 36.9187ZM227.202 36.9251L227.202 37.4251L231.216 37.4283L231.216 36.9283L231.217 36.4283L227.203 36.4251L227.202 36.9251ZM235.23 36.9315L235.23 37.4315L239.244 37.4347L239.244 36.9347L239.245 36.4347L235.231 36.4315L235.23 36.9315ZM243.258 36.9378L243.258 37.4378L247.272 37.441L247.272 36.941L247.272 36.441L243.258 36.4378L243.258 36.9378ZM251.286 36.9442L251.286 37.4442L255.299 37.4474L255.3 36.9474L255.3 36.4474L251.286 36.4442L251.286 36.9442ZM259.314 36.9506L259.313 37.4506L263.327 37.4538L263.328 36.9538L263.328 36.4538L259.314 36.4506L259.314 36.9506ZM267.342 36.957L267.341 37.457L271.355 37.4602L271.356 36.9602L271.356 36.4602L267.342 36.457L267.342 36.957ZM275.37 36.9634L275.369 37.4634L279.383 37.4666L279.384 36.9666L279.384 36.4666L275.37 36.4634L275.37 36.9634ZM283.397 36.9698L283.397 37.4698L287.411 37.4729L287.411 36.9729L287.412 36.4729L283.398 36.4698L283.397 36.9698ZM291.425 36.9761L291.425 37.4761L295.439 37.4793L295.439 36.9793L295.44 36.4793L291.426 36.4761L291.425 36.9761ZM299.453 36.9825L299.453 37.4825L303.467 37.4857L303.467 36.9857L303.468 36.4857L299.454 36.4825L299.453 36.9825ZM307.481 36.9889L307.481 37.4889L311.495 37.4921L311.495 36.9921L311.496 36.4921L307.482 36.4889L307.481 36.9889ZM315.509 36.9953L315.509 37.4953L317.516 37.4969L317.516 36.9969L317.516 36.4969L315.509 36.4953L315.509 36.9953ZM317.516 36.9969L317.516 37.4969C318.161 37.4974 318.798 37.5292 319.427 37.5909L319.476 37.0933L319.525 36.5957C318.864 36.5308 318.194 36.4974 317.516 36.4969L317.516 36.9969ZM323.32 37.8569L323.175 38.3353C324.407 38.7095 325.587 39.2024 326.703 39.8007L326.939 39.3601L327.176 38.9194C326.003 38.2903 324.761 37.772 323.465 37.3785L323.32 37.8569ZM330.195 41.5418L329.877 41.9279C330.863 42.7389 331.769 43.6447 332.579 44.6315L332.965 44.3142L333.352 43.9969C332.5 42.9599 331.549 42.0079 330.513 41.1556L330.195 41.5418ZM335.144 47.5717L334.703 47.8076C335.301 48.9237 335.793 50.1046 336.166 51.337L336.645 51.1921L337.123 51.0472C336.731 49.751 336.213 48.5092 335.585 47.3357L335.144 47.5717ZM337.405 55.0368L336.908 55.0852C336.969 55.714 337 56.3517 337 56.9969H337.5H338C338 56.3193 337.967 55.6493 337.903 54.9884L337.405 55.0368ZM337.5 56.9969H337V58.8723H337.5H338V56.9969H337.5ZM337.5 62.6231H337V66.3738H337.5H338V62.6231H337.5ZM337.5 70.1246H337V72H337.5H338V70.1246H337.5Z" fill="url(#paint0_linear_1_5741)"/>
<defs>
<linearGradient id="paint0_linear_1_5741" x1="0.5" y1="2.97931" x2="344.111" y2="57.8288" gradientUnits="userSpaceOnUse">
<stop stop-color="#B4BAC5"/>
<stop offset="1" stop-color="#A4C7FF"/>
</linearGradient>
</defs>
</svg>
