<svg width="348" height="73" viewBox="0 0 348 73" fill="none" xmlns="http://www.w3.org/2000/svg">
<path d="M4.03543 72.3536C3.84018 72.5488 3.52359 72.5488 3.32834 72.3536L0.146362 69.1716C-0.0489197 68.9763 -0.0489197 68.6597 0.146362 68.4645C0.341614 68.2692 0.658203 68.2692 0.853455 68.4645L3.68188 71.2929L6.51031 68.4645C6.70557 68.2692 7.02216 68.2692 7.21741 68.4645C7.41269 68.6597 7.41269 68.9763 7.21741 69.1716L4.03543 72.3536ZM23.6663 36.9972L23.6659 36.4972L23.6663 36.9972ZM326.697 36.7604L326.698 37.2604L326.697 36.7604ZM346.682 0L347.182 -5.9834e-07L347.182 2.09505L346.682 2.09505L346.182 2.09505L346.182 5.9834e-07L346.682 0ZM346.682 6.28516L347.182 6.28516L347.182 10.4753L346.682 10.4753H346.182L346.182 6.28516L346.682 6.28516ZM346.682 14.6654L347.182 14.6654L347.182 16.7604L346.682 16.7604H346.182L346.182 14.6654H346.682ZM346.682 16.7604L347.182 16.7604C347.182 17.438 347.149 18.108 347.085 18.769L346.587 18.7206L346.089 18.6721C346.151 18.0433 346.182 17.4056 346.182 16.7604H346.682ZM345.826 22.5653L346.305 22.7102C345.912 24.0064 345.395 25.2482 344.767 26.4217L344.326 26.1857L343.885 25.9498C344.483 24.8337 344.975 23.6528 345.348 22.4204L345.826 22.5653ZM342.147 29.4432L342.533 29.7605C341.682 30.7976 340.731 31.7496 339.694 32.6018L339.377 32.2157L339.059 31.8295C340.045 31.0185 340.95 30.1127 341.761 29.1259L342.147 29.4432ZM336.121 34.3973L336.357 34.838C335.184 35.4671 333.943 35.9854 332.647 36.3789L332.502 35.9005L332.356 35.422C333.588 35.0479 334.769 34.555 335.885 33.9567L336.121 34.3973ZM328.658 36.6641L328.706 37.1617C328.045 37.2265 327.375 37.2599 326.698 37.2604L326.697 36.7604L326.697 36.2604C327.342 36.2599 327.98 36.2281 328.609 36.1665L328.658 36.6641ZM326.697 36.7604L326.698 37.2604L324.704 37.262L324.704 36.762L324.703 36.262L326.697 36.2604L326.697 36.7604ZM320.717 36.7651L320.717 37.2651L316.73 37.2682L316.729 36.7682L316.729 36.2682L320.716 36.2651L320.717 36.7651ZM312.742 36.7713L312.742 37.2713L308.755 37.2745L308.755 36.7745L308.754 36.2745L312.742 36.2713L312.742 36.7713ZM304.768 36.7776L304.768 37.2776L300.781 37.2807L300.78 36.7807L300.78 36.2807L304.767 36.2776L304.768 36.7776ZM296.793 36.7838L296.793 37.2838L292.806 37.2869L292.806 36.7869L292.805 36.2869L296.793 36.2838L296.793 36.7838ZM288.819 36.79L288.819 37.29L284.832 37.2931L284.831 36.7931L284.831 36.2931L288.818 36.29L288.819 36.79ZM280.844 36.7963L280.844 37.2963L276.857 37.2994L276.857 36.7994L276.856 36.2994L280.844 36.2963L280.844 36.7963ZM272.87 36.8025L272.87 37.3025L268.883 37.3056L268.882 36.8056L268.882 36.3056L272.869 36.3025L272.87 36.8025ZM264.895 36.8087L264.895 37.3087L260.908 37.3118L260.908 36.8118L260.907 36.3118L264.895 36.3087L264.895 36.8087ZM256.921 36.8149L256.921 37.3149L252.934 37.3181L252.933 36.8181L252.933 36.3181L256.92 36.3149L256.921 36.8149ZM248.946 36.8212L248.946 37.3212L244.959 37.3243L244.959 36.8243L244.958 36.3243L248.946 36.3212L248.946 36.8212ZM240.972 36.8274L240.972 37.3274L236.985 37.3305L236.984 36.8305L236.984 36.3305L240.971 36.3274L240.972 36.8274ZM232.997 36.8336L232.997 37.3336L229.01 37.3367L229.01 36.8367L229.009 36.3367L232.997 36.3336L232.997 36.8336ZM225.023 36.8399L225.023 37.3399L221.036 37.343L221.035 36.843L221.035 36.343L225.022 36.3399L225.023 36.8399ZM217.048 36.8461L217.048 37.3461L213.061 37.3492L213.061 36.8492L213.06 36.3492L217.048 36.3461L217.048 36.8461ZM209.074 36.8523L209.074 37.3523L205.087 37.3554L205.086 36.8554L205.086 36.3554L209.073 36.3523L209.074 36.8523ZM201.099 36.8585L201.099 37.3585L197.112 37.3617L197.112 36.8617L197.111 36.3617L201.099 36.3585L201.099 36.8585ZM193.125 36.8648L193.125 37.3648L189.138 37.3679L189.137 36.8679L189.137 36.3679L193.124 36.3648L193.125 36.8648ZM185.15 36.871L185.15 37.371L181.163 37.3741L181.163 36.8741L181.162 36.3741L185.15 36.371L185.15 36.871ZM177.176 36.8772L177.176 37.3772L173.189 37.3804L173.188 36.8804L173.188 36.3804L177.175 36.3772L177.176 36.8772ZM169.201 36.8835L169.201 37.3835L165.214 37.3866L165.214 36.8866L165.213 36.3866L169.201 36.3835L169.201 36.8835ZM161.226 36.8897L161.227 37.3897L157.24 37.3928L157.239 36.8928L157.239 36.3928L161.226 36.3897L161.226 36.8897ZM153.252 36.8959L153.252 37.3959L149.265 37.399L149.265 36.899L149.264 36.399L153.252 36.3959L153.252 36.8959ZM145.277 36.9022L145.278 37.4022L141.291 37.4053L141.29 36.9053L141.29 36.4053L145.277 36.4022L145.277 36.9022ZM137.303 36.9084L137.303 37.4084L133.316 37.4115L133.316 36.9115L133.315 36.4115L137.303 36.4084L137.303 36.9084ZM129.328 36.9146L129.329 37.4146L125.342 37.4177L125.341 36.9177L125.341 36.4177L129.328 36.4146L129.328 36.9146ZM121.354 36.9208L121.354 37.4208L117.367 37.424L117.367 36.924L117.366 36.424L121.354 36.4208L121.354 36.9208ZM113.379 36.9271L113.38 37.4271L109.393 37.4302L109.392 36.9302L109.392 36.4302L113.379 36.4271L113.379 36.9271ZM105.405 36.9333L105.405 37.4333L101.418 37.4364L101.418 36.9364L101.417 36.4364L105.404 36.4333L105.405 36.9333ZM97.4304 36.9395L97.4307 37.4395L93.4435 37.4426L93.4431 36.9426L93.4427 36.4426L97.43 36.4395L97.4304 36.9395ZM89.4558 36.9458L89.4562 37.4458L85.469 37.4489L85.4686 36.9489L85.4682 36.4489L89.4554 36.4458L89.4558 36.9458ZM81.4813 36.952L81.4817 37.452L77.4944 37.4551L77.494 36.9551L77.4937 36.4551L81.4809 36.452L81.4813 36.952ZM73.5068 36.9582L73.5072 37.4582L69.5199 37.4613L69.5196 36.9613L69.5192 36.4613L73.5064 36.4582L73.5068 36.9582ZM65.5323 36.9644L65.5327 37.4644L61.5455 37.4676L61.5451 36.9676L61.5447 36.4676L65.5319 36.4644L65.5323 36.9644ZM57.5578 36.9707L57.5582 37.4707L53.571 37.4738L53.5706 36.9738L53.5702 36.4738L57.5574 36.4707L57.5578 36.9707ZM49.5833 36.9769L49.5837 37.4769L45.5965 37.48L45.5961 36.98L45.5957 36.48L49.5829 36.4769L49.5833 36.9769ZM41.6089 36.9831L41.6092 37.4831L37.622 37.4862L37.6216 36.9862L37.6212 36.4862L41.6085 36.4831L41.6089 36.9831ZM33.6344 36.9894L33.6348 37.4894L29.6475 37.4925L29.6471 36.9925L29.6467 36.4925L33.634 36.4894L33.6344 36.9894ZM25.6599 36.9956L25.6603 37.4956L23.6667 37.4972L23.6663 36.9972L23.6659 36.4972L25.6595 36.4956L25.6599 36.9956ZM23.6663 36.9972L23.6667 37.4972C23.0215 37.4977 22.3838 37.5295 21.755 37.5911L21.7062 37.0935L21.6574 36.5959C22.3183 36.5311 22.9883 36.4977 23.6659 36.4972L23.6663 36.9972ZM17.8621 37.8571L18.0074 38.3355C16.7752 38.7097 15.5947 39.2026 14.4791 39.8009L14.2428 39.3602L14.0065 38.9196C15.1795 38.2905 16.4209 37.7722 17.7168 37.3787L17.8621 37.8571ZM10.987 41.5419L11.3046 41.9281C10.3185 42.739 9.41336 43.6449 8.60318 44.6316L8.21674 44.3144L7.83032 43.9971C8.68179 42.96 9.63306 42.008 10.6694 41.1557L10.987 41.5419ZM6.03763 47.5718L6.47842 47.8078C5.88098 48.9239 5.38904 50.1048 5.01587 51.3372L4.53732 51.1923L4.05878 51.0474C4.45126 49.7512 4.96863 48.5094 5.5968 47.3359L6.03763 47.5718ZM3.77673 55.037L4.27438 55.0854C4.2132 55.7143 4.18188 56.352 4.18188 56.9971H3.68188H3.18188C3.18188 56.3196 3.21478 55.6496 3.27908 54.9886L3.77673 55.037ZM3.68188 56.9971H4.18188V58.8725H3.68188H3.18188V56.9971H3.68188ZM3.68188 62.6232H4.18188V66.3739H3.68188H3.18188V62.6232H3.68188ZM3.68188 70.1246H4.18188V72H3.68188H3.18188V70.1246H3.68188Z" fill="url(#paint0_linear_1_5742)"/>
<defs>
<linearGradient id="paint0_linear_1_5742" x1="346.682" y1="2.97931" x2="-3.70117" y2="60.0715" gradientUnits="userSpaceOnUse">
<stop stop-color="#B4BAC5"/>
<stop offset="1" stop-color="#A4C7FF"/>
</linearGradient>
</defs>
</svg>
