<svg width="40" height="40" viewBox="0 0 40 40" fill="none" xmlns="http://www.w3.org/2000/svg">
<path d="M33.4125 11.4125C34.1937 10.6312 34.1937 9.36248 33.4125 8.58123L29.4125 4.58123C28.8375 4.00623 27.9813 3.83748 27.2313 4.14998C26.4813 4.46248 26 5.19373 26 5.99998V7.99998H16C9.375 7.99998 4 13.375 4 20C4 21.1062 4.89375 22 6 22C7.10625 22 8 21.1062 8 20C8 15.5812 11.5813 12 16 12H26V14C26 14.8062 26.4875 15.5375 27.2375 15.85C27.9875 16.1625 28.8438 15.9875 29.4188 15.4187L33.4188 11.4187L33.4125 11.4125ZM6.5875 28.5875C5.80625 29.3687 5.80625 30.6375 6.5875 31.4187L10.5875 35.4187C11.1625 35.9937 12.0188 36.1625 12.7688 35.85C13.5188 35.5375 14 34.8062 14 34V32H24C30.625 32 36 26.625 36 20C36 18.8937 35.1063 18 34 18C32.8937 18 32 18.8937 32 20C32 24.4187 28.4188 28 24 28H14V26C14 25.1937 13.5125 24.4625 12.7625 24.15C12.0125 23.8375 11.1562 24.0125 10.5813 24.5812L6.58125 28.5812L6.5875 28.5875Z" fill="black"/>
<path d="M33.4125 11.4125C34.1937 10.6312 34.1937 9.36248 33.4125 8.58123L29.4125 4.58123C28.8375 4.00623 27.9813 3.83748 27.2313 4.14998C26.4813 4.46248 26 5.19373 26 5.99998V7.99998H16C9.375 7.99998 4 13.375 4 20C4 21.1062 4.89375 22 6 22C7.10625 22 8 21.1062 8 20C8 15.5812 11.5813 12 16 12H26V14C26 14.8062 26.4875 15.5375 27.2375 15.85C27.9875 16.1625 28.8438 15.9875 29.4188 15.4187L33.4188 11.4187L33.4125 11.4125ZM6.5875 28.5875C5.80625 29.3687 5.80625 30.6375 6.5875 31.4187L10.5875 35.4187C11.1625 35.9937 12.0188 36.1625 12.7688 35.85C13.5188 35.5375 14 34.8062 14 34V32H24C30.625 32 36 26.625 36 20C36 18.8937 35.1063 18 34 18C32.8937 18 32 18.8937 32 20C32 24.4187 28.4188 28 24 28H14V26C14 25.1937 13.5125 24.4625 12.7625 24.15C12.0125 23.8375 11.1562 24.0125 10.5813 24.5812L6.58125 28.5812L6.5875 28.5875Z" fill="url(#paint0_linear_1_14522)"/>
<defs>
<linearGradient id="paint0_linear_1_14522" x1="20" y1="36.0048" x2="20" y2="3.99512" gradientUnits="userSpaceOnUse">
<stop stop-color="#EF2929"/>
<stop offset="1" stop-color="#F09C3D"/>
</linearGradient>
</defs>
</svg>
