<svg width="40" height="40" viewBox="0 0 40 40" fill="none" xmlns="http://www.w3.org/2000/svg">
<path d="M20 4C28.8375 4 36 11.1625 36 20C36 28.8375 28.8375 36 20 36C11.1625 36 4 28.8375 4 20C4 11.1625 11.1625 4 20 4ZM18.5 11.5V20C18.5 20.5 18.75 20.9688 19.1688 21.25L25.1688 25.25C25.8563 25.7125 26.7875 25.525 27.25 24.8312C27.7125 24.1375 27.525 23.2125 26.8312 22.75L21.5 19.2V11.5C21.5 10.6687 20.8312 10 20 10C19.1687 10 18.5 10.6687 18.5 11.5Z" fill="black"/>
<path d="M20 4C28.8375 4 36 11.1625 36 20C36 28.8375 28.8375 36 20 36C11.1625 36 4 28.8375 4 20C4 11.1625 11.1625 4 20 4ZM18.5 11.5V20C18.5 20.5 18.75 20.9688 19.1688 21.25L25.1688 25.25C25.8563 25.7125 26.7875 25.525 27.25 24.8312C27.7125 24.1375 27.525 23.2125 26.8312 22.75L21.5 19.2V11.5C21.5 10.6687 20.8312 10 20 10C19.1687 10 18.5 10.6687 18.5 11.5Z" fill="url(#paint0_linear_1_14516)"/>
<defs>
<linearGradient id="paint0_linear_1_14516" x1="20" y1="36" x2="20" y2="4" gradientUnits="userSpaceOnUse">
<stop stop-color="#EF2929"/>
<stop offset="1" stop-color="#F09C3D"/>
</linearGradient>
</defs>
</svg>
