<svg width="40" height="40" viewBox="0 0 40 40" fill="none" xmlns="http://www.w3.org/2000/svg">
<path d="M23.225 5.41877C23.9625 5.98752 24.2063 6.99377 23.8125 7.83752L19.125 18H26C26.8438 18 27.6 18.5313 27.8875 19.3313C28.175 20.1313 27.9188 21.0188 27.2625 21.55L11.2625 34.55C10.5375 35.1375 9.50629 35.15 8.77504 34.575C8.04379 34 7.79379 33 8.18754 32.1563L12.875 22H6.00004C5.15629 22 4.40004 21.4688 4.11254 20.6688C3.82504 19.8688 4.08129 18.9813 4.73754 18.45L20.7375 5.45002C21.4625 4.86252 22.4938 4.85002 23.225 5.42502V5.41877ZM31 22C31.5688 22 32.0875 22.3188 32.3438 22.8313L37.8438 33.8313C38.2125 34.575 37.9125 35.475 37.175 35.8438C36.4375 36.2125 35.5313 35.9125 35.1625 35.175L34.325 33.5063H27.6813L26.8438 35.175C26.475 35.9188 25.575 36.2188 24.8313 35.8438C24.0875 35.4688 23.7875 34.575 24.1625 33.8313L29.6625 22.8313C29.9188 22.325 30.4375 22 31.0063 22H31ZM29.175 30.5H32.8188L30.9938 26.8563L29.1688 30.5H29.175Z" fill="black"/>
<path d="M23.225 5.41877C23.9625 5.98752 24.2063 6.99377 23.8125 7.83752L19.125 18H26C26.8438 18 27.6 18.5313 27.8875 19.3313C28.175 20.1313 27.9188 21.0188 27.2625 21.55L11.2625 34.55C10.5375 35.1375 9.50629 35.15 8.77504 34.575C8.04379 34 7.79379 33 8.18754 32.1563L12.875 22H6.00004C5.15629 22 4.40004 21.4688 4.11254 20.6688C3.82504 19.8688 4.08129 18.9813 4.73754 18.45L20.7375 5.45002C21.4625 4.86252 22.4938 4.85002 23.225 5.42502V5.41877ZM31 22C31.5688 22 32.0875 22.3188 32.3438 22.8313L37.8438 33.8313C38.2125 34.575 37.9125 35.475 37.175 35.8438C36.4375 36.2125 35.5313 35.9125 35.1625 35.175L34.325 33.5063H27.6813L26.8438 35.175C26.475 35.9188 25.575 36.2188 24.8313 35.8438C24.0875 35.4688 23.7875 34.575 24.1625 33.8313L29.6625 22.8313C29.9188 22.325 30.4375 22 31.0063 22H31ZM29.175 30.5H32.8188L30.9938 26.8563L29.1688 30.5H29.175Z" fill="url(#paint0_linear_1_14477)"/>
<defs>
<linearGradient id="paint0_linear_1_14477" x1="20.9986" y1="36.0054" x2="20.9986" y2="5.00146" gradientUnits="userSpaceOnUse">
<stop stop-color="#1B4DF5"/>
<stop offset="1" stop-color="#3DCBFF"/>
</linearGradient>
</defs>
</svg>
