<svg width="40" height="40" viewBox="0 0 40 40" fill="none" xmlns="http://www.w3.org/2000/svg">
<path d="M20 6C14.95 6 10.9063 8.3 7.96255 11.0375C5.03755 13.7563 3.0813 17 2.15005 19.2313C1.9438 19.725 1.9438 20.275 2.15005 20.7687C3.0813 23 5.03755 26.25 7.96255 28.9625C10.9063 31.6938 14.95 34 20 34C25.05 34 29.0938 31.7 32.0375 28.9625C34.9625 26.2437 36.9188 23 37.85 20.7687C38.0563 20.275 38.0563 19.725 37.85 19.2313C36.9188 17 34.9625 13.75 32.0375 11.0375C29.0938 8.30625 25.05 6 20 6ZM11 20C11 15.0312 15.0313 11 20 11C24.9688 11 29 15.0312 29 20C29 24.9688 24.9688 29 20 29C15.0313 29 11 24.9688 11 20ZM20 16C20 18.2063 18.2063 20 16 20C15.2813 20 14.6063 19.8125 14.0188 19.475C13.9563 20.1562 14.0125 20.8562 14.2 21.55C15.0563 24.75 18.35 26.65 21.55 25.7938C24.75 24.9375 26.6501 21.6438 25.7938 18.4438C25.0313 15.5875 22.3251 13.7688 19.475 14.0188C19.8063 14.6 20 15.275 20 16Z" fill="black"/>
<path d="M20 6C14.95 6 10.9063 8.3 7.96255 11.0375C5.03755 13.7563 3.0813 17 2.15005 19.2313C1.9438 19.725 1.9438 20.275 2.15005 20.7687C3.0813 23 5.03755 26.25 7.96255 28.9625C10.9063 31.6938 14.95 34 20 34C25.05 34 29.0938 31.7 32.0375 28.9625C34.9625 26.2437 36.9188 23 37.85 20.7687C38.0563 20.275 38.0563 19.725 37.85 19.2313C36.9188 17 34.9625 13.75 32.0375 11.0375C29.0938 8.30625 25.05 6 20 6ZM11 20C11 15.0312 15.0313 11 20 11C24.9688 11 29 15.0312 29 20C29 24.9688 24.9688 29 20 29C15.0313 29 11 24.9688 11 20ZM20 16C20 18.2063 18.2063 20 16 20C15.2813 20 14.6063 19.8125 14.0188 19.475C13.9563 20.1562 14.0125 20.8562 14.2 21.55C15.0563 24.75 18.35 26.65 21.55 25.7938C24.75 24.9375 26.6501 21.6438 25.7938 18.4438C25.0313 15.5875 22.3251 13.7688 19.475 14.0188C19.8063 14.6 20 15.275 20 16Z" fill="url(#paint0_linear_1_14471)"/>
<defs>
<linearGradient id="paint0_linear_1_14471" x1="20" y1="34" x2="20" y2="6" gradientUnits="userSpaceOnUse">
<stop stop-color="#1B4DF5"/>
<stop offset="1" stop-color="#3DCBFF"/>
</linearGradient>
</defs>
</svg>
