<svg width="40" height="40" viewBox="0 0 40 40" fill="none" xmlns="http://www.w3.org/2000/svg">
<path d="M2.83129 18.4001C3.71254 17.7376 4.96254 17.9126 5.63129 18.7939C5.64379 18.8064 7.03129 20.6189 9.45629 22.3814C11.9875 24.2189 15.5813 26.0001 20.0313 26.0001C24.4813 26.0001 28.075 24.2251 30.6063 22.3814C33.0438 20.6126 34.4313 18.7939 34.4313 18.7939C35.0938 17.9126 36.3438 17.7376 37.2313 18.4001C38.1188 19.0626 38.2938 20.3126 37.6313 21.2001C36.625 22.4251 35.5313 23.5314 34.3313 24.5376L36.8375 28.8814C37.25 29.6001 37.0063 30.5189 36.2875 30.9314C35.5688 31.3439 34.65 31.1001 34.2375 30.3814L31.9063 26.3376C30.8313 27.0376 29.6125 27.7189 28.25 28.3001L29.4813 32.8939C29.6938 33.6939 29.2188 34.5189 28.4188 34.7314C27.6188 34.9439 26.8 34.4689 26.5813 33.6689L25.4063 29.2814C24.1938 29.6064 22.9 29.8376 21.5313 29.9376V34.5001C21.5313 35.3251 20.8563 36.0001 20.0313 36.0001C19.2 36.0001 18.5313 35.3314 18.5313 34.5001V29.9376C17.1625 29.8376 15.8688 29.6064 14.6563 29.2814L13.4813 33.6689C13.2688 34.4689 12.4438 34.9439 11.6438 34.7314C10.8438 34.5189 10.3688 33.6939 10.5813 32.8939L11.8125 28.3001C10.4563 27.7189 9.23129 27.0439 8.16254 26.3439L5.83129 30.3814C5.41879 31.1001 4.50004 31.3439 3.78129 30.9314C3.06254 30.5189 2.81879 29.6001 3.23129 28.8814L5.73129 24.5439C4.53129 23.5314 3.44379 22.4251 2.43129 21.2001C1.76879 20.3126 1.95004 19.0626 2.83129 18.4001Z" fill="black"/>
<path d="M2.83129 18.4001C3.71254 17.7376 4.96254 17.9126 5.63129 18.7939C5.64379 18.8064 7.03129 20.6189 9.45629 22.3814C11.9875 24.2189 15.5813 26.0001 20.0313 26.0001C24.4813 26.0001 28.075 24.2251 30.6063 22.3814C33.0438 20.6126 34.4313 18.7939 34.4313 18.7939C35.0938 17.9126 36.3438 17.7376 37.2313 18.4001C38.1188 19.0626 38.2938 20.3126 37.6313 21.2001C36.625 22.4251 35.5313 23.5314 34.3313 24.5376L36.8375 28.8814C37.25 29.6001 37.0063 30.5189 36.2875 30.9314C35.5688 31.3439 34.65 31.1001 34.2375 30.3814L31.9063 26.3376C30.8313 27.0376 29.6125 27.7189 28.25 28.3001L29.4813 32.8939C29.6938 33.6939 29.2188 34.5189 28.4188 34.7314C27.6188 34.9439 26.8 34.4689 26.5813 33.6689L25.4063 29.2814C24.1938 29.6064 22.9 29.8376 21.5313 29.9376V34.5001C21.5313 35.3251 20.8563 36.0001 20.0313 36.0001C19.2 36.0001 18.5313 35.3314 18.5313 34.5001V29.9376C17.1625 29.8376 15.8688 29.6064 14.6563 29.2814L13.4813 33.6689C13.2688 34.4689 12.4438 34.9439 11.6438 34.7314C10.8438 34.5189 10.3688 33.6939 10.5813 32.8939L11.8125 28.3001C10.4563 27.7189 9.23129 27.0439 8.16254 26.3439L5.83129 30.3814C5.41879 31.1001 4.50004 31.3439 3.78129 30.9314C3.06254 30.5189 2.81879 29.6001 3.23129 28.8814L5.73129 24.5439C4.53129 23.5314 3.44379 22.4251 2.43129 21.2001C1.76879 20.3126 1.95004 19.0626 2.83129 18.4001Z" fill="url(#paint0_linear_1_14447)"/>
<defs>
<linearGradient id="paint0_linear_1_14447" x1="20.0322" y1="36.0001" x2="20.0322" y2="17.9985" gradientUnits="userSpaceOnUse">
<stop stop-color="#EF2929"/>
<stop offset="1" stop-color="#F09C3D"/>
</linearGradient>
</defs>
</svg>
