<svg width="40" height="40" viewBox="0 0 40 40" fill="none" xmlns="http://www.w3.org/2000/svg">
<path d="M4.56252 2.44355C3.97502 1.85605 3.02502 1.85605 2.44377 2.44355C1.86252 3.03105 1.85627 3.98105 2.43752 4.56855L35.4375 37.5686C36.025 38.1561 36.975 38.1561 37.5563 37.5686C38.1375 36.9811 38.1438 36.0311 37.5563 35.4498L31.5313 29.4248C31.7 29.2748 31.8688 29.1248 32.0313 28.9748C34.9563 26.2561 36.9125 23.0123 37.8438 20.7811C38.05 20.2873 38.05 19.7373 37.8438 19.2436C36.9125 17.0123 34.9563 13.7623 32.0313 11.0498C29.0875 8.31855 25.0438 6.0123 19.9938 6.0123C16.4438 6.0123 13.3938 7.1498 10.8688 8.7748L4.56252 2.44355ZM14.7813 12.6686C16.25 11.6186 18.0563 10.9998 20 10.9998C24.9688 10.9998 29 15.0311 29 19.9998C29 21.9436 28.3813 23.7436 27.3313 25.2186L25.1625 23.0498C25.9563 21.7123 26.225 20.0686 25.7938 18.4436C24.9375 15.2436 21.6438 13.3436 18.4438 14.1998C17.9063 14.3436 17.4 14.5561 16.9438 14.8248L14.775 12.6561L14.7813 12.6686ZM22.3313 28.6936C21.5875 28.8936 20.8063 28.9998 20 28.9998C15.0313 28.9998 11 24.9686 11 19.9998C11 19.1936 11.1063 18.4123 11.3063 17.6686L6.33752 12.6998C4.30002 14.9998 2.90002 17.4373 2.15627 19.2311C1.95002 19.7248 1.95002 20.2748 2.15627 20.7686C3.08752 22.9998 5.04377 26.2498 7.96877 28.9623C10.9125 31.6936 14.9563 33.9998 20.0063 33.9998C22.3375 33.9998 24.4563 33.5061 26.35 32.7123L22.3375 28.6998L22.3313 28.6936Z" fill="black"/>
<path d="M4.56252 2.44355C3.97502 1.85605 3.02502 1.85605 2.44377 2.44355C1.86252 3.03105 1.85627 3.98105 2.43752 4.56855L35.4375 37.5686C36.025 38.1561 36.975 38.1561 37.5563 37.5686C38.1375 36.9811 38.1438 36.0311 37.5563 35.4498L31.5313 29.4248C31.7 29.2748 31.8688 29.1248 32.0313 28.9748C34.9563 26.2561 36.9125 23.0123 37.8438 20.7811C38.05 20.2873 38.05 19.7373 37.8438 19.2436C36.9125 17.0123 34.9563 13.7623 32.0313 11.0498C29.0875 8.31855 25.0438 6.0123 19.9938 6.0123C16.4438 6.0123 13.3938 7.1498 10.8688 8.7748L4.56252 2.44355ZM14.7813 12.6686C16.25 11.6186 18.0563 10.9998 20 10.9998C24.9688 10.9998 29 15.0311 29 19.9998C29 21.9436 28.3813 23.7436 27.3313 25.2186L25.1625 23.0498C25.9563 21.7123 26.225 20.0686 25.7938 18.4436C24.9375 15.2436 21.6438 13.3436 18.4438 14.1998C17.9063 14.3436 17.4 14.5561 16.9438 14.8248L14.775 12.6561L14.7813 12.6686ZM22.3313 28.6936C21.5875 28.8936 20.8063 28.9998 20 28.9998C15.0313 28.9998 11 24.9686 11 19.9998C11 19.1936 11.1063 18.4123 11.3063 17.6686L6.33752 12.6998C4.30002 14.9998 2.90002 17.4373 2.15627 19.2311C1.95002 19.7248 1.95002 20.2748 2.15627 20.7686C3.08752 22.9998 5.04377 26.2498 7.96877 28.9623C10.9125 31.6936 14.9563 33.9998 20.0063 33.9998C22.3375 33.9998 24.4563 33.5061 26.35 32.7123L22.3375 28.6998L22.3313 28.6936Z" fill="url(#paint0_linear_1_14528)"/>
<defs>
<linearGradient id="paint0_linear_1_14528" x1="20" y1="38.0092" x2="20" y2="2.00293" gradientUnits="userSpaceOnUse">
<stop stop-color="#EF2929"/>
<stop offset="1" stop-color="#F09C3D"/>
</linearGradient>
</defs>
</svg>
