<svg width="40" height="40" viewBox="0 0 40 40" fill="none" xmlns="http://www.w3.org/2000/svg">
<path d="M7.56249 22.0001H14.0312C16.2375 22.0001 18.0312 23.7939 18.0312 26.0001V32.4689C18.0312 34.0251 19.725 34.9814 21.0625 34.1814L26.575 30.8751C27.4812 30.3314 28.0312 29.3564 28.0312 28.3001V22.3626C36.0875 17.6126 36.4937 10.5189 35.8 5.77513C35.6812 4.97513 35.0562 4.35013 34.2562 4.23138C29.5125 3.53763 22.4187 3.94388 17.6625 12.0001H11.725C10.6687 12.0001 9.69374 12.5501 9.14999 13.4564L5.84999 18.9689C5.04999 20.3064 6.00624 22.0001 7.56249 22.0001ZM28.0312 9.00013C29.6875 9.00013 31.0312 10.3439 31.0312 12.0001C31.0312 13.6564 29.6875 15.0001 28.0312 15.0001C26.375 15.0001 25.0312 13.6564 25.0312 12.0001C25.0312 10.3439 26.375 9.00013 28.0312 9.00013ZM13.5562 33.6001C15.525 31.6314 15.525 28.4439 13.5562 26.4751C11.5875 24.5064 8.39999 24.5064 6.43124 26.4751C4.47499 28.4314 4.08749 32.2251 4.03749 34.3751C4.01249 35.2876 4.73749 36.0126 5.65624 35.9939C7.81249 35.9439 11.6 35.5564 13.5562 33.6001ZM11.0187 31.6001C10.3875 32.2314 9.23749 32.4126 8.43749 32.4564C7.93749 32.4876 7.54374 32.0876 7.56874 31.5876C7.61249 30.7876 7.79999 29.6376 8.42499 29.0064C9.13749 28.2939 10.3 28.2939 11.0125 29.0064C11.725 29.7189 11.725 30.8814 11.0125 31.5939L11.0187 31.6001Z" fill="black"/>
<path d="M7.56249 22.0001H14.0312C16.2375 22.0001 18.0312 23.7939 18.0312 26.0001V32.4689C18.0312 34.0251 19.725 34.9814 21.0625 34.1814L26.575 30.8751C27.4812 30.3314 28.0312 29.3564 28.0312 28.3001V22.3626C36.0875 17.6126 36.4937 10.5189 35.8 5.77513C35.6812 4.97513 35.0562 4.35013 34.2562 4.23138C29.5125 3.53763 22.4187 3.94388 17.6625 12.0001H11.725C10.6687 12.0001 9.69374 12.5501 9.14999 13.4564L5.84999 18.9689C5.04999 20.3064 6.00624 22.0001 7.56249 22.0001ZM28.0312 9.00013C29.6875 9.00013 31.0312 10.3439 31.0312 12.0001C31.0312 13.6564 29.6875 15.0001 28.0312 15.0001C26.375 15.0001 25.0312 13.6564 25.0312 12.0001C25.0312 10.3439 26.375 9.00013 28.0312 9.00013ZM13.5562 33.6001C15.525 31.6314 15.525 28.4439 13.5562 26.4751C11.5875 24.5064 8.39999 24.5064 6.43124 26.4751C4.47499 28.4314 4.08749 32.2251 4.03749 34.3751C4.01249 35.2876 4.73749 36.0126 5.65624 35.9939C7.81249 35.9439 11.6 35.5564 13.5562 33.6001ZM11.0187 31.6001C10.3875 32.2314 9.23749 32.4126 8.43749 32.4564C7.93749 32.4876 7.54374 32.0876 7.56874 31.5876C7.61249 30.7876 7.79999 29.6376 8.42499 29.0064C9.13749 28.2939 10.3 28.2939 11.0125 29.0064C11.725 29.7189 11.725 30.8814 11.0125 31.5939L11.0187 31.6001Z" fill="url(#paint0_linear_1_14483)"/>
<defs>
<linearGradient id="paint0_linear_1_14483" x1="20.0344" y1="35.9942" x2="20.0344" y2="3.99951" gradientUnits="userSpaceOnUse">
<stop stop-color="#1B4DF5"/>
<stop offset="1" stop-color="#3DCBFF"/>
</linearGradient>
</defs>
</svg>
