<svg width="28" height="28" viewBox="0 0 28 28" fill="none" xmlns="http://www.w3.org/2000/svg">
<path d="M14.0039 2.79999C14.2052 2.79999 14.4064 2.84374 14.5858 2.92686L22.8283 6.42249C23.7908 6.82936 24.5083 7.77874 24.5039 8.92499C24.482 13.265 22.6971 21.2056 15.1546 24.815C14.4239 25.165 13.5752 25.165 12.8489 24.815C5.30643 21.2056 3.5258 13.2694 3.50393 8.92499C3.49955 7.77874 4.21705 6.82936 5.17955 6.42249L13.4177 2.92686C13.5971 2.84374 13.7983 2.79999 14.0039 2.79999ZM17.9808 10.0012C17.5127 9.65999 16.8564 9.76499 16.5152 10.2331L12.7702 15.3825L11.6108 14.1837C11.2083 13.7681 10.5433 13.755 10.1277 14.1575C9.71205 14.56 9.69893 15.225 10.1014 15.6406L12.1314 17.7406C12.3458 17.9637 12.6477 18.0819 12.9583 18.06C13.2689 18.0381 13.5533 17.8806 13.7371 17.6312L18.2127 11.4669C18.5539 10.9987 18.4489 10.3425 17.9808 10.0012Z" fill="white"/>
<path d="M14.0039 2.79999C14.2052 2.79999 14.4064 2.84374 14.5858 2.92686L22.8283 6.42249C23.7908 6.82936 24.5083 7.77874 24.5039 8.92499C24.482 13.265 22.6971 21.2056 15.1546 24.815C14.4239 25.165 13.5752 25.165 12.8489 24.815C5.30643 21.2056 3.5258 13.2694 3.50393 8.92499C3.49955 7.77874 4.21705 6.82936 5.17955 6.42249L13.4177 2.92686C13.5971 2.84374 13.7983 2.79999 14.0039 2.79999ZM17.9808 10.0012C17.5127 9.65999 16.8564 9.76499 16.5152 10.2331L12.7702 15.3825L11.6108 14.1837C11.2083 13.7681 10.5433 13.755 10.1277 14.1575C9.71205 14.56 9.69893 15.225 10.1014 15.6406L12.1314 17.7406C12.3458 17.9637 12.6477 18.0819 12.9583 18.06C13.2689 18.0381 13.5533 17.8806 13.7371 17.6312L18.2127 11.4669C18.5539 10.9987 18.4489 10.3425 17.9808 10.0012Z" fill="white"/>
<path d="M14.0039 2.79999C14.2052 2.79999 14.4064 2.84374 14.5858 2.92686L22.8283 6.42249C23.7908 6.82936 24.5083 7.77874 24.5039 8.92499C24.482 13.265 22.6971 21.2056 15.1546 24.815C14.4239 25.165 13.5752 25.165 12.8489 24.815C5.30643 21.2056 3.5258 13.2694 3.50393 8.92499C3.49955 7.77874 4.21705 6.82936 5.17955 6.42249L13.4177 2.92686C13.5971 2.84374 13.7983 2.79999 14.0039 2.79999ZM17.9808 10.0012C17.5127 9.65999 16.8564 9.76499 16.5152 10.2331L12.7702 15.3825L11.6108 14.1837C11.2083 13.7681 10.5433 13.755 10.1277 14.1575C9.71205 14.56 9.69893 15.225 10.1014 15.6406L12.1314 17.7406C12.3458 17.9637 12.6477 18.0819 12.9583 18.06C13.2689 18.0381 13.5533 17.8806 13.7371 17.6312L18.2127 11.4669C18.5539 10.9987 18.4489 10.3425 17.9808 10.0012Z" fill="url(#paint0_linear_23_2945)"/>
<defs>
<linearGradient id="paint0_linear_23_2945" x1="14.0039" y1="25.3196" x2="16.1454" y2="1.03709" gradientUnits="userSpaceOnUse">
<stop stop-color="#00A8D5"/>
<stop offset="1" stop-color="#74E1FF"/>
</linearGradient>
</defs>
</svg>
