<svg width="28" height="28" viewBox="0 0 28 28" fill="none" xmlns="http://www.w3.org/2000/svg">
<path d="M17.8902 6.03647C17.8158 5.59022 17.9602 5.13522 18.2796 4.81584L20.5196 2.57584C20.8783 2.22147 21.4821 2.34834 21.6658 2.81209L22.6721 5.32772L25.1877 6.33397C25.6558 6.52209 25.7783 7.12147 25.4239 7.48022L23.1839 9.72022C22.8646 10.0396 22.4096 10.184 21.9633 10.1096L19.7452 9.74209L14.3158 15.1715C13.9046 15.5827 13.2396 15.5827 12.8327 15.1715C12.4258 14.7602 12.4214 14.0952 12.8327 13.6883L18.2621 8.25897L17.8946 6.04084L17.8902 6.03647ZM21.6702 12.1877C22.6371 12.3321 23.6171 12.0652 24.3739 11.4615C24.6321 12.4065 24.7721 13.3996 24.7721 14.4277C24.7721 20.614 19.7583 25.6277 13.5721 25.6277C7.38582 25.6277 2.37207 20.614 2.37207 14.4277C2.37207 8.24147 7.38582 3.22772 13.5721 3.22772C14.6002 3.22772 15.5933 3.36772 16.5383 3.62584C15.9346 4.38272 15.6677 5.36272 15.8121 6.32959C15.0989 6.13272 14.3508 6.02772 13.5721 6.02772C8.93457 6.02772 5.17207 9.79022 5.17207 14.4277C5.17207 19.0652 8.93457 22.8277 13.5721 22.8277C18.2096 22.8277 21.9721 19.0652 21.9721 14.4277C21.9721 13.6533 21.8671 12.9008 21.6702 12.1877ZM13.5721 8.12772C14.1364 8.12772 14.6833 8.20209 15.2039 8.34209L12.4258 11.1202C11.0564 11.5971 10.0721 12.8965 10.0721 14.4277C10.0721 16.3615 11.6383 17.9277 13.5721 17.9277C15.1033 17.9277 16.4027 16.9433 16.8796 15.574L19.6577 12.7958C19.7977 13.3165 19.8721 13.8633 19.8721 14.4277C19.8721 17.9058 17.0502 20.7277 13.5721 20.7277C10.0939 20.7277 7.27207 17.9058 7.27207 14.4277C7.27207 10.9496 10.0939 8.12772 13.5721 8.12772Z" fill="white"/>
<path d="M17.8902 6.03647C17.8158 5.59022 17.9602 5.13522 18.2796 4.81584L20.5196 2.57584C20.8783 2.22147 21.4821 2.34834 21.6658 2.81209L22.6721 5.32772L25.1877 6.33397C25.6558 6.52209 25.7783 7.12147 25.4239 7.48022L23.1839 9.72022C22.8646 10.0396 22.4096 10.184 21.9633 10.1096L19.7452 9.74209L14.3158 15.1715C13.9046 15.5827 13.2396 15.5827 12.8327 15.1715C12.4258 14.7602 12.4214 14.0952 12.8327 13.6883L18.2621 8.25897L17.8946 6.04084L17.8902 6.03647ZM21.6702 12.1877C22.6371 12.3321 23.6171 12.0652 24.3739 11.4615C24.6321 12.4065 24.7721 13.3996 24.7721 14.4277C24.7721 20.614 19.7583 25.6277 13.5721 25.6277C7.38582 25.6277 2.37207 20.614 2.37207 14.4277C2.37207 8.24147 7.38582 3.22772 13.5721 3.22772C14.6002 3.22772 15.5933 3.36772 16.5383 3.62584C15.9346 4.38272 15.6677 5.36272 15.8121 6.32959C15.0989 6.13272 14.3508 6.02772 13.5721 6.02772C8.93457 6.02772 5.17207 9.79022 5.17207 14.4277C5.17207 19.0652 8.93457 22.8277 13.5721 22.8277C18.2096 22.8277 21.9721 19.0652 21.9721 14.4277C21.9721 13.6533 21.8671 12.9008 21.6702 12.1877ZM13.5721 8.12772C14.1364 8.12772 14.6833 8.20209 15.2039 8.34209L12.4258 11.1202C11.0564 11.5971 10.0721 12.8965 10.0721 14.4277C10.0721 16.3615 11.6383 17.9277 13.5721 17.9277C15.1033 17.9277 16.4027 16.9433 16.8796 15.574L19.6577 12.7958C19.7977 13.3165 19.8721 13.8633 19.8721 14.4277C19.8721 17.9058 17.0502 20.7277 13.5721 20.7277C10.0939 20.7277 7.27207 17.9058 7.27207 14.4277C7.27207 10.9496 10.0939 8.12772 13.5721 8.12772Z" fill="white"/>
<path d="M17.8902 6.03647C17.8158 5.59022 17.9602 5.13522 18.2796 4.81584L20.5196 2.57584C20.8783 2.22147 21.4821 2.34834 21.6658 2.81209L22.6721 5.32772L25.1877 6.33397C25.6558 6.52209 25.7783 7.12147 25.4239 7.48022L23.1839 9.72022C22.8646 10.0396 22.4096 10.184 21.9633 10.1096L19.7452 9.74209L14.3158 15.1715C13.9046 15.5827 13.2396 15.5827 12.8327 15.1715C12.4258 14.7602 12.4214 14.0952 12.8327 13.6883L18.2621 8.25897L17.8946 6.04084L17.8902 6.03647ZM21.6702 12.1877C22.6371 12.3321 23.6171 12.0652 24.3739 11.4615C24.6321 12.4065 24.7721 13.3996 24.7721 14.4277C24.7721 20.614 19.7583 25.6277 13.5721 25.6277C7.38582 25.6277 2.37207 20.614 2.37207 14.4277C2.37207 8.24147 7.38582 3.22772 13.5721 3.22772C14.6002 3.22772 15.5933 3.36772 16.5383 3.62584C15.9346 4.38272 15.6677 5.36272 15.8121 6.32959C15.0989 6.13272 14.3508 6.02772 13.5721 6.02772C8.93457 6.02772 5.17207 9.79022 5.17207 14.4277C5.17207 19.0652 8.93457 22.8277 13.5721 22.8277C18.2096 22.8277 21.9721 19.0652 21.9721 14.4277C21.9721 13.6533 21.8671 12.9008 21.6702 12.1877ZM13.5721 8.12772C14.1364 8.12772 14.6833 8.20209 15.2039 8.34209L12.4258 11.1202C11.0564 11.5971 10.0721 12.8965 10.0721 14.4277C10.0721 16.3615 11.6383 17.9277 13.5721 17.9277C15.1033 17.9277 16.4027 16.9433 16.8796 15.574L19.6577 12.7958C19.7977 13.3165 19.8721 13.8633 19.8721 14.4277C19.8721 17.9058 17.0502 20.7277 13.5721 20.7277C10.0939 20.7277 7.27207 17.9058 7.27207 14.4277C7.27207 10.9496 10.0939 8.12772 13.5721 8.12772Z" fill="url(#paint0_linear_55111_2838)"/>
<defs>
<linearGradient id="paint0_linear_55111_2838" x1="14.0004" y1="25.8805" x2="16.1094" y2="0.51014" gradientUnits="userSpaceOnUse">
<stop stop-color="#00A8D5"/>
<stop offset="1" stop-color="#74E1FF"/>
</linearGradient>
</defs>
</svg>
