<svg width="681" height="73" viewBox="0 0 681 73" fill="none" xmlns="http://www.w3.org/2000/svg">
<path d="M337.146 72.3536C337.342 72.5488 337.658 72.5488 337.854 72.3536L341.036 69.1716C341.231 68.9763 341.231 68.6597 341.036 68.4645C340.84 68.2692 340.524 68.2692 340.328 68.4645L337.5 71.2929L334.672 68.4645C334.476 68.2692 334.16 68.2692 333.964 68.4645C333.769 68.6597 333.769 68.9763 333.964 69.1716L337.146 72.3536ZM317.516 36.9969L317.516 37.4969L317.516 36.9969ZM20.4841 36.7607L20.4837 37.2607L20.4841 36.7607ZM0.500043 0L4.30644e-05 -5.86164e-07L4.06206e-05 2.09509L0.500041 2.09509L1.00004 2.09509L1.00004 5.86164e-07L0.500043 0ZM0.500036 6.28526L3.57032e-05 6.28526L3.07858e-05 10.4754H0.500031L1.00003 10.4754L1.00004 6.28526L0.500036 6.28526ZM0.500026 14.6656L2.58982e-05 14.6656L2.34246e-05 16.7607L0.500023 16.7607H1.00002L1.00003 14.6656H0.500026ZM0.500023 16.7607L2.34246e-05 16.7607C2.262e-05 17.4382 0.0329102 18.1083 0.0972033 18.7692L0.594854 18.7208L1.09251 18.6724C1.03134 18.0436 1.00002 17.4059 1.00002 16.7607H0.500023ZM1.35543 22.5655L0.876891 22.7104C1.26938 24.0066 1.78672 25.2484 2.41489 26.4219L2.85571 26.1859L3.29652 25.95C2.69909 24.8339 2.20715 23.653 1.83397 22.4206L1.35543 22.5655ZM5.0348 29.4434L4.64837 29.7607C5.49983 30.7977 6.45107 31.7497 7.48746 32.602L7.80504 32.2158L8.12263 31.8297C7.13652 31.0187 6.2314 30.1129 5.42124 29.1261L5.0348 29.4434ZM11.0608 34.3975L10.8245 34.8382C11.9974 35.4673 13.2389 35.9856 14.5347 36.3791L14.68 35.9007L14.8253 35.4223C13.5932 35.0481 12.4127 34.5552 11.2971 33.9569L11.0608 34.3975ZM18.5241 36.6643L18.4753 37.1619C19.1362 37.2268 19.8062 37.2602 20.4837 37.2607L20.4841 36.7607L20.4845 36.2607C19.8394 36.2602 19.2017 36.2284 18.5729 36.1667L18.5241 36.6643ZM20.4841 36.7607L20.4837 37.2607L22.4907 37.2623L22.4911 36.7623L22.4915 36.2623L20.4845 36.2607L20.4841 36.7607ZM26.505 36.7655L26.5046 37.2655L30.5186 37.2687L30.519 36.7687L30.5194 36.2687L26.5054 36.2655L26.505 36.7655ZM34.5329 36.7719L34.5325 37.2719L38.5465 37.2751L38.5469 36.7751L38.5473 36.2751L34.5333 36.2719L34.5329 36.7719ZM42.5608 36.7783L42.5604 37.2783L46.5744 37.2815L46.5748 36.7815L46.5751 36.2815L42.5612 36.2783L42.5608 36.7783ZM50.5887 36.7847L50.5883 37.2847L54.6022 37.2878L54.6026 36.7878L54.603 36.2878L50.5891 36.2847L50.5887 36.7847ZM58.6166 36.791L58.6162 37.291L62.6301 37.2942L62.6305 36.7942L62.6309 36.2942L58.617 36.291L58.6166 36.791ZM66.6445 36.7974L66.6441 37.2974L70.658 37.3006L70.6584 36.8006L70.6588 36.3006L66.6449 36.2974L66.6445 36.7974ZM74.6723 36.8038L74.672 37.3038L78.6859 37.307L78.6863 36.807L78.6867 36.307L74.6727 36.3038L74.6723 36.8038ZM82.7002 36.8102L82.6998 37.3102L86.7138 37.3134L86.7142 36.8134L86.7146 36.3134L82.7006 36.3102L82.7002 36.8102ZM90.7281 36.8166L90.7277 37.3166L94.7417 37.3198L94.7421 36.8198L94.7425 36.3198L90.7285 36.3166L90.7281 36.8166ZM98.756 36.823L98.7556 37.3229L102.77 37.3261L102.77 36.8261L102.77 36.3261L98.7564 36.323L98.756 36.823ZM106.784 36.8293L106.784 37.3293L110.797 37.3325L110.798 36.8325L110.798 36.3325L106.784 36.3293L106.784 36.8293ZM114.812 36.8357L114.811 37.3357L118.825 37.3389L118.826 36.8389L118.826 36.3389L114.812 36.3357L114.812 36.8357ZM122.84 36.8421L122.839 37.3421L126.853 37.3453L126.854 36.8453L126.854 36.3453L122.84 36.3421L122.84 36.8421ZM130.868 36.8485L130.867 37.3485L134.881 37.3517L134.882 36.8517L134.882 36.3517L130.868 36.3485L130.868 36.8485ZM138.895 36.8549L138.895 37.3549L142.909 37.3581L142.909 36.8581L142.91 36.3581L138.896 36.3549L138.895 36.8549ZM146.923 36.8612L146.923 37.3612L150.937 37.3644L150.937 36.8644L150.938 36.3644L146.924 36.3612L146.923 36.8612ZM154.951 36.8676L154.951 37.3676L158.965 37.3708L158.965 36.8708L158.966 36.3708L154.952 36.3676L154.951 36.8676ZM162.979 36.874L162.979 37.374L166.993 37.3772L166.993 36.8772L166.993 36.3772L162.98 36.374L162.979 36.874ZM171.007 36.8804L171.007 37.3804L175.021 37.3836L175.021 36.8836L175.021 36.3836L171.007 36.3804L171.007 36.8804ZM179.035 36.8868L179.035 37.3868L183.048 37.39L183.049 36.89L183.049 36.39L179.035 36.3868L179.035 36.8868ZM187.063 36.8932L187.062 37.3932L191.076 37.3964L191.077 36.8964L191.077 36.3964L187.063 36.3932L187.063 36.8932ZM195.091 36.8995L195.09 37.3995L199.104 37.4027L199.105 36.9027L199.105 36.4027L195.091 36.3995L195.091 36.8995ZM203.119 36.9059L203.118 37.4059L207.132 37.4091L207.133 36.9091L207.133 36.4091L203.119 36.4059L203.119 36.9059ZM211.146 36.9123L211.146 37.4123L215.16 37.4155L215.16 36.9155L215.161 36.4155L211.147 36.4123L211.146 36.9123ZM219.174 36.9187L219.174 37.4187L223.188 37.4219L223.188 36.9219L223.189 36.4219L219.175 36.4187L219.174 36.9187ZM227.202 36.9251L227.202 37.4251L231.216 37.4283L231.216 36.9283L231.217 36.4283L227.203 36.4251L227.202 36.9251ZM235.23 36.9315L235.23 37.4315L239.244 37.4347L239.244 36.9347L239.245 36.4347L235.231 36.4315L235.23 36.9315ZM243.258 36.9378L243.258 37.4378L247.272 37.441L247.272 36.941L247.272 36.441L243.258 36.4378L243.258 36.9378ZM251.286 36.9442L251.286 37.4442L255.299 37.4474L255.3 36.9474L255.3 36.4474L251.286 36.4442L251.286 36.9442ZM259.314 36.9506L259.313 37.4506L263.327 37.4538L263.328 36.9538L263.328 36.4538L259.314 36.4506L259.314 36.9506ZM267.342 36.957L267.341 37.457L271.355 37.4602L271.356 36.9602L271.356 36.4602L267.342 36.457L267.342 36.957ZM275.37 36.9634L275.369 37.4634L279.383 37.4666L279.384 36.9666L279.384 36.4666L275.37 36.4634L275.37 36.9634ZM283.397 36.9698L283.397 37.4698L287.411 37.4729L287.411 36.9729L287.412 36.4729L283.398 36.4698L283.397 36.9698ZM291.425 36.9761L291.425 37.4761L295.439 37.4793L295.439 36.9793L295.44 36.4793L291.426 36.4761L291.425 36.9761ZM299.453 36.9825L299.453 37.4825L303.467 37.4857L303.467 36.9857L303.468 36.4857L299.454 36.4825L299.453 36.9825ZM307.481 36.9889L307.481 37.4889L311.495 37.4921L311.495 36.9921L311.496 36.4921L307.482 36.4889L307.481 36.9889ZM315.509 36.9953L315.509 37.4953L317.516 37.4969L317.516 36.9969L317.516 36.4969L315.509 36.4953L315.509 36.9953ZM317.516 36.9969L317.516 37.4969C318.161 37.4974 318.798 37.5292 319.427 37.5909L319.476 37.0933L319.525 36.5957C318.864 36.5308 318.194 36.4974 317.516 36.4969L317.516 36.9969ZM323.32 37.8569L323.175 38.3353C324.407 38.7095 325.587 39.2024 326.703 39.8007L326.939 39.3601L327.176 38.9194C326.003 38.2903 324.761 37.772 323.465 37.3785L323.32 37.8569ZM330.195 41.5418L329.877 41.9279C330.863 42.7389 331.769 43.6447 332.579 44.6315L332.965 44.3142L333.352 43.9969C332.5 42.9599 331.549 42.0079 330.513 41.1556L330.195 41.5418ZM335.144 47.5717L334.703 47.8076C335.301 48.9237 335.793 50.1046 336.166 51.337L336.645 51.1921L337.123 51.0472C336.731 49.751 336.213 48.5092 335.585 47.3357L335.144 47.5717ZM337.405 55.0368L336.908 55.0852C336.969 55.714 337 56.3517 337 56.9969H337.5H338C338 56.3193 337.967 55.6493 337.903 54.9884L337.405 55.0368ZM337.5 56.9969H337V58.8723H337.5H338V56.9969H337.5ZM337.5 62.6231H337V66.3738H337.5H338V62.6231H337.5ZM337.5 70.1246H337V72H337.5H338V70.1246H337.5Z" fill="url(#paint0_linear_55142_9433)"/>
<path d="M337.854 72.3536C337.658 72.5488 337.342 72.5488 337.146 72.3536L333.964 69.1716C333.769 68.9763 333.769 68.6597 333.964 68.4645C334.16 68.2692 334.476 68.2692 334.672 68.4645L337.5 71.2929L340.328 68.4645C340.524 68.2692 340.84 68.2692 341.036 68.4645C341.231 68.6597 341.231 68.9763 341.036 69.1716L337.854 72.3536ZM357.484 36.9972L357.484 36.4972L357.484 36.9972ZM660.516 36.7604L660.516 37.2604L660.516 36.7604ZM680.5 0L681 -5.9834e-07L681 2.09505L680.5 2.09505L680 2.09505L680 5.9834e-07L680.5 0ZM680.5 6.28516L681 6.28516L681 10.4753L680.5 10.4753H680L680 6.28516L680.5 6.28516ZM680.5 14.6654L681 14.6654L681 16.7604L680.5 16.7604H680L680 14.6654H680.5ZM680.5 16.7604L681 16.7604C681 17.438 680.967 18.108 680.903 18.769L680.405 18.7206L679.907 18.6721C679.969 18.0433 680 17.4056 680 16.7604H680.5ZM679.645 22.5653L680.123 22.7102C679.731 24.0064 679.213 25.2482 678.585 26.4217L678.144 26.1857L677.703 25.9498C678.301 24.8337 678.793 23.6528 679.166 22.4204L679.645 22.5653ZM675.965 29.4432L676.352 29.7605C675.5 30.7976 674.549 31.7496 673.512 32.6018L673.195 32.2157L672.877 31.8295C673.863 31.0185 674.769 30.1127 675.579 29.1259L675.965 29.4432ZM669.939 34.3973L670.175 34.838C669.002 35.4671 667.761 35.9854 666.465 36.3789L666.32 35.9005L666.175 35.422C667.407 35.0479 668.587 34.555 669.703 33.9567L669.939 34.3973ZM662.476 36.6641L662.524 37.1617C661.864 37.2265 661.194 37.2599 660.516 37.2604L660.516 36.7604L660.515 36.2604C661.16 36.2599 661.798 36.2281 662.427 36.1665L662.476 36.6641ZM660.516 36.7604L660.516 37.2604L658.522 37.262L658.522 36.762L658.522 36.262L660.515 36.2604L660.516 36.7604ZM654.535 36.7651L654.535 37.2651L650.548 37.2682L650.547 36.7682L650.547 36.2682L654.534 36.2651L654.535 36.7651ZM646.56 36.7713L646.561 37.2713L642.573 37.2745L642.573 36.7745L642.573 36.2745L646.56 36.2713L646.56 36.7713ZM638.586 36.7776L638.586 37.2776L634.599 37.2807L634.598 36.7807L634.598 36.2807L638.585 36.2776L638.586 36.7776ZM630.611 36.7838L630.612 37.2838L626.624 37.2869L626.624 36.7869L626.624 36.2869L630.611 36.2838L630.611 36.7838ZM622.637 36.79L622.637 37.29L618.65 37.2931L618.649 36.7931L618.649 36.2931L622.636 36.29L622.637 36.79ZM614.662 36.7963L614.663 37.2963L610.675 37.2994L610.675 36.7994L610.675 36.2994L614.662 36.2963L614.662 36.7963ZM606.688 36.8025L606.688 37.3025L602.701 37.3056L602.7 36.8056L602.7 36.3056L606.687 36.3025L606.688 36.8025ZM598.713 36.8087L598.714 37.3087L594.726 37.3118L594.726 36.8118L594.726 36.3118L598.713 36.3087L598.713 36.8087ZM590.739 36.8149L590.739 37.3149L586.752 37.3181L586.751 36.8181L586.751 36.3181L590.738 36.3149L590.739 36.8149ZM582.764 36.8212L582.765 37.3212L578.777 37.3243L578.777 36.8243L578.777 36.3243L582.764 36.3212L582.764 36.8212ZM574.79 36.8274L574.79 37.3274L570.803 37.3305L570.802 36.8305L570.802 36.3305L574.789 36.3274L574.79 36.8274ZM566.815 36.8336L566.816 37.3336L562.828 37.3367L562.828 36.8367L562.828 36.3367L566.815 36.3336L566.815 36.8336ZM558.841 36.8399L558.841 37.3399L554.854 37.343L554.853 36.843L554.853 36.343L558.84 36.3399L558.841 36.8399ZM550.866 36.8461L550.867 37.3461L546.879 37.3492L546.879 36.8492L546.879 36.3492L550.866 36.3461L550.866 36.8461ZM542.892 36.8523L542.892 37.3523L538.905 37.3554L538.904 36.8554L538.904 36.3554L542.891 36.3523L542.892 36.8523ZM534.917 36.8585L534.918 37.3585L530.93 37.3617L530.93 36.8617L530.93 36.3617L534.917 36.3585L534.917 36.8585ZM526.943 36.8648L526.943 37.3648L522.956 37.3679L522.955 36.8679L522.955 36.3679L526.942 36.3648L526.943 36.8648ZM518.968 36.871L518.969 37.371L514.981 37.3741L514.981 36.8741L514.98 36.3741L518.968 36.371L518.968 36.871ZM510.994 36.8772L510.994 37.3772L507.007 37.3804L507.006 36.8804L507.006 36.3804L510.993 36.3772L510.994 36.8772ZM503.019 36.8835L503.02 37.3835L499.032 37.3866L499.032 36.8866L499.031 36.3866L503.019 36.3835L503.019 36.8835ZM495.045 36.8897L495.045 37.3897L491.058 37.3928L491.057 36.8928L491.057 36.3928L495.044 36.3897L495.045 36.8897ZM487.07 36.8959L487.07 37.3959L483.083 37.399L483.083 36.899L483.082 36.399L487.07 36.3959L487.07 36.8959ZM479.096 36.9022L479.096 37.4022L475.109 37.4053L475.108 36.9053L475.108 36.4053L479.095 36.4022L479.096 36.9022ZM471.121 36.9084L471.121 37.4084L467.134 37.4115L467.134 36.9115L467.133 36.4115L471.121 36.4084L471.121 36.9084ZM463.147 36.9146L463.147 37.4146L459.16 37.4177L459.159 36.9177L459.159 36.4177L463.146 36.4146L463.147 36.9146ZM455.172 36.9208L455.172 37.4208L451.185 37.424L451.185 36.924L451.184 36.424L455.172 36.4208L455.172 36.9208ZM447.197 36.9271L447.198 37.4271L443.211 37.4302L443.21 36.9302L443.21 36.4302L447.197 36.4271L447.197 36.9271ZM439.223 36.9333L439.223 37.4333L435.236 37.4364L435.236 36.9364L435.235 36.4364L439.223 36.4333L439.223 36.9333ZM431.248 36.9395L431.249 37.4395L427.262 37.4426L427.261 36.9426L427.261 36.4426L431.248 36.4395L431.248 36.9395ZM423.274 36.9458L423.274 37.4458L419.287 37.4489L419.287 36.9489L419.286 36.4489L423.274 36.4458L423.274 36.9458ZM415.299 36.952L415.3 37.452L411.313 37.4551L411.312 36.9551L411.312 36.4551L415.299 36.452L415.299 36.952ZM407.325 36.9582L407.325 37.4582L403.338 37.4613L403.338 36.9613L403.337 36.4613L407.325 36.4582L407.325 36.9582ZM399.35 36.9644L399.351 37.4644L395.364 37.4676L395.363 36.9676L395.363 36.4676L399.35 36.4644L399.35 36.9644ZM391.376 36.9707L391.376 37.4707L387.389 37.4738L387.389 36.9738L387.388 36.4738L391.376 36.4707L391.376 36.9707ZM383.401 36.9769L383.402 37.4769L379.415 37.48L379.414 36.98L379.414 36.48L383.401 36.4769L383.401 36.9769ZM375.427 36.9831L375.427 37.4831L371.44 37.4862L371.44 36.9862L371.439 36.4862L375.427 36.4831L375.427 36.9831ZM367.452 36.9894L367.453 37.4894L363.466 37.4925L363.465 36.9925L363.465 36.4925L367.452 36.4894L367.452 36.9894ZM359.478 36.9956L359.478 37.4956L357.485 37.4972L357.484 36.9972L357.484 36.4972L359.478 36.4956L359.478 36.9956ZM357.484 36.9972L357.485 37.4972C356.84 37.4977 356.202 37.5295 355.573 37.5911L355.524 37.0935L355.476 36.5959C356.136 36.5311 356.806 36.4977 357.484 36.4972L357.484 36.9972ZM351.68 37.8571L351.825 38.3355C350.593 38.7097 349.413 39.2026 348.297 39.8009L348.061 39.3602L347.825 38.9196C348.998 38.2905 350.239 37.7722 351.535 37.3787L351.68 37.8571ZM344.805 41.5419L345.123 41.9281C344.137 42.739 343.231 43.6449 342.421 44.6316L342.035 44.3144L341.648 43.9971C342.5 42.96 343.451 42.008 344.488 41.1557L344.805 41.5419ZM339.856 47.5718L340.297 47.8078C339.699 48.9239 339.207 50.1048 338.834 51.3372L338.355 51.1923L337.877 51.0474C338.269 49.7512 338.787 48.5094 339.415 47.3359L339.856 47.5718ZM337.595 55.037L338.092 55.0854C338.031 55.7143 338 56.352 338 56.9971H337.5H337C337 56.3196 337.033 55.6496 337.097 54.9886L337.595 55.037ZM337.5 56.9971H338V58.8725H337.5H337V56.9971H337.5ZM337.5 62.6232H338V66.3739H337.5H337V62.6232H337.5ZM337.5 70.1246H338V72H337.5H337V70.1246H337.5Z" fill="url(#paint1_linear_55142_9433)"/>
<path d="M337.5 0V71.5" stroke="url(#paint2_linear_55142_9433)" stroke-dasharray="4 4"/>
<defs>
<linearGradient id="paint0_linear_55142_9433" x1="0.5" y1="2.97931" x2="344.111" y2="57.8288" gradientUnits="userSpaceOnUse">
<stop stop-color="#B4BAC5"/>
<stop offset="1" stop-color="#2778F8"/>
</linearGradient>
<linearGradient id="paint1_linear_55142_9433" x1="680.5" y1="2.97931" x2="330.117" y2="60.0715" gradientUnits="userSpaceOnUse">
<stop stop-color="#B4BAC5"/>
<stop offset="1" stop-color="#2778F8"/>
</linearGradient>
<linearGradient id="paint2_linear_55142_9433" x1="338" y1="-0.500001" x2="340.15" y2="-0.391632" gradientUnits="userSpaceOnUse">
<stop stop-color="#B4BAC5"/>
<stop offset="1" stop-color="#2778F8"/>
</linearGradient>
</defs>
</svg>
