<svg width="1000" height="73" viewBox="0 0 1000 73" fill="none" xmlns="http://www.w3.org/2000/svg">
<path d="M499.646 72.3536C499.842 72.5488 500.158 72.5488 500.354 72.3536L503.536 69.1716C503.731 68.9763 503.731 68.6597 503.536 68.4645C503.34 68.2692 503.024 68.2692 502.828 68.4645L500 71.2929L497.172 68.4645C496.976 68.2692 496.66 68.2692 496.464 68.4645C496.269 68.6597 496.269 68.9763 496.464 69.1716L499.646 72.3536ZM480.016 36.9969L480.016 37.4969L480.016 36.9969ZM182.984 36.7607L182.984 37.2607L182.984 36.7607ZM163 0L162.5 -5.86164e-07L162.5 2.09509L163 2.09509L163.5 2.09509L163.5 5.86164e-07L163 0ZM163 6.28526L162.5 6.28526L162.5 10.4754H163L163.5 10.4754L163.5 6.28526L163 6.28526ZM163 14.6656L162.5 14.6656L162.5 16.7607L163 16.7607H163.5L163.5 14.6656H163ZM163 16.7607L162.5 16.7607C162.5 17.4382 162.533 18.1083 162.597 18.7692L163.095 18.7208L163.593 18.6724C163.531 18.0436 163.5 17.4059 163.5 16.7607H163ZM163.855 22.5655L163.377 22.7104C163.769 24.0066 164.287 25.2484 164.915 26.4219L165.356 26.1859L165.797 25.95C165.199 24.8339 164.707 23.653 164.334 22.4206L163.855 22.5655ZM167.535 29.4434L167.148 29.7607C168 30.7977 168.951 31.7497 169.987 32.602L170.305 32.2158L170.623 31.8297C169.637 31.0187 168.731 30.1129 167.921 29.1261L167.535 29.4434ZM173.561 34.3975L173.324 34.8382C174.497 35.4673 175.739 35.9856 177.035 36.3791L177.18 35.9007L177.325 35.4223C176.093 35.0481 174.913 34.5552 173.797 33.9569L173.561 34.3975ZM181.024 36.6643L180.975 37.1619C181.636 37.2268 182.306 37.2602 182.984 37.2607L182.984 36.7607L182.985 36.2607C182.339 36.2602 181.702 36.2284 181.073 36.1667L181.024 36.6643ZM182.984 36.7607L182.984 37.2607L184.991 37.2623L184.991 36.7623L184.991 36.2623L182.985 36.2607L182.984 36.7607ZM189.005 36.7655L189.005 37.2655L193.019 37.2687L193.019 36.7687L193.019 36.2687L189.005 36.2655L189.005 36.7655ZM197.033 36.7719L197.033 37.2719L201.046 37.2751L201.047 36.7751L201.047 36.2751L197.033 36.2719L197.033 36.7719ZM205.061 36.7783L205.06 37.2783L209.074 37.2815L209.075 36.7815L209.075 36.2815L205.061 36.2783L205.061 36.7783ZM213.089 36.7847L213.088 37.2847L217.102 37.2878L217.103 36.7878L217.103 36.2878L213.089 36.2847L213.089 36.7847ZM221.117 36.791L221.116 37.291L225.13 37.2942L225.131 36.7942L225.131 36.2942L221.117 36.291L221.117 36.791ZM229.144 36.7974L229.144 37.2974L233.158 37.3006L233.158 36.8006L233.159 36.3006L229.145 36.2974L229.144 36.7974ZM237.172 36.8038L237.172 37.3038L241.186 37.307L241.186 36.807L241.187 36.307L237.173 36.3038L237.172 36.8038ZM245.2 36.8102L245.2 37.3102L249.214 37.3134L249.214 36.8134L249.215 36.3134L245.201 36.3102L245.2 36.8102ZM253.228 36.8166L253.228 37.3166L257.242 37.3198L257.242 36.8198L257.242 36.3198L253.229 36.3166L253.228 36.8166ZM261.256 36.823L261.256 37.3229L265.27 37.3261L265.27 36.8261L265.27 36.3261L261.256 36.323L261.256 36.823ZM269.284 36.8293L269.284 37.3293L273.297 37.3325L273.298 36.8325L273.298 36.3325L269.284 36.3293L269.284 36.8293ZM277.312 36.8357L277.311 37.3357L281.325 37.3389L281.326 36.8389L281.326 36.3389L277.312 36.3357L277.312 36.8357ZM285.34 36.8421L285.339 37.3421L289.353 37.3453L289.354 36.8453L289.354 36.3453L285.34 36.3421L285.34 36.8421ZM293.368 36.8485L293.367 37.3485L297.381 37.3517L297.382 36.8517L297.382 36.3517L293.368 36.3485L293.368 36.8485ZM301.395 36.8549L301.395 37.3549L305.409 37.3581L305.409 36.8581L305.41 36.3581L301.396 36.3549L301.395 36.8549ZM309.423 36.8612L309.423 37.3612L313.437 37.3644L313.437 36.8644L313.438 36.3644L309.424 36.3612L309.423 36.8612ZM317.451 36.8676L317.451 37.3676L321.465 37.3708L321.465 36.8708L321.466 36.3708L317.452 36.3676L317.451 36.8676ZM325.479 36.874L325.479 37.374L329.493 37.3772L329.493 36.8772L329.493 36.3772L325.48 36.374L325.479 36.874ZM333.507 36.8804L333.507 37.3804L337.521 37.3836L337.521 36.8836L337.521 36.3836L333.507 36.3804L333.507 36.8804ZM341.535 36.8868L341.535 37.3868L345.548 37.39L345.549 36.89L345.549 36.39L341.535 36.3868L341.535 36.8868ZM349.563 36.8932L349.562 37.3932L353.576 37.3964L353.577 36.8964L353.577 36.3964L349.563 36.3932L349.563 36.8932ZM357.591 36.8995L357.59 37.3995L361.604 37.4027L361.605 36.9027L361.605 36.4027L357.591 36.3995L357.591 36.8995ZM365.619 36.9059L365.618 37.4059L369.632 37.4091L369.633 36.9091L369.633 36.4091L365.619 36.4059L365.619 36.9059ZM373.646 36.9123L373.646 37.4123L377.66 37.4155L377.66 36.9155L377.661 36.4155L373.647 36.4123L373.646 36.9123ZM381.674 36.9187L381.674 37.4187L385.688 37.4219L385.688 36.9219L385.689 36.4219L381.675 36.4187L381.674 36.9187ZM389.702 36.9251L389.702 37.4251L393.716 37.4283L393.716 36.9283L393.717 36.4283L389.703 36.4251L389.702 36.9251ZM397.73 36.9315L397.73 37.4315L401.744 37.4347L401.744 36.9347L401.745 36.4347L397.731 36.4315L397.73 36.9315ZM405.758 36.9378L405.758 37.4378L409.772 37.441L409.772 36.941L409.772 36.441L405.758 36.4378L405.758 36.9378ZM413.786 36.9442L413.786 37.4442L417.799 37.4474L417.8 36.9474L417.8 36.4474L413.786 36.4442L413.786 36.9442ZM421.814 36.9506L421.813 37.4506L425.827 37.4538L425.828 36.9538L425.828 36.4538L421.814 36.4506L421.814 36.9506ZM429.842 36.957L429.841 37.457L433.855 37.4602L433.856 36.9602L433.856 36.4602L429.842 36.457L429.842 36.957ZM437.87 36.9634L437.869 37.4634L441.883 37.4666L441.884 36.9666L441.884 36.4666L437.87 36.4634L437.87 36.9634ZM445.897 36.9698L445.897 37.4698L449.911 37.4729L449.911 36.9729L449.912 36.4729L445.898 36.4698L445.897 36.9698ZM453.925 36.9761L453.925 37.4761L457.939 37.4793L457.939 36.9793L457.94 36.4793L453.926 36.4761L453.925 36.9761ZM461.953 36.9825L461.953 37.4825L465.967 37.4857L465.967 36.9857L465.968 36.4857L461.954 36.4825L461.953 36.9825ZM469.981 36.9889L469.981 37.4889L473.995 37.4921L473.995 36.9921L473.996 36.4921L469.982 36.4889L469.981 36.9889ZM478.009 36.9953L478.009 37.4953L480.016 37.4969L480.016 36.9969L480.016 36.4969L478.009 36.4953L478.009 36.9953ZM480.016 36.9969L480.016 37.4969C480.661 37.4974 481.298 37.5292 481.927 37.5909L481.976 37.0933L482.025 36.5957C481.364 36.5308 480.694 36.4974 480.016 36.4969L480.016 36.9969ZM485.82 37.8569L485.675 38.3353C486.907 38.7095 488.087 39.2024 489.203 39.8007L489.439 39.3601L489.676 38.9194C488.503 38.2903 487.261 37.772 485.965 37.3785L485.82 37.8569ZM492.695 41.5418L492.377 41.9279C493.363 42.7389 494.269 43.6447 495.079 44.6315L495.465 44.3142L495.852 43.9969C495 42.9599 494.049 42.0079 493.013 41.1556L492.695 41.5418ZM497.644 47.5717L497.203 47.8076C497.801 48.9237 498.293 50.1046 498.666 51.337L499.145 51.1921L499.623 51.0472C499.231 49.751 498.713 48.5092 498.085 47.3357L497.644 47.5717ZM499.905 55.0368L499.408 55.0852C499.469 55.714 499.5 56.3517 499.5 56.9969H500H500.5C500.5 56.3193 500.467 55.6493 500.403 54.9884L499.905 55.0368ZM500 56.9969H499.5V58.8723H500H500.5V56.9969H500ZM500 62.6231H499.5V66.3738H500H500.5V62.6231H500ZM500 70.1246H499.5V72H500H500.5V70.1246H500Z" fill="url(#paint0_linear_1_5740)"/>
<path d="M500.354 72.3536C500.158 72.5488 499.842 72.5488 499.646 72.3536L496.464 69.1716C496.269 68.9763 496.269 68.6597 496.464 68.4645C496.66 68.2692 496.976 68.2692 497.172 68.4645L500 71.2929L502.828 68.4645C503.024 68.2692 503.34 68.2692 503.536 68.4645C503.731 68.6597 503.731 68.9763 503.536 69.1716L500.354 72.3536ZM519.984 36.9972L519.984 36.4972L519.984 36.9972ZM823.016 36.7604L823.016 37.2604L823.016 36.7604ZM843 0L843.5 -5.9834e-07L843.5 2.09505L843 2.09505L842.5 2.09505L842.5 5.9834e-07L843 0ZM843 6.28516L843.5 6.28516L843.5 10.4753L843 10.4753H842.5L842.5 6.28516L843 6.28516ZM843 14.6654L843.5 14.6654L843.5 16.7604L843 16.7604H842.5L842.5 14.6654H843ZM843 16.7604L843.5 16.7604C843.5 17.438 843.467 18.108 843.403 18.769L842.905 18.7206L842.407 18.6721C842.469 18.0433 842.5 17.4056 842.5 16.7604H843ZM842.145 22.5653L842.623 22.7102C842.231 24.0064 841.713 25.2482 841.085 26.4217L840.644 26.1857L840.203 25.9498C840.801 24.8337 841.293 23.6528 841.666 22.4204L842.145 22.5653ZM838.465 29.4432L838.852 29.7605C838 30.7976 837.049 31.7496 836.012 32.6018L835.695 32.2157L835.377 31.8295C836.363 31.0185 837.269 30.1127 838.079 29.1259L838.465 29.4432ZM832.439 34.3973L832.675 34.838C831.502 35.4671 830.261 35.9854 828.965 36.3789L828.82 35.9005L828.675 35.422C829.907 35.0479 831.087 34.555 832.203 33.9567L832.439 34.3973ZM824.976 36.6641L825.024 37.1617C824.364 37.2265 823.694 37.2599 823.016 37.2604L823.016 36.7604L823.015 36.2604C823.66 36.2599 824.298 36.2281 824.927 36.1665L824.976 36.6641ZM823.016 36.7604L823.016 37.2604L821.022 37.262L821.022 36.762L821.022 36.262L823.015 36.2604L823.016 36.7604ZM817.035 36.7651L817.035 37.2651L813.048 37.2682L813.047 36.7682L813.047 36.2682L817.034 36.2651L817.035 36.7651ZM809.06 36.7713L809.061 37.2713L805.073 37.2745L805.073 36.7745L805.073 36.2745L809.06 36.2713L809.06 36.7713ZM801.086 36.7776L801.086 37.2776L797.099 37.2807L797.098 36.7807L797.098 36.2807L801.085 36.2776L801.086 36.7776ZM793.111 36.7838L793.112 37.2838L789.124 37.2869L789.124 36.7869L789.124 36.2869L793.111 36.2838L793.111 36.7838ZM785.137 36.79L785.137 37.29L781.15 37.2931L781.149 36.7931L781.149 36.2931L785.136 36.29L785.137 36.79ZM777.162 36.7963L777.163 37.2963L773.175 37.2994L773.175 36.7994L773.175 36.2994L777.162 36.2963L777.162 36.7963ZM769.188 36.8025L769.188 37.3025L765.201 37.3056L765.2 36.8056L765.2 36.3056L769.187 36.3025L769.188 36.8025ZM761.213 36.8087L761.214 37.3087L757.226 37.3118L757.226 36.8118L757.226 36.3118L761.213 36.3087L761.213 36.8087ZM753.239 36.8149L753.239 37.3149L749.252 37.3181L749.251 36.8181L749.251 36.3181L753.238 36.3149L753.239 36.8149ZM745.264 36.8212L745.265 37.3212L741.277 37.3243L741.277 36.8243L741.277 36.3243L745.264 36.3212L745.264 36.8212ZM737.29 36.8274L737.29 37.3274L733.303 37.3305L733.302 36.8305L733.302 36.3305L737.289 36.3274L737.29 36.8274ZM729.315 36.8336L729.316 37.3336L725.328 37.3367L725.328 36.8367L725.328 36.3367L729.315 36.3336L729.315 36.8336ZM721.341 36.8399L721.341 37.3399L717.354 37.343L717.353 36.843L717.353 36.343L721.34 36.3399L721.341 36.8399ZM713.366 36.8461L713.367 37.3461L709.379 37.3492L709.379 36.8492L709.379 36.3492L713.366 36.3461L713.366 36.8461ZM705.392 36.8523L705.392 37.3523L701.405 37.3554L701.404 36.8554L701.404 36.3554L705.391 36.3523L705.392 36.8523ZM697.417 36.8585L697.418 37.3585L693.43 37.3617L693.43 36.8617L693.43 36.3617L697.417 36.3585L697.417 36.8585ZM689.443 36.8648L689.443 37.3648L685.456 37.3679L685.455 36.8679L685.455 36.3679L689.442 36.3648L689.443 36.8648ZM681.468 36.871L681.469 37.371L677.481 37.3741L677.481 36.8741L677.48 36.3741L681.468 36.371L681.468 36.871ZM673.494 36.8772L673.494 37.3772L669.507 37.3804L669.506 36.8804L669.506 36.3804L673.493 36.3772L673.494 36.8772ZM665.519 36.8835L665.52 37.3835L661.532 37.3866L661.532 36.8866L661.531 36.3866L665.519 36.3835L665.519 36.8835ZM657.545 36.8897L657.545 37.3897L653.558 37.3928L653.557 36.8928L653.557 36.3928L657.544 36.3897L657.545 36.8897ZM649.57 36.8959L649.57 37.3959L645.583 37.399L645.583 36.899L645.582 36.399L649.57 36.3959L649.57 36.8959ZM641.596 36.9022L641.596 37.4022L637.609 37.4053L637.608 36.9053L637.608 36.4053L641.595 36.4022L641.596 36.9022ZM633.621 36.9084L633.621 37.4084L629.634 37.4115L629.634 36.9115L629.633 36.4115L633.621 36.4084L633.621 36.9084ZM625.647 36.9146L625.647 37.4146L621.66 37.4177L621.659 36.9177L621.659 36.4177L625.646 36.4146L625.647 36.9146ZM617.672 36.9208L617.672 37.4208L613.685 37.424L613.685 36.924L613.684 36.424L617.672 36.4208L617.672 36.9208ZM609.697 36.9271L609.698 37.4271L605.711 37.4302L605.71 36.9302L605.71 36.4302L609.697 36.4271L609.697 36.9271ZM601.723 36.9333L601.723 37.4333L597.736 37.4364L597.736 36.9364L597.735 36.4364L601.723 36.4333L601.723 36.9333ZM593.748 36.9395L593.749 37.4395L589.762 37.4426L589.761 36.9426L589.761 36.4426L593.748 36.4395L593.748 36.9395ZM585.774 36.9458L585.774 37.4458L581.787 37.4489L581.787 36.9489L581.786 36.4489L585.774 36.4458L585.774 36.9458ZM577.799 36.952L577.8 37.452L573.813 37.4551L573.812 36.9551L573.812 36.4551L577.799 36.452L577.799 36.952ZM569.825 36.9582L569.825 37.4582L565.838 37.4613L565.838 36.9613L565.837 36.4613L569.825 36.4582L569.825 36.9582ZM561.85 36.9644L561.851 37.4644L557.864 37.4676L557.863 36.9676L557.863 36.4676L561.85 36.4644L561.85 36.9644ZM553.876 36.9707L553.876 37.4707L549.889 37.4738L549.889 36.9738L549.888 36.4738L553.876 36.4707L553.876 36.9707ZM545.901 36.9769L545.902 37.4769L541.915 37.48L541.914 36.98L541.914 36.48L545.901 36.4769L545.901 36.9769ZM537.927 36.9831L537.927 37.4831L533.94 37.4862L533.94 36.9862L533.939 36.4862L537.927 36.4831L537.927 36.9831ZM529.952 36.9894L529.953 37.4894L525.966 37.4925L525.965 36.9925L525.965 36.4925L529.952 36.4894L529.952 36.9894ZM521.978 36.9956L521.978 37.4956L519.985 37.4972L519.984 36.9972L519.984 36.4972L521.978 36.4956L521.978 36.9956ZM519.984 36.9972L519.985 37.4972C519.34 37.4977 518.702 37.5295 518.073 37.5911L518.024 37.0935L517.976 36.5959C518.636 36.5311 519.306 36.4977 519.984 36.4972L519.984 36.9972ZM514.18 37.8571L514.325 38.3355C513.093 38.7097 511.913 39.2026 510.797 39.8009L510.561 39.3602L510.325 38.9196C511.498 38.2905 512.739 37.7722 514.035 37.3787L514.18 37.8571ZM507.305 41.5419L507.623 41.9281C506.637 42.739 505.731 43.6449 504.921 44.6316L504.535 44.3144L504.148 43.9971C505 42.96 505.951 42.008 506.988 41.1557L507.305 41.5419ZM502.356 47.5718L502.797 47.8078C502.199 48.9239 501.707 50.1048 501.334 51.3372L500.855 51.1923L500.377 51.0474C500.769 49.7512 501.287 48.5094 501.915 47.3359L502.356 47.5718ZM500.095 55.037L500.592 55.0854C500.531 55.7143 500.5 56.352 500.5 56.9971H500H499.5C499.5 56.3196 499.533 55.6496 499.597 54.9886L500.095 55.037ZM500 56.9971H500.5V58.8725H500H499.5V56.9971H500ZM500 62.6232H500.5V66.3739H500H499.5V62.6232H500ZM500 70.1246H500.5V72H500H499.5V70.1246H500Z" fill="url(#paint1_linear_1_5740)"/>
<path d="M500 0V71.5" stroke="url(#paint2_linear_1_5740)" stroke-dasharray="4 4"/>
<defs>
<linearGradient id="paint0_linear_1_5740" x1="163" y1="2.97931" x2="506.611" y2="57.8288" gradientUnits="userSpaceOnUse">
<stop stop-color="#B4BAC5"/>
<stop offset="1" stop-color="#A4C7FF"/>
</linearGradient>
<linearGradient id="paint1_linear_1_5740" x1="843" y1="2.97931" x2="492.617" y2="60.0715" gradientUnits="userSpaceOnUse">
<stop stop-color="#B4BAC5"/>
<stop offset="1" stop-color="#A4C7FF"/>
</linearGradient>
<linearGradient id="paint2_linear_1_5740" x1="500.5" y1="-0.500001" x2="502.65" y2="-0.391632" gradientUnits="userSpaceOnUse">
<stop stop-color="#B4BAC5"/>
<stop offset="1" stop-color="#A4C7FF"/>
</linearGradient>
</defs>
</svg>
