<svg width="652" height="73" viewBox="0 0 652 73" fill="none" xmlns="http://www.w3.org/2000/svg">
<path d="M1.00004 0.5L1.00002 17.2448C1.00001 28.2905 9.95432 37.2448 21 37.2448H305C316.046 37.2448 325 46.1991 325 57.2448L325 72.5" stroke="#B4BAC5" stroke-dasharray="4 4"/>
<path d="M651 0.5L651 17.2448C651 28.2905 642.046 37.2448 631 37.2448H345C333.954 37.2448 325 46.1991 325 57.2448L325 72.5" stroke="#B4BAC5" stroke-dasharray="4 4"/>
<path d="M217 0L217 18C217 28.4934 225.507 37 236 37" stroke="#B4BAC5" stroke-dasharray="4 4"/>
<path d="M433 0C433 5.40173 433 11.9356 433 18.0003C433 28.4937 424.493 37 414 37" stroke="#B4BAC5" stroke-dasharray="4 4"/>
</svg>
